<?xml version="1.0" encoding="UTF-8" standalone="no"?>
<svg xmlns:rdf="http://www.w3.org/1999/02/22-rdf-syntax-ns#" xmlns="http://www.w3.org/2000/svg" viewBox="0 0 640.00061 134.11456" height="134.11pt" width="640pt" version="1.1" xmlns:cc="http://creativecommons.org/ns#" xmlns:dc="http://purl.org/dc/elements/1.1/">
 <g fill="#8c1515" transform="translate(-40,-40)">
  <path d="m389.92 53.927c5.1878-8.9838 15.636-13.72 25.758-13.81 9.2368-0.59651 19.685 0.93995 26.156 8.2427-3.2898 4.3382-6.4351 8.7669-9.7249 13.105-3.6694-4.2117-6.6881-10.141-12.617-11.334-5.8386-1.8076-13.177 1.2292-14.696 7.4835-2.4583 9.9237-0.97611 20.299-1.3376 30.422h18.962v11.298h-18.98c0 17.028 0 34.055-0.0181 51.083-0.0723 4.8263 0.70496 9.5984 1.6088 14.334 4.3382 2.0064 9.0199 3.0368 13.81 3.1272-0.0181 1.1749-0.0362 3.5429-0.0542 4.7359-15.509-1.0123-31.037-1.3196-46.528-0.0181 0-0.99418 0.0361-2.9825 0.0361-3.9767 4.8986-0.86765 10.972-3.1452 11.171-9.038 1.898-20.01 0.61459-40.165 0.99418-60.247-3.7779 0-7.5558 0-11.334-0.01808 0.0181-1.6991 0.0542-3.4164 0.0723-5.1155 3.8321-1.7715 7.5739-3.7417 11.261-5.7663 0-11.605-0.68689-24.15 5.459-34.507z"/>
  <path d="m669.5 40.099c-10.032 2.3137-20.19 4.2653-30.494 4.7172-0.10846 0.93995-0.30804 2.8194-0.39844 3.7594 3.8321 1.1569 10.087 0.85106 10.358 6.2016 1.5365 10.846 0.45207 21.852 0.75937 32.77-14.768-2.5306-31.272-2.3679-43.834 6.8328-13.756 9.6345-18.474 27.603-17.1 43.619 0.77726 12.418 6.9949 25.162 18.256 31.217 13.412 7.375 30.567 5.8567 43.13-2.6391 0.0904 2.5126 0.1444 5.0249 0.1625 7.5375 9.7249-2.4764 19.668-3.8684 29.664-4.4469v-4.3391c-14.167-2.4126-10.25-8.969-11.244-20.117 0.0181-35.031-0.5247-70.081 0.74063-105.11zm-36.752 56.492c5.982-0.06335 12.066 1.8478 16.977 5.1828 0.0181 18.853-0.0365 37.706 0.0359 56.559-10.52 4.8263-24.746 4.4827-32.989-4.4469-7.0677-7.5558-8.2608-18.618-7.6281-28.488 0.70498-8.9838 2.5863-19.251 10.431-24.819 3.9304-2.6967 8.5208-3.9398 13.173-3.9891z"/>
  <path d="m73.206 51.613c11.912-0.72304 23.86 0.05423 35.646 1.7172-0.70497 8.3873-0.63266 16.829 0.0181 25.216-1.1388 0-3.4164 0.01808-4.5552 0.01808-0.9038-5.242-1.8438-11.605-7.4293-13.937-8.2788-3.4887-17.968-3.8321-26.554-1.3376-11.225 3.326-13.069 19.847-4.7178 27.06 10.448 9.1465 23.246 15.13 33.947 24.005 16.756 13.34 14.569 44.395-5.3144 53.74-16.738 7.7365-36.387 5.7843-53.668 0.92188 0.108-8.31-0.199-16.62-0.579-24.92 1.2472-0.0181 3.7598-0.0723 5.0251-0.0904 0.88573 5.224 1.6991 11.641 6.9954 14.334 9.4718 5.3144 21.691 5.7482 31.525 1.1749 12.274-6.7785 10.014-26.373-1.4642-32.971-9.96-7.67-21.402-13.34-30.603-22-10.195-9.472-11.46-26.066-4.898-37.906 5.368-9.436 16.196-14.153 26.626-15.021z"/>
  <path d="m143.9 69.382c0.93996 0.05423 2.8379 0.14461 3.7779 0.19884-0.0181 6.3085-0.0181 12.599-0.0181 18.908h28.922v10.846h-28.922c0.10845 15.184-0.23499 30.386 0.16268 45.588 0.39768 5.7843 0.56036 12.997 5.9651 16.54 6.8147 4.049 14.967 1.5184 21.782-1.1388 2.0968 5.1336-3.2356 8.0077-6.9412 10.141-8.6946 4.2117-19.305 4.6636-28.289 1.1569-7.6823-2.8741-11.388-11.279-11.786-18.98-0.92187-17.751 0-35.537 0.14461-53.306h-11.298c-0.0181-1.193-0.0361-2.368-0.0542-3.5429 12.274-4.6275 20.552-15.202 26.554-26.409z"/>
  <path d="m221.3 85.621c-13.032-0.13393-26.175 6.3391-30.362 19.425 1.1388 0.65074 3.4525 1.9336 4.6094 2.5844 5.007-8.8392 16.702-13.376 25.92-8.2781 7.2304 3.2898 7.8462 12.128 7.7016 19.052-11.37 3.6514-23.138 6.526-33.875 11.877-12.87 6.7966-14.533 26.065-5.3141 36.495 10.864 9.9599 28.994 8.3504 39.731-1.0672 3.2718 6.4712 11.008 8.948 17.75 7.05 5.8747-1.1388 9.7607-6.0372 13.611-10.177-0.66883-0.75919-2.0234-2.2962-2.6922-3.0734-2.4222 0.61459-5.1524 2.5306-7.5203 0.66875-3.0729-2.1149-2.694-6.3626-2.9109-9.6344 0.21696-14.027 0.99424-28.089 0.25312-42.134-0.36152-7.2666-3.6149-14.697-10.05-18.511-5.0274-2.7905-10.928-4.2157-16.852-4.2766zm7.6688 43.737c0.0723 9.4538 0.0008 18.907 0.0734 28.361-6.0555 2.6933-13.25 5.1879-19.631 2.0969-7.8088-4.1575-7.4828-16.593-1.0297-21.817 6.2001-4.2659 13.556-6.2727 20.588-8.6406z"/>
  <path d="m470.43 85.976c-9.5261 0.10846-19.36 2.4765-26.808 8.6766-11.081 8.9657-15.888 23.788-15.4 37.706-0.0542 11.912 3.6513 24.62 13.033 32.538 11.081 9.6526 27.186 10.61 40.978 7.7359 14.551-3.1995 25.487-15.943 28.578-30.223 3.326-14.822 1.9339-32.048-8.2609-44.014-7.845-9.1826-20.407-12.654-32.12-12.419zm0.12657 10.117c5.1193 0.09956 10.185 2.202 13.466 6.2781 5.947 7.2846 7.538 17.082 7.9719 26.228 0.0723 9.9599-1.1932 20.714-7.4656 28.848-6.1639 7.9715-19.449 8.8574-26.553 1.6812-5.4409-5.0432-7.4661-12.544-8.6953-19.594-1.2834-9.3634-0.95733-19.107 1.9891-28.127 2.0607-6.0374 6.0732-12.147 12.436-14.208 2.1861-0.78518 4.5246-1.1531 6.8516-1.1078z"/>
  <path d="m267.87 91.724c10.105-0.16268 20.354-1.2111 29.681-5.3867 0.32537 2.4041 0.57843 4.8082 0.77727 7.2485 10.719-7.0135 24.565-9.743 36.839-5.4047 8.785 2.9464 14.931 11.551 15.708 20.661 1.8076 17.335-0.81342 34.905 1.5003 52.204 0.25307 5.4409 6.1097 6.6701 10.358 7.5558 0.0181 1.0123 0.0181 3.0368 0.0361 4.049-14.352-1.1388-43.093-0.0542-43.093-0.0542l-0.0543-4.0987s10.367-2.9148 11.026-5.8974c2.368-12.87 1.8076-26.174 1.6811-39.243-0.46997-7.8088-0.27114-17.57-7.7365-22.324-8.0077-4.6094-17.823-2.4764-26.011 0.50613 0.0542 16.919 0 33.856 0 50.776 0.23499 4.519-0.0904 9.6707 2.856 13.43 2.4764 1.7172 5.5855 2.0245 8.4234 2.8199 0.0181 1.0123 0.0361 3.0548 0.0361 4.0852-14.154-0.92188-28.343-1.5184-42.479-0.0181 0-1.0123 0.0362-3.0187 0.0362-4.0129 4.3021-0.99418 9.978-2.3499 10.791-7.5558 1.9703-12.472 0.4519-25.216 0.92187-37.797-0.18076-7.1762 0.61459-14.443-0.65073-21.529-0.99419-4.8444-6.905-4.5732-10.629-5.5313 0-1.1207-0.0181-3.3621-0.0181-4.4829z"/>
  <path d="m520.46 91.344c10.123-0.14461 20.245-1.5184 29.862-4.754l0.27114 7.4473c9.7249-7.8269 24.385-9.8153 34.742-2.0607l-10.8 16.484c-5.0432-7.7727-15.274-9.6526-23.354-5.694 0 0-0.0542 34.218 0.0542 51.318 0.41574 3.814-0.18076 8.7669 3.3983 11.261 3.4525 2.0245 7.6462 1.9161 11.496 2.5306 0 1.1749-0.0181 3.561-0.0181 4.7359-15.527-1.0484-31.091-1.2653-46.618-0.0362l-0.003-4.6996c5.0052-0.85351 10.216-2.585 10.975-5.5676 2.151-7.3569 1.1026-15.148 1.3196-22.722-0.21692-12.057 0.43382-24.132-0.28922-36.17-0.0542-5.8566-6.6881-6.3808-10.99-7.2304 0.007-1.6601-0.0291-3.3648-0.0358-4.8443z"/>
 </g>
</svg>
