<svg width="30" height="30" viewBox="0 0 30 30" fill="none" xmlns="http://www.w3.org/2000/svg">
<path d="M27.6576 7.4646C27.9501 8.05537 28.1189 8.71691 28.1189 9.42152V23.7261C28.1189 26.1261 26.2075 28.0769 23.856 28.0769H9.83732C9.14693 28.0769 8.49574 27.9046 7.91992 27.6061C8.62236 29.0246 10.0604 30 11.7215 30H25.7372C28.0887 30 30.0001 28.0492 30.0001 25.6492V11.3446C30.0001 9.64921 29.0444 8.18152 27.6546 7.4646H27.6576Z" fill="#B5F0E5"/>
<path d="M22.0624 26.44C24.4139 26.44 26.3253 24.4892 26.3253 22.0892V7.78151C26.3253 7.52305 26.2982 7.27382 26.256 7.02767C26.1595 6.47382 25.9635 5.9569 25.6832 5.49536C25.2701 4.81536 24.6823 4.26151 23.9798 3.89844C24.1667 4.27382 24.2994 4.6769 24.3717 5.10459C24.4139 5.35075 24.4411 5.59998 24.4411 5.85844V20.1631C24.4411 22.5631 22.5297 24.5138 20.1782 24.5138H6.16251C5.98766 24.5138 5.8128 24.4984 5.64397 24.4769C5.14653 24.4154 4.67623 24.2646 4.24512 24.0431C4.6702 24.9015 5.36661 25.5938 6.21678 26.0092C6.62377 26.2061 7.06393 26.3415 7.5282 26.4C7.70005 26.4215 7.87189 26.4369 8.04675 26.4369H22.0624V26.44Z" fill="#B5F0E5"/>
<path d="M5.57431 23.0092H18.2816C20.6331 23.0092 22.5445 21.0585 22.5445 18.6585V4.35077C22.5445 4.04308 22.5113 3.74154 22.451 3.44923C22.3274 2.84615 22.0772 2.29231 21.7365 1.81231C20.9617 0.716923 19.7046 0 18.2816 0H4.26289C1.91137 0 0 1.95077 0 4.35077V18.6585C0 20.4954 1.12451 22.0677 2.70727 22.7046C3.07507 22.8523 3.46699 22.9508 3.877 22.9877C4.00362 23 4.13325 23.0092 4.2659 23.0092H5.57733H5.57431ZM20.0452 18.6585C20.0452 19.6523 19.2523 20.4615 18.2786 20.4615H9.52668V14.1415C9.52668 11.7415 11.438 9.79077 13.7896 9.79077H20.0452V18.6585ZM20.0452 7.86769H11.9053C9.55381 7.86769 7.64245 9.81846 7.64245 12.2185V20.4615H5.85167V10.5785C5.85167 8.17846 7.76304 6.22769 10.1146 6.22769H20.0452V7.86769ZM3.78354 20.3908C3.04191 20.1754 2.49925 19.4831 2.49925 18.6585V4.35077C2.49925 3.35692 3.29213 2.54769 4.2659 2.54769H18.2816C18.9267 2.54769 19.4875 2.90154 19.798 3.42769C19.9487 3.68615 20.0392 3.98154 20.0452 4.30154H8.23033C5.87881 4.30154 3.96744 6.25231 3.96744 8.65231V20.4277C3.90413 20.4154 3.84384 20.4031 3.78354 20.3846V20.3908Z" fill="#B5F0E5"/>
</svg>
