<svg width="134" height="36" viewBox="0 0 134 36" fill="none" xmlns="http://www.w3.org/2000/svg">
<path fill-rule="evenodd" clip-rule="evenodd" d="M51.6694 4.91231C51.2611 3.90927 50.6966 3.04466 49.9758 2.31681C49.255 1.58891 48.3975 1.02081 47.4016 0.612478C46.4055 0.204145 45.3298 0 44.1704 0C43.0112 0 41.9335 0.204145 40.9394 0.612478C39.9434 1.02081 39.0859 1.58891 38.3652 2.31681C37.6444 3.04466 37.0798 3.91105 36.6715 4.91231C36.2631 5.91539 36.059 7.01076 36.059 8.20022C36.059 9.38967 36.2631 10.4851 36.6715 11.4881C37.0798 12.4912 37.6444 13.3575 38.3652 14.0837C39.0859 14.8115 39.9434 15.3796 40.9394 15.788C41.9353 16.1963 43.0129 16.4004 44.1704 16.4004C45.3279 16.4004 46.4055 16.1963 47.4016 15.788C48.3975 15.3796 49.255 14.8115 49.9758 14.0837C50.6966 13.3558 51.2611 12.4894 51.6694 11.4881C52.0777 10.4851 52.2819 9.38967 52.2819 8.20022C52.2819 7.01076 52.0777 5.91539 51.6694 4.91231ZM48.4259 10.2277C48.2182 10.8508 47.9199 11.3905 47.5347 11.8432C47.1477 12.2959 46.6683 12.6527 46.0967 12.9137C45.525 13.1729 44.8824 13.3043 44.1687 13.3043C43.4994 13.3043 42.8833 13.1818 42.3187 12.9368C41.7542 12.6918 41.2713 12.3421 40.8701 11.8893C40.4689 11.4366 40.1564 10.8969 39.9345 10.2738C39.7108 9.64891 39.6008 8.95828 39.6008 8.20199C39.6008 7.4457 39.7091 6.75334 39.9239 6.1302C40.1387 5.50528 40.4441 4.96736 40.8381 4.51464C41.2323 4.06192 41.7116 3.71219 42.2762 3.46721C42.8408 3.2222 43.4727 3.09971 44.1704 3.09971C44.8682 3.09971 45.5214 3.22575 46.0878 3.47788C46.6523 3.72996 47.1317 4.08325 47.5258 4.53596C47.9199 4.98868 48.22 5.52834 48.4277 6.15148C48.6354 6.7764 48.7402 7.45992 48.7402 8.20199C48.7402 8.94407 48.6354 9.6063 48.4277 10.2294L48.4259 10.2277Z" fill="#B5F0E5"/>
<path fill-rule="evenodd" clip-rule="evenodd" d="M15.5327 10.9182H11.4992V16.001H8V0.399414H15.5327C16.3049 0.399414 17.0151 0.518347 17.6613 0.756256C18.3093 0.994165 18.865 1.34035 19.3336 1.79307C19.8006 2.24574 20.1645 2.79611 20.4255 3.44231C20.6865 4.08855 20.8161 4.82885 20.8161 5.65969C20.8161 6.49057 20.6847 7.23442 20.4255 7.88773C20.1663 8.54108 19.8024 9.0914 19.3336 9.53701C18.865 9.98262 18.3075 10.3235 17.6613 10.5614C17.0151 10.7993 16.3049 10.9182 15.5327 10.9182ZM15.2433 3.42991H11.4992V7.88773H15.2202C15.815 7.88773 16.3085 7.6978 16.7026 7.31963C17.0967 6.93973 17.2938 6.39469 17.2938 5.63663C17.2938 4.87856 17.1109 4.32113 16.747 3.96428C16.3831 3.60744 15.8824 3.42991 15.2433 3.42991Z" fill="#B5F0E5"/>
<path fill-rule="evenodd" clip-rule="evenodd" d="M27.4114 10.6058H25.9628L25.961 10.6093V16.0028H22.4618V0.401245H30.4845C32.0006 0.401245 33.1634 0.779369 33.973 1.53744C34.7825 2.29373 35.1874 3.33409 35.1874 4.65669C35.1874 6.08406 34.7825 7.15281 33.973 7.8665C33.1634 8.58018 32.0237 8.9814 30.5519 9.07017V10.0945C30.9834 10.1531 31.3579 10.2241 31.6775 10.3058C31.9971 10.3874 32.2829 10.5241 32.535 10.7177C32.7871 10.9111 33.0214 11.1668 33.2362 11.4863C33.451 11.8059 33.6694 12.2337 33.8931 12.7681L34.5624 14.373C34.6956 14.6855 34.8305 14.9518 34.9636 15.1755C35.0986 15.3992 35.269 15.5696 35.4767 15.6886V16.001H31.555C31.4077 15.882 31.2958 15.7525 31.2212 15.6104C31.1467 15.4702 31.0881 15.3175 31.0437 15.1542L30.0637 12.7468C29.9004 12.3314 29.7406 11.9852 29.5844 11.71C29.4282 11.4366 29.2507 11.2165 29.05 11.0532C28.8494 10.8899 28.6186 10.7744 28.3595 10.707C28.0984 10.6395 27.7825 10.6058 27.4114 10.6058ZM29.6625 3.42996H25.9628V7.57532H29.6838C30.3088 7.57532 30.8023 7.39245 31.1662 7.02855C31.5302 6.6646 31.713 6.14973 31.713 5.48047C31.713 4.11343 31.0295 3.42996 29.6625 3.42996Z" fill="#B5F0E5"/>
<path fill-rule="evenodd" clip-rule="evenodd" d="M66.5573 3.44231C66.8182 4.08855 66.9478 4.82707 66.9478 5.65969V5.66146C66.9478 6.49235 66.8165 7.2362 66.5573 7.8895C66.298 8.54285 65.9341 9.09318 65.4654 9.53879C64.9968 9.9844 64.4393 10.3253 63.7931 10.5632C63.1468 10.8011 62.4367 10.92 61.6645 10.92H57.6309V16.001H54.1318V0.399414H61.6645C62.4367 0.399414 63.1468 0.518347 63.7931 0.756256C64.441 0.994165 64.9968 1.34035 65.4654 1.79307C65.9323 2.24574 66.2963 2.79611 66.5573 3.44231ZM61.3538 7.88773C61.9485 7.88773 62.4421 7.6978 62.8361 7.31963C63.2303 6.93973 63.4273 6.39469 63.4273 5.63663C63.4273 4.87856 63.2445 4.32113 62.8805 3.96428C62.5166 3.60744 62.016 3.42991 61.3769 3.42991H57.6326V7.88773H61.3538Z" fill="#B5F0E5"/>
<path d="M72.0963 9.51395H79.1604V6.63967H72.0963V3.49735H79.8297V0.399414H68.5972V15.9992H79.851V12.903H72.0963V9.51395Z" fill="#B5F0E5"/>
<path d="M81.612 0.399414H85.1112V12.88H92.287V15.9992H81.612V0.399414Z" fill="#B5F0E5"/>
<path d="M97.1231 0.399414H93.6239V15.9992H104.299V12.88H97.1231V0.399414Z" fill="#B5F0E5"/>
<path d="M116.201 9.51395H109.135V12.903H116.891V15.9992H105.636V0.399414H116.87V3.49735H109.135V6.63967H116.201V9.51395Z" fill="#B5F0E5"/>
<path fill-rule="evenodd" clip-rule="evenodd" d="M131.154 15.1755C131.021 14.9518 130.886 14.6855 130.753 14.373L130.084 12.7681C129.862 12.2337 129.642 11.8059 129.427 11.4863C129.212 11.1668 128.978 10.9111 128.726 10.7177C128.474 10.5241 128.188 10.3874 127.868 10.3058C127.549 10.2241 127.174 10.1531 126.743 10.0945V9.07017C128.214 8.9814 129.354 8.58018 130.164 7.8665C130.973 7.15281 131.378 6.08406 131.378 4.65669C131.378 3.33409 130.973 2.29373 130.164 1.53744C129.354 0.779369 128.191 0.401245 126.675 0.401245H118.652V16.0028H122.152V10.6093H123.6C123.971 10.6093 124.287 10.6431 124.546 10.7105C124.806 10.778 125.036 10.8934 125.237 11.0567C125.438 11.22 125.615 11.4402 125.771 11.7136C125.928 11.9888 126.087 12.335 126.251 12.7504L127.231 15.1577C127.275 15.3211 127.334 15.4737 127.408 15.614C127.483 15.756 127.593 15.8856 127.742 16.0045H131.664V15.6921C131.456 15.5731 131.286 15.4027 131.151 15.179L131.154 15.1755ZM125.873 7.57532H122.152V3.42996H125.851C127.218 3.42996 127.902 4.11343 127.902 5.48047C127.902 6.14973 127.719 6.6646 127.355 7.02855C126.991 7.39245 126.498 7.57532 125.873 7.57532Z" fill="#B5F0E5"/>
<path d="M11.4992 26.0174H17.5158V19.999H21.038V35.6006H17.5158V29.2715H11.4992V35.6006H8V19.999H11.4992V26.0174Z" fill="#B5F0E5"/>
<path d="M26.5415 29.1153H33.6072V26.2393H26.5415V23.097H34.2765V19.999H23.0423V35.6006H34.2979V32.5026H26.5415V29.1153Z" fill="#B5F0E5"/>
<path fill-rule="evenodd" clip-rule="evenodd" d="M34.7666 35.6006L40.65 19.999H44.6623L50.5688 35.6006H46.9577L46.0665 33.1275H39.2688L38.3776 35.6006H34.7666ZM41.2074 27.688L40.3375 30.1166V30.1201H44.996L44.1261 27.6915C44.0071 27.3347 43.9024 27.008 43.8136 26.7115C43.7249 26.4132 43.6468 26.1097 43.5793 25.7972C43.541 25.6198 43.5067 25.4356 43.4761 25.2442C43.4634 25.1652 43.4515 25.085 43.44 25.0035C43.4304 24.9346 43.4212 24.8648 43.4124 24.7942C43.3681 24.4373 43.3237 24.029 43.2793 23.5674H42.0543C42.042 23.6938 42.0296 23.8162 42.0171 23.9346C41.9824 24.262 41.9465 24.5589 41.9087 24.8261C41.8572 25.1901 41.7986 25.5274 41.7312 25.8398C41.6637 26.1505 41.5892 26.4523 41.5075 26.7417C41.4493 26.948 41.3821 27.1677 41.3052 27.4003C41.2742 27.4941 41.2416 27.59 41.2074 27.688Z" fill="#B5F0E5"/>
<path fill-rule="evenodd" clip-rule="evenodd" d="M63.4381 22.0158C62.8221 21.3553 62.0782 20.853 61.2101 20.5121C60.3401 20.1712 59.3708 19.999 58.302 19.999H51.728V35.6006H58.2364C59.3513 35.6006 60.349 35.4337 61.2331 35.0999C62.1172 34.7662 62.8682 34.2673 63.4843 33.6069C64.1003 32.9464 64.5725 32.1281 64.8992 31.1552C65.2258 30.1823 65.3892 29.0638 65.3892 27.8016C65.3892 26.5393 65.2188 25.4421 64.8761 24.4693C64.5334 23.4964 64.0542 22.6798 63.4381 22.0175V22.0158ZM61.6113 30.0385C61.4249 30.6403 61.1621 31.1232 60.8195 31.4871C60.4768 31.8511 60.0685 32.1103 59.5945 32.2665C59.1187 32.4227 58.5915 32.5008 58.0127 32.5008H55.2272V23.0952H58.0127C59.2909 23.0952 60.2567 23.4822 60.9101 24.2545C61.5633 25.0268 61.89 26.2091 61.89 27.798C61.89 28.6892 61.7977 29.4366 61.6113 30.0385Z" fill="#B5F0E5"/>
<path d="M73.0301 22.4294C72.1993 22.4294 71.5744 22.5821 71.1589 22.8857L71.1572 22.8839C70.74 23.1875 70.5323 23.5941 70.5323 24.0983C70.5323 24.4551 70.6139 24.7445 70.7772 24.9682C70.9406 25.1918 71.1963 25.3765 71.546 25.5256C71.8939 25.6747 72.3396 25.8043 72.8828 25.9162C73.4243 26.028 74.0741 26.1434 74.8321 26.2624C76.437 26.5287 77.6176 27.0453 78.3757 27.8104C79.1338 28.5756 79.5119 29.6355 79.5119 30.9865C79.5119 31.7889 79.3557 32.5026 79.0432 33.1258C78.7308 33.7489 78.2887 34.2726 77.717 34.6969C77.1454 35.1194 76.4689 35.4426 75.6896 35.6663C74.9103 35.8882 74.0509 36 73.1154 36C72.0892 36 71.1802 35.8775 70.3849 35.6325C69.5914 35.3875 68.915 35.0342 68.3575 34.5745C67.8 34.1146 67.3687 33.5643 67.0651 32.9252C66.7597 32.286 66.5857 31.5795 66.5413 30.8072L69.6624 30.2054C69.7369 31.157 70.1008 31.8777 70.7542 32.3677C71.4075 32.8577 72.2544 33.1027 73.2947 33.1027C74.1415 33.1027 74.8019 32.9393 75.2777 32.6127C75.7535 32.286 75.9914 31.8404 75.9914 31.2315C75.9914 30.6226 75.7375 30.1681 75.2333 29.8716C74.7292 29.5751 73.8522 29.3301 72.6041 29.1366C70.6725 28.8401 69.2611 28.3164 68.3699 27.5654C67.4788 26.8145 67.0331 25.7564 67.0331 24.3894C67.0331 23.6331 67.1787 22.9567 67.4681 22.362C67.7575 21.769 68.1657 21.2666 68.6931 20.8583C69.2203 20.45 69.8541 20.1375 70.598 19.9227C71.3401 19.7079 72.1496 19.5996 73.071 19.5996C73.9924 19.5996 74.8357 19.7097 75.6009 19.9333C76.366 20.1552 77.0317 20.4712 77.5963 20.8796C78.1609 21.2897 78.6118 21.7797 78.9456 22.3513C79.2811 22.923 79.4763 23.5586 79.5368 24.2562L76.2826 24.9699C76.1636 24.1231 75.8228 23.4875 75.2582 23.065C74.6936 22.6407 73.9516 22.4294 73.0301 22.4294Z" fill="#B5F0E5"/>
</svg>
