<svg width="131" height="48" viewBox="0 0 131 48" fill="none" xmlns="http://www.w3.org/2000/svg">
<g clip-path="url(#clip0_4_59)">
<path fill-rule="evenodd" clip-rule="evenodd" d="M73.2917 2.4C73.2917 3.72548 72.2286 4.8 70.9172 4.8C69.959 4.8 69.1332 4.22621 68.7581 3.4H55.656L51.0389 9H82.4687C82.7323 7.96486 83.662 7.2 84.7684 7.2C86.0798 7.2 87.1429 8.27452 87.1429 9.6C87.1429 10.9255 86.0798 12 84.7684 12C83.8101 12 82.9844 11.4262 82.6092 10.6H49.7198H49.3491H26V9H48.9783L54.6772 2.08785L54.9145 1.8H55.2853H68.6176C68.8812 0.764864 69.8108 0 70.9172 0C72.2286 0 73.2917 1.07452 73.2917 2.4Z" fill="#B5F0E5"/>
<path fill-rule="evenodd" clip-rule="evenodd" d="M60.8007 28.4572C60.8007 27.1317 61.8656 26.0572 63.1793 26.0572C64.1393 26.0572 64.9664 26.631 65.3422 27.4572H78.8637L83.4888 21.8572H40.1109C39.8469 22.8923 38.9156 23.6572 37.8072 23.6572C36.4936 23.6572 35.4286 22.5827 35.4286 21.2572C35.4286 19.9317 36.4936 18.8572 37.8072 18.8572C38.7672 18.8572 39.5944 19.431 39.9702 20.2572H84.8103H85.1816H108.571V21.8572H85.553L79.8441 28.7693L79.6064 29.0572H79.235H65.483C65.2189 30.0923 64.2876 30.8572 63.1793 30.8572C61.8656 30.8572 60.8007 29.7827 60.8007 28.4572Z" fill="#B5F0E5"/>
<path fill-rule="evenodd" clip-rule="evenodd" d="M51.1926 16.1904C50.8661 17.0782 49.9852 17.7143 48.9497 17.7143C47.6362 17.7143 46.5714 16.6909 46.5714 15.4285C46.5714 14.1662 47.6362 13.1428 48.9497 13.1428C49.9852 13.1428 50.8661 13.7789 51.1926 14.6666H102.857V16.1904H51.1926Z" fill="#B5F0E5"/>
<path d="M12.1095 47.99C13.8903 47.99 14.662 47.0473 14.662 45.9458C14.662 43.4748 10.8235 44.239 10.8235 43.0084C10.8235 42.5123 11.2587 42.1848 11.9414 42.1848C12.6339 42.1848 13.3363 42.423 13.8507 42.939L14.5136 42.0756C13.9002 41.4802 13.0692 41.1527 12.0403 41.1527C10.5959 41.1527 9.63628 41.9962 9.63628 43.0878C9.63628 45.529 13.4847 44.6657 13.4847 46.055C13.4847 46.4916 13.1087 46.958 12.159 46.958C11.239 46.958 10.5267 46.5313 10.0716 46.045L9.42853 46.9381C10.0122 47.5633 10.8927 47.99 12.1095 47.99Z" fill="#B5F0E5"/>
<path d="M23.4742 47.871L20.5953 44.3779L23.2763 41.252H21.8419L19.2598 44.4077V41.252H18.1023V47.871H19.2598V45.7573L19.8336 45.0825L22.0496 47.871H23.4742Z" fill="#B5F0E5"/>
<path d="M29.5035 47.871V45.1221L32.0559 41.252H30.7302L28.9297 44.0901L27.1094 41.252H25.7837L28.346 45.1221V47.871H29.5035Z" fill="#B5F0E5"/>
<path d="M40.8678 47.871V41.252H39.7104V45.8466L36.3368 41.252H35.1497V47.871H36.3071V43.1474L39.7499 47.871H40.8678Z" fill="#B5F0E5"/>
<path d="M49.1654 47.871V46.8488H45.8018V45.013H49.0962V43.9909H45.8018V42.2741H49.1654V41.252H44.6443V47.871H49.1654Z" fill="#B5F0E5"/>
<path d="M55.4589 47.871V42.2741H57.4573V41.252H52.303V42.2741H54.3014V47.871H55.4589Z" fill="#B5F0E5"/>
<path d="M68.4582 47.871V42.2741H70.4566V41.252H65.3023V42.2741H67.3007V47.871H68.4582Z" fill="#B5F0E5"/>
<path d="M78.9167 47.871L77.3041 45.271C78.0955 45.142 78.8672 44.5069 78.8672 43.326C78.8672 42.1054 78.0164 41.252 76.7105 41.252H73.8118V47.871H74.9693V45.4H76.1169L77.5811 47.871H78.9167ZM76.5522 44.3779H74.9693V42.2741H76.5522C77.2052 42.2741 77.68 42.6909 77.68 43.326C77.68 43.9611 77.2052 44.3779 76.5522 44.3779Z" fill="#B5F0E5"/>
<path d="M88.3342 47.871L85.7422 41.252H84.2978L81.7058 47.871H83.0216L83.5063 46.6008H86.5336L87.0184 47.871H88.3342ZM86.2071 45.5786H83.8328L85.02 42.423L86.2071 45.5786Z" fill="#B5F0E5"/>
<path d="M93.8827 47.871C95.9405 47.871 97.3354 46.5114 97.3354 44.5664C97.3354 42.6214 95.9405 41.252 93.8827 41.252H91.4292V47.871H93.8827ZM93.8827 46.8488H92.5867V42.2741H93.8827C95.3568 42.2741 96.1482 43.2863 96.1482 44.5664C96.1482 45.8168 95.3172 46.8488 93.8827 46.8488Z" fill="#B5F0E5"/>
<path d="M101.985 47.871V41.252H100.827V47.871H101.985Z" fill="#B5F0E5"/>
<path d="M111.48 47.871V41.252H110.323V45.8466L106.949 41.252H105.762V47.871H106.919V43.1474L110.362 47.871H111.48Z" fill="#B5F0E5"/>
<path d="M118.422 48C119.57 48 120.49 47.5236 121.143 46.7992V44.3183H118.017V45.3405H119.985V46.3725C119.689 46.6504 119.095 46.9679 118.422 46.9679C117.116 46.9679 116.147 45.9557 116.147 44.5664C116.147 43.1771 117.116 42.1749 118.422 42.1749C119.164 42.1749 119.787 42.5619 120.134 43.0581L121.083 42.5222C120.549 41.7581 119.708 41.1428 118.422 41.1428C116.513 41.1428 114.96 42.4924 114.96 44.5664C114.96 46.6404 116.513 48 118.422 48Z" fill="#B5F0E5"/>
<path d="M1.42857 44.7143C1.42857 45.1088 1.10877 45.4286 0.714286 45.4286C0.319797 45.4286 0 45.1088 0 44.7143C0 44.3198 0.319797 44 0.714286 44C1.10877 44 1.42857 44.3198 1.42857 44.7143Z" fill="#B5F0E5"/>
<path d="M130.286 44.7143C130.286 45.1088 129.966 45.4286 129.571 45.4286C129.177 45.4286 128.857 45.1088 128.857 44.7143C128.857 44.3198 129.177 44 129.571 44C129.966 44 130.286 44.3198 130.286 44.7143Z" fill="#B5F0E5"/>
</g>
<defs>
<clipPath id="clip0_4_59">
<rect width="131" height="48" fill="white"/>
</clipPath>
</defs>
</svg>
