<svg id="a" xmlns="http://www.w3.org/2000/svg" viewBox="-100 -90 900 900">
  <title>StarkWare</title>
  <defs>
    <style>
      .e {
        fill: #f7f7f7;
      }
    </style>
  </defs>
  <g id="b">
    <g id="c" transform="translate(-54.000000, -57.000000)">
      <g id="d" transform="translate(54.000000, 57.500000)">
        <path
          class="e"
          d="M265.28,497.36c-6.31,1.52-12.39,3.04-18.7,4.78-25.22,6.96-50.44,13.92-75.45,21.09-9.35,2.61-16.52,1.09-23.26-6.09-47.18-49.14-94.58-97.84-141.76-146.76-8.26-8.48-8.04-11.31,0-19.57,45.01-46.53,90.01-92.84,135.02-139.37,7.39-7.61,11.31-8.04,18.26-.22,17.83,20,54.14,63.71,54.57,65.01l2.83-1.96c-.87-4.35-1.74-8.7-2.83-12.83-7.39-28.48-14.57-56.96-22.18-85.45-2.61-9.35-.22-16.74,6.31-23.48C245.5,103.39,292.9,54.25,340.51,5.33c6.96-7.17,10.22-7.17,17.61,.43,43.05,44.35,86.1,88.93,129.15,133.28,15.22,15.65,17.39,15.65-.65,32.61-17.18,16.09-34.79,31.96-51.96,47.83-.87,.87-1.52,1.74-1.52,4.13,2.17-.43,4.57-.87,6.74-1.52,28.05-7.83,56.31-15,84.36-23.48,12.18-3.7,20.44-.87,29.13,8.26,46.31,48.49,93.06,96.54,139.59,144.59,6.96,7.17,7.17,10.65,0,18.05-41.31,42.83-82.84,85.66-124.37,128.71-4.13,4.35-8.26,8.91-12.61,13.26-6.09,6.09-10.44,6.31-16.09,0-18.26-20.66-55.44-64.36-55.66-65.23l-2.39,1.09c.22,2.17,.43,4.57,.87,6.52,8.04,31.09,16.09,62.4,24.35,93.49,2.17,7.83,.22,14.35-5.22,20.22-47.4,49.14-94.8,98.06-142.19,147.2-8.7,8.91-11.74,8.91-20.44,0-44.35-45.88-88.93-91.97-133.28-137.85-8.91-9.35-9.13-12.39,.22-21.31,19.35-18.26,39.14-36.09,58.7-54.14,.65-.43,.87-1.09,1.52-1.74l-.65-1.96-.43-.43Zm-22.26-222.36l-1.09,1.96c1.52,1.74,3.04,3.7,4.78,5.44,18.05,18.7,36.09,37.83,54.57,56.31,6.74,6.96,8.48,14.35,5.87,23.48-7.39,27.61-21.96,86.53-22.18,88.49l2.83,1.96c2.61-3.26,5-6.96,7.83-10,16.96-17.83,34.14-35.44,51.31-53.05,5.87-6.09,12.39-8.04,20.66-5.65,26.31,7.39,52.83,14.57,79.14,21.74,2.39,.65,5,1.09,9.57,1.96-2.83-3.48-3.91-5.22-5.22-6.52-18.26-18.92-36.53-38.05-55.01-56.96-6.74-6.74-8.7-14.13-6.31-23.48,7.17-26.09,13.7-52.4,20.44-78.71,.87-3.26,1.52-6.52,2.39-9.78-3.04,.43-4.57,1.3-6.09,2.83-17.83,18.48-35.87,36.53-53.27,55.44-7.83,8.48-15.65,11.74-26.96,7.83-14.13-4.78-28.7-8.26-43.27-12.18-13.26-3.7-26.74-7.39-40.01-11.09Z"
        />
      </g>
    </g>
  </g>
</svg>
