<svg width="696" height="460" viewBox="0 0 696 460" fill="none" xmlns="http://www.w3.org/2000/svg">
<g filter="url(#filter0_dd_1395_2802)">
<path d="M348.165 266.958L348.165 231.958" stroke="url(#paint0_linear_1395_2802)" stroke-opacity="0.5"/>
<path d="M348.165 153.958L348.165 111.685" stroke="url(#paint1_linear_1395_2802)" stroke-opacity="0.5"/>
<path d="M348.165 339.861L348.165 304.861" stroke="url(#paint2_linear_1395_2802)" stroke-opacity="0.5"/>
<rect x="218.5" y="2.63037" width="260" height="109.055" rx="20" fill="#004738" fill-opacity="0.5"/>
<rect x="219" y="3.13037" width="259" height="108.055" rx="19.5" stroke="#B5F0E5" stroke-opacity="0.12"/>
<path d="M356.705 39.3717C356.895 39.7469 357.004 40.1671 357.004 40.6147V49.7004C357.004 51.2248 355.765 52.4639 354.241 52.4639H345.153C344.706 52.4639 344.283 52.3544 343.91 52.1649C344.366 53.0658 345.298 53.6854 346.375 53.6854H355.46C356.985 53.6854 358.224 52.4463 358.224 50.9219V41.8361C358.224 40.7593 357.604 39.8271 356.703 39.3717H356.705Z" fill="#B5F0E5"/>
<path d="M353.078 51.4241C354.602 51.4241 355.841 50.1851 355.841 48.6607V39.573C355.841 39.4088 355.824 39.2505 355.797 39.0941C355.734 38.7424 355.607 38.414 355.425 38.1209C355.157 37.689 354.776 37.3372 354.321 37.1066C354.442 37.345 354.528 37.601 354.575 37.8727C354.602 38.029 354.62 38.1873 354.62 38.3515V47.4373C354.62 48.9617 353.381 50.2007 351.857 50.2007H342.771C342.657 50.2007 342.544 50.1909 342.435 50.1773C342.112 50.1382 341.807 50.0424 341.528 49.9017C341.803 50.447 342.255 50.8867 342.806 51.1505C343.07 51.2756 343.355 51.3616 343.656 51.3987C343.768 51.4124 343.879 51.4222 343.992 51.4222H353.078V51.4241Z" fill="#B5F0E5"/>
<path d="M342.39 49.245H350.628C352.152 49.245 353.391 48.0059 353.391 46.4815V37.3938C353.391 37.1984 353.369 37.0069 353.33 36.8212C353.25 36.4381 353.088 36.0864 352.867 35.7815C352.365 35.0857 351.55 34.6304 350.628 34.6304H341.54C340.015 34.6304 338.776 35.8694 338.776 37.3938V46.4815C338.776 47.6483 339.505 48.647 340.531 49.0515C340.77 49.1453 341.024 49.2079 341.29 49.2313C341.372 49.2391 341.456 49.245 341.542 49.245H342.392H342.39ZM351.771 46.4815C351.771 47.1128 351.257 47.6268 350.626 47.6268H344.952V43.6126C344.952 42.0882 346.191 40.8491 347.716 40.8491H351.771V46.4815ZM351.771 39.6276H346.494C344.97 39.6276 343.731 40.8667 343.731 42.3911V47.6268H342.57V41.3494C342.57 39.825 343.809 38.586 345.333 38.586H351.771V39.6276ZM341.229 47.5818C340.748 47.445 340.397 47.0053 340.397 46.4815V37.3938C340.397 36.7626 340.911 36.2486 341.542 36.2486H350.628C351.046 36.2486 351.409 36.4733 351.611 36.8075C351.708 36.9717 351.767 37.1593 351.771 37.3626H344.112C342.587 37.3626 341.348 38.6016 341.348 40.126V47.6053C341.307 47.5975 341.268 47.5897 341.229 47.5779V47.5818Z" fill="#B5F0E5"/>
<path d="M293.302 77.6853V67.9133H297.194C298.071 67.9133 298.743 68.1653 299.21 68.6693C299.686 69.164 299.924 69.8453 299.924 70.7133C299.924 71.5813 299.686 72.2673 299.21 72.7713C298.743 73.266 298.071 73.5133 297.194 73.5133H294.478V77.6853H293.302ZM294.478 72.4773H297.194C297.661 72.4773 298.02 72.356 298.272 72.1133C298.533 71.8706 298.664 71.5253 298.664 71.0773V70.3493C298.664 69.9013 298.533 69.556 298.272 69.3133C298.02 69.0706 297.661 68.9493 297.194 68.9493H294.478V72.4773ZM303.668 77.6853H302.492V67.9133H306.384C307.243 67.9133 307.91 68.1513 308.386 68.6273C308.872 69.1033 309.114 69.7893 309.114 70.6853C309.114 71.404 308.946 71.9966 308.61 72.4633C308.284 72.9206 307.798 73.224 307.154 73.3733L309.394 77.6853H308.064L305.95 73.4853H303.668V77.6853ZM306.384 72.4773C306.851 72.4773 307.21 72.356 307.462 72.1133C307.724 71.8706 307.854 71.5253 307.854 71.0773V70.3493C307.854 69.9013 307.724 69.556 307.462 69.3133C307.21 69.0706 306.851 68.9493 306.384 68.9493H303.668V72.4773H306.384ZM318.265 77.6853L317.285 74.8013H313.337L312.357 77.6853H311.167L314.583 67.9133H316.081L319.497 77.6853H318.265ZM315.339 69.0053H315.269L313.617 73.7653H316.991L315.339 69.0053ZM327.939 76.2573H327.897C327.776 76.7146 327.477 77.0973 327.001 77.4053C326.534 77.704 325.928 77.8533 325.181 77.8533C324.584 77.8533 324.033 77.746 323.529 77.5313C323.034 77.3073 322.61 76.9853 322.255 76.5653C321.9 76.136 321.62 75.6086 321.415 74.9833C321.219 74.3486 321.121 73.6206 321.121 72.7993C321.121 71.9873 321.219 71.2686 321.415 70.6433C321.611 70.0086 321.891 69.4813 322.255 69.0613C322.619 68.632 323.058 68.3053 323.571 68.0813C324.084 67.8573 324.654 67.7453 325.279 67.7453C326.156 67.7453 326.889 67.9413 327.477 68.3333C328.065 68.7253 328.518 69.2433 328.835 69.8873L327.869 70.4753C327.645 69.9526 327.309 69.542 326.861 69.2433C326.422 68.9446 325.895 68.7953 325.279 68.7953C324.85 68.7953 324.458 68.8746 324.103 69.0333C323.748 69.1826 323.44 69.3973 323.179 69.6773C322.927 69.9573 322.731 70.2933 322.591 70.6853C322.451 71.0773 322.381 71.516 322.381 72.0013V73.5833C322.381 74.0686 322.451 74.512 322.591 74.9133C322.731 75.3053 322.927 75.6413 323.179 75.9213C323.44 76.2013 323.758 76.4206 324.131 76.5793C324.504 76.7286 324.924 76.8033 325.391 76.8033C325.727 76.8033 326.044 76.7613 326.343 76.6773C326.651 76.584 326.917 76.4486 327.141 76.2713C327.374 76.094 327.556 75.8746 327.687 75.6133C327.818 75.3426 327.883 75.0253 327.883 74.6613V73.6953H325.727V72.6593H329.031V77.6853H327.939V76.2573ZM339.661 69.4533H339.591L338.765 71.0913L336.427 75.3473L334.089 71.0913L333.263 69.4533H333.193V77.6853H332.045V67.9133H333.613L336.413 73.1773H336.483L339.297 67.9133H340.809V77.6853H339.661V69.4533ZM350.225 77.6853L349.245 74.8013H345.297L344.317 77.6853H343.127L346.543 67.9133H348.041L351.457 77.6853H350.225ZM347.299 69.0053H347.229L345.577 73.7653H348.951L347.299 69.0053ZM353.75 67.1853C354.049 67.1853 354.264 67.2646 354.394 67.4233C354.534 67.5726 354.604 67.7686 354.604 68.0113V68.2073C354.604 68.59 354.492 69.0146 354.268 69.4813C354.044 69.9386 353.732 70.34 353.33 70.6853H352.392C352.672 70.3866 352.896 70.1066 353.064 69.8453C353.242 69.5746 353.368 69.276 353.442 68.9493C353.256 68.9026 353.116 68.814 353.022 68.6833C352.938 68.5526 352.896 68.394 352.896 68.2073V68.0113C352.896 67.7686 352.962 67.5726 353.092 67.4233C353.232 67.2646 353.452 67.1853 353.75 67.1853ZM360.35 77.8533C359.557 77.8533 358.88 77.704 358.32 77.4053C357.76 77.0973 357.284 76.6773 356.892 76.1453L357.76 75.4173C358.106 75.8746 358.488 76.2246 358.908 76.4673C359.328 76.7006 359.823 76.8173 360.392 76.8173C361.092 76.8173 361.624 76.6493 361.988 76.3133C362.362 75.9773 362.548 75.5293 362.548 74.9693C362.548 74.5026 362.408 74.1433 362.128 73.8913C361.848 73.6393 361.386 73.4386 360.742 73.2893L359.944 73.1073C359.048 72.902 358.362 72.594 357.886 72.1833C357.42 71.7633 357.186 71.1753 357.186 70.4193C357.186 69.99 357.266 69.6073 357.424 69.2713C357.583 68.9353 357.802 68.6553 358.082 68.4313C358.372 68.2073 358.712 68.0393 359.104 67.9273C359.506 67.806 359.944 67.7453 360.42 67.7453C361.158 67.7453 361.788 67.8806 362.31 68.1513C362.842 68.422 363.29 68.8186 363.654 69.3413L362.772 69.9853C362.502 69.612 362.175 69.318 361.792 69.1033C361.41 68.8886 360.934 68.7813 360.364 68.7813C359.739 68.7813 359.244 68.9166 358.88 69.1873C358.526 69.4486 358.348 69.8453 358.348 70.3773C358.348 70.844 358.498 71.1986 358.796 71.4413C359.104 71.6746 359.566 71.8613 360.182 72.0013L360.98 72.1833C361.942 72.398 362.637 72.7246 363.066 73.1633C363.496 73.602 363.71 74.1853 363.71 74.9133C363.71 75.3613 363.631 75.7673 363.472 76.1313C363.323 76.4953 363.104 76.8033 362.814 77.0553C362.525 77.3073 362.17 77.5033 361.75 77.6433C361.34 77.7833 360.873 77.8533 360.35 77.8533ZM370.45 67.9133H373.726C374.332 67.9133 374.883 68.016 375.378 68.2213C375.872 68.4266 376.292 68.7346 376.638 69.1453C376.992 69.5466 377.263 70.0553 377.45 70.6713C377.636 71.278 377.73 71.9873 377.73 72.7993C377.73 73.6113 377.636 74.3253 377.45 74.9413C377.263 75.548 376.992 76.0566 376.638 76.4673C376.292 76.8686 375.872 77.172 375.378 77.3773C374.883 77.5826 374.332 77.6853 373.726 77.6853H370.45V67.9133ZM373.726 76.6493C374.127 76.6493 374.496 76.584 374.832 76.4533C375.168 76.3133 375.457 76.1126 375.7 75.8513C375.942 75.59 376.129 75.2726 376.26 74.8993C376.4 74.5166 376.47 74.0826 376.47 73.5973V72.0013C376.47 71.516 376.4 71.0866 376.26 70.7133C376.129 70.3306 375.942 70.0086 375.7 69.7473C375.457 69.486 375.168 69.29 374.832 69.1593C374.496 69.0193 374.127 68.9493 373.726 68.9493H371.626V76.6493H373.726ZM386.496 77.6853L385.516 74.8013H381.568L380.588 77.6853H379.398L382.814 67.9133H384.312L387.728 77.6853H386.496ZM383.57 69.0053H383.5L381.848 73.7653H385.222L383.57 69.0053ZM392.421 68.9493V77.6853H391.245V68.9493H388.137V67.9133H395.529V68.9493H392.421ZM403.045 77.6853L402.065 74.8013H398.117L397.137 77.6853H395.947L399.363 67.9133H400.861L404.277 77.6853H403.045ZM400.119 69.0053H400.049L398.397 73.7653H401.771L400.119 69.0053Z" fill="#B5F0E5"/>
<rect x="218.5" y="339.822" width="260" height="110" rx="20" fill="#004738" fill-opacity="0.5"/>
<rect x="219" y="340.322" width="259" height="109" rx="19.5" stroke="#B5F0E5" stroke-opacity="0.12"/>
<mask id="mask0_1395_2802" style="mask-type:alpha" maskUnits="userSpaceOnUse" x="336" y="371" width="25" height="25">
<rect x="336.5" y="371.822" width="24" height="24" fill="#D9D9D9"/>
</mask>
<g mask="url(#mask0_1395_2802)">
<path d="M342.5 392.822C341.936 392.822 341.462 392.629 341.077 392.245C340.692 391.86 340.5 391.386 340.5 390.822V388.052H343.5V374.822H356.5V390.822C356.5 391.386 356.308 391.86 355.923 392.245C355.538 392.629 355.064 392.822 354.5 392.822H342.5ZM354.5 391.822C354.783 391.822 355.021 391.726 355.213 391.534C355.404 391.342 355.5 391.105 355.5 390.822V375.822H344.5V388.052H353.5V390.822C353.5 391.105 353.596 391.342 353.788 391.534C353.979 391.726 354.217 391.822 354.5 391.822ZM345.885 380.206V379.206H354.115V380.206H345.885ZM345.885 382.976V381.976H354.115V382.976H345.885ZM342.5 391.822H352.5V389.052H341.5V390.822C341.5 391.105 341.596 391.342 341.788 391.534C341.979 391.726 342.217 391.822 342.5 391.822ZM342.5 391.822H341.5H352.5H342.5Z" fill="#B5F0E5"/>
</g>
<path d="M262.042 415.822V411.958L258.682 406.05H260.026L262.63 410.754H262.672L265.276 406.05H266.62L263.218 411.916V415.822H262.042ZM272.031 415.99C271.396 415.99 270.822 415.882 270.309 415.668C269.805 415.444 269.371 415.122 269.007 414.702C268.652 414.272 268.377 413.745 268.181 413.12C267.985 412.485 267.887 411.757 267.887 410.936C267.887 410.114 267.985 409.391 268.181 408.766C268.377 408.14 268.652 407.613 269.007 407.184C269.371 406.754 269.805 406.432 270.309 406.218C270.822 405.994 271.396 405.882 272.031 405.882C272.656 405.882 273.226 405.994 273.739 406.218C274.252 406.432 274.686 406.754 275.041 407.184C275.405 407.613 275.685 408.14 275.881 408.766C276.077 409.391 276.175 410.114 276.175 410.936C276.175 411.757 276.077 412.485 275.881 413.12C275.685 413.745 275.405 414.272 275.041 414.702C274.686 415.122 274.252 415.444 273.739 415.668C273.226 415.882 272.656 415.99 272.031 415.99ZM272.031 414.94C272.451 414.94 272.838 414.865 273.193 414.716C273.548 414.566 273.851 414.352 274.103 414.072C274.364 413.792 274.565 413.456 274.705 413.064C274.845 412.672 274.915 412.233 274.915 411.748V410.124C274.915 409.638 274.845 409.2 274.705 408.808C274.565 408.416 274.364 408.08 274.103 407.8C273.851 407.52 273.548 407.305 273.193 407.156C272.838 407.006 272.451 406.932 272.031 406.932C271.611 406.932 271.224 407.006 270.869 407.156C270.514 407.305 270.206 407.52 269.945 407.8C269.693 408.08 269.497 408.416 269.357 408.808C269.217 409.2 269.147 409.638 269.147 410.124V411.748C269.147 412.233 269.217 412.672 269.357 413.064C269.497 413.456 269.693 413.792 269.945 414.072C270.206 414.352 270.514 414.566 270.869 414.716C271.224 414.865 271.611 414.94 272.031 414.94ZM280.095 406.05V412.098C280.095 413.031 280.268 413.74 280.613 414.226C280.958 414.702 281.565 414.94 282.433 414.94C283.301 414.94 283.908 414.702 284.253 414.226C284.598 413.74 284.771 413.031 284.771 412.098V406.05H285.947V411.818C285.947 412.527 285.882 413.143 285.751 413.666C285.63 414.188 285.429 414.622 285.149 414.968C284.869 415.313 284.5 415.57 284.043 415.738C283.595 415.906 283.044 415.99 282.391 415.99C281.738 415.99 281.187 415.906 280.739 415.738C280.3 415.57 279.946 415.313 279.675 414.968C279.404 414.622 279.208 414.188 279.087 413.666C278.975 413.143 278.919 412.527 278.919 411.818V406.05H280.095ZM290.353 415.822H289.177V406.05H293.069C293.928 406.05 294.595 406.288 295.071 406.764C295.557 407.24 295.799 407.926 295.799 408.822C295.799 409.54 295.631 410.133 295.295 410.6C294.969 411.057 294.483 411.36 293.839 411.51L296.079 415.822H294.749L292.635 411.622H290.353V415.822ZM293.069 410.614C293.536 410.614 293.895 410.492 294.147 410.25C294.409 410.007 294.539 409.662 294.539 409.214V408.486C294.539 408.038 294.409 407.692 294.147 407.45C293.895 407.207 293.536 407.086 293.069 407.086H290.353V410.614H293.069ZM305.585 415.99C304.792 415.99 304.115 415.84 303.555 415.542C302.995 415.234 302.519 414.814 302.127 414.282L302.995 413.554C303.34 414.011 303.723 414.361 304.143 414.604C304.563 414.837 305.058 414.954 305.627 414.954C306.327 414.954 306.859 414.786 307.223 414.45C307.596 414.114 307.783 413.666 307.783 413.106C307.783 412.639 307.643 412.28 307.363 412.028C307.083 411.776 306.621 411.575 305.977 411.426L305.179 411.244C304.283 411.038 303.597 410.73 303.121 410.32C302.654 409.9 302.421 409.312 302.421 408.556C302.421 408.126 302.5 407.744 302.659 407.408C302.818 407.072 303.037 406.792 303.317 406.568C303.606 406.344 303.947 406.176 304.339 406.064C304.74 405.942 305.179 405.882 305.655 405.882C306.392 405.882 307.022 406.017 307.545 406.288C308.077 406.558 308.525 406.955 308.889 407.478L308.007 408.122C307.736 407.748 307.41 407.454 307.027 407.24C306.644 407.025 306.168 406.918 305.599 406.918C304.974 406.918 304.479 407.053 304.115 407.324C303.76 407.585 303.583 407.982 303.583 408.514C303.583 408.98 303.732 409.335 304.031 409.578C304.339 409.811 304.801 409.998 305.417 410.138L306.215 410.32C307.176 410.534 307.872 410.861 308.301 411.3C308.73 411.738 308.945 412.322 308.945 413.05C308.945 413.498 308.866 413.904 308.707 414.268C308.558 414.632 308.338 414.94 308.049 415.192C307.76 415.444 307.405 415.64 306.985 415.78C306.574 415.92 306.108 415.99 305.585 415.99ZM319.292 407.59H319.222L318.396 409.228L316.058 413.484L313.72 409.228L312.894 407.59H312.824V415.822H311.676V406.05H313.244L316.044 411.314H316.114L318.928 406.05H320.44V415.822H319.292V407.59ZM329.855 415.822L328.875 412.938H324.927L323.947 415.822H322.757L326.173 406.05H327.671L331.087 415.822H329.855ZM326.929 407.142H326.859L325.207 411.902H328.581L326.929 407.142ZM334.582 415.822H333.406V406.05H337.298C338.157 406.05 338.824 406.288 339.3 406.764C339.785 407.24 340.028 407.926 340.028 408.822C340.028 409.54 339.86 410.133 339.524 410.6C339.197 411.057 338.712 411.36 338.068 411.51L340.308 415.822H338.978L336.864 411.622H334.582V415.822ZM337.298 410.614C337.765 410.614 338.124 410.492 338.376 410.25C338.637 410.007 338.768 409.662 338.768 409.214V408.486C338.768 408.038 338.637 407.692 338.376 407.45C338.124 407.207 337.765 407.086 337.298 407.086H334.582V410.614H337.298ZM346.009 407.086V415.822H344.833V407.086H341.725V406.05H349.117V407.086H346.009ZM358.883 415.99C357.642 415.99 356.676 415.57 355.985 414.73C355.295 413.88 354.949 412.634 354.949 410.992C354.949 409.349 355.295 408.089 355.985 407.212C356.676 406.325 357.642 405.882 358.883 405.882C359.705 405.882 360.391 406.068 360.941 406.442C361.501 406.815 361.935 407.342 362.243 408.024L361.291 408.598C361.095 408.094 360.797 407.692 360.395 407.394C359.994 407.086 359.49 406.932 358.883 406.932C358.463 406.932 358.085 407.011 357.749 407.17C357.423 407.328 357.143 407.557 356.909 407.856C356.685 408.145 356.513 408.495 356.391 408.906C356.27 409.307 356.209 409.76 356.209 410.264V411.72C356.209 412.728 356.443 413.516 356.909 414.086C357.376 414.655 358.034 414.94 358.883 414.94C359.509 414.94 360.031 414.781 360.451 414.464C360.871 414.137 361.179 413.708 361.375 413.176L362.313 413.764C362.005 414.454 361.562 415 360.983 415.402C360.405 415.794 359.705 415.99 358.883 415.99ZM368.311 415.99C367.676 415.99 367.102 415.882 366.589 415.668C366.085 415.444 365.651 415.122 365.287 414.702C364.932 414.272 364.657 413.745 364.461 413.12C364.265 412.485 364.167 411.757 364.167 410.936C364.167 410.114 364.265 409.391 364.461 408.766C364.657 408.14 364.932 407.613 365.287 407.184C365.651 406.754 366.085 406.432 366.589 406.218C367.102 405.994 367.676 405.882 368.311 405.882C368.936 405.882 369.506 405.994 370.019 406.218C370.532 406.432 370.966 406.754 371.321 407.184C371.685 407.613 371.965 408.14 372.161 408.766C372.357 409.391 372.455 410.114 372.455 410.936C372.455 411.757 372.357 412.485 372.161 413.12C371.965 413.745 371.685 414.272 371.321 414.702C370.966 415.122 370.532 415.444 370.019 415.668C369.506 415.882 368.936 415.99 368.311 415.99ZM368.311 414.94C368.731 414.94 369.118 414.865 369.473 414.716C369.828 414.566 370.131 414.352 370.383 414.072C370.644 413.792 370.845 413.456 370.985 413.064C371.125 412.672 371.195 412.233 371.195 411.748V410.124C371.195 409.638 371.125 409.2 370.985 408.808C370.845 408.416 370.644 408.08 370.383 407.8C370.131 407.52 369.828 407.305 369.473 407.156C369.118 407.006 368.731 406.932 368.311 406.932C367.891 406.932 367.504 407.006 367.149 407.156C366.794 407.305 366.486 407.52 366.225 407.8C365.973 408.08 365.777 408.416 365.637 408.808C365.497 409.2 365.427 409.638 365.427 410.124V411.748C365.427 412.233 365.497 412.672 365.637 413.064C365.777 413.456 365.973 413.792 366.225 414.072C366.486 414.352 366.794 414.566 367.149 414.716C367.504 414.865 367.891 414.94 368.311 414.94ZM377.635 409.858L376.459 407.688H376.417V415.822H375.269V406.05H376.627L380.197 412.014L381.373 414.184H381.415V406.05H382.563V415.822H381.205L377.635 409.858ZM389.158 407.086V415.822H387.982V407.086H384.874V406.05H392.266V407.086H389.158ZM395.755 415.822H394.579V406.05H398.471C399.33 406.05 399.997 406.288 400.473 406.764C400.959 407.24 401.201 407.926 401.201 408.822C401.201 409.54 401.033 410.133 400.697 410.6C400.371 411.057 399.885 411.36 399.241 411.51L401.481 415.822H400.151L398.037 411.622H395.755V415.822ZM398.471 410.614C398.938 410.614 399.297 410.492 399.549 410.25C399.811 410.007 399.941 409.662 399.941 409.214V408.486C399.941 408.038 399.811 407.692 399.549 407.45C399.297 407.207 398.938 407.086 398.471 407.086H395.755V410.614H398.471ZM410.352 415.822L409.372 412.938H405.424L404.444 415.822H403.254L406.67 406.05H408.168L411.584 415.822H410.352ZM407.426 407.142H407.356L405.704 411.902H409.078L407.426 407.142ZM417.142 415.99C415.901 415.99 414.935 415.57 414.244 414.73C413.553 413.88 413.208 412.634 413.208 410.992C413.208 409.349 413.553 408.089 414.244 407.212C414.935 406.325 415.901 405.882 417.142 405.882C417.963 405.882 418.649 406.068 419.2 406.442C419.76 406.815 420.194 407.342 420.502 408.024L419.55 408.598C419.354 408.094 419.055 407.692 418.654 407.394C418.253 407.086 417.749 406.932 417.142 406.932C416.722 406.932 416.344 407.011 416.008 407.17C415.681 407.328 415.401 407.557 415.168 407.856C414.944 408.145 414.771 408.495 414.65 408.906C414.529 409.307 414.468 409.76 414.468 410.264V411.72C414.468 412.728 414.701 413.516 415.168 414.086C415.635 414.655 416.293 414.94 417.142 414.94C417.767 414.94 418.29 414.781 418.71 414.464C419.13 414.137 419.438 413.708 419.634 413.176L420.572 413.764C420.264 414.454 419.821 415 419.242 415.402C418.663 415.794 417.963 415.99 417.142 415.99ZM426.383 407.086V415.822H425.207V407.086H422.099V406.05H429.491V407.086H426.383ZM434.399 415.99C433.605 415.99 432.929 415.84 432.369 415.542C431.809 415.234 431.333 414.814 430.941 414.282L431.809 413.554C432.154 414.011 432.537 414.361 432.957 414.604C433.377 414.837 433.871 414.954 434.441 414.954C435.141 414.954 435.673 414.786 436.037 414.45C436.41 414.114 436.597 413.666 436.597 413.106C436.597 412.639 436.457 412.28 436.177 412.028C435.897 411.776 435.435 411.575 434.791 411.426L433.993 411.244C433.097 411.038 432.411 410.73 431.935 410.32C431.468 409.9 431.235 409.312 431.235 408.556C431.235 408.126 431.314 407.744 431.473 407.408C431.631 407.072 431.851 406.792 432.131 406.568C432.42 406.344 432.761 406.176 433.153 406.064C433.554 405.942 433.993 405.882 434.469 405.882C435.206 405.882 435.836 406.017 436.359 406.288C436.891 406.558 437.339 406.955 437.703 407.478L436.821 408.122C436.55 407.748 436.223 407.454 435.841 407.24C435.458 407.025 434.982 406.918 434.413 406.918C433.787 406.918 433.293 407.053 432.929 407.324C432.574 407.585 432.397 407.982 432.397 408.514C432.397 408.98 432.546 409.335 432.845 409.578C433.153 409.811 433.615 409.998 434.231 410.138L435.029 410.32C435.99 410.534 436.685 410.861 437.115 411.3C437.544 411.738 437.759 412.322 437.759 413.05C437.759 413.498 437.679 413.904 437.521 414.268C437.371 414.632 437.152 414.94 436.863 415.192C436.573 415.444 436.219 415.64 435.799 415.78C435.388 415.92 434.921 415.99 434.399 415.99Z" fill="#B5F0E5"/>
<g filter="url(#filter1_d_1395_2802)">
<rect x="355.842" y="124.822" width="16" height="16" rx="8" transform="rotate(90 355.842 124.822)" fill="#15FF81"/>
</g>
<rect x="217.5" y="153.958" width="261" height="78" rx="20" fill="#004738" fill-opacity="0.5"/>
<rect x="218" y="154.458" width="260" height="77" rx="19.5" stroke="#B5F0E5" stroke-opacity="0.12"/>
<mask id="mask1_1395_2802" style="mask-type:alpha" maskUnits="userSpaceOnUse" x="336" y="169" width="24" height="25">
<rect x="336" y="169.958" width="24" height="24" fill="#D9D9D9"/>
</mask>
<g mask="url(#mask1_1395_2802)">
<path d="M340.252 189.958C339.558 189.958 338.968 189.715 338.481 189.229C337.994 188.743 337.75 188.152 337.75 187.458C337.75 186.859 337.941 186.33 338.322 185.871C338.704 185.412 339.179 185.128 339.75 185.018V178.898C339.179 178.788 338.704 178.504 338.322 178.045C337.941 177.586 337.75 177.057 337.75 176.458C337.75 175.764 337.993 175.173 338.479 174.687C338.964 174.201 339.554 173.958 340.248 173.958C340.942 173.958 341.532 174.201 342.019 174.687C342.506 175.173 342.75 175.764 342.75 176.458C342.75 177.057 342.559 177.586 342.178 178.045C341.796 178.504 341.321 178.788 340.75 178.898V181.458H347.5V178.898C346.929 178.788 346.454 178.504 346.072 178.045C345.691 177.586 345.5 177.057 345.5 176.458C345.5 175.764 345.743 175.173 346.229 174.687C346.714 174.201 347.304 173.958 347.998 173.958C348.692 173.958 349.282 174.201 349.769 174.687C350.256 175.173 350.5 175.764 350.5 176.458C350.5 177.057 350.309 177.586 349.928 178.045C349.546 178.504 349.071 178.788 348.5 178.898V181.458H353.769C354.181 181.458 354.534 181.311 354.828 181.017C355.122 180.722 355.269 180.37 355.269 179.958V178.898C354.699 178.788 354.223 178.504 353.841 178.045C353.46 177.586 353.269 177.057 353.269 176.458C353.269 175.764 353.512 175.173 353.998 174.687C354.483 174.201 355.073 173.958 355.767 173.958C356.461 173.958 357.051 174.201 357.538 174.687C358.026 175.173 358.269 175.764 358.269 176.458C358.269 177.057 358.079 177.586 357.697 178.045C357.316 178.504 356.84 178.788 356.269 178.898V179.958C356.269 180.652 356.026 181.243 355.54 181.729C355.054 182.215 354.464 182.458 353.769 182.458H348.5V185.018C349.071 185.128 349.546 185.412 349.928 185.871C350.309 186.33 350.5 186.859 350.5 187.458C350.5 188.152 350.257 188.743 349.771 189.229C349.286 189.715 348.696 189.958 348.002 189.958C347.308 189.958 346.718 189.715 346.231 189.229C345.744 188.743 345.5 188.152 345.5 187.458C345.5 186.859 345.691 186.33 346.072 185.871C346.454 185.412 346.929 185.128 347.5 185.018V182.458H340.75V185.018C341.321 185.128 341.796 185.412 342.178 185.871C342.559 186.33 342.75 186.859 342.75 187.458C342.75 188.152 342.507 188.743 342.022 189.229C341.536 189.715 340.946 189.958 340.252 189.958ZM340.25 188.958C340.662 188.958 341.014 188.811 341.309 188.517C341.603 188.222 341.75 187.87 341.75 187.458C341.75 187.046 341.603 186.694 341.309 186.399C341.014 186.105 340.662 185.958 340.25 185.958C339.838 185.958 339.486 186.105 339.191 186.399C338.897 186.694 338.75 187.046 338.75 187.458C338.75 187.87 338.897 188.222 339.191 188.517C339.486 188.811 339.838 188.958 340.25 188.958ZM340.25 177.958C340.662 177.958 341.014 177.811 341.309 177.517C341.603 177.222 341.75 176.87 341.75 176.458C341.75 176.046 341.603 175.694 341.309 175.399C341.014 175.105 340.662 174.958 340.25 174.958C339.838 174.958 339.486 175.105 339.191 175.399C338.897 175.694 338.75 176.046 338.75 176.458C338.75 176.87 338.897 177.222 339.191 177.517C339.486 177.811 339.838 177.958 340.25 177.958ZM348 188.958C348.412 188.958 348.764 188.811 349.059 188.517C349.353 188.222 349.5 187.87 349.5 187.458C349.5 187.046 349.353 186.694 349.059 186.399C348.764 186.105 348.412 185.958 348 185.958C347.588 185.958 347.236 186.105 346.941 186.399C346.647 186.694 346.5 187.046 346.5 187.458C346.5 187.87 346.647 188.222 346.941 188.517C347.236 188.811 347.588 188.958 348 188.958ZM348 177.958C348.412 177.958 348.764 177.811 349.059 177.517C349.353 177.222 349.5 176.87 349.5 176.458C349.5 176.046 349.353 175.694 349.059 175.399C348.764 175.105 348.412 174.958 348 174.958C347.588 174.958 347.236 175.105 346.941 175.399C346.647 175.694 346.5 176.046 346.5 176.458C346.5 176.87 346.647 177.222 346.941 177.517C347.236 177.811 347.588 177.958 348 177.958ZM355.769 177.958C356.181 177.958 356.534 177.811 356.828 177.517C357.122 177.222 357.269 176.87 357.269 176.458C357.269 176.046 357.122 175.694 356.828 175.399C356.534 175.105 356.181 174.958 355.769 174.958C355.358 174.958 355.005 175.105 354.711 175.399C354.416 175.694 354.269 176.046 354.269 176.458C354.269 176.87 354.416 177.222 354.711 177.517C355.005 177.811 355.358 177.958 355.769 177.958Z" fill="#B5F0E5"/>
</g>
<path d="M308.042 213.958V210.094L304.682 204.186H306.026L308.63 208.89H308.672L311.276 204.186H312.62L309.218 210.052V213.958H308.042ZM318.031 214.126C317.396 214.126 316.822 214.019 316.309 213.804C315.805 213.58 315.371 213.258 315.007 212.838C314.652 212.409 314.377 211.881 314.181 211.256C313.985 210.621 313.887 209.893 313.887 209.072C313.887 208.251 313.985 207.527 314.181 206.902C314.377 206.277 314.652 205.749 315.007 205.32C315.371 204.891 315.805 204.569 316.309 204.354C316.822 204.13 317.396 204.018 318.031 204.018C318.656 204.018 319.226 204.13 319.739 204.354C320.252 204.569 320.686 204.891 321.041 205.32C321.405 205.749 321.685 206.277 321.881 206.902C322.077 207.527 322.175 208.251 322.175 209.072C322.175 209.893 322.077 210.621 321.881 211.256C321.685 211.881 321.405 212.409 321.041 212.838C320.686 213.258 320.252 213.58 319.739 213.804C319.226 214.019 318.656 214.126 318.031 214.126ZM318.031 213.076C318.451 213.076 318.838 213.001 319.193 212.852C319.548 212.703 319.851 212.488 320.103 212.208C320.364 211.928 320.565 211.592 320.705 211.2C320.845 210.808 320.915 210.369 320.915 209.884V208.26C320.915 207.775 320.845 207.336 320.705 206.944C320.565 206.552 320.364 206.216 320.103 205.936C319.851 205.656 319.548 205.441 319.193 205.292C318.838 205.143 318.451 205.068 318.031 205.068C317.611 205.068 317.224 205.143 316.869 205.292C316.514 205.441 316.206 205.656 315.945 205.936C315.693 206.216 315.497 206.552 315.357 206.944C315.217 207.336 315.147 207.775 315.147 208.26V209.884C315.147 210.369 315.217 210.808 315.357 211.2C315.497 211.592 315.693 211.928 315.945 212.208C316.206 212.488 316.514 212.703 316.869 212.852C317.224 213.001 317.611 213.076 318.031 213.076ZM326.095 204.186V210.234C326.095 211.167 326.268 211.877 326.613 212.362C326.958 212.838 327.565 213.076 328.433 213.076C329.301 213.076 329.908 212.838 330.253 212.362C330.598 211.877 330.771 211.167 330.771 210.234V204.186H331.947V209.954C331.947 210.663 331.882 211.279 331.751 211.802C331.63 212.325 331.429 212.759 331.149 213.104C330.869 213.449 330.5 213.706 330.043 213.874C329.595 214.042 329.044 214.126 328.391 214.126C327.738 214.126 327.187 214.042 326.739 213.874C326.3 213.706 325.946 213.449 325.675 213.104C325.404 212.759 325.208 212.325 325.087 211.802C324.975 211.279 324.919 210.663 324.919 209.954V204.186H326.095ZM336.353 213.958H335.177V204.186H339.069C339.928 204.186 340.595 204.424 341.071 204.9C341.557 205.376 341.799 206.062 341.799 206.958C341.799 207.677 341.631 208.269 341.295 208.736C340.969 209.193 340.483 209.497 339.839 209.646L342.079 213.958H340.749L338.635 209.758H336.353V213.958ZM339.069 208.75C339.536 208.75 339.895 208.629 340.147 208.386C340.409 208.143 340.539 207.798 340.539 207.35V206.622C340.539 206.174 340.409 205.829 340.147 205.586C339.895 205.343 339.536 205.222 339.069 205.222H336.353V208.75H339.069ZM348.841 213.958V204.186H350.017V212.922H354.175V213.958H348.841ZM359.785 214.126C359.15 214.126 358.576 214.019 358.063 213.804C357.559 213.58 357.125 213.258 356.761 212.838C356.406 212.409 356.131 211.881 355.935 211.256C355.739 210.621 355.641 209.893 355.641 209.072C355.641 208.251 355.739 207.527 355.935 206.902C356.131 206.277 356.406 205.749 356.761 205.32C357.125 204.891 357.559 204.569 358.063 204.354C358.576 204.13 359.15 204.018 359.785 204.018C360.41 204.018 360.98 204.13 361.493 204.354C362.006 204.569 362.44 204.891 362.795 205.32C363.159 205.749 363.439 206.277 363.635 206.902C363.831 207.527 363.929 208.251 363.929 209.072C363.929 209.893 363.831 210.621 363.635 211.256C363.439 211.881 363.159 212.409 362.795 212.838C362.44 213.258 362.006 213.58 361.493 213.804C360.98 214.019 360.41 214.126 359.785 214.126ZM359.785 213.076C360.205 213.076 360.592 213.001 360.947 212.852C361.302 212.703 361.605 212.488 361.857 212.208C362.118 211.928 362.319 211.592 362.459 211.2C362.599 210.808 362.669 210.369 362.669 209.884V208.26C362.669 207.775 362.599 207.336 362.459 206.944C362.319 206.552 362.118 206.216 361.857 205.936C361.605 205.656 361.302 205.441 360.947 205.292C360.592 205.143 360.205 205.068 359.785 205.068C359.365 205.068 358.978 205.143 358.623 205.292C358.268 205.441 357.96 205.656 357.699 205.936C357.447 206.216 357.251 206.552 357.111 206.944C356.971 207.336 356.901 207.775 356.901 208.26V209.884C356.901 210.369 356.971 210.808 357.111 211.2C357.251 211.592 357.447 211.928 357.699 212.208C357.96 212.488 358.268 212.703 358.623 212.852C358.978 213.001 359.365 213.076 359.785 213.076ZM373.071 212.53H373.029C372.908 212.987 372.609 213.37 372.133 213.678C371.666 213.977 371.06 214.126 370.313 214.126C369.716 214.126 369.165 214.019 368.661 213.804C368.166 213.58 367.742 213.258 367.387 212.838C367.032 212.409 366.752 211.881 366.547 211.256C366.351 210.621 366.253 209.893 366.253 209.072C366.253 208.26 366.351 207.541 366.547 206.916C366.743 206.281 367.023 205.754 367.387 205.334C367.751 204.905 368.19 204.578 368.703 204.354C369.216 204.13 369.786 204.018 370.411 204.018C371.288 204.018 372.021 204.214 372.609 204.606C373.197 204.998 373.65 205.516 373.967 206.16L373.001 206.748C372.777 206.225 372.441 205.815 371.993 205.516C371.554 205.217 371.027 205.068 370.411 205.068C369.982 205.068 369.59 205.147 369.235 205.306C368.88 205.455 368.572 205.67 368.311 205.95C368.059 206.23 367.863 206.566 367.723 206.958C367.583 207.35 367.513 207.789 367.513 208.274V209.856C367.513 210.341 367.583 210.785 367.723 211.186C367.863 211.578 368.059 211.914 368.311 212.194C368.572 212.474 368.89 212.693 369.263 212.852C369.636 213.001 370.056 213.076 370.523 213.076C370.859 213.076 371.176 213.034 371.475 212.95C371.783 212.857 372.049 212.721 372.273 212.544C372.506 212.367 372.688 212.147 372.819 211.886C372.95 211.615 373.015 211.298 373.015 210.934V209.968H370.859V208.932H374.163V213.958H373.071V212.53ZM376.715 213.958V212.978H378.087V205.166H376.715V204.186H380.635V205.166H379.263V212.978H380.635V213.958H376.715ZM386.927 214.126C385.686 214.126 384.72 213.706 384.029 212.866C383.338 212.017 382.993 210.771 382.993 209.128C382.993 207.485 383.338 206.225 384.029 205.348C384.72 204.461 385.686 204.018 386.927 204.018C387.748 204.018 388.434 204.205 388.985 204.578C389.545 204.951 389.979 205.479 390.287 206.16L389.335 206.734C389.139 206.23 388.84 205.829 388.439 205.53C388.038 205.222 387.534 205.068 386.927 205.068C386.507 205.068 386.129 205.147 385.793 205.306C385.466 205.465 385.186 205.693 384.953 205.992C384.729 206.281 384.556 206.631 384.435 207.042C384.314 207.443 384.253 207.896 384.253 208.4V209.856C384.253 210.864 384.486 211.653 384.953 212.222C385.42 212.791 386.078 213.076 386.927 213.076C387.552 213.076 388.075 212.917 388.495 212.6C388.915 212.273 389.223 211.844 389.419 211.312L390.357 211.9C390.049 212.591 389.606 213.137 389.027 213.538C388.448 213.93 387.748 214.126 386.927 214.126Z" fill="#B5F0E5"/>
<rect x="272.925" y="267.458" width="150.481" height="36.9026" rx="18.4513" fill="#1B6352" fill-opacity="0.12"/>
<rect x="272.925" y="267.458" width="150.481" height="36.9026" rx="18.4513" stroke="#15FF81"/>
<path fill-rule="evenodd" clip-rule="evenodd" d="M303.156 286.801L301.964 288.029C301.964 288.03 301.963 288.031 301.962 288.031C301.959 288.033 301.956 288.034 301.952 288.034C301.941 288.034 301.933 288.026 301.933 288.015C301.933 288.013 301.933 288.011 301.934 288.009C301.934 288.009 301.934 288.009 301.934 288.009L302.387 286.266C302.426 286.141 302.397 285.998 302.301 285.899L301.11 284.671C301.109 284.67 301.108 284.669 301.108 284.668C301.106 284.665 301.105 284.662 301.105 284.658C301.105 284.647 301.113 284.638 301.124 284.638C301.126 284.638 301.128 284.639 301.13 284.639L302.82 285.107C302.941 285.147 303.079 285.117 303.175 285.018L304.367 283.789C304.367 283.789 304.368 283.788 304.369 283.787C304.372 283.785 304.375 283.784 304.379 283.784C304.39 283.784 304.398 283.793 304.398 283.804C304.398 283.806 304.398 283.808 304.397 283.81L303.944 285.553C303.905 285.678 303.934 285.82 304.03 285.919L305.221 287.148C305.222 287.149 305.223 287.15 305.223 287.15C305.225 287.153 305.226 287.157 305.226 287.161C305.226 287.172 305.218 287.18 305.207 287.18C305.205 287.18 305.203 287.18 305.201 287.179C305.201 287.179 305.201 287.179 305.201 287.179L303.511 286.712C303.39 286.672 303.252 286.702 303.156 286.801ZM309.855 285.781L307.009 282.847C306.913 282.748 306.775 282.718 306.654 282.758L304.783 283.276C304.783 283.275 304.783 283.275 304.782 283.275C304.781 283.276 304.779 283.276 304.777 283.276C304.766 283.276 304.758 283.268 304.758 283.257C304.758 283.25 304.761 283.244 304.767 283.241C304.971 283.101 305.28 282.847 306.021 282.084C306.089 282.013 306.089 281.898 306.021 281.827L303.29 279.011C303.221 278.94 303.11 278.94 303.041 279.011L300.196 281.945C300.1 282.044 300.071 282.187 300.11 282.312L300.611 284.241C300.611 284.241 300.611 284.242 300.611 284.242C300.612 284.244 300.612 284.246 300.612 284.248C300.612 284.258 300.604 284.267 300.593 284.267C300.587 284.267 300.581 284.264 300.578 284.258C300.442 284.048 300.196 283.728 299.456 282.965C299.387 282.894 299.276 282.894 299.207 282.965L296.476 285.781C296.408 285.852 296.408 285.967 296.476 286.037L299.322 288.972C299.418 289.071 299.556 289.1 299.677 289.061L301.548 288.543C301.548 288.543 301.548 288.543 301.549 288.543C301.55 288.543 301.552 288.542 301.554 288.542C301.565 288.542 301.573 288.551 301.573 288.562C301.573 288.569 301.57 288.575 301.564 288.578C301.564 288.578 301.564 288.578 301.564 288.578C301.36 288.718 301.051 288.972 300.31 289.735C300.242 289.806 300.242 289.92 300.31 289.991L303.041 292.808C303.11 292.878 303.221 292.878 303.29 292.808L306.135 289.873C306.231 289.774 306.26 289.632 306.221 289.507L305.719 287.577C305.719 287.577 305.72 287.577 305.72 287.577C305.719 287.575 305.719 287.573 305.719 287.571C305.719 287.56 305.727 287.552 305.738 287.552C305.744 287.552 305.75 287.555 305.753 287.561C305.889 287.771 306.135 288.09 306.875 288.854C306.944 288.925 307.055 288.925 307.124 288.854L309.855 286.037C309.923 285.967 309.923 285.852 309.855 285.781Z" fill="#15FF81"/>
<path d="M319.755 291.053C319.075 291.053 318.495 290.925 318.015 290.669C317.535 290.405 317.127 290.045 316.791 289.589L317.535 288.965C317.831 289.357 318.159 289.657 318.519 289.865C318.879 290.065 319.303 290.165 319.791 290.165C320.391 290.165 320.847 290.021 321.159 289.733C321.479 289.445 321.639 289.061 321.639 288.581C321.639 288.181 321.519 287.873 321.279 287.657C321.039 287.441 320.643 287.269 320.091 287.141L319.407 286.985C318.639 286.809 318.051 286.545 317.643 286.193C317.243 285.833 317.043 285.329 317.043 284.681C317.043 284.313 317.111 283.985 317.247 283.697C317.383 283.409 317.571 283.169 317.811 282.977C318.059 282.785 318.351 282.641 318.687 282.545C319.031 282.441 319.407 282.389 319.815 282.389C320.447 282.389 320.987 282.505 321.435 282.737C321.891 282.969 322.275 283.309 322.587 283.757L321.831 284.309C321.599 283.989 321.319 283.737 320.991 283.553C320.663 283.369 320.255 283.277 319.767 283.277C319.231 283.277 318.807 283.393 318.495 283.625C318.191 283.849 318.039 284.189 318.039 284.645C318.039 285.045 318.167 285.349 318.423 285.557C318.687 285.757 319.083 285.917 319.611 286.037L320.295 286.193C321.119 286.377 321.715 286.657 322.083 287.033C322.451 287.409 322.635 287.909 322.635 288.533C322.635 288.917 322.567 289.265 322.431 289.577C322.303 289.889 322.115 290.153 321.867 290.369C321.619 290.585 321.315 290.753 320.955 290.873C320.603 290.993 320.203 291.053 319.755 291.053ZM327.643 283.421V290.909H326.635V283.421H323.971V282.533H330.307V283.421H327.643ZM336.749 290.909L335.909 288.437H332.525L331.685 290.909H330.665L333.593 282.533H334.877L337.805 290.909H336.749ZM334.241 283.469H334.181L332.765 287.549H335.657L334.241 283.469ZM340.801 290.909H339.793V282.533H343.129C343.865 282.533 344.437 282.737 344.845 283.145C345.261 283.553 345.469 284.141 345.469 284.909C345.469 285.525 345.325 286.033 345.037 286.433C344.757 286.825 344.341 287.085 343.789 287.213L345.709 290.909H344.569L342.757 287.309H340.801V290.909ZM343.129 286.445C343.529 286.445 343.837 286.341 344.053 286.133C344.277 285.925 344.389 285.629 344.389 285.245V284.621C344.389 284.237 344.277 283.941 344.053 283.733C343.837 283.525 343.529 283.421 343.129 283.421H340.801V286.445H343.129ZM350.265 286.793L349.077 288.113V290.909H348.069V282.533H349.077V286.985H349.113L350.313 285.533L352.845 282.533H354.081L350.961 286.121L354.297 290.909H353.049L350.265 286.793ZM359.71 290.909V282.533H363.046C363.798 282.533 364.374 282.749 364.774 283.181C365.182 283.605 365.386 284.189 365.386 284.933C365.386 285.677 365.182 286.265 364.774 286.697C364.374 287.121 363.798 287.333 363.046 287.333H360.718V290.909H359.71ZM360.718 286.445H363.046C363.446 286.445 363.754 286.341 363.97 286.133C364.194 285.925 364.306 285.629 364.306 285.245V284.621C364.306 284.237 364.194 283.941 363.97 283.733C363.754 283.525 363.446 283.421 363.046 283.421H360.718V286.445ZM368.595 290.909H367.587V282.533H370.923C371.659 282.533 372.231 282.737 372.639 283.145C373.055 283.553 373.263 284.141 373.263 284.909C373.263 285.525 373.119 286.033 372.831 286.433C372.551 286.825 372.135 287.085 371.583 287.213L373.503 290.909H372.363L370.551 287.309H368.595V290.909ZM370.923 286.445C371.323 286.445 371.631 286.341 371.847 286.133C372.071 285.925 372.183 285.629 372.183 285.245V284.621C372.183 284.237 372.071 283.941 371.847 283.733C371.631 283.525 371.323 283.421 370.923 283.421H368.595V286.445H370.923ZM378.878 291.053C378.334 291.053 377.842 290.961 377.402 290.777C376.97 290.585 376.598 290.309 376.286 289.949C375.982 289.581 375.746 289.129 375.578 288.593C375.41 288.049 375.326 287.425 375.326 286.721C375.326 286.017 375.41 285.397 375.578 284.861C375.746 284.325 375.982 283.873 376.286 283.505C376.598 283.137 376.97 282.861 377.402 282.677C377.842 282.485 378.334 282.389 378.878 282.389C379.414 282.389 379.902 282.485 380.342 282.677C380.782 282.861 381.154 283.137 381.458 283.505C381.77 283.873 382.01 284.325 382.178 284.861C382.346 285.397 382.43 286.017 382.43 286.721C382.43 287.425 382.346 288.049 382.178 288.593C382.01 289.129 381.77 289.581 381.458 289.949C381.154 290.309 380.782 290.585 380.342 290.777C379.902 290.961 379.414 291.053 378.878 291.053ZM378.878 290.153C379.238 290.153 379.57 290.089 379.874 289.961C380.178 289.833 380.438 289.649 380.654 289.409C380.878 289.169 381.05 288.881 381.17 288.545C381.29 288.209 381.35 287.833 381.35 287.417V286.025C381.35 285.609 381.29 285.233 381.17 284.897C381.05 284.561 380.878 284.273 380.654 284.033C380.438 283.793 380.178 283.609 379.874 283.481C379.57 283.353 379.238 283.289 378.878 283.289C378.518 283.289 378.186 283.353 377.882 283.481C377.578 283.609 377.314 283.793 377.09 284.033C376.874 284.273 376.706 284.561 376.586 284.897C376.466 285.233 376.406 285.609 376.406 286.025V287.417C376.406 287.833 376.466 288.209 376.586 288.545C376.706 288.881 376.874 289.169 377.09 289.409C377.314 289.649 377.578 289.833 377.882 289.961C378.186 290.089 378.518 290.153 378.878 290.153ZM387.974 291.053C387.43 291.053 386.938 290.961 386.498 290.777C386.066 290.585 385.694 290.309 385.382 289.949C385.078 289.581 384.842 289.129 384.674 288.593C384.506 288.049 384.422 287.425 384.422 286.721C384.422 286.017 384.506 285.397 384.674 284.861C384.842 284.325 385.078 283.873 385.382 283.505C385.694 283.137 386.066 282.861 386.498 282.677C386.938 282.485 387.43 282.389 387.974 282.389C388.51 282.389 388.998 282.485 389.438 282.677C389.878 282.861 390.25 283.137 390.554 283.505C390.866 283.873 391.106 284.325 391.274 284.861C391.442 285.397 391.526 286.017 391.526 286.721C391.526 287.425 391.442 288.049 391.274 288.593C391.106 289.129 390.866 289.581 390.554 289.949C390.25 290.309 389.878 290.585 389.438 290.777C388.998 290.961 388.51 291.053 387.974 291.053ZM387.974 290.153C388.334 290.153 388.666 290.089 388.97 289.961C389.274 289.833 389.534 289.649 389.75 289.409C389.974 289.169 390.146 288.881 390.266 288.545C390.386 288.209 390.446 287.833 390.446 287.417V286.025C390.446 285.609 390.386 285.233 390.266 284.897C390.146 284.561 389.974 284.273 389.75 284.033C389.534 283.793 389.274 283.609 388.97 283.481C388.666 283.353 388.334 283.289 387.974 283.289C387.614 283.289 387.282 283.353 386.978 283.481C386.674 283.609 386.41 283.793 386.186 284.033C385.97 284.273 385.802 284.561 385.682 284.897C385.562 285.233 385.502 285.609 385.502 286.025V287.417C385.502 287.833 385.562 288.209 385.682 288.545C385.802 288.881 385.97 289.169 386.186 289.409C386.41 289.649 386.674 289.833 386.978 289.961C387.282 290.089 387.614 290.153 387.974 290.153ZM393.938 290.909V282.533H398.93V283.421H394.946V286.229H398.582V287.117H394.946V290.909H393.938Z" fill="#15FF81"/>
</g>
<defs>
<filter id="filter0_dd_1395_2802" x="211.5" y="0.630371" width="273" height="459.191" filterUnits="userSpaceOnUse" color-interpolation-filters="sRGB">
<feFlood flood-opacity="0" result="BackgroundImageFix"/>
<feColorMatrix in="SourceAlpha" type="matrix" values="0 0 0 0 0 0 0 0 0 0 0 0 0 0 0 0 0 0 127 0" result="hardAlpha"/>
<feMorphology radius="2" operator="erode" in="SourceAlpha" result="effect1_dropShadow_1395_2802"/>
<feOffset dy="2"/>
<feGaussianBlur stdDeviation="2"/>
<feColorMatrix type="matrix" values="0 0 0 0 0.0627451 0 0 0 0 0.0941176 0 0 0 0 0.156863 0 0 0 0.06 0"/>
<feBlend mode="normal" in2="BackgroundImageFix" result="effect1_dropShadow_1395_2802"/>
<feColorMatrix in="SourceAlpha" type="matrix" values="0 0 0 0 0 0 0 0 0 0 0 0 0 0 0 0 0 0 127 0" result="hardAlpha"/>
<feMorphology radius="2" operator="erode" in="SourceAlpha" result="effect2_dropShadow_1395_2802"/>
<feOffset dy="4"/>
<feGaussianBlur stdDeviation="4"/>
<feColorMatrix type="matrix" values="0 0 0 0 0.0627451 0 0 0 0 0.0941176 0 0 0 0 0.156863 0 0 0 0.1 0"/>
<feBlend mode="normal" in2="effect1_dropShadow_1395_2802" result="effect2_dropShadow_1395_2802"/>
<feBlend mode="normal" in="SourceGraphic" in2="effect2_dropShadow_1395_2802" result="shape"/>
</filter>
<filter id="filter1_d_1395_2802" x="325.842" y="110.822" width="44" height="44" filterUnits="userSpaceOnUse" color-interpolation-filters="sRGB">
<feFlood flood-opacity="0" result="BackgroundImageFix"/>
<feColorMatrix in="SourceAlpha" type="matrix" values="0 0 0 0 0 0 0 0 0 0 0 0 0 0 0 0 0 0 127 0" result="hardAlpha"/>
<feOffset/>
<feGaussianBlur stdDeviation="7"/>
<feComposite in2="hardAlpha" operator="out"/>
<feColorMatrix type="matrix" values="0 0 0 0 0.235294 0 0 0 0 0.956863 0 0 0 0 0.403922 0 0 0 0.8 0"/>
<feBlend mode="normal" in2="BackgroundImageFix" result="effect1_dropShadow_1395_2802"/>
<feBlend mode="normal" in="SourceGraphic" in2="effect1_dropShadow_1395_2802" result="shape"/>
</filter>
<linearGradient id="paint0_linear_1395_2802" x1="348.5" y1="219.458" x2="344.5" y2="219.676" gradientUnits="userSpaceOnUse">
<stop stop-color="#B5F0E5" stop-opacity="0"/>
<stop offset="0.51" stop-color="#B5F0E5"/>
<stop offset="1" stop-color="#B5F0E5" stop-opacity="0"/>
</linearGradient>
<linearGradient id="paint1_linear_1395_2802" x1="348.5" y1="96.5879" x2="344.496" y2="96.7687" gradientUnits="userSpaceOnUse">
<stop stop-color="#B5F0E5" stop-opacity="0"/>
<stop offset="0.51" stop-color="#B5F0E5"/>
<stop offset="1" stop-color="#B5F0E5" stop-opacity="0"/>
</linearGradient>
<linearGradient id="paint2_linear_1395_2802" x1="348.5" y1="292.361" x2="344.5" y2="292.579" gradientUnits="userSpaceOnUse">
<stop stop-color="#B5F0E5" stop-opacity="0"/>
<stop offset="0.51" stop-color="#B5F0E5"/>
<stop offset="1" stop-color="#B5F0E5" stop-opacity="0"/>
</linearGradient>
</defs>
</svg>
