<svg width="374" height="289" viewBox="0 0 374 289" fill="none" xmlns="http://www.w3.org/2000/svg">
<g filter="url(#filter0_b_1_2095)">
<g clip-path="url(#clip0_1_2095)">
<rect width="374" height="289" rx="20" fill="#1B6352" fill-opacity="0.12"/>
<g opacity="0.6">
<path d="M61.6693 95.0685L387.023 216.888" stroke="url(#paint0_linear_1_2095)"/>
<path d="M32.7761 212.847L325.781 93.6534" stroke="url(#paint1_linear_1_2095)"/>
<path d="M361.221 20.2521L196.957 83.3977C183.265 88.661 175.387 103.053 178.333 117.423L197.483 210.859C200.383 225.012 192.786 239.221 179.405 244.668L32.7761 304.36" stroke="url(#paint2_linear_1_2095)"/>
<path d="M106.698 144.023L13.2638 151.702C0.879857 152.72 -11.5709 150.839 -23.1015 146.209L-139.599 99.4259" stroke="url(#paint3_linear_1_2095)"/>
</g>
<path d="M-25.6527 91.9806C-35.4675 88.1945 -35.4675 74.3079 -25.6527 70.5218L24.2204 51.2833C26.884 50.2559 29.8345 50.2559 32.4981 51.2833L101.72 77.9857C104.708 79.138 104.708 83.3644 101.72 84.5167L32.4981 111.219C29.8345 112.247 26.884 112.247 24.2204 111.219L-25.6527 91.9806Z" fill="#021A17" stroke="url(#paint4_linear_1_2095)"/>
<path d="M-1.57625 216.614C-11.3911 212.828 -11.3911 198.941 -1.57625 195.155L48.2968 175.917C50.9604 174.889 53.9109 174.889 56.5745 175.917L125.797 202.619C128.784 203.772 128.784 207.998 125.797 209.15L56.5745 235.853C53.9109 236.88 50.9604 236.88 48.2968 235.853L-1.57625 216.614Z" fill="#021A17" stroke="url(#paint5_linear_1_2095)"/>
<path d="M133.76 159.693C119.678 154.261 119.678 134.337 133.76 128.905L174.653 113.131C185.654 108.887 197.841 108.887 208.843 113.131L249.735 128.905C263.818 134.337 263.818 154.261 249.735 159.693L208.843 175.468C197.841 179.711 185.654 179.711 174.653 175.468L133.76 159.693Z" fill="#021A17" stroke="url(#paint6_linear_1_2095)"/>
<path d="M287.86 80.264C284.873 79.1117 284.873 74.8853 287.86 73.733L357.082 47.0307C359.746 46.0032 362.697 46.0032 365.36 47.0307L415.233 66.2691C425.048 70.0552 425.048 83.9418 415.233 87.7279L365.36 106.966C362.697 107.994 359.746 107.994 357.082 106.966L287.86 80.264Z" fill="#021A17" stroke="url(#paint7_linear_1_2095)"/>
<g filter="url(#filter1_d_1_2095)">
<rect x="52.4355" y="144.495" width="6.2" height="6.19777" rx="3.09888" fill="#A281FF"/>
</g>
<g filter="url(#filter2_d_1_2095)">
<rect x="284.386" y="106" width="6.2" height="6.19777" rx="3.09888" fill="#A281FF"/>
</g>
<g filter="url(#filter3_d_1_2095)">
<rect x="173.078" y="243" width="6.2" height="6.19777" rx="3.09888" fill="#A281FF"/>
</g>
<g filter="url(#filter4_d_1_2095)">
<rect x="314" y="188" width="6.2" height="6.19777" rx="3.09888" fill="#A281FF"/>
</g>
<g filter="url(#filter5_d_1_2095)">
<rect x="268.842" y="50.7384" width="6.2" height="6.19777" rx="3.09888" fill="#A281FF"/>
</g>
<path fill-rule="evenodd" clip-rule="evenodd" d="M103.017 144.7C103.203 146.933 104.948 149.115 108.251 150.389L177.024 176.918C186.141 180.435 197.354 180.435 206.471 176.919L275.244 150.389C279.016 148.934 280.756 146.295 280.463 143.748V135.647L274.228 137.817L206.471 111.68C197.354 108.163 186.141 108.163 177.024 111.68L108.834 137.984L102.999 135.696V144.682L103.017 144.7Z" fill="#021A17"/>
<path d="M108.251 150.389L108.071 150.856L108.251 150.389ZM103.017 144.7L103.515 144.658L103.5 144.474L103.369 144.344L103.017 144.7ZM177.024 176.918L177.204 176.452L177.024 176.918ZM206.471 176.919L206.291 176.452L206.471 176.919ZM275.244 150.389L275.064 149.923L275.244 150.389ZM280.463 143.748H279.963V143.777L279.967 143.805L280.463 143.748ZM280.463 135.647H280.963V134.944L280.299 135.175L280.463 135.647ZM274.228 137.817L274.048 138.284L274.22 138.35L274.393 138.289L274.228 137.817ZM206.471 111.68L206.651 111.213L206.471 111.68ZM177.024 111.68L176.844 111.213L177.024 111.68ZM108.834 137.984L108.652 138.449L108.833 138.52L109.014 138.45L108.834 137.984ZM102.999 135.696L103.182 135.23L102.499 134.963V135.696H102.999ZM102.999 144.682H102.499V144.89L102.647 145.037L102.999 144.682ZM108.431 149.923C105.242 148.693 103.68 146.64 103.515 144.658L102.519 144.741C102.726 147.226 104.653 149.537 108.071 150.856L108.431 149.923ZM177.204 176.452L108.431 149.923L108.071 150.856L176.844 177.385L177.204 176.452ZM206.291 176.452C197.29 179.924 186.205 179.924 177.204 176.452L176.844 177.385C186.077 180.946 197.419 180.946 206.651 177.385L206.291 176.452ZM275.064 149.923L206.291 176.452L206.651 177.385L275.424 150.856L275.064 149.923ZM279.967 143.805C280.224 146.048 278.707 148.518 275.064 149.923L275.424 150.856C279.326 149.351 281.287 146.542 280.96 143.691L279.967 143.805ZM279.963 135.647V143.748H280.963V135.647H279.963ZM274.393 138.289L280.628 136.119L280.299 135.175L274.064 137.345L274.393 138.289ZM206.291 112.146L274.048 138.284L274.408 137.351L206.651 111.213L206.291 112.146ZM177.204 112.146C186.205 108.674 197.29 108.674 206.291 112.146L206.651 111.213C197.419 107.652 186.077 107.652 176.844 111.213L177.204 112.146ZM109.014 138.45L177.204 112.146L176.844 111.213L108.654 137.517L109.014 138.45ZM102.817 136.161L108.652 138.449L109.017 137.518L103.182 135.23L102.817 136.161ZM103.499 144.682V135.696H102.499V144.682H103.499ZM103.369 144.344L103.351 144.327L102.647 145.037L102.665 145.055L103.369 144.344Z" fill="url(#paint8_linear_1_2095)"/>
<path d="M108.251 141.926C101.25 139.225 101.25 132.446 108.251 129.745L177.025 103.216C186.141 99.6995 197.355 99.6995 206.471 103.216L275.245 129.745C282.245 132.446 282.245 139.225 275.245 141.926L206.471 168.455C197.355 171.971 186.141 171.971 177.025 168.455L108.251 141.926Z" fill="#021A17" stroke="url(#paint9_linear_1_2095)"/>
</g>
<rect x="0.5" y="0.5" width="373" height="288" rx="19.5" stroke="url(#paint10_linear_1_2095)" stroke-opacity="0.25"/>
</g>
<defs>
<filter id="filter0_b_1_2095" x="-54" y="-54" width="482" height="397" filterUnits="userSpaceOnUse" color-interpolation-filters="sRGB">
<feFlood flood-opacity="0" result="BackgroundImageFix"/>
<feGaussianBlur in="BackgroundImageFix" stdDeviation="27"/>
<feComposite in2="SourceAlpha" operator="in" result="effect1_backgroundBlur_1_2095"/>
<feBlend mode="normal" in="SourceGraphic" in2="effect1_backgroundBlur_1_2095" result="shape"/>
</filter>
<filter id="filter1_d_1_2095" x="38.4355" y="130.495" width="34.2" height="34.1978" filterUnits="userSpaceOnUse" color-interpolation-filters="sRGB">
<feFlood flood-opacity="0" result="BackgroundImageFix"/>
<feColorMatrix in="SourceAlpha" type="matrix" values="0 0 0 0 0 0 0 0 0 0 0 0 0 0 0 0 0 0 127 0" result="hardAlpha"/>
<feOffset/>
<feGaussianBlur stdDeviation="7"/>
<feComposite in2="hardAlpha" operator="out"/>
<feColorMatrix type="matrix" values="0 0 0 0 0.235294 0 0 0 0 0.956863 0 0 0 0 0.403922 0 0 0 0.8 0"/>
<feBlend mode="normal" in2="BackgroundImageFix" result="effect1_dropShadow_1_2095"/>
<feBlend mode="normal" in="SourceGraphic" in2="effect1_dropShadow_1_2095" result="shape"/>
</filter>
<filter id="filter2_d_1_2095" x="270.386" y="92.0002" width="34.2" height="34.1978" filterUnits="userSpaceOnUse" color-interpolation-filters="sRGB">
<feFlood flood-opacity="0" result="BackgroundImageFix"/>
<feColorMatrix in="SourceAlpha" type="matrix" values="0 0 0 0 0 0 0 0 0 0 0 0 0 0 0 0 0 0 127 0" result="hardAlpha"/>
<feOffset/>
<feGaussianBlur stdDeviation="7"/>
<feComposite in2="hardAlpha" operator="out"/>
<feColorMatrix type="matrix" values="0 0 0 0 0.235294 0 0 0 0 0.956863 0 0 0 0 0.403922 0 0 0 0.8 0"/>
<feBlend mode="normal" in2="BackgroundImageFix" result="effect1_dropShadow_1_2095"/>
<feBlend mode="normal" in="SourceGraphic" in2="effect1_dropShadow_1_2095" result="shape"/>
</filter>
<filter id="filter3_d_1_2095" x="159.078" y="229" width="34.2" height="34.1978" filterUnits="userSpaceOnUse" color-interpolation-filters="sRGB">
<feFlood flood-opacity="0" result="BackgroundImageFix"/>
<feColorMatrix in="SourceAlpha" type="matrix" values="0 0 0 0 0 0 0 0 0 0 0 0 0 0 0 0 0 0 127 0" result="hardAlpha"/>
<feOffset/>
<feGaussianBlur stdDeviation="7"/>
<feComposite in2="hardAlpha" operator="out"/>
<feColorMatrix type="matrix" values="0 0 0 0 0.235294 0 0 0 0 0.956863 0 0 0 0 0.403922 0 0 0 0.8 0"/>
<feBlend mode="normal" in2="BackgroundImageFix" result="effect1_dropShadow_1_2095"/>
<feBlend mode="normal" in="SourceGraphic" in2="effect1_dropShadow_1_2095" result="shape"/>
</filter>
<filter id="filter4_d_1_2095" x="300" y="174" width="34.2" height="34.1978" filterUnits="userSpaceOnUse" color-interpolation-filters="sRGB">
<feFlood flood-opacity="0" result="BackgroundImageFix"/>
<feColorMatrix in="SourceAlpha" type="matrix" values="0 0 0 0 0 0 0 0 0 0 0 0 0 0 0 0 0 0 127 0" result="hardAlpha"/>
<feOffset/>
<feGaussianBlur stdDeviation="7"/>
<feComposite in2="hardAlpha" operator="out"/>
<feColorMatrix type="matrix" values="0 0 0 0 0.235294 0 0 0 0 0.956863 0 0 0 0 0.403922 0 0 0 0.8 0"/>
<feBlend mode="normal" in2="BackgroundImageFix" result="effect1_dropShadow_1_2095"/>
<feBlend mode="normal" in="SourceGraphic" in2="effect1_dropShadow_1_2095" result="shape"/>
</filter>
<filter id="filter5_d_1_2095" x="254.842" y="36.7384" width="34.2" height="34.1978" filterUnits="userSpaceOnUse" color-interpolation-filters="sRGB">
<feFlood flood-opacity="0" result="BackgroundImageFix"/>
<feColorMatrix in="SourceAlpha" type="matrix" values="0 0 0 0 0 0 0 0 0 0 0 0 0 0 0 0 0 0 127 0" result="hardAlpha"/>
<feOffset/>
<feGaussianBlur stdDeviation="7"/>
<feComposite in2="hardAlpha" operator="out"/>
<feColorMatrix type="matrix" values="0 0 0 0 0.235294 0 0 0 0 0.956863 0 0 0 0 0.403922 0 0 0 0.8 0"/>
<feBlend mode="normal" in2="BackgroundImageFix" result="effect1_dropShadow_1_2095"/>
<feBlend mode="normal" in="SourceGraphic" in2="effect1_dropShadow_1_2095" result="shape"/>
</filter>
<linearGradient id="paint0_linear_1_2095" x1="241.991" y1="160.19" x2="469.345" y2="250.547" gradientUnits="userSpaceOnUse">
<stop stop-color="#A281FF"/>
<stop offset="1" stop-color="#A281FF" stop-opacity="0"/>
</linearGradient>
<linearGradient id="paint1_linear_1_2095" x1="32.5811" y1="212.922" x2="248.558" y2="7.01597" gradientUnits="userSpaceOnUse">
<stop stop-color="#A281FF"/>
<stop offset="0.532193" stop-color="#A281FF" stop-opacity="0"/>
<stop offset="1" stop-color="#A281FF"/>
</linearGradient>
<linearGradient id="paint2_linear_1_2095" x1="50.1958" y1="216.623" x2="292.43" y2="-41.9789" gradientUnits="userSpaceOnUse">
<stop stop-color="#A281FF"/>
<stop offset="0.466714" stop-color="#A281FF"/>
<stop offset="0.966785" stop-color="#A281FF" stop-opacity="0"/>
</linearGradient>
<linearGradient id="paint3_linear_1_2095" x1="116.619" y1="143.933" x2="-119.92" y2="47.4305" gradientUnits="userSpaceOnUse">
<stop stop-color="#A281FF"/>
<stop offset="1" stop-color="#A281FF" stop-opacity="0"/>
</linearGradient>
<linearGradient id="paint4_linear_1_2095" x1="-54.8564" y1="81.2512" x2="106.117" y2="81.2512" gradientUnits="userSpaceOnUse">
<stop stop-color="#A281FF"/>
<stop offset="1" stop-color="#A281FF" stop-opacity="0"/>
</linearGradient>
<linearGradient id="paint5_linear_1_2095" x1="-30.78" y1="205.885" x2="130.194" y2="205.885" gradientUnits="userSpaceOnUse">
<stop stop-color="#A281FF"/>
<stop offset="1" stop-color="#A281FF" stop-opacity="0"/>
</linearGradient>
<linearGradient id="paint6_linear_1_2095" x1="92.4634" y1="144.299" x2="284.521" y2="144.299" gradientUnits="userSpaceOnUse">
<stop stop-color="#A281FF"/>
<stop offset="1" stop-color="#A281FF" stop-opacity="0"/>
</linearGradient>
<linearGradient id="paint7_linear_1_2095" x1="278.006" y1="-92.3396" x2="404.055" y2="104.207" gradientUnits="userSpaceOnUse">
<stop offset="0.533179" stop-color="#A281FF"/>
<stop offset="1" stop-color="#A281FF" stop-opacity="0"/>
<stop offset="1" stop-color="#A281FF" stop-opacity="0"/>
</linearGradient>
<linearGradient id="paint8_linear_1_2095" x1="102.904" y1="179.624" x2="276.371" y2="178.688" gradientUnits="userSpaceOnUse">
<stop stop-color="#A281FF"/>
<stop offset="1" stop-color="#A281FF" stop-opacity="0"/>
</linearGradient>
<linearGradient id="paint9_linear_1_2095" x1="92.4635" y1="135.835" x2="284.521" y2="135.835" gradientUnits="userSpaceOnUse">
<stop stop-color="#A281FF"/>
<stop offset="1" stop-color="#A281FF" stop-opacity="0"/>
</linearGradient>
<linearGradient id="paint10_linear_1_2095" x1="187" y1="0" x2="187" y2="289" gradientUnits="userSpaceOnUse">
<stop stop-color="white"/>
<stop offset="0.505208" stop-color="white" stop-opacity="0"/>
<stop offset="1" stop-color="white" stop-opacity="0.82"/>
</linearGradient>
<clipPath id="clip0_1_2095">
<rect width="374" height="289" rx="20" fill="white"/>
</clipPath>
</defs>
</svg>
