<svg width="902" height="902" viewBox="0 0 902 902" fill="none" xmlns="http://www.w3.org/2000/svg">
<g opacity="0.5">
<g opacity="0.6">
<path d="M825.267 450.168C825.267 654.495 659.686 820.134 455.431 820.134C251.176 820.134 85.5946 654.495 85.5946 450.168C85.5946 245.842 251.176 80.2032 455.431 80.2032C659.686 80.2032 825.267 245.842 825.267 450.168Z" stroke="#004738" stroke-width="2"/>
<path d="M214.884 243.26C337.1 311.182 443.146 557.893 401.931 762.514" stroke="url(#paint0_linear_1_2020)" stroke-width="2"/>
<path d="M144.352 453.86C281.86 420.77 549.584 551.789 608.833 729.381" stroke="url(#paint1_linear_1_2020)" stroke-width="2"/>
<path d="M750.742 345.962C567.208 363.174 443.895 274.243 398.394 140.353" stroke="url(#paint2_linear_1_2020)" stroke-width="2"/>
<path d="M781.047 575.476C638.173 522.59 575.646 335.581 626.727 177.823" stroke="url(#paint3_linear_1_2020)" stroke-width="2"/>
<path d="M210.956 647.195C359.412 484.679 591.957 507.474 749.895 561.423" stroke="url(#paint4_linear_1_2020)" stroke-width="2"/>
<path d="M403.454 765.567C397.348 641.878 491.994 411.297 748.997 342.668" stroke="url(#paint5_linear_1_2020)" stroke-width="2"/>
</g>
<g filter="url(#filter0_d_1_2020)">
<rect width="127.638" height="129.59" rx="63.8192" transform="matrix(-0.17359 -0.984818 0.984797 -0.173707 127.782 270.372)" fill="#021A17"/>
<rect x="0.405604" y="-0.579262" width="126.638" height="128.59" rx="63.3192" transform="matrix(-0.17359 -0.984818 0.984797 -0.173707 128.829 270.091)" stroke="#B5F0E5"/>
</g>
<g filter="url(#filter1_d_1_2020)">
<rect width="127.638" height="129.59" rx="63.8192" transform="matrix(-0.17359 -0.984818 0.984797 -0.173707 26.4695 508.38)" fill="#021A17"/>
<rect x="0.405604" y="-0.579262" width="126.638" height="128.59" rx="63.3192" transform="matrix(-0.17359 -0.984818 0.984797 -0.173707 27.516 508.1)" stroke="#B5F0E5"/>
</g>
<g filter="url(#filter2_d_1_2020)">
<rect width="127.638" height="129.59" rx="63.8192" transform="matrix(-0.17359 -0.984818 0.984797 -0.173707 101.359 756.63)" fill="#021A17"/>
<rect x="0.405604" y="-0.579262" width="126.638" height="128.59" rx="63.3192" transform="matrix(-0.17359 -0.984818 0.984797 -0.173707 102.405 756.35)" stroke="#B5F0E5"/>
</g>
<g filter="url(#filter3_d_1_2020)">
<rect width="127.638" height="129.59" rx="63.8192" transform="matrix(-0.17359 -0.984818 0.984797 -0.173707 766.726 417.819)" fill="#021A17"/>
<rect x="0.405604" y="-0.579262" width="126.638" height="128.59" rx="63.3192" transform="matrix(-0.17359 -0.984818 0.984797 -0.173707 767.772 417.539)" stroke="#B5F0E5"/>
</g>
<g filter="url(#filter4_d_1_2020)">
<rect width="127.638" height="129.59" rx="63.8192" transform="matrix(-0.17359 -0.984818 0.984797 -0.173707 578.771 866.387)" fill="#021A17"/>
<rect x="0.405604" y="-0.579262" width="126.638" height="128.59" rx="63.3192" transform="matrix(-0.17359 -0.984818 0.984797 -0.173707 579.817 866.107)" stroke="#B5F0E5"/>
</g>
<g filter="url(#filter5_d_1_2020)">
<rect width="127.638" height="129.59" rx="63.8192" transform="matrix(-0.17359 -0.984818 0.984797 -0.173707 358.609 152.853)" fill="#021A17"/>
<rect x="0.405604" y="-0.579262" width="126.638" height="128.59" rx="63.3192" transform="matrix(-0.17359 -0.984818 0.984797 -0.173707 359.655 152.572)" stroke="#B5F0E5"/>
</g>
<g filter="url(#filter6_d_1_2020)">
<rect width="127.629" height="129.6" rx="63.8143" transform="matrix(0.499869 -0.866101 0.86595 0.50013 575.667 160.008)" fill="#021A17"/>
<rect x="0.68291" y="-0.182985" width="126.629" height="128.6" rx="63.3143" transform="matrix(0.499869 -0.866101 0.86595 0.50013 576.167 160.508)" stroke="#B5F0E5"/>
</g>
<g filter="url(#filter7_d_1_2020)">
<rect width="127.601" height="129.629" rx="63.8003" transform="matrix(0.939654 0.342125 -0.341915 0.939731 767.992 520.137)" fill="#021A17"/>
<rect x="0.29887" y="0.640928" width="126.601" height="128.629" rx="63.3003" transform="matrix(0.939654 0.342125 -0.341915 0.939731 768.229 520.074)" stroke="#B5F0E5"/>
</g>
<g filter="url(#filter8_d_1_2020)">
<rect width="127.638" height="129.59" rx="63.8192" transform="matrix(-0.17359 0.984818 -0.984797 -0.173707 446.854 772.142)" fill="#021A17"/>
<rect x="-0.579194" y="0.405556" width="126.638" height="128.59" rx="63.3192" transform="matrix(-0.17359 0.984818 -0.984797 -0.173707 446.573 773.189)" stroke="#B5F0E5"/>
</g>
</g>
<defs>
<filter id="filter0_d_1_2020" x="91.6257" y="108.16" width="177.777" height="176.211" filterUnits="userSpaceOnUse" color-interpolation-filters="sRGB">
<feFlood flood-opacity="0" result="BackgroundImageFix"/>
<feColorMatrix in="SourceAlpha" type="matrix" values="0 0 0 0 0 0 0 0 0 0 0 0 0 0 0 0 0 0 127 0" result="hardAlpha"/>
<feOffset/>
<feGaussianBlur stdDeviation="7"/>
<feComposite in2="hardAlpha" operator="out"/>
<feColorMatrix type="matrix" values="0 0 0 0 0.235294 0 0 0 0 0.956863 0 0 0 0 0.403922 0 0 0 0.8 0"/>
<feBlend mode="normal" in2="BackgroundImageFix" result="effect1_dropShadow_1_2020"/>
<feBlend mode="normal" in="SourceGraphic" in2="effect1_dropShadow_1_2020" result="shape"/>
</filter>
<filter id="filter1_d_1_2020" x="-9.68726" y="346.169" width="177.777" height="176.211" filterUnits="userSpaceOnUse" color-interpolation-filters="sRGB">
<feFlood flood-opacity="0" result="BackgroundImageFix"/>
<feColorMatrix in="SourceAlpha" type="matrix" values="0 0 0 0 0 0 0 0 0 0 0 0 0 0 0 0 0 0 127 0" result="hardAlpha"/>
<feOffset/>
<feGaussianBlur stdDeviation="7"/>
<feComposite in2="hardAlpha" operator="out"/>
<feColorMatrix type="matrix" values="0 0 0 0 0.235294 0 0 0 0 0.956863 0 0 0 0 0.403922 0 0 0 0.8 0"/>
<feBlend mode="normal" in2="BackgroundImageFix" result="effect1_dropShadow_1_2020"/>
<feBlend mode="normal" in="SourceGraphic" in2="effect1_dropShadow_1_2020" result="shape"/>
</filter>
<filter id="filter2_d_1_2020" x="65.2019" y="594.419" width="177.777" height="176.211" filterUnits="userSpaceOnUse" color-interpolation-filters="sRGB">
<feFlood flood-opacity="0" result="BackgroundImageFix"/>
<feColorMatrix in="SourceAlpha" type="matrix" values="0 0 0 0 0 0 0 0 0 0 0 0 0 0 0 0 0 0 127 0" result="hardAlpha"/>
<feOffset/>
<feGaussianBlur stdDeviation="7"/>
<feComposite in2="hardAlpha" operator="out"/>
<feColorMatrix type="matrix" values="0 0 0 0 0.235294 0 0 0 0 0.956863 0 0 0 0 0.403922 0 0 0 0.8 0"/>
<feBlend mode="normal" in2="BackgroundImageFix" result="effect1_dropShadow_1_2020"/>
<feBlend mode="normal" in="SourceGraphic" in2="effect1_dropShadow_1_2020" result="shape"/>
</filter>
<filter id="filter3_d_1_2020" x="730.569" y="255.608" width="177.777" height="176.211" filterUnits="userSpaceOnUse" color-interpolation-filters="sRGB">
<feFlood flood-opacity="0" result="BackgroundImageFix"/>
<feColorMatrix in="SourceAlpha" type="matrix" values="0 0 0 0 0 0 0 0 0 0 0 0 0 0 0 0 0 0 127 0" result="hardAlpha"/>
<feOffset/>
<feGaussianBlur stdDeviation="7"/>
<feComposite in2="hardAlpha" operator="out"/>
<feColorMatrix type="matrix" values="0 0 0 0 0.235294 0 0 0 0 0.956863 0 0 0 0 0.403922 0 0 0 0.8 0"/>
<feBlend mode="normal" in2="BackgroundImageFix" result="effect1_dropShadow_1_2020"/>
<feBlend mode="normal" in="SourceGraphic" in2="effect1_dropShadow_1_2020" result="shape"/>
</filter>
<filter id="filter4_d_1_2020" x="542.614" y="704.176" width="177.777" height="176.211" filterUnits="userSpaceOnUse" color-interpolation-filters="sRGB">
<feFlood flood-opacity="0" result="BackgroundImageFix"/>
<feColorMatrix in="SourceAlpha" type="matrix" values="0 0 0 0 0 0 0 0 0 0 0 0 0 0 0 0 0 0 127 0" result="hardAlpha"/>
<feOffset/>
<feGaussianBlur stdDeviation="7"/>
<feComposite in2="hardAlpha" operator="out"/>
<feColorMatrix type="matrix" values="0 0 0 0 0.235294 0 0 0 0 0.956863 0 0 0 0 0.403922 0 0 0 0.8 0"/>
<feBlend mode="normal" in2="BackgroundImageFix" result="effect1_dropShadow_1_2020"/>
<feBlend mode="normal" in="SourceGraphic" in2="effect1_dropShadow_1_2020" result="shape"/>
</filter>
<filter id="filter5_d_1_2020" x="322.452" y="-9.35858" width="177.777" height="176.211" filterUnits="userSpaceOnUse" color-interpolation-filters="sRGB">
<feFlood flood-opacity="0" result="BackgroundImageFix"/>
<feColorMatrix in="SourceAlpha" type="matrix" values="0 0 0 0 0 0 0 0 0 0 0 0 0 0 0 0 0 0 127 0" result="hardAlpha"/>
<feOffset/>
<feGaussianBlur stdDeviation="7"/>
<feComposite in2="hardAlpha" operator="out"/>
<feColorMatrix type="matrix" values="0 0 0 0 0.235294 0 0 0 0 0.956863 0 0 0 0 0.403922 0 0 0 0.8 0"/>
<feBlend mode="normal" in2="BackgroundImageFix" result="effect1_dropShadow_1_2020"/>
<feBlend mode="normal" in="SourceGraphic" in2="effect1_dropShadow_1_2020" result="shape"/>
</filter>
<filter id="filter6_d_1_2020" x="561.667" y="35.4686" width="204.025" height="203.356" filterUnits="userSpaceOnUse" color-interpolation-filters="sRGB">
<feFlood flood-opacity="0" result="BackgroundImageFix"/>
<feColorMatrix in="SourceAlpha" type="matrix" values="0 0 0 0 0 0 0 0 0 0 0 0 0 0 0 0 0 0 127 0" result="hardAlpha"/>
<feOffset/>
<feGaussianBlur stdDeviation="7"/>
<feComposite in2="hardAlpha" operator="out"/>
<feColorMatrix type="matrix" values="0 0 0 0 0.235294 0 0 0 0 0.956863 0 0 0 0 0.403922 0 0 0 0.8 0"/>
<feBlend mode="normal" in2="BackgroundImageFix" result="effect1_dropShadow_1_2020"/>
<feBlend mode="normal" in="SourceGraphic" in2="effect1_dropShadow_1_2020" result="shape"/>
</filter>
<filter id="filter7_d_1_2020" x="709.67" y="506.137" width="192.222" height="193.472" filterUnits="userSpaceOnUse" color-interpolation-filters="sRGB">
<feFlood flood-opacity="0" result="BackgroundImageFix"/>
<feColorMatrix in="SourceAlpha" type="matrix" values="0 0 0 0 0 0 0 0 0 0 0 0 0 0 0 0 0 0 127 0" result="hardAlpha"/>
<feOffset/>
<feGaussianBlur stdDeviation="7"/>
<feComposite in2="hardAlpha" operator="out"/>
<feColorMatrix type="matrix" values="0 0 0 0 0.235294 0 0 0 0 0.956863 0 0 0 0 0.403922 0 0 0 0.8 0"/>
<feBlend mode="normal" in2="BackgroundImageFix" result="effect1_dropShadow_1_2020"/>
<feBlend mode="normal" in="SourceGraphic" in2="effect1_dropShadow_1_2020" result="shape"/>
</filter>
<filter id="filter8_d_1_2020" x="283.077" y="735.632" width="177.777" height="176.211" filterUnits="userSpaceOnUse" color-interpolation-filters="sRGB">
<feFlood flood-opacity="0" result="BackgroundImageFix"/>
<feColorMatrix in="SourceAlpha" type="matrix" values="0 0 0 0 0 0 0 0 0 0 0 0 0 0 0 0 0 0 127 0" result="hardAlpha"/>
<feOffset/>
<feGaussianBlur stdDeviation="7"/>
<feComposite in2="hardAlpha" operator="out"/>
<feColorMatrix type="matrix" values="0 0 0 0 0.235294 0 0 0 0 0.956863 0 0 0 0 0.403922 0 0 0 0.8 0"/>
<feBlend mode="normal" in2="BackgroundImageFix" result="effect1_dropShadow_1_2020"/>
<feBlend mode="normal" in="SourceGraphic" in2="effect1_dropShadow_1_2020" result="shape"/>
</filter>
<linearGradient id="paint0_linear_1_2020" x1="312.932" y1="243.26" x2="312.932" y2="762.514" gradientUnits="userSpaceOnUse">
<stop offset="0.4375" stop-color="#A281FF"/>
<stop offset="1" stop-color="#A281FF" stop-opacity="0"/>
</linearGradient>
<linearGradient id="paint1_linear_1_2020" x1="182.62" y1="405.366" x2="602.846" y2="736.968" gradientUnits="userSpaceOnUse">
<stop offset="0.4375" stop-color="#A281FF"/>
<stop offset="1" stop-color="#A281FF" stop-opacity="0"/>
</linearGradient>
<linearGradient id="paint2_linear_1_2020" x1="519.861" y1="227.337" x2="750.784" y2="363.378" gradientUnits="userSpaceOnUse">
<stop offset="0.546875" stop-color="#A281FF"/>
<stop offset="1" stop-color="#A281FF" stop-opacity="0"/>
</linearGradient>
<linearGradient id="paint3_linear_1_2020" x1="726.464" y1="588.295" x2="629.888" y2="177.08" gradientUnits="userSpaceOnUse">
<stop offset="0.4375" stop-color="#A281FF"/>
<stop offset="1" stop-color="#A281FF" stop-opacity="0"/>
</linearGradient>
<linearGradient id="paint4_linear_1_2020" x1="213.983" y1="657.233" x2="731.703" y2="501.101" gradientUnits="userSpaceOnUse">
<stop offset="0.4375" stop-color="#A281FF"/>
<stop offset="1" stop-color="#A281FF" stop-opacity="0"/>
</linearGradient>
<linearGradient id="paint5_linear_1_2020" x1="367.398" y1="735.555" x2="716.756" y2="315.832" gradientUnits="userSpaceOnUse">
<stop offset="0.4375" stop-color="#A281FF"/>
<stop offset="1" stop-color="#A281FF" stop-opacity="0"/>
</linearGradient>
</defs>
</svg>
