<svg width="1847" height="907" viewBox="0 0 1847 907" fill="none" xmlns="http://www.w3.org/2000/svg">
<path d="M1398.7 597.935C1481.12 597.935 1547.94 531.121 1547.94 448.702C1547.94 366.282 1481.12 299.468 1398.7 299.468C1316.28 299.468 1249.47 366.282 1249.47 448.702C1249.47 531.121 1316.28 597.935 1398.7 597.935Z" stroke="#B5F0E54D" stroke-width="0.5" stroke-miterlimit="10"/>
<path d="M1469.83 448.701C1469.83 409.415 1437.99 377.567 1398.7 377.567C1359.41 377.567 1327.57 409.415 1327.57 448.701C1327.57 487.988 1359.41 519.835 1398.7 519.835C1437.99 519.835 1469.83 487.988 1469.83 448.701Z" stroke="#B5F0E54D" stroke-width="0.5" stroke-miterlimit="10"/>
<path d="M1398.7 697.427C1536.07 697.427 1647.43 586.069 1647.43 448.701C1647.43 311.333 1536.07 199.975 1398.7 199.975C1261.33 199.975 1149.97 311.333 1149.97 448.701C1149.97 586.069 1261.33 697.427 1398.7 697.427Z" stroke="#B5F0E54D" stroke-width="0.5" stroke-miterlimit="10"/>
<path d="M1398.7 697.428C1536.07 697.428 1647.43 586.07 1647.43 448.702C1647.43 311.334 1536.07 199.976 1398.7 199.976C1261.33 199.976 1149.97 311.334 1149.97 448.702C1149.97 586.07 1261.33 697.428 1398.7 697.428Z" stroke="#B5F0E54D" stroke-width="0.5" stroke-miterlimit="10"/>
<path d="M1398.7 796.91C1591.01 796.91 1746.91 641.012 1746.91 448.702C1746.91 256.392 1591.01 100.494 1398.7 100.494C1206.39 100.494 1050.49 256.392 1050.49 448.702C1050.49 641.012 1206.39 796.91 1398.7 796.91Z" stroke="#B5F0E54D" stroke-width="0.5" stroke-miterlimit="10"/>
<path d="M1398.7 896.402C1645.96 896.402 1846.4 695.96 1846.4 448.701C1846.4 201.443 1645.96 1 1398.7 1C1151.44 1 951 201.443 951 448.701C951 695.96 1151.44 896.402 1398.7 896.402Z" stroke="#B5F0E54D" stroke-width="0.5" stroke-miterlimit="10"/>
<g filter="url(#filter0_d_269_48)">
<rect x="1424.78" y="190.662" width="18.6272" height="18.6272" rx="9.31361" fill="#B5F0E54D"/>
</g>
<g filter="url(#filter1_d_269_48)">
<rect x="1131.35" y="209.289" width="18.6272" height="18.6272" rx="9.31361" fill="#B5F0E54D"/>
</g>
<g filter="url(#filter2_d_269_48)">
<rect x="1314.88" y="312.445" width="18.6272" height="18.6272" rx="9.31361" fill="#B5F0E54D"/>
</g>
<g filter="url(#filter3_d_269_48)">
<rect x="1691.15" y="617" width="18.6272" height="18.6272" rx="9.31361" fill="#B5F0E54D"/>
</g>
<g filter="url(#filter4_d_269_48)">
<rect x="1287.07" y="874.056" width="18.6272" height="18.6272" rx="9.31361" fill="#B5F0E54D"/>
</g>
<g filter="url(#filter5_d_269_48)">
<rect x="954.447" y="547.148" width="18.6272" height="18.6272" rx="9.31361" fill="#B5F0E54D"/>
</g>
<g filter="url(#filter6_d_269_48)">
<rect x="1199.4" y="600.236" width="18.6272" height="18.6272" rx="9.31361" fill="#B5F0E54D"/>
</g>
<path d="M458.969 598.234C541.389 598.234 608.203 531.42 608.203 449C608.203 366.581 541.389 299.767 458.969 299.767C376.55 299.767 309.735 366.581 309.735 449C309.735 531.42 376.55 598.234 458.969 598.234Z" stroke="#B5F0E54D" stroke-width="0.5" stroke-miterlimit="10"/>
<path d="M530.102 449C530.102 409.714 498.254 377.866 458.967 377.866C419.681 377.866 387.833 409.714 387.833 449C387.833 488.286 419.681 520.134 458.967 520.134C498.254 520.134 530.102 488.286 530.102 449Z" stroke="#B5F0E54D" stroke-width="0.5" stroke-miterlimit="10"/>
<path d="M458.969 697.726C596.336 697.726 707.695 586.368 707.695 449C707.695 311.632 596.336 200.273 458.969 200.273C321.601 200.273 210.242 311.632 210.242 449C210.242 586.368 321.601 697.726 458.969 697.726Z" stroke="#B5F0E54D" stroke-width="0.5" stroke-miterlimit="10"/>
<path d="M458.969 697.727C596.336 697.727 707.695 586.369 707.695 449.001C707.695 311.633 596.336 200.274 458.969 200.274C321.601 200.274 210.242 311.633 210.242 449.001C210.242 586.369 321.601 697.727 458.969 697.727Z" stroke="#B5F0E54D" stroke-width="0.5" stroke-miterlimit="10"/>
<path d="M458.969 797.209C651.279 797.209 807.178 641.311 807.178 449.001C807.178 256.691 651.279 100.792 458.969 100.792C266.659 100.792 110.761 256.691 110.761 449.001C110.761 641.311 266.659 797.209 458.969 797.209Z" stroke="#B5F0E54D" stroke-width="0.5" stroke-miterlimit="10"/>
<path d="M458.969 896.701C706.227 896.701 906.67 696.258 906.67 449C906.67 201.741 706.227 1.29883 458.969 1.29883C211.71 1.29883 11.2676 201.741 11.2676 449C11.2676 696.258 211.71 896.701 458.969 896.701Z" stroke="#B5F0E54D" stroke-width="0.5" stroke-miterlimit="10"/>
<g filter="url(#filter7_d_269_48)">
<rect x="485.052" y="190.96" width="18.6272" height="18.6272" rx="9.31361" fill="#B5F0E54D"/>
</g>
<g filter="url(#filter8_d_269_48)">
<rect x="191.614" y="209.588" width="18.6272" height="18.6272" rx="9.31361" fill="#B5F0E54D"/>
</g>
<g filter="url(#filter9_d_269_48)">
<rect x="375.151" y="312.744" width="18.6272" height="18.6272" rx="9.31361" fill="#B5F0E54D"/>
</g>
<g filter="url(#filter10_d_269_48)">
<rect x="751.421" y="617.299" width="18.6272" height="18.6272" rx="9.31361" fill="#B5F0E54D"/>
</g>
<g filter="url(#filter11_d_269_48)">
<rect x="347.34" y="874.354" width="18.6272" height="18.6272" rx="9.31361" fill="#B5F0E54D"/>
</g>
<g filter="url(#filter12_d_269_48)">
<rect x="14.7148" y="547.447" width="18.6272" height="18.6272" rx="9.31361" fill="#B5F0E54D"/>
</g>
<g filter="url(#filter13_d_269_48)">
<rect x="259.663" y="600.535" width="18.6272" height="18.6272" rx="9.31361" fill="#B5F0E54D"/>
</g>
<g filter="url(#filter14_d_269_48)">
<rect x="437" y="426" width="44" height="45" rx="22" fill="#B5F0E54D"/>
</g>
<g filter="url(#filter15_d_269_48)">
<rect x="1377" y="426" width="44" height="45" rx="22" fill="#B5F0E54D"/>
</g>
<defs>
<filter id="filter0_d_269_48" x="1410.78" y="176.662" width="46.627" height="46.6274" filterUnits="userSpaceOnUse" color-interpolation-filters="sRGB">
<feFlood flood-opacity="0" result="BackgroundImageFix"/>
<feColorMatrix in="SourceAlpha" type="matrix" values="0 0 0 0 0 0 0 0 0 0 0 0 0 0 0 0 0 0 127 0" result="hardAlpha"/>
<feOffset/>
<feGaussianBlur stdDeviation="7"/>
<feComposite in2="hardAlpha" operator="out"/>
<feColorMatrix type="matrix" values="0 0 0 0 0.235294 0 0 0 0 0.956863 0 0 0 0 0.403922 0 0 0 0.8 0"/>
<feBlend mode="normal" in2="BackgroundImageFix" result="effect1_dropShadow_269_48"/>
<feBlend mode="normal" in="SourceGraphic" in2="effect1_dropShadow_269_48" result="shape"/>
</filter>
<filter id="filter1_d_269_48" x="1117.35" y="195.289" width="46.627" height="46.6274" filterUnits="userSpaceOnUse" color-interpolation-filters="sRGB">
<feFlood flood-opacity="0" result="BackgroundImageFix"/>
<feColorMatrix in="SourceAlpha" type="matrix" values="0 0 0 0 0 0 0 0 0 0 0 0 0 0 0 0 0 0 127 0" result="hardAlpha"/>
<feOffset/>
<feGaussianBlur stdDeviation="7"/>
<feComposite in2="hardAlpha" operator="out"/>
<feColorMatrix type="matrix" values="0 0 0 0 0.235294 0 0 0 0 0.956863 0 0 0 0 0.403922 0 0 0 0.8 0"/>
<feBlend mode="normal" in2="BackgroundImageFix" result="effect1_dropShadow_269_48"/>
<feBlend mode="normal" in="SourceGraphic" in2="effect1_dropShadow_269_48" result="shape"/>
</filter>
<filter id="filter2_d_269_48" x="1300.88" y="298.445" width="46.627" height="46.6274" filterUnits="userSpaceOnUse" color-interpolation-filters="sRGB">
<feFlood flood-opacity="0" result="BackgroundImageFix"/>
<feColorMatrix in="SourceAlpha" type="matrix" values="0 0 0 0 0 0 0 0 0 0 0 0 0 0 0 0 0 0 127 0" result="hardAlpha"/>
<feOffset/>
<feGaussianBlur stdDeviation="7"/>
<feComposite in2="hardAlpha" operator="out"/>
<feColorMatrix type="matrix" values="0 0 0 0 0.235294 0 0 0 0 0.956863 0 0 0 0 0.403922 0 0 0 0.8 0"/>
<feBlend mode="normal" in2="BackgroundImageFix" result="effect1_dropShadow_269_48"/>
<feBlend mode="normal" in="SourceGraphic" in2="effect1_dropShadow_269_48" result="shape"/>
</filter>
<filter id="filter3_d_269_48" x="1677.15" y="603" width="46.627" height="46.6274" filterUnits="userSpaceOnUse" color-interpolation-filters="sRGB">
<feFlood flood-opacity="0" result="BackgroundImageFix"/>
<feColorMatrix in="SourceAlpha" type="matrix" values="0 0 0 0 0 0 0 0 0 0 0 0 0 0 0 0 0 0 127 0" result="hardAlpha"/>
<feOffset/>
<feGaussianBlur stdDeviation="7"/>
<feComposite in2="hardAlpha" operator="out"/>
<feColorMatrix type="matrix" values="0 0 0 0 0.235294 0 0 0 0 0.956863 0 0 0 0 0.403922 0 0 0 0.8 0"/>
<feBlend mode="normal" in2="BackgroundImageFix" result="effect1_dropShadow_269_48"/>
<feBlend mode="normal" in="SourceGraphic" in2="effect1_dropShadow_269_48" result="shape"/>
</filter>
<filter id="filter4_d_269_48" x="1273.07" y="860.056" width="46.627" height="46.6274" filterUnits="userSpaceOnUse" color-interpolation-filters="sRGB">
<feFlood flood-opacity="0" result="BackgroundImageFix"/>
<feColorMatrix in="SourceAlpha" type="matrix" values="0 0 0 0 0 0 0 0 0 0 0 0 0 0 0 0 0 0 127 0" result="hardAlpha"/>
<feOffset/>
<feGaussianBlur stdDeviation="7"/>
<feComposite in2="hardAlpha" operator="out"/>
<feColorMatrix type="matrix" values="0 0 0 0 0.235294 0 0 0 0 0.956863 0 0 0 0 0.403922 0 0 0 0.8 0"/>
<feBlend mode="normal" in2="BackgroundImageFix" result="effect1_dropShadow_269_48"/>
<feBlend mode="normal" in="SourceGraphic" in2="effect1_dropShadow_269_48" result="shape"/>
</filter>
<filter id="filter5_d_269_48" x="940.447" y="533.148" width="46.627" height="46.6274" filterUnits="userSpaceOnUse" color-interpolation-filters="sRGB">
<feFlood flood-opacity="0" result="BackgroundImageFix"/>
<feColorMatrix in="SourceAlpha" type="matrix" values="0 0 0 0 0 0 0 0 0 0 0 0 0 0 0 0 0 0 127 0" result="hardAlpha"/>
<feOffset/>
<feGaussianBlur stdDeviation="7"/>
<feComposite in2="hardAlpha" operator="out"/>
<feColorMatrix type="matrix" values="0 0 0 0 0.235294 0 0 0 0 0.956863 0 0 0 0 0.403922 0 0 0 0.8 0"/>
<feBlend mode="normal" in2="BackgroundImageFix" result="effect1_dropShadow_269_48"/>
<feBlend mode="normal" in="SourceGraphic" in2="effect1_dropShadow_269_48" result="shape"/>
</filter>
<filter id="filter6_d_269_48" x="1185.4" y="586.236" width="46.627" height="46.6274" filterUnits="userSpaceOnUse" color-interpolation-filters="sRGB">
<feFlood flood-opacity="0" result="BackgroundImageFix"/>
<feColorMatrix in="SourceAlpha" type="matrix" values="0 0 0 0 0 0 0 0 0 0 0 0 0 0 0 0 0 0 127 0" result="hardAlpha"/>
<feOffset/>
<feGaussianBlur stdDeviation="7"/>
<feComposite in2="hardAlpha" operator="out"/>
<feColorMatrix type="matrix" values="0 0 0 0 0.235294 0 0 0 0 0.956863 0 0 0 0 0.403922 0 0 0 0.8 0"/>
<feBlend mode="normal" in2="BackgroundImageFix" result="effect1_dropShadow_269_48"/>
<feBlend mode="normal" in="SourceGraphic" in2="effect1_dropShadow_269_48" result="shape"/>
</filter>
<filter id="filter7_d_269_48" x="471.052" y="176.96" width="46.627" height="46.6274" filterUnits="userSpaceOnUse" color-interpolation-filters="sRGB">
<feFlood flood-opacity="0" result="BackgroundImageFix"/>
<feColorMatrix in="SourceAlpha" type="matrix" values="0 0 0 0 0 0 0 0 0 0 0 0 0 0 0 0 0 0 127 0" result="hardAlpha"/>
<feOffset/>
<feGaussianBlur stdDeviation="7"/>
<feComposite in2="hardAlpha" operator="out"/>
<feColorMatrix type="matrix" values="0 0 0 0 0.235294 0 0 0 0 0.956863 0 0 0 0 0.403922 0 0 0 0.8 0"/>
<feBlend mode="normal" in2="BackgroundImageFix" result="effect1_dropShadow_269_48"/>
<feBlend mode="normal" in="SourceGraphic" in2="effect1_dropShadow_269_48" result="shape"/>
</filter>
<filter id="filter8_d_269_48" x="177.614" y="195.588" width="46.627" height="46.6274" filterUnits="userSpaceOnUse" color-interpolation-filters="sRGB">
<feFlood flood-opacity="0" result="BackgroundImageFix"/>
<feColorMatrix in="SourceAlpha" type="matrix" values="0 0 0 0 0 0 0 0 0 0 0 0 0 0 0 0 0 0 127 0" result="hardAlpha"/>
<feOffset/>
<feGaussianBlur stdDeviation="7"/>
<feComposite in2="hardAlpha" operator="out"/>
<feColorMatrix type="matrix" values="0 0 0 0 0.235294 0 0 0 0 0.956863 0 0 0 0 0.403922 0 0 0 0.8 0"/>
<feBlend mode="normal" in2="BackgroundImageFix" result="effect1_dropShadow_269_48"/>
<feBlend mode="normal" in="SourceGraphic" in2="effect1_dropShadow_269_48" result="shape"/>
</filter>
<filter id="filter9_d_269_48" x="361.151" y="298.744" width="46.627" height="46.6274" filterUnits="userSpaceOnUse" color-interpolation-filters="sRGB">
<feFlood flood-opacity="0" result="BackgroundImageFix"/>
<feColorMatrix in="SourceAlpha" type="matrix" values="0 0 0 0 0 0 0 0 0 0 0 0 0 0 0 0 0 0 127 0" result="hardAlpha"/>
<feOffset/>
<feGaussianBlur stdDeviation="7"/>
<feComposite in2="hardAlpha" operator="out"/>
<feColorMatrix type="matrix" values="0 0 0 0 0.235294 0 0 0 0 0.956863 0 0 0 0 0.403922 0 0 0 0.8 0"/>
<feBlend mode="normal" in2="BackgroundImageFix" result="effect1_dropShadow_269_48"/>
<feBlend mode="normal" in="SourceGraphic" in2="effect1_dropShadow_269_48" result="shape"/>
</filter>
<filter id="filter10_d_269_48" x="737.421" y="603.299" width="46.627" height="46.6274" filterUnits="userSpaceOnUse" color-interpolation-filters="sRGB">
<feFlood flood-opacity="0" result="BackgroundImageFix"/>
<feColorMatrix in="SourceAlpha" type="matrix" values="0 0 0 0 0 0 0 0 0 0 0 0 0 0 0 0 0 0 127 0" result="hardAlpha"/>
<feOffset/>
<feGaussianBlur stdDeviation="7"/>
<feComposite in2="hardAlpha" operator="out"/>
<feColorMatrix type="matrix" values="0 0 0 0 0.235294 0 0 0 0 0.956863 0 0 0 0 0.403922 0 0 0 0.8 0"/>
<feBlend mode="normal" in2="BackgroundImageFix" result="effect1_dropShadow_269_48"/>
<feBlend mode="normal" in="SourceGraphic" in2="effect1_dropShadow_269_48" result="shape"/>
</filter>
<filter id="filter11_d_269_48" x="333.34" y="860.354" width="46.627" height="46.6274" filterUnits="userSpaceOnUse" color-interpolation-filters="sRGB">
<feFlood flood-opacity="0" result="BackgroundImageFix"/>
<feColorMatrix in="SourceAlpha" type="matrix" values="0 0 0 0 0 0 0 0 0 0 0 0 0 0 0 0 0 0 127 0" result="hardAlpha"/>
<feOffset/>
<feGaussianBlur stdDeviation="7"/>
<feComposite in2="hardAlpha" operator="out"/>
<feColorMatrix type="matrix" values="0 0 0 0 0.235294 0 0 0 0 0.956863 0 0 0 0 0.403922 0 0 0 0.8 0"/>
<feBlend mode="normal" in2="BackgroundImageFix" result="effect1_dropShadow_269_48"/>
<feBlend mode="normal" in="SourceGraphic" in2="effect1_dropShadow_269_48" result="shape"/>
</filter>
<filter id="filter12_d_269_48" x="0.714844" y="533.447" width="46.627" height="46.6274" filterUnits="userSpaceOnUse" color-interpolation-filters="sRGB">
<feFlood flood-opacity="0" result="BackgroundImageFix"/>
<feColorMatrix in="SourceAlpha" type="matrix" values="0 0 0 0 0 0 0 0 0 0 0 0 0 0 0 0 0 0 127 0" result="hardAlpha"/>
<feOffset/>
<feGaussianBlur stdDeviation="7"/>
<feComposite in2="hardAlpha" operator="out"/>
<feColorMatrix type="matrix" values="0 0 0 0 0.235294 0 0 0 0 0.956863 0 0 0 0 0.403922 0 0 0 0.8 0"/>
<feBlend mode="normal" in2="BackgroundImageFix" result="effect1_dropShadow_269_48"/>
<feBlend mode="normal" in="SourceGraphic" in2="effect1_dropShadow_269_48" result="shape"/>
</filter>
<filter id="filter13_d_269_48" x="245.663" y="586.535" width="46.627" height="46.6274" filterUnits="userSpaceOnUse" color-interpolation-filters="sRGB">
<feFlood flood-opacity="0" result="BackgroundImageFix"/>
<feColorMatrix in="SourceAlpha" type="matrix" values="0 0 0 0 0 0 0 0 0 0 0 0 0 0 0 0 0 0 127 0" result="hardAlpha"/>
<feOffset/>
<feGaussianBlur stdDeviation="7"/>
<feComposite in2="hardAlpha" operator="out"/>
<feColorMatrix type="matrix" values="0 0 0 0 0.235294 0 0 0 0 0.956863 0 0 0 0 0.403922 0 0 0 0.8 0"/>
<feBlend mode="normal" in2="BackgroundImageFix" result="effect1_dropShadow_269_48"/>
<feBlend mode="normal" in="SourceGraphic" in2="effect1_dropShadow_269_48" result="shape"/>
</filter>
<filter id="filter14_d_269_48" x="423" y="412" width="72" height="73" filterUnits="userSpaceOnUse" color-interpolation-filters="sRGB">
<feFlood flood-opacity="0" result="BackgroundImageFix"/>
<feColorMatrix in="SourceAlpha" type="matrix" values="0 0 0 0 0 0 0 0 0 0 0 0 0 0 0 0 0 0 127 0" result="hardAlpha"/>
<feOffset/>
<feGaussianBlur stdDeviation="7"/>
<feComposite in2="hardAlpha" operator="out"/>
<feColorMatrix type="matrix" values="0 0 0 0 0.235294 0 0 0 0 0.956863 0 0 0 0 0.403922 0 0 0 0.8 0"/>
<feBlend mode="normal" in2="BackgroundImageFix" result="effect1_dropShadow_269_48"/>
<feBlend mode="normal" in="SourceGraphic" in2="effect1_dropShadow_269_48" result="shape"/>
</filter>
<filter id="filter15_d_269_48" x="1363" y="412" width="72" height="73" filterUnits="userSpaceOnUse" color-interpolation-filters="sRGB">
<feFlood flood-opacity="0" result="BackgroundImageFix"/>
<feColorMatrix in="SourceAlpha" type="matrix" values="0 0 0 0 0 0 0 0 0 0 0 0 0 0 0 0 0 0 127 0" result="hardAlpha"/>
<feOffset/>
<feGaussianBlur stdDeviation="7"/>
<feComposite in2="hardAlpha" operator="out"/>
<feColorMatrix type="matrix" values="0 0 0 0 0.235294 0 0 0 0 0.956863 0 0 0 0 0.403922 0 0 0 0.8 0"/>
<feBlend mode="normal" in2="BackgroundImageFix" result="effect1_dropShadow_269_48"/>
<feBlend mode="normal" in="SourceGraphic" in2="effect1_dropShadow_269_48" result="shape"/>
</filter>
</defs>
</svg>
