<svg width="343" height="281" viewBox="0 0 343 281" fill="none" xmlns="http://www.w3.org/2000/svg">
<path d="M476.692 137.511L-228.87 137.511" stroke="#B5F0E5" stroke-width="0.5"/>
<path d="M468.929 257.218L298.781 257.218C251.129 257.218 205.042 240.204 168.821 209.239L141.04 185.489C104.819 154.525 58.7321 137.51 11.0797 137.51L-226.876 137.51" stroke="#B5F0E5" stroke-width="0.5"/>
<path d="M479.297 17.8028L298.781 17.8028C251.128 17.8028 205.042 34.8171 168.821 65.7816L141.039 89.5317C104.818 120.496 58.7319 137.51 11.0795 137.51L-226.877 137.51" stroke="#B5F0E5" stroke-width="0.5"/>
<path d="M436.077 77.5144L265.986 77.5144C238.907 77.5144 212.11 83.0133 187.22 93.6777L122.64 121.347C97.75 132.012 70.9533 137.51 43.8745 137.51L-226.877 137.51" stroke="url(#paint0_linear_1157_3585)" stroke-width="0.5"/>
<path d="M476.692 77.5144L265.986 77.5144C238.907 77.5144 212.11 83.0133 187.22 93.6777L122.64 121.347C97.7499 132.012 70.9531 137.51 43.8744 137.51L-226.877 137.51" stroke="#B5F0E5" stroke-width="0.5"/>
<path d="M472.81 197.365L265.986 197.365C238.907 197.365 212.11 191.866 187.22 181.201L122.64 153.532C97.75 142.867 70.9532 137.369 43.8745 137.369L-226.877 137.369" stroke="#B5F0E5" stroke-width="0.5"/>
<rect x="-228.87" y="0.511841" width="359.747" height="280.26" fill="url(#paint1_linear_1157_3585)"/>
<rect x="480.869" y="280.772" width="158.481" height="280.26" transform="rotate(-180 480.869 280.772)" fill="url(#paint2_linear_1157_3585)"/>
<g filter="url(#filter0_d_1157_3585)">
<rect x="165.184" y="170.628" width="13.0434" height="12.6617" rx="6.33087" fill="#15FF81"/>
</g>
<g filter="url(#filter1_d_1157_3585)">
<rect x="279.141" y="71.3259" width="13.0434" height="12.6617" rx="6.33087" fill="#15FF81"/>
</g>
<g filter="url(#filter2_d_1157_3585)">
<rect x="309.345" y="249.895" width="13.0434" height="12.6617" rx="6.33087" fill="#15FF81"/>
</g>
<defs>
<filter id="filter0_d_1157_3585" x="151.184" y="156.628" width="41.0433" height="40.6617" filterUnits="userSpaceOnUse" color-interpolation-filters="sRGB">
<feFlood flood-opacity="0" result="BackgroundImageFix"/>
<feColorMatrix in="SourceAlpha" type="matrix" values="0 0 0 0 0 0 0 0 0 0 0 0 0 0 0 0 0 0 127 0" result="hardAlpha"/>
<feOffset/>
<feGaussianBlur stdDeviation="7"/>
<feComposite in2="hardAlpha" operator="out"/>
<feColorMatrix type="matrix" values="0 0 0 0 0.235294 0 0 0 0 0.956863 0 0 0 0 0.403922 0 0 0 0.8 0"/>
<feBlend mode="normal" in2="BackgroundImageFix" result="effect1_dropShadow_1157_3585"/>
<feBlend mode="normal" in="SourceGraphic" in2="effect1_dropShadow_1157_3585" result="shape"/>
</filter>
<filter id="filter1_d_1157_3585" x="265.141" y="57.3259" width="41.0433" height="40.6617" filterUnits="userSpaceOnUse" color-interpolation-filters="sRGB">
<feFlood flood-opacity="0" result="BackgroundImageFix"/>
<feColorMatrix in="SourceAlpha" type="matrix" values="0 0 0 0 0 0 0 0 0 0 0 0 0 0 0 0 0 0 127 0" result="hardAlpha"/>
<feOffset/>
<feGaussianBlur stdDeviation="7"/>
<feComposite in2="hardAlpha" operator="out"/>
<feColorMatrix type="matrix" values="0 0 0 0 0.235294 0 0 0 0 0.956863 0 0 0 0 0.403922 0 0 0 0.8 0"/>
<feBlend mode="normal" in2="BackgroundImageFix" result="effect1_dropShadow_1157_3585"/>
<feBlend mode="normal" in="SourceGraphic" in2="effect1_dropShadow_1157_3585" result="shape"/>
</filter>
<filter id="filter2_d_1157_3585" x="295.345" y="235.895" width="41.0433" height="40.6617" filterUnits="userSpaceOnUse" color-interpolation-filters="sRGB">
<feFlood flood-opacity="0" result="BackgroundImageFix"/>
<feColorMatrix in="SourceAlpha" type="matrix" values="0 0 0 0 0 0 0 0 0 0 0 0 0 0 0 0 0 0 127 0" result="hardAlpha"/>
<feOffset/>
<feGaussianBlur stdDeviation="7"/>
<feComposite in2="hardAlpha" operator="out"/>
<feColorMatrix type="matrix" values="0 0 0 0 0.235294 0 0 0 0 0.956863 0 0 0 0 0.403922 0 0 0 0.8 0"/>
<feBlend mode="normal" in2="BackgroundImageFix" result="effect1_dropShadow_1157_3585"/>
<feBlend mode="normal" in="SourceGraphic" in2="effect1_dropShadow_1157_3585" result="shape"/>
</filter>
<linearGradient id="paint0_linear_1157_3585" x1="436.077" y1="107.512" x2="-226.877" y2="107.512" gradientUnits="userSpaceOnUse">
<stop stop-color="#B5F0E5"/>
<stop offset="0.85" stop-color="#B5F0E5" stop-opacity="0"/>
</linearGradient>
<linearGradient id="paint1_linear_1157_3585" x1="-228.87" y1="136.022" x2="154.86" y2="136.022" gradientUnits="userSpaceOnUse">
<stop offset="0.33433" stop-color="#04201C"/>
<stop offset="1" stop-color="#04201C" stop-opacity="0"/>
</linearGradient>
<linearGradient id="paint2_linear_1157_3585" x1="480.869" y1="416.282" x2="649.916" y2="416.282" gradientUnits="userSpaceOnUse">
<stop stop-color="#04201C"/>
<stop offset="1" stop-color="#04201C" stop-opacity="0"/>
</linearGradient>
</defs>
</svg>
