<svg width="696" height="340" viewBox="0 0 696 340" fill="none" xmlns="http://www.w3.org/2000/svg">
<g filter="url(#filter0_dd_1395_2767)">
<path d="M207.71 146.417L207.71 111.417" stroke="url(#paint0_linear_1395_2767)" stroke-opacity="0.5"/>
<path d="M487.54 146.417L487.54 111.417" stroke="url(#paint1_linear_1395_2767)" stroke-opacity="0.5"/>
<path d="M207.71 219.32L207.71 184.32" stroke="url(#paint2_linear_1395_2767)" stroke-opacity="0.5"/>
<path d="M487.54 219.32L487.54 184.32" stroke="url(#paint3_linear_1395_2767)" stroke-opacity="0.5"/>
<rect x="78" y="2.3623" width="540" height="109.055" rx="20" fill="#004738" fill-opacity="0.5"/>
<rect x="78.5" y="2.8623" width="539" height="108.055" rx="19.5" stroke="#B5F0E5" stroke-opacity="0.12"/>
<path d="M356.205 39.1036C356.395 39.4789 356.504 39.8991 356.504 40.3466V49.4324C356.504 50.9568 355.265 52.1958 353.741 52.1958H344.653C344.206 52.1958 343.783 52.0864 343.41 51.8968C343.866 52.7978 344.798 53.4173 345.875 53.4173H354.96C356.485 53.4173 357.724 52.1782 357.724 50.6538V41.5681C357.724 40.4912 357.104 39.559 356.203 39.1036H356.205Z" fill="#B5F0E5"/>
<path d="M352.578 51.1561C354.102 51.1561 355.341 49.917 355.341 48.3926V39.3049C355.341 39.1407 355.324 38.9824 355.297 38.8261C355.234 38.4743 355.107 38.146 354.925 37.8528C354.657 37.4209 354.276 37.0691 353.821 36.8385C353.942 37.0769 354.028 37.333 354.075 37.6046C354.102 37.761 354.12 37.9193 354.12 38.0834V47.1692C354.12 48.6936 352.881 49.9326 351.357 49.9326H342.271C342.157 49.9326 342.044 49.9229 341.935 49.9092C341.612 49.8701 341.307 49.7743 341.028 49.6336C341.303 50.1789 341.755 50.6186 342.306 50.8825C342.57 51.0075 342.855 51.0935 343.156 51.1307C343.268 51.1443 343.379 51.1541 343.492 51.1541H352.578V51.1561Z" fill="#B5F0E5"/>
<path d="M341.89 48.9769H350.128C351.652 48.9769 352.891 47.7379 352.891 46.2135V37.1258C352.891 36.9303 352.869 36.7388 352.83 36.5531C352.75 36.1701 352.588 35.8183 352.367 35.5134C351.865 34.8177 351.05 34.3623 350.128 34.3623H341.04C339.515 34.3623 338.276 35.6014 338.276 37.1258V46.2135C338.276 47.3802 339.005 48.3789 340.031 48.7834C340.27 48.8773 340.524 48.9398 340.79 48.9632C340.872 48.9711 340.956 48.9769 341.042 48.9769H341.892H341.89ZM351.271 46.2135C351.271 46.8447 350.757 47.3587 350.126 47.3587H344.452V43.3445C344.452 41.8201 345.691 40.581 347.216 40.581H351.271V46.2135ZM351.271 39.3596H345.994C344.47 39.3596 343.231 40.5986 343.231 42.123V47.3587H342.07V41.0814C342.07 39.557 343.309 38.3179 344.833 38.3179H351.271V39.3596ZM340.729 47.3138C340.248 47.177 339.897 46.7372 339.897 46.2135V37.1258C339.897 36.4945 340.411 35.9805 341.042 35.9805H350.128C350.546 35.9805 350.909 36.2053 351.111 36.5394C351.208 36.7036 351.267 36.8912 351.271 37.0945H343.612C342.087 37.0945 340.848 38.3335 340.848 39.8579V47.3372C340.807 47.3294 340.768 47.3216 340.729 47.3099V47.3138Z" fill="#B5F0E5"/>
<path d="M292.802 77.4172V67.6452H296.694C297.571 67.6452 298.243 67.8972 298.71 68.4012C299.186 68.8959 299.424 69.5772 299.424 70.4452C299.424 71.3132 299.186 71.9992 298.71 72.5032C298.243 72.9979 297.571 73.2452 296.694 73.2452H293.978V77.4172H292.802ZM293.978 72.2092H296.694C297.161 72.2092 297.52 72.0879 297.772 71.8452C298.033 71.6026 298.164 71.2572 298.164 70.8092V70.0812C298.164 69.6332 298.033 69.2879 297.772 69.0452C297.52 68.8026 297.161 68.6812 296.694 68.6812H293.978V72.2092ZM303.168 77.4172H301.992V67.6452H305.884C306.743 67.6452 307.41 67.8832 307.886 68.3592C308.372 68.8352 308.614 69.5212 308.614 70.4172C308.614 71.1359 308.446 71.7286 308.11 72.1952C307.784 72.6526 307.298 72.9559 306.654 73.1052L308.894 77.4172H307.564L305.45 73.2172H303.168V77.4172ZM305.884 72.2092C306.351 72.2092 306.71 72.0879 306.962 71.8452C307.224 71.6026 307.354 71.2572 307.354 70.8092V70.0812C307.354 69.6332 307.224 69.2879 306.962 69.0452C306.71 68.8026 306.351 68.6812 305.884 68.6812H303.168V72.2092H305.884ZM317.765 77.4172L316.785 74.5332H312.837L311.857 77.4172H310.667L314.083 67.6452H315.581L318.997 77.4172H317.765ZM314.839 68.7372H314.769L313.117 73.4972H316.491L314.839 68.7372ZM327.439 75.9892H327.397C327.276 76.4466 326.977 76.8292 326.501 77.1372C326.034 77.4359 325.428 77.5852 324.681 77.5852C324.084 77.5852 323.533 77.4779 323.029 77.2632C322.534 77.0392 322.11 76.7172 321.755 76.2972C321.4 75.8679 321.12 75.3406 320.915 74.7152C320.719 74.0806 320.621 73.3526 320.621 72.5312C320.621 71.7192 320.719 71.0006 320.915 70.3752C321.111 69.7406 321.391 69.2132 321.755 68.7932C322.119 68.3639 322.558 68.0372 323.071 67.8132C323.584 67.5892 324.154 67.4772 324.779 67.4772C325.656 67.4772 326.389 67.6732 326.977 68.0652C327.565 68.4572 328.018 68.9752 328.335 69.6192L327.369 70.2072C327.145 69.6846 326.809 69.2739 326.361 68.9752C325.922 68.6766 325.395 68.5272 324.779 68.5272C324.35 68.5272 323.958 68.6066 323.603 68.7652C323.248 68.9146 322.94 69.1292 322.679 69.4092C322.427 69.6892 322.231 70.0252 322.091 70.4172C321.951 70.8092 321.881 71.2479 321.881 71.7332V73.3152C321.881 73.8006 321.951 74.2439 322.091 74.6452C322.231 75.0372 322.427 75.3732 322.679 75.6532C322.94 75.9332 323.258 76.1526 323.631 76.3112C324.004 76.4606 324.424 76.5352 324.891 76.5352C325.227 76.5352 325.544 76.4932 325.843 76.4092C326.151 76.3159 326.417 76.1806 326.641 76.0032C326.874 75.8259 327.056 75.6066 327.187 75.3452C327.318 75.0746 327.383 74.7572 327.383 74.3932V73.4272H325.227V72.3912H328.531V77.4172H327.439V75.9892ZM339.161 69.1852H339.091L338.265 70.8232L335.927 75.0792L333.589 70.8232L332.763 69.1852H332.693V77.4172H331.545V67.6452H333.113L335.913 72.9092H335.983L338.797 67.6452H340.309V77.4172H339.161V69.1852ZM349.725 77.4172L348.745 74.5332H344.797L343.817 77.4172H342.627L346.043 67.6452H347.541L350.957 77.4172H349.725ZM346.799 68.7372H346.729L345.077 73.4972H348.451L346.799 68.7372ZM353.25 66.9172C353.549 66.9172 353.764 66.9966 353.894 67.1552C354.034 67.3046 354.104 67.5006 354.104 67.7432V67.9392C354.104 68.3219 353.992 68.7466 353.768 69.2132C353.544 69.6706 353.232 70.0719 352.83 70.4172H351.892C352.172 70.1186 352.396 69.8386 352.564 69.5772C352.742 69.3066 352.868 69.0079 352.942 68.6812C352.756 68.6346 352.616 68.5459 352.522 68.4152C352.438 68.2846 352.396 68.1259 352.396 67.9392V67.7432C352.396 67.5006 352.462 67.3046 352.592 67.1552C352.732 66.9966 352.952 66.9172 353.25 66.9172ZM359.85 77.5852C359.057 77.5852 358.38 77.4359 357.82 77.1372C357.26 76.8292 356.784 76.4092 356.392 75.8772L357.26 75.1492C357.606 75.6066 357.988 75.9566 358.408 76.1992C358.828 76.4326 359.323 76.5492 359.892 76.5492C360.592 76.5492 361.124 76.3812 361.488 76.0452C361.862 75.7092 362.048 75.2612 362.048 74.7012C362.048 74.2346 361.908 73.8752 361.628 73.6232C361.348 73.3712 360.886 73.1706 360.242 73.0212L359.444 72.8392C358.548 72.6339 357.862 72.3259 357.386 71.9152C356.92 71.4952 356.686 70.9072 356.686 70.1512C356.686 69.7219 356.766 69.3392 356.924 69.0032C357.083 68.6672 357.302 68.3872 357.582 68.1632C357.872 67.9392 358.212 67.7712 358.604 67.6592C359.006 67.5379 359.444 67.4772 359.92 67.4772C360.658 67.4772 361.288 67.6126 361.81 67.8832C362.342 68.1539 362.79 68.5506 363.154 69.0732L362.272 69.7172C362.002 69.3439 361.675 69.0499 361.292 68.8352C360.91 68.6206 360.434 68.5132 359.864 68.5132C359.239 68.5132 358.744 68.6486 358.38 68.9192C358.026 69.1806 357.848 69.5772 357.848 70.1092C357.848 70.5759 357.998 70.9306 358.296 71.1732C358.604 71.4066 359.066 71.5932 359.682 71.7332L360.48 71.9152C361.442 72.1299 362.137 72.4566 362.566 72.8952C362.996 73.3339 363.21 73.9172 363.21 74.6452C363.21 75.0932 363.131 75.4992 362.972 75.8632C362.823 76.2272 362.604 76.5352 362.314 76.7872C362.025 77.0392 361.67 77.2352 361.25 77.3752C360.84 77.5152 360.373 77.5852 359.85 77.5852ZM369.95 67.6452H373.226C373.832 67.6452 374.383 67.7479 374.878 67.9532C375.372 68.1586 375.792 68.4666 376.138 68.8772C376.492 69.2786 376.763 69.7872 376.95 70.4032C377.136 71.0099 377.23 71.7192 377.23 72.5312C377.23 73.3432 377.136 74.0572 376.95 74.6732C376.763 75.2799 376.492 75.7886 376.138 76.1992C375.792 76.6006 375.372 76.9039 374.878 77.1092C374.383 77.3146 373.832 77.4172 373.226 77.4172H369.95V67.6452ZM373.226 76.3812C373.627 76.3812 373.996 76.3159 374.332 76.1852C374.668 76.0452 374.957 75.8446 375.2 75.5832C375.442 75.3219 375.629 75.0046 375.76 74.6312C375.9 74.2486 375.97 73.8146 375.97 73.3292V71.7332C375.97 71.2479 375.9 70.8186 375.76 70.4452C375.629 70.0626 375.442 69.7406 375.2 69.4792C374.957 69.2179 374.668 69.0219 374.332 68.8912C373.996 68.7512 373.627 68.6812 373.226 68.6812H371.126V76.3812H373.226ZM385.996 77.4172L385.016 74.5332H381.068L380.088 77.4172H378.898L382.314 67.6452H383.812L387.228 77.4172H385.996ZM383.07 68.7372H383L381.348 73.4972H384.722L383.07 68.7372ZM391.921 68.6812V77.4172H390.745V68.6812H387.637V67.6452H395.029V68.6812H391.921ZM402.545 77.4172L401.565 74.5332H397.617L396.637 77.4172H395.447L398.863 67.6452H400.361L403.777 77.4172H402.545ZM399.619 68.7372H399.549L397.897 73.4972H401.271L399.619 68.7372Z" fill="#B5F0E5"/>
<rect x="78.0449" y="219.281" width="260" height="110" rx="20" fill="#004738" fill-opacity="0.5"/>
<rect x="78.5449" y="219.781" width="259" height="109" rx="19.5" stroke="#B5F0E5" stroke-opacity="0.12"/>
<mask id="mask0_1395_2767" style="mask-type:alpha" maskUnits="userSpaceOnUse" x="196" y="251" width="25" height="25">
<rect x="196.045" y="251.281" width="24" height="24" fill="#D9D9D9"/>
</mask>
<g mask="url(#mask0_1395_2767)">
<path d="M202.045 272.281C201.481 272.281 201.006 272.089 200.622 271.704C200.237 271.319 200.045 270.845 200.045 270.281V267.512H203.045V254.281H216.045V270.281C216.045 270.845 215.853 271.319 215.468 271.704C215.083 272.089 214.609 272.281 214.045 272.281H202.045ZM214.045 271.281C214.328 271.281 214.566 271.185 214.757 270.993C214.949 270.802 215.045 270.564 215.045 270.281V255.281H204.045V267.512H213.045V270.281C213.045 270.564 213.141 270.802 213.332 270.993C213.524 271.185 213.762 271.281 214.045 271.281ZM205.43 259.666V258.666H213.66V259.666H205.43ZM205.43 262.435V261.435H213.66V262.435H205.43ZM202.045 271.281H212.045V268.512H201.045V270.281C201.045 270.564 201.141 270.802 201.332 270.993C201.524 271.185 201.762 271.281 202.045 271.281ZM202.045 271.281H201.045H212.045H202.045Z" fill="#B5F0E5"/>
</g>
<path d="M125.587 295.281V291.417L122.227 285.509H123.571L126.175 290.213H126.217L128.821 285.509H130.165L126.763 291.375V295.281H125.587ZM135.576 295.449C134.941 295.449 134.367 295.342 133.854 295.127C133.35 294.903 132.916 294.581 132.552 294.161C132.197 293.732 131.922 293.204 131.726 292.579C131.53 291.944 131.432 291.216 131.432 290.395C131.432 289.574 131.53 288.85 131.726 288.225C131.922 287.6 132.197 287.072 132.552 286.643C132.916 286.214 133.35 285.892 133.854 285.677C134.367 285.453 134.941 285.341 135.576 285.341C136.201 285.341 136.771 285.453 137.284 285.677C137.797 285.892 138.231 286.214 138.586 286.643C138.95 287.072 139.23 287.6 139.426 288.225C139.622 288.85 139.72 289.574 139.72 290.395C139.72 291.216 139.622 291.944 139.426 292.579C139.23 293.204 138.95 293.732 138.586 294.161C138.231 294.581 137.797 294.903 137.284 295.127C136.771 295.342 136.201 295.449 135.576 295.449ZM135.576 294.399C135.996 294.399 136.383 294.324 136.738 294.175C137.093 294.026 137.396 293.811 137.648 293.531C137.909 293.251 138.11 292.915 138.25 292.523C138.39 292.131 138.46 291.692 138.46 291.207V289.583C138.46 289.098 138.39 288.659 138.25 288.267C138.11 287.875 137.909 287.539 137.648 287.259C137.396 286.979 137.093 286.764 136.738 286.615C136.383 286.466 135.996 286.391 135.576 286.391C135.156 286.391 134.769 286.466 134.414 286.615C134.059 286.764 133.751 286.979 133.49 287.259C133.238 287.539 133.042 287.875 132.902 288.267C132.762 288.659 132.692 289.098 132.692 289.583V291.207C132.692 291.692 132.762 292.131 132.902 292.523C133.042 292.915 133.238 293.251 133.49 293.531C133.751 293.811 134.059 294.026 134.414 294.175C134.769 294.324 135.156 294.399 135.576 294.399ZM143.64 285.509V291.557C143.64 292.49 143.813 293.2 144.158 293.685C144.503 294.161 145.11 294.399 145.978 294.399C146.846 294.399 147.453 294.161 147.798 293.685C148.143 293.2 148.316 292.49 148.316 291.557V285.509H149.492V291.277C149.492 291.986 149.427 292.602 149.296 293.125C149.175 293.648 148.974 294.082 148.694 294.427C148.414 294.772 148.045 295.029 147.588 295.197C147.14 295.365 146.589 295.449 145.936 295.449C145.283 295.449 144.732 295.365 144.284 295.197C143.845 295.029 143.491 294.772 143.22 294.427C142.949 294.082 142.753 293.648 142.632 293.125C142.52 292.602 142.464 291.986 142.464 291.277V285.509H143.64ZM153.898 295.281H152.722V285.509H156.614C157.473 285.509 158.14 285.747 158.616 286.223C159.102 286.699 159.344 287.385 159.344 288.281C159.344 289 159.176 289.592 158.84 290.059C158.514 290.516 158.028 290.82 157.384 290.969L159.624 295.281H158.294L156.18 291.081H153.898V295.281ZM156.614 290.073C157.081 290.073 157.44 289.952 157.692 289.709C157.954 289.466 158.084 289.121 158.084 288.673V287.945C158.084 287.497 157.954 287.152 157.692 286.909C157.44 286.666 157.081 286.545 156.614 286.545H153.898V290.073H156.614ZM169.13 295.449C168.337 295.449 167.66 295.3 167.1 295.001C166.54 294.693 166.064 294.273 165.672 293.741L166.54 293.013C166.885 293.47 167.268 293.82 167.688 294.063C168.108 294.296 168.603 294.413 169.172 294.413C169.872 294.413 170.404 294.245 170.768 293.909C171.141 293.573 171.328 293.125 171.328 292.565C171.328 292.098 171.188 291.739 170.908 291.487C170.628 291.235 170.166 291.034 169.522 290.885L168.724 290.703C167.828 290.498 167.142 290.19 166.666 289.779C166.199 289.359 165.966 288.771 165.966 288.015C165.966 287.586 166.045 287.203 166.204 286.867C166.363 286.531 166.582 286.251 166.862 286.027C167.151 285.803 167.492 285.635 167.884 285.523C168.285 285.402 168.724 285.341 169.2 285.341C169.937 285.341 170.567 285.476 171.09 285.747C171.622 286.018 172.07 286.414 172.434 286.937L171.552 287.581C171.281 287.208 170.955 286.914 170.572 286.699C170.189 286.484 169.713 286.377 169.144 286.377C168.519 286.377 168.024 286.512 167.66 286.783C167.305 287.044 167.128 287.441 167.128 287.973C167.128 288.44 167.277 288.794 167.576 289.037C167.884 289.27 168.346 289.457 168.962 289.597L169.76 289.779C170.721 289.994 171.417 290.32 171.846 290.759C172.275 291.198 172.49 291.781 172.49 292.509C172.49 292.957 172.411 293.363 172.252 293.727C172.103 294.091 171.883 294.399 171.594 294.651C171.305 294.903 170.95 295.099 170.53 295.239C170.119 295.379 169.653 295.449 169.13 295.449ZM182.837 287.049H182.767L181.941 288.687L179.603 292.943L177.265 288.687L176.439 287.049H176.369V295.281H175.221V285.509H176.789L179.589 290.773H179.659L182.473 285.509H183.985V295.281H182.837V287.049ZM193.4 295.281L192.42 292.397H188.472L187.492 295.281H186.302L189.718 285.509H191.216L194.632 295.281H193.4ZM190.474 286.601H190.404L188.752 291.361H192.126L190.474 286.601ZM198.127 295.281H196.951V285.509H200.843C201.701 285.509 202.369 285.747 202.845 286.223C203.33 286.699 203.573 287.385 203.573 288.281C203.573 289 203.405 289.592 203.069 290.059C202.742 290.516 202.257 290.82 201.613 290.969L203.853 295.281H202.523L200.409 291.081H198.127V295.281ZM200.843 290.073C201.309 290.073 201.669 289.952 201.921 289.709C202.182 289.466 202.313 289.121 202.313 288.673V287.945C202.313 287.497 202.182 287.152 201.921 286.909C201.669 286.666 201.309 286.545 200.843 286.545H198.127V290.073H200.843ZM209.554 286.545V295.281H208.378V286.545H205.27V285.509H212.662V286.545H209.554ZM222.428 295.449C221.187 295.449 220.221 295.029 219.53 294.189C218.84 293.34 218.494 292.094 218.494 290.451C218.494 288.808 218.84 287.548 219.53 286.671C220.221 285.784 221.187 285.341 222.428 285.341C223.25 285.341 223.936 285.528 224.486 285.901C225.046 286.274 225.48 286.802 225.788 287.483L224.836 288.057C224.64 287.553 224.342 287.152 223.94 286.853C223.539 286.545 223.035 286.391 222.428 286.391C222.008 286.391 221.63 286.47 221.294 286.629C220.968 286.788 220.688 287.016 220.454 287.315C220.23 287.604 220.058 287.954 219.936 288.365C219.815 288.766 219.754 289.219 219.754 289.723V291.179C219.754 292.187 219.988 292.976 220.454 293.545C220.921 294.114 221.579 294.399 222.428 294.399C223.054 294.399 223.576 294.24 223.996 293.923C224.416 293.596 224.724 293.167 224.92 292.635L225.858 293.223C225.55 293.914 225.107 294.46 224.528 294.861C223.95 295.253 223.25 295.449 222.428 295.449ZM231.856 295.449C231.221 295.449 230.647 295.342 230.134 295.127C229.63 294.903 229.196 294.581 228.832 294.161C228.477 293.732 228.202 293.204 228.006 292.579C227.81 291.944 227.712 291.216 227.712 290.395C227.712 289.574 227.81 288.85 228.006 288.225C228.202 287.6 228.477 287.072 228.832 286.643C229.196 286.214 229.63 285.892 230.134 285.677C230.647 285.453 231.221 285.341 231.856 285.341C232.481 285.341 233.051 285.453 233.564 285.677C234.077 285.892 234.511 286.214 234.866 286.643C235.23 287.072 235.51 287.6 235.706 288.225C235.902 288.85 236 289.574 236 290.395C236 291.216 235.902 291.944 235.706 292.579C235.51 293.204 235.23 293.732 234.866 294.161C234.511 294.581 234.077 294.903 233.564 295.127C233.051 295.342 232.481 295.449 231.856 295.449ZM231.856 294.399C232.276 294.399 232.663 294.324 233.018 294.175C233.373 294.026 233.676 293.811 233.928 293.531C234.189 293.251 234.39 292.915 234.53 292.523C234.67 292.131 234.74 291.692 234.74 291.207V289.583C234.74 289.098 234.67 288.659 234.53 288.267C234.39 287.875 234.189 287.539 233.928 287.259C233.676 286.979 233.373 286.764 233.018 286.615C232.663 286.466 232.276 286.391 231.856 286.391C231.436 286.391 231.049 286.466 230.694 286.615C230.339 286.764 230.031 286.979 229.77 287.259C229.518 287.539 229.322 287.875 229.182 288.267C229.042 288.659 228.972 289.098 228.972 289.583V291.207C228.972 291.692 229.042 292.131 229.182 292.523C229.322 292.915 229.518 293.251 229.77 293.531C230.031 293.811 230.339 294.026 230.694 294.175C231.049 294.324 231.436 294.399 231.856 294.399ZM241.18 289.317L240.004 287.147H239.962V295.281H238.814V285.509H240.172L243.742 291.473L244.918 293.643H244.96V285.509H246.108V295.281H244.75L241.18 289.317ZM252.703 286.545V295.281H251.527V286.545H248.419V285.509H255.811V286.545H252.703ZM259.3 295.281H258.124V285.509H262.016C262.875 285.509 263.542 285.747 264.018 286.223C264.504 286.699 264.746 287.385 264.746 288.281C264.746 289 264.578 289.592 264.242 290.059C263.916 290.516 263.43 290.82 262.786 290.969L265.026 295.281H263.696L261.582 291.081H259.3V295.281ZM262.016 290.073C262.483 290.073 262.842 289.952 263.094 289.709C263.356 289.466 263.486 289.121 263.486 288.673V287.945C263.486 287.497 263.356 287.152 263.094 286.909C262.842 286.666 262.483 286.545 262.016 286.545H259.3V290.073H262.016ZM273.897 295.281L272.917 292.397H268.969L267.989 295.281H266.799L270.215 285.509H271.713L275.129 295.281H273.897ZM270.971 286.601H270.901L269.249 291.361H272.623L270.971 286.601ZM280.687 295.449C279.446 295.449 278.48 295.029 277.789 294.189C277.098 293.34 276.753 292.094 276.753 290.451C276.753 288.808 277.098 287.548 277.789 286.671C278.48 285.784 279.446 285.341 280.687 285.341C281.508 285.341 282.194 285.528 282.745 285.901C283.305 286.274 283.739 286.802 284.047 287.483L283.095 288.057C282.899 287.553 282.6 287.152 282.199 286.853C281.798 286.545 281.294 286.391 280.687 286.391C280.267 286.391 279.889 286.47 279.553 286.629C279.226 286.788 278.946 287.016 278.713 287.315C278.489 287.604 278.316 287.954 278.195 288.365C278.074 288.766 278.013 289.219 278.013 289.723V291.179C278.013 292.187 278.246 292.976 278.713 293.545C279.18 294.114 279.838 294.399 280.687 294.399C281.312 294.399 281.835 294.24 282.255 293.923C282.675 293.596 282.983 293.167 283.179 292.635L284.117 293.223C283.809 293.914 283.366 294.46 282.787 294.861C282.208 295.253 281.508 295.449 280.687 295.449ZM289.928 286.545V295.281H288.752V286.545H285.644V285.509H293.036V286.545H289.928Z" fill="#B5F0E5"/>
<rect x="357.875" y="219.281" width="260" height="110" rx="20" fill="#004738" fill-opacity="0.5"/>
<rect x="358.375" y="219.781" width="259" height="109" rx="19.5" stroke="#B5F0E5" stroke-opacity="0.12"/>
<mask id="mask1_1395_2767" style="mask-type:alpha" maskUnits="userSpaceOnUse" x="475" y="251" width="25" height="25">
<rect x="475.875" y="251.281" width="24" height="24" fill="#D9D9D9"/>
</mask>
<g mask="url(#mask1_1395_2767)">
<path d="M486.437 267.189L492.833 260.792L492.125 260.085L486.437 265.773L483.587 262.923L482.879 263.631L486.437 267.189ZM487.878 272.281C486.634 272.281 485.464 272.045 484.368 271.572C483.272 271.1 482.319 270.459 481.509 269.649C480.699 268.84 480.057 267.888 479.584 266.793C479.111 265.698 478.875 264.529 478.875 263.284C478.875 262.04 479.111 260.87 479.583 259.774C480.056 258.678 480.697 257.725 481.507 256.915C482.316 256.104 483.268 255.463 484.363 254.99C485.458 254.517 486.627 254.281 487.872 254.281C489.116 254.281 490.286 254.517 491.382 254.989C492.478 255.462 493.431 256.103 494.241 256.912C495.051 257.722 495.693 258.674 496.166 259.769C496.639 260.863 496.875 262.033 496.875 263.278C496.875 264.522 496.639 265.692 496.167 266.788C495.694 267.883 495.053 268.836 494.243 269.647C493.434 270.457 492.482 271.099 491.387 271.572C490.292 272.045 489.123 272.281 487.878 272.281ZM487.875 271.281C490.108 271.281 492 270.506 493.55 268.956C495.1 267.406 495.875 265.514 495.875 263.281C495.875 261.048 495.1 259.156 493.55 257.606C492 256.056 490.108 255.281 487.875 255.281C485.642 255.281 483.75 256.056 482.2 257.606C480.65 259.156 479.875 261.048 479.875 263.281C479.875 265.514 480.65 267.406 482.2 268.956C483.75 270.506 485.642 271.281 487.875 271.281Z" fill="#B5F0E5"/>
</g>
<path d="M457.903 295.281L454.655 285.509H455.915L457.525 290.437L458.603 294.105H458.673L459.779 290.437L461.403 285.509H462.621L459.331 295.281H457.903ZM464.908 295.281V285.509H470.872V286.545H466.084V289.821H470.592V290.857H466.084V294.245H470.872V295.281H464.908ZM474.946 295.281H473.77V285.509H477.662C478.521 285.509 479.188 285.747 479.664 286.223C480.15 286.699 480.392 287.385 480.392 288.281C480.392 289 480.224 289.592 479.888 290.059C479.562 290.516 479.076 290.82 478.432 290.969L480.672 295.281H479.342L477.228 291.081H474.946V295.281ZM477.662 290.073C478.129 290.073 478.488 289.952 478.74 289.709C479.002 289.466 479.132 289.121 479.132 288.673V287.945C479.132 287.497 479.002 287.152 478.74 286.909C478.488 286.666 478.129 286.545 477.662 286.545H474.946V290.073H477.662ZM482.963 295.281V294.301H484.335V286.489H482.963V285.509H486.883V286.489H485.511V294.301H486.883V295.281H482.963ZM489.731 295.281V285.509H495.555V286.545H490.907V289.821H495.149V290.857H490.907V295.281H489.731ZM497.789 295.281V294.301H499.161V286.489H497.789V285.509H501.709V286.489H500.337V294.301H501.709V295.281H497.789ZM504.557 295.281V285.509H510.521V286.545H505.733V289.821H510.241V290.857H505.733V294.245H510.521V295.281H504.557ZM514.595 295.281H513.419V285.509H517.311C518.169 285.509 518.837 285.747 519.313 286.223C519.798 286.699 520.041 287.385 520.041 288.281C520.041 289 519.873 289.592 519.537 290.059C519.21 290.516 518.725 290.82 518.081 290.969L520.321 295.281H518.991L516.877 291.081H514.595V295.281ZM517.311 290.073C517.777 290.073 518.137 289.952 518.389 289.709C518.65 289.466 518.781 289.121 518.781 288.673V287.945C518.781 287.497 518.65 287.152 518.389 286.909C518.137 286.666 517.777 286.545 517.311 286.545H514.595V290.073H517.311Z" fill="#B5F0E5"/>
<rect x="141.71" y="146.917" width="132" height="35" rx="17.5" fill="#1B6352" fill-opacity="0.12"/>
<rect x="141.71" y="146.917" width="132" height="35" rx="17.5" stroke="#15FF81"/>
<path d="M167.413 169.417H166.405V161.041H169.741C170.477 161.041 171.049 161.245 171.457 161.653C171.873 162.061 172.081 162.649 172.081 163.417C172.081 164.033 171.937 164.541 171.649 164.941C171.369 165.333 170.953 165.593 170.401 165.721L172.321 169.417H171.181L169.369 165.817H167.413V169.417ZM169.741 164.953C170.141 164.953 170.449 164.849 170.665 164.641C170.889 164.433 171.001 164.137 171.001 163.753V163.129C171.001 162.745 170.889 162.449 170.665 162.241C170.449 162.033 170.141 161.929 169.741 161.929H167.413V164.953H169.741ZM179.925 169.417L179.085 166.945H175.701L174.861 169.417H173.841L176.769 161.041H178.053L180.981 169.417H179.925ZM177.417 161.977H177.357L175.941 166.057H178.833L177.417 161.977ZM184.997 164.305L183.989 162.445H183.953V169.417H182.969V161.041H184.133L187.193 166.153L188.201 168.013H188.237V161.041H189.221V169.417H188.057L184.997 164.305ZM192.053 161.041H194.861C195.381 161.041 195.853 161.129 196.277 161.305C196.701 161.481 197.061 161.745 197.357 162.097C197.661 162.441 197.893 162.877 198.053 163.405C198.213 163.925 198.293 164.533 198.293 165.229C198.293 165.925 198.213 166.537 198.053 167.065C197.893 167.585 197.661 168.021 197.357 168.373C197.061 168.717 196.701 168.977 196.277 169.153C195.853 169.329 195.381 169.417 194.861 169.417H192.053V161.041ZM194.861 168.529C195.205 168.529 195.521 168.473 195.809 168.361C196.097 168.241 196.345 168.069 196.553 167.845C196.761 167.621 196.921 167.349 197.033 167.029C197.153 166.701 197.213 166.329 197.213 165.913V164.545C197.213 164.129 197.153 163.761 197.033 163.441C196.921 163.113 196.761 162.837 196.553 162.613C196.345 162.389 196.097 162.221 195.809 162.109C195.521 161.989 195.205 161.929 194.861 161.929H193.061V168.529H194.861ZM203.836 169.561C203.292 169.561 202.8 169.469 202.36 169.285C201.928 169.093 201.556 168.817 201.244 168.457C200.94 168.089 200.704 167.637 200.536 167.101C200.368 166.557 200.284 165.933 200.284 165.229C200.284 164.525 200.368 163.905 200.536 163.369C200.704 162.833 200.94 162.381 201.244 162.013C201.556 161.645 201.928 161.369 202.36 161.185C202.8 160.993 203.292 160.897 203.836 160.897C204.372 160.897 204.86 160.993 205.3 161.185C205.74 161.369 206.112 161.645 206.416 162.013C206.728 162.381 206.968 162.833 207.136 163.369C207.304 163.905 207.388 164.525 207.388 165.229C207.388 165.933 207.304 166.557 207.136 167.101C206.968 167.637 206.728 168.089 206.416 168.457C206.112 168.817 205.74 169.093 205.3 169.285C204.86 169.469 204.372 169.561 203.836 169.561ZM203.836 168.661C204.196 168.661 204.528 168.597 204.832 168.469C205.136 168.341 205.396 168.157 205.612 167.917C205.836 167.677 206.008 167.389 206.128 167.053C206.248 166.717 206.308 166.341 206.308 165.925V164.533C206.308 164.117 206.248 163.741 206.128 163.405C206.008 163.069 205.836 162.781 205.612 162.541C205.396 162.301 205.136 162.117 204.832 161.989C204.528 161.861 204.196 161.797 203.836 161.797C203.476 161.797 203.144 161.861 202.84 161.989C202.536 162.117 202.272 162.301 202.048 162.541C201.832 162.781 201.664 163.069 201.544 163.405C201.424 163.741 201.364 164.117 201.364 164.533V165.925C201.364 166.341 201.424 166.717 201.544 167.053C201.664 167.389 201.832 167.677 202.048 167.917C202.272 168.157 202.536 168.341 202.84 168.469C203.144 168.597 203.476 168.661 203.836 168.661ZM216.328 162.361H216.268L215.56 163.765L213.556 167.413L211.552 163.765L210.844 162.361H210.784V169.417H209.8V161.041H211.144L213.544 165.553H213.604L216.016 161.041H217.312V169.417H216.328V162.361ZM222.166 164.305L221.158 162.445H221.122V169.417H220.138V161.041H221.302L224.362 166.153L225.37 168.013H225.406V161.041H226.39V169.417H225.226L222.166 164.305ZM229.222 169.417V161.041H234.334V161.929H230.23V164.737H234.094V165.625H230.23V168.529H234.334V169.417H229.222ZM239.171 169.561C238.491 169.561 237.911 169.433 237.431 169.177C236.951 168.913 236.543 168.553 236.207 168.097L236.951 167.473C237.247 167.865 237.575 168.165 237.935 168.373C238.295 168.573 238.719 168.673 239.207 168.673C239.807 168.673 240.263 168.529 240.575 168.241C240.895 167.953 241.055 167.569 241.055 167.089C241.055 166.689 240.935 166.381 240.695 166.165C240.455 165.949 240.059 165.777 239.507 165.649L238.823 165.493C238.055 165.317 237.467 165.053 237.059 164.701C236.659 164.341 236.459 163.837 236.459 163.189C236.459 162.821 236.527 162.493 236.663 162.205C236.799 161.917 236.987 161.677 237.227 161.485C237.475 161.293 237.767 161.149 238.103 161.053C238.447 160.949 238.823 160.897 239.231 160.897C239.863 160.897 240.403 161.013 240.851 161.245C241.307 161.477 241.691 161.817 242.003 162.265L241.247 162.817C241.015 162.497 240.735 162.245 240.407 162.061C240.079 161.877 239.671 161.785 239.183 161.785C238.647 161.785 238.223 161.901 237.911 162.133C237.607 162.357 237.455 162.697 237.455 163.153C237.455 163.553 237.583 163.857 237.839 164.065C238.103 164.265 238.499 164.425 239.027 164.545L239.711 164.701C240.535 164.885 241.131 165.165 241.499 165.541C241.867 165.917 242.051 166.417 242.051 167.041C242.051 167.425 241.983 167.773 241.847 168.085C241.719 168.397 241.531 168.661 241.283 168.877C241.035 169.093 240.731 169.261 240.371 169.381C240.019 169.501 239.619 169.561 239.171 169.561ZM246.626 169.561C245.946 169.561 245.366 169.433 244.886 169.177C244.406 168.913 243.998 168.553 243.662 168.097L244.406 167.473C244.702 167.865 245.03 168.165 245.39 168.373C245.75 168.573 246.174 168.673 246.662 168.673C247.262 168.673 247.718 168.529 248.03 168.241C248.35 167.953 248.51 167.569 248.51 167.089C248.51 166.689 248.39 166.381 248.15 166.165C247.91 165.949 247.514 165.777 246.962 165.649L246.278 165.493C245.51 165.317 244.922 165.053 244.514 164.701C244.114 164.341 243.914 163.837 243.914 163.189C243.914 162.821 243.982 162.493 244.118 162.205C244.254 161.917 244.442 161.677 244.682 161.485C244.93 161.293 245.222 161.149 245.558 161.053C245.902 160.949 246.278 160.897 246.686 160.897C247.318 160.897 247.858 161.013 248.306 161.245C248.762 161.477 249.146 161.817 249.458 162.265L248.702 162.817C248.47 162.497 248.19 162.245 247.862 162.061C247.534 161.877 247.126 161.785 246.638 161.785C246.102 161.785 245.678 161.901 245.366 162.133C245.062 162.357 244.91 162.697 244.91 163.153C244.91 163.553 245.038 163.857 245.294 164.065C245.558 164.265 245.954 164.425 246.482 164.545L247.166 164.701C247.99 164.885 248.586 165.165 248.954 165.541C249.322 165.917 249.506 166.417 249.506 167.041C249.506 167.425 249.438 167.773 249.302 168.085C249.174 168.397 248.986 168.661 248.738 168.877C248.49 169.093 248.186 169.261 247.826 169.381C247.474 169.501 247.074 169.561 246.626 169.561Z" fill="#15FF81"/>
<rect x="443.54" y="146.917" width="88" height="35" rx="17.5" fill="#1B6352" fill-opacity="0.12"/>
<rect x="443.54" y="146.917" width="88" height="35" rx="17.5" stroke="#15FF81"/>
<path d="M468.19 169.417V161.041H471.526C472.278 161.041 472.854 161.257 473.254 161.689C473.662 162.113 473.866 162.697 473.866 163.441C473.866 164.185 473.662 164.773 473.254 165.205C472.854 165.629 472.278 165.841 471.526 165.841H469.198V169.417H468.19ZM469.198 164.953H471.526C471.926 164.953 472.234 164.849 472.45 164.641C472.674 164.433 472.786 164.137 472.786 163.753V163.129C472.786 162.745 472.674 162.449 472.45 162.241C472.234 162.033 471.926 161.929 471.526 161.929H469.198V164.953ZM477.076 169.417H476.068V161.041H479.404C480.14 161.041 480.712 161.245 481.12 161.653C481.536 162.061 481.744 162.649 481.744 163.417C481.744 164.033 481.6 164.541 481.312 164.941C481.032 165.333 480.616 165.593 480.064 165.721L481.984 169.417H480.844L479.032 165.817H477.076V169.417ZM479.404 164.953C479.804 164.953 480.112 164.849 480.328 164.641C480.552 164.433 480.664 164.137 480.664 163.753V163.129C480.664 162.745 480.552 162.449 480.328 162.241C480.112 162.033 479.804 161.929 479.404 161.929H477.076V164.953H479.404ZM487.358 169.561C486.814 169.561 486.322 169.469 485.882 169.285C485.45 169.093 485.078 168.817 484.766 168.457C484.462 168.089 484.226 167.637 484.058 167.101C483.89 166.557 483.806 165.933 483.806 165.229C483.806 164.525 483.89 163.905 484.058 163.369C484.226 162.833 484.462 162.381 484.766 162.013C485.078 161.645 485.45 161.369 485.882 161.185C486.322 160.993 486.814 160.897 487.358 160.897C487.894 160.897 488.382 160.993 488.822 161.185C489.262 161.369 489.634 161.645 489.938 162.013C490.25 162.381 490.49 162.833 490.658 163.369C490.826 163.905 490.91 164.525 490.91 165.229C490.91 165.933 490.826 166.557 490.658 167.101C490.49 167.637 490.25 168.089 489.938 168.457C489.634 168.817 489.262 169.093 488.822 169.285C488.382 169.469 487.894 169.561 487.358 169.561ZM487.358 168.661C487.718 168.661 488.05 168.597 488.354 168.469C488.658 168.341 488.918 168.157 489.134 167.917C489.358 167.677 489.53 167.389 489.65 167.053C489.77 166.717 489.83 166.341 489.83 165.925V164.533C489.83 164.117 489.77 163.741 489.65 163.405C489.53 163.069 489.358 162.781 489.134 162.541C488.918 162.301 488.658 162.117 488.354 161.989C488.05 161.861 487.718 161.797 487.358 161.797C486.998 161.797 486.666 161.861 486.362 161.989C486.058 162.117 485.794 162.301 485.57 162.541C485.354 162.781 485.186 163.069 485.066 163.405C484.946 163.741 484.886 164.117 484.886 164.533V165.925C484.886 166.341 484.946 166.717 485.066 167.053C485.186 167.389 485.354 167.677 485.57 167.917C485.794 168.157 486.058 168.341 486.362 168.469C486.666 168.597 486.998 168.661 487.358 168.661ZM496.454 169.561C495.91 169.561 495.418 169.469 494.978 169.285C494.546 169.093 494.174 168.817 493.862 168.457C493.558 168.089 493.322 167.637 493.154 167.101C492.986 166.557 492.902 165.933 492.902 165.229C492.902 164.525 492.986 163.905 493.154 163.369C493.322 162.833 493.558 162.381 493.862 162.013C494.174 161.645 494.546 161.369 494.978 161.185C495.418 160.993 495.91 160.897 496.454 160.897C496.99 160.897 497.478 160.993 497.918 161.185C498.358 161.369 498.73 161.645 499.034 162.013C499.346 162.381 499.586 162.833 499.754 163.369C499.922 163.905 500.006 164.525 500.006 165.229C500.006 165.933 499.922 166.557 499.754 167.101C499.586 167.637 499.346 168.089 499.034 168.457C498.73 168.817 498.358 169.093 497.918 169.285C497.478 169.469 496.99 169.561 496.454 169.561ZM496.454 168.661C496.814 168.661 497.146 168.597 497.45 168.469C497.754 168.341 498.014 168.157 498.23 167.917C498.454 167.677 498.626 167.389 498.746 167.053C498.866 166.717 498.926 166.341 498.926 165.925V164.533C498.926 164.117 498.866 163.741 498.746 163.405C498.626 163.069 498.454 162.781 498.23 162.541C498.014 162.301 497.754 162.117 497.45 161.989C497.146 161.861 496.814 161.797 496.454 161.797C496.094 161.797 495.762 161.861 495.458 161.989C495.154 162.117 494.89 162.301 494.666 162.541C494.45 162.781 494.282 163.069 494.162 163.405C494.042 163.741 493.982 164.117 493.982 164.533V165.925C493.982 166.341 494.042 166.717 494.162 167.053C494.282 167.389 494.45 167.677 494.666 167.917C494.89 168.157 495.154 168.341 495.458 168.469C495.762 168.597 496.094 168.661 496.454 168.661ZM502.419 169.417V161.041H507.411V161.929H503.427V164.737H507.063V165.625H503.427V169.417H502.419Z" fill="#15FF81"/>
</g>
<defs>
<filter id="filter0_dd_1395_2767" x="-6" y="0.362305" width="708" height="338.919" filterUnits="userSpaceOnUse" color-interpolation-filters="sRGB">
<feFlood flood-opacity="0" result="BackgroundImageFix"/>
<feColorMatrix in="SourceAlpha" type="matrix" values="0 0 0 0 0 0 0 0 0 0 0 0 0 0 0 0 0 0 127 0" result="hardAlpha"/>
<feMorphology radius="2" operator="erode" in="SourceAlpha" result="effect1_dropShadow_1395_2767"/>
<feOffset dy="2"/>
<feGaussianBlur stdDeviation="2"/>
<feColorMatrix type="matrix" values="0 0 0 0 0.0627451 0 0 0 0 0.0941176 0 0 0 0 0.156863 0 0 0 0.06 0"/>
<feBlend mode="normal" in2="BackgroundImageFix" result="effect1_dropShadow_1395_2767"/>
<feColorMatrix in="SourceAlpha" type="matrix" values="0 0 0 0 0 0 0 0 0 0 0 0 0 0 0 0 0 0 127 0" result="hardAlpha"/>
<feMorphology radius="2" operator="erode" in="SourceAlpha" result="effect2_dropShadow_1395_2767"/>
<feOffset dy="4"/>
<feGaussianBlur stdDeviation="4"/>
<feColorMatrix type="matrix" values="0 0 0 0 0.0627451 0 0 0 0 0.0941176 0 0 0 0 0.156863 0 0 0 0.1 0"/>
<feBlend mode="normal" in2="effect1_dropShadow_1395_2767" result="effect2_dropShadow_1395_2767"/>
<feBlend mode="normal" in="SourceGraphic" in2="effect2_dropShadow_1395_2767" result="shape"/>
</filter>
<linearGradient id="paint0_linear_1395_2767" x1="208.045" y1="98.9172" x2="204.045" y2="99.1354" gradientUnits="userSpaceOnUse">
<stop stop-color="#B5F0E5" stop-opacity="0"/>
<stop offset="0.51" stop-color="#B5F0E5"/>
<stop offset="1" stop-color="#B5F0E5" stop-opacity="0"/>
</linearGradient>
<linearGradient id="paint1_linear_1395_2767" x1="487.875" y1="98.9172" x2="483.875" y2="99.1354" gradientUnits="userSpaceOnUse">
<stop stop-color="#B5F0E5" stop-opacity="0"/>
<stop offset="0.51" stop-color="#B5F0E5"/>
<stop offset="1" stop-color="#B5F0E5" stop-opacity="0"/>
</linearGradient>
<linearGradient id="paint2_linear_1395_2767" x1="208.045" y1="171.82" x2="204.045" y2="172.038" gradientUnits="userSpaceOnUse">
<stop stop-color="#B5F0E5" stop-opacity="0"/>
<stop offset="0.51" stop-color="#B5F0E5"/>
<stop offset="1" stop-color="#B5F0E5" stop-opacity="0"/>
</linearGradient>
<linearGradient id="paint3_linear_1395_2767" x1="487.875" y1="171.82" x2="483.875" y2="172.038" gradientUnits="userSpaceOnUse">
<stop stop-color="#B5F0E5" stop-opacity="0"/>
<stop offset="0.51" stop-color="#B5F0E5"/>
<stop offset="1" stop-color="#B5F0E5" stop-opacity="0"/>
</linearGradient>
</defs>
</svg>
