<svg width="574" height="131" viewBox="0 0 574 131" fill="none" xmlns="http://www.w3.org/2000/svg">
<path d="M134.46 7.45001L194.65 121.06H209.58L269.77 7.45001H254.68L202.28 106.29L149.88 7.45001H134.46Z" fill="#B5F0E5"/>
<path d="M398.49 7.45001V101.1L305.85 7.45001H291.09V121.06H304.39V24.81L399.79 121.06H411.8V7.45001H398.49Z" fill="#B5F0E5"/>
<path d="M553.33 7.45001V66.69C553.33 94.61 536.62 111.81 507.09 111.81C477.4 111.81 460.69 94.61 460.69 66.69V7.45001H447.06V67.5C447.06 100.61 467.99 124.47 507.09 124.47C546.19 124.47 566.96 100.61 566.96 67.5V7.45001H553.33Z" fill="#B5F0E5"/>
<path d="M140.39 120.69L80.18 7.45001H65.24L5.03003 120.69H20.12L72.54 22.17L124.96 120.69H140.39Z" fill="#B5F0E5"/>
</svg>
