<svg width="525" height="95" viewBox="0 0 525 95" fill="none" xmlns="http://www.w3.org/2000/svg">
<g clip-path="url(#clip0_174_14)">
<path d="M67 1C72.3549 1 77.7099 1 83.2432 1.30055C84.1811 2.159 84.9062 2.77263 85.7053 3.26619C93.9958 8.38612 97.2356 14.8431 95.8959 25.2906C95.0042 32.2437 89.0542 39.581 80.3311 40.972C76.0237 41.6588 71.6607 41.9967 67.2332 42.5027C67.2332 46.2106 67.2332 49.9514 67.2332 53.4022C72.6526 54.1029 77.9845 54.1437 82.9083 55.5818C90.2057 57.7131 95.6148 65.6642 96.0514 72.4318C96.8398 84.6541 89.9311 91.0397 83.45 94.0495C82.804 94.3495 82.4757 95.3335 82 96C77.9755 96 73.9509 96 69.7529 95.6956C68.4048 94.5966 67.3036 93.6534 66.0436 93.0323C58.9699 89.5454 55.7298 83.5557 55.0492 76.0266C54.756 72.7841 55.0001 69.4929 55.0001 66.2649C50.3874 66.2649 46.3189 66.2649 42 66.2649C42 68.8254 41.9117 71.1328 42.0152 73.4315C42.4735 83.6084 38.6833 90.9519 28.4729 94.1792C28.1552 94.2796 28.1506 95.3707 28 96C24.3071 96 20.6142 96 16.7535 95.6834C11.7644 92.401 5.93533 90.6468 3.76556 84.472C3.61503 84.0436 1.957 84.145 1 84C1 78.6451 1 73.2901 1.29411 67.7561C2.33152 66.9198 3.40543 66.4071 3.76558 65.5825C6.54226 59.2257 11.3657 55.7591 18.1935 54.9598C22.3618 54.4719 26.5299 53.9835 30.7584 53.4882C30.7584 49.7702 30.7584 46.0313 30.7584 42C27.8893 42 25.2331 42.2333 22.6309 41.9574C13.8524 41.0268 6.32219 38.0955 2.90997 28.9244C2.73184 28.4457 1.65724 28.3005 1 28C1 23.6431 1 19.2862 1.37559 14.4628C5.66549 9.90518 9.58179 5.81601 13.4683 1.69871C13.511 1.65347 13.1647 1.24103 13 1C18.688 1 24.3761 1 30.2452 1.29019C41.1765 8.10311 43.7208 18.1634 41.7653 29.713C46.6683 29.713 50.7361 29.713 55 29.713C55 28.1188 55.0332 26.8094 54.9947 25.5021C54.7044 15.6362 57.143 7.19873 66.8773 2.49014C67.1051 2.37991 66.9673 1.51363 67 1ZM12 21.3436C12.8418 30.0371 20.2625 31.3057 30.9995 29.293C30.9995 26.3246 31.1444 23.3311 30.969 20.3565C30.6149 14.352 26.6677 10.7793 20.8646 11.0001C15.7196 11.1958 12.0868 15.0891 12 21.3436ZM67 24.5254C67 26.2873 67 28.0492 67 29.9996C70.8968 29.9996 74.2136 30.1183 77.5187 29.9715C82.3373 29.7574 86.0149 25.5325 86 20.4546C85.9851 15.3964 82.2491 11.2761 77.4273 11.0002C70.3357 10.5944 67.0003 14.6229 67 24.5254ZM30.0107 79.1602C30.4549 74.877 30.8991 70.5937 31.3772 65.9839C23.682 66.3339 15.7159 63.722 12.1513 72.3278C10.1816 77.0831 12.9502 81.9153 17.5301 84.1292C22.2004 86.3869 25.861 85.1718 30.0107 79.1602ZM67.7327 66.058C67.5646 70.608 66.6257 75.3048 67.4564 79.6643C68.2088 83.6125 75.616 86.1384 79.6375 84.7955C83.4372 83.5267 86.674 78.1783 85.9876 74.3029C85.0742 69.146 81.4282 66.05 76.1804 66.004C73.683 65.9821 71.1853 66.0028 67.7327 66.058ZM43 49.4402C43 50.8657 43 52.2913 43 53.7936C47.2094 53.7936 50.9202 53.7936 54.6601 53.7936C54.6601 49.7511 54.6601 45.9249 54.6601 42.2986C50.6019 42.2986 46.8867 42.2986 43 42.2986C43 44.5561 43 46.5163 43 49.4402Z" fill="#B5F0E5"/>
<path d="M441.469 95.9999C440.263 95.1047 439.704 93.8718 438.758 93.3716C434.288 91.0085 432.171 87.2558 432.03 82.3745C431.891 77.5571 431.668 72.7044 432.073 67.9173C432.821 59.0748 439.8 53.2121 449.35 53.0151C453.668 52.926 457.989 53 462.994 53C462.994 50.1595 463.274 47.379 462.928 44.6786C462.416 40.6782 459.808 38.9259 455.788 38.9789C449.667 39.0595 443.545 39 437.215 39C437.215 35.2405 437.215 31.8389 437.215 27.5493C445.713 28.0383 454.198 27.6818 462.321 29.2288C470.628 30.8109 474.985 37.8661 474.997 46.5146C475.011 57.3366 475.073 68.1594 474.962 78.9803C474.921 82.9524 475.503 85.9794 481 84.8968C481 88.491 481 91.7835 481 95.5379C467.979 95.9999 454.958 95.9999 441.469 95.9999ZM461.299 64.004C457.654 64.0026 454.002 64.129 450.364 63.9636C446.808 63.802 444.828 65.5968 444.041 68.7618C443.465 71.0838 443.178 73.507 443.036 75.9013C442.831 79.36 442.676 83.7078 446.938 84.199C451.897 84.7707 457.048 83.7339 462.105 83.2779C462.444 83.2473 462.96 82.2204 462.944 81.6703C462.769 75.7977 462.503 69.9279 461.299 64.004Z" fill="#B5F0E5"/>
<path d="M188.469 96C187.524 95.3335 187.19 94.308 186.551 94.0559C179.773 91.3828 176.301 86.417 176.007 79.1998C175.644 70.2958 175.064 61.3882 175.113 52.4851C175.137 48.008 175.955 43.4345 177.105 39.0874C178.939 32.1533 184.436 28.7523 191.025 28.1768C196.844 27.6686 202.859 28.2343 208.67 29.1081C215.642 30.1564 220.913 36.9839 220.974 44.2779C221.071 55.7659 221.068 67.256 220.975 78.7441C220.918 85.6773 216.59 91.4021 209.796 94.0747C209.25 94.2895 208.872 94.9322 208.708 95.688C202.312 96 195.625 96 188.469 96ZM206.354 83.0966C207.569 80.2257 209.614 77.4167 209.834 74.4715C210.352 67.5311 210 60.5258 210 53.5467C210 39.8899 208.264 38.2445 194.65 39.0002C190.14 39.2506 187.074 42.2215 187.03 46.7784C186.934 56.5813 186.92 66.3868 187.039 76.1893C187.087 80.1227 188.962 83.4255 193.026 83.9035C197.222 84.3972 201.545 83.8243 206.354 83.0966Z" fill="#B5F0E5"/>
<path d="M388.469 96C387.849 95.3705 387.812 94.2477 387.53 94.1826C377.105 91.7728 375.584 83.3952 375.111 74.8733C374.614 65.9112 374.556 56.8729 375.107 47.9172C375.875 35.4499 379.715 27.575 394.953 27.9839C401.432 28.1577 408.499 26.7224 413.121 32.8147C415.366 35.7738 417.46 39.5487 417.784 43.1209C418.484 50.8524 417.999 58.6914 417.999 66.8728C407.666 66.8728 397.596 66.8728 387.002 66.8728C387.002 70.8416 386.83 74.4556 387.048 78.0459C387.288 81.9935 391.175 84.9104 396.099 84.9806C401.896 85.0633 407.695 85 414 85C414 88.5319 414 91.8026 414 95.5366C405.646 96 397.292 96 388.469 96ZM401.802 39.0098C386.559 38.4994 386.859 38.7127 387.014 54.2698C387.019 54.7269 387.178 55.1824 387.272 55.6729C393.902 55.6729 400.398 55.6729 406.994 55.6729C406.725 49.618 408.667 43.3409 401.802 39.0098Z" fill="#B5F0E5"/>
<path d="M251.469 96C250.852 95.3656 250.826 94.2397 250.538 94.1681C241.514 91.925 239.433 84.5176 239.173 77.0541C238.611 60.9251 239 44.763 239 28.3075C242.908 28.3075 246.649 28.3075 251 28.3075C251 30.9219 251 33.6886 251 36.4553C251 49.6208 250.984 62.7864 251.007 75.9519C251.018 82.3401 253.811 84.9922 260.416 85C268.043 85.0089 270.979 82.5821 270.991 76.1074C271.019 60.2878 271 44.4682 271 28.3245C274.876 28.3245 278.617 28.3245 282.688 28.3245C282.769 28.8709 282.984 29.6397 282.984 30.4086C283.003 50.9069 283.009 71.4051 282.973 91.9033C282.971 93.007 282.574 94.1101 282.68 95.6067C272.646 95.9999 262.292 96 251.469 96Z" fill="#B5F0E5"/>
<path d="M498.461 96C498 77.2285 498 58.457 498 39.3064C495.494 39.3064 493.088 39.3064 490.339 39.3064C490.339 35.4075 490.339 31.8819 490.339 28.1397C492.707 28.1397 494.993 28.1397 497.718 28.1397C499.042 18.8363 494.649 7.80128 505.287 1.29511C511.896 1 518.793 1 526 1C526 4.33829 526 7.68619 525.533 11.517C521.234 12.0002 517.377 11.7554 513.582 12.1374C512.306 12.2659 510.269 13.9006 510.165 14.9974C509.763 19.2294 510.002 23.5222 510.002 28C515.706 28 520.853 28 526 28C526 31.3613 526 34.7226 525.532 38.5419C520.126 39 515.188 39 510 39C510 58.3504 510 77.1752 510 96C506.307 96 502.614 96 498.461 96Z" fill="#B5F0E5"/>
<path d="M140.458 96C140 77.2134 140 58.4268 140 39.2541C137.12 39.2541 134.378 39.2541 131.319 39.2541C131.319 35.4745 131.319 32.0675 131.319 28.2739C133.857 28.2739 136.603 28.2739 139.893 28.2739C140.567 18.7929 137.432 8.49762 146.287 1.28592C153.021 1 160.042 1 167.531 1C168 4.4785 168 7.95701 168 12.0001C163.884 12.0001 159.945 12.072 156.009 11.9788C152.425 11.894 150.892 13.5753 150.981 17.0899C151.069 20.556 151 24.0259 151 27.8878C156.339 27.8878 161.421 27.8878 166.746 27.8878C166.746 31.6787 166.746 35.0832 166.746 38.8883C161.662 38.8883 156.58 38.8883 151 38.8883C151 57.8735 151 76.4681 151 95.5313C147.639 96 144.277 96 140.458 96Z" fill="#B5F0E5"/>
<path d="M355.539 1C356 26.6508 356 52.3017 356 77.9525C356 84.7124 356 84.7124 363 85.2358C363 88.4852 363 91.7805 363 95.5379C358.975 96 354.951 96 350.463 96C349.756 95.2609 349.735 94.1295 349.233 93.8439C344.616 91.2175 343.991 86.8985 343.993 82.2226C344.007 55.4609 344 28.6991 344 1.46866C347.693 1 351.386 1 355.539 1Z" fill="#B5F0E5"/>
<path d="M302.461 96C302 73.5624 302 51.1248 302 27.7755C306.231 28.1245 310.256 28.4565 313.95 28.7613C320.22 28.4048 326.324 28.0577 332.736 27.6931C332.736 31.653 332.736 35.0542 332.736 39C329.846 39 326.91 38.9819 323.975 39.0037C317.424 39.0523 314.013 42.5104 314.006 49.172C313.988 64.4689 314 79.7658 314 95.5314C310.307 96 306.614 96 302.461 96Z" fill="#B5F0E5"/>
</g>
<defs>
<clipPath id="clip0_174_14">
<rect width="525" height="95" fill="white"/>
</clipPath>
</defs>
</svg>
