<svg width="135" height="47" viewBox="0 0 135 47" fill="none" xmlns="http://www.w3.org/2000/svg">
<mask id="mask0_499_141" style="mask-type:luminance" maskUnits="userSpaceOnUse" x="0" y="0" width="135" height="47">
<path d="M135 0H0V46.1512H135V0Z" fill="white"/>
</mask>
<g mask="url(#mask0_499_141)">
<path d="M0.046875 22.187L2.89758 7.15491C3.06711 6.26642 3.69502 5.53491 4.54897 5.23979L19.5466 0.0281613C19.9139 -0.100559 20.2812 0.216534 20.209 0.599557L18.7366 8.37304C18.702 8.54886 18.5765 8.69642 18.4069 8.75607L10.084 11.6633" fill="#B5F0E5"/>
<path d="M8.70268 12.1435C4.22884 13.7038 0.929185 17.5309 0.0438361 22.1868C-0.122559 23.0722 0.191394 23.9764 0.872673 24.5666L12.9128 34.9993C13.2079 35.2536 13.6663 35.0935 13.7385 34.7105L15.2298 26.8428C15.2643 26.667 15.1984 26.4849 15.0634 26.3656L8.38244 20.6108L10.0778 11.6631" fill="url(#paint0_linear_499_141)"/>
<path d="M37.9845 13.8984L35.1339 28.9305C34.9643 29.819 34.3364 30.5505 33.4825 30.8456L18.488 36.0541C18.1207 36.1828 17.7534 35.8657 17.8256 35.4827L19.298 27.7092C19.3326 27.5334 19.4582 27.3858 19.6277 27.3262L27.9506 24.419" fill="#B5F0E5"/>
<path d="M27.9504 24.4224L29.6457 15.4747L22.9648 9.71987C22.8267 9.60057 22.7639 9.42162 22.7984 9.24266L24.2897 1.37499C24.3619 0.991962 24.8234 0.831845 25.1154 1.08615L37.1555 11.5189C37.8368 12.1091 38.1507 13.0133 37.9843 13.8986C37.1021 18.5546 33.7993 22.3817 29.3255 23.942" fill="url(#paint1_linear_499_141)"/>
<mask id="mask1_499_141" style="mask-type:luminance" maskUnits="userSpaceOnUse" x="48" y="5" width="88" height="40">
<path d="M135.104 5.04199H48.0352V44.0978H135.104V5.04199Z" fill="white"/>
</mask>
<g mask="url(#mask1_499_141)">
<path d="M90.0703 7.83618C90.0703 6.30095 91.3261 5.04199 92.8268 5.04199C94.3275 5.04199 95.621 6.29781 95.621 7.83618C95.621 9.37455 94.3652 10.5927 92.8268 10.5927C91.2885 10.5927 90.0703 9.33688 90.0703 7.83618Z" fill="#B5F0E5"/>
<path d="M48.0352 7.82031H52.9235V20.3879C53.0616 20.143 54.1793 18.4665 54.983 17.4211L62.1757 7.82031H67.8677L59.978 18.1526L68.844 30.4407H63.1175L56.9735 21.7473L52.9235 26.7047V30.4407H48.0352V7.82031Z" fill="#B5F0E5"/>
<path d="M95.1994 12.9883H90.5215V30.4441H95.1994V12.9883Z" fill="#B5F0E5"/>
<path d="M98.7598 7.82031H103.437V20.2498L109.443 12.988H115.135L108.329 20.5983L116.287 30.4438H110.668L105.431 23.7755L103.44 26.149V30.4438H98.7629V7.82031H98.7598Z" fill="#B5F0E5"/>
<path d="M116.428 21.7131C116.428 16.6522 120.547 12.6367 125.749 12.6367C130.951 12.6367 135.105 16.6522 135.105 21.7131C135.105 26.774 130.986 30.7895 125.749 30.7895C120.512 30.7895 116.428 26.774 116.428 21.7131ZM130.323 21.7131C130.323 18.9911 128.367 16.9661 125.749 16.9661C123.13 16.9661 121.174 18.9911 121.174 21.7131C121.174 24.4351 123.13 26.4601 125.749 26.4601C128.367 26.4601 130.323 24.4696 130.323 21.7131Z" fill="#B5F0E5"/>
<path d="M82.388 12.9853V14.3886C81.173 13.4028 79.6566 12.7969 78.0994 12.6493C75.3021 12.3793 72.4263 13.6477 70.5677 15.7229C69.0984 17.3618 68.2852 19.5124 68.2852 21.7132C68.2852 23.914 69.0984 26.0646 70.5677 27.7034C72.4263 29.7786 75.3021 31.047 78.0994 30.777C79.6597 30.6294 81.1761 30.0235 82.388 29.0377V30.4379H86.9623V12.9853H82.388ZM77.6034 26.4601C74.985 26.4601 73.029 24.4351 73.029 21.7132C73.029 18.9912 74.985 16.9662 77.6034 16.9662C80.2217 16.9662 82.1777 18.9912 82.1777 21.7132C82.1777 24.4351 80.2249 26.4601 77.6034 26.4601Z" fill="#B5F0E5"/>
<path d="M49.3067 43.8496C48.9268 43.6863 48.6254 43.4572 48.4025 43.162C48.1828 42.8701 48.0603 42.531 48.0352 42.1511H49.1089C49.1403 42.4651 49.2847 42.7194 49.5485 42.9172C49.8122 43.1149 50.1575 43.2154 50.5845 43.2154C50.9801 43.2154 51.294 43.1275 51.5232 42.9517C51.7524 42.7759 51.8654 42.5561 51.8654 42.2893C51.8654 42.0224 51.743 41.812 51.4981 41.677C51.2532 41.5452 50.8765 41.4133 50.3647 41.2815C49.9001 41.159 49.5202 41.0366 49.2282 40.911C48.9363 40.7854 48.682 40.597 48.4747 40.3522C48.2644 40.1041 48.1608 39.7776 48.1608 39.3758C48.1608 39.0555 48.255 38.7636 48.4465 38.4967C48.638 38.2298 48.908 38.0195 49.2596 37.8625C49.6113 37.7055 50.01 37.627 50.4589 37.627C51.1528 37.627 51.7116 37.8029 52.1386 38.1513C52.5656 38.503 52.7947 38.9833 52.823 39.5924H51.7838C51.7618 39.2659 51.63 39.0022 51.3882 38.8044C51.1496 38.6066 50.8263 38.5061 50.4213 38.5061C50.0477 38.5061 49.7494 38.5877 49.5296 38.7447C49.3099 38.9048 49.1968 39.1152 49.1968 39.3726C49.1968 39.5798 49.2628 39.7494 49.3978 39.8812C49.5296 40.0162 49.6992 40.1198 49.9001 40.2015C50.101 40.2831 50.3836 40.371 50.7415 40.4715C51.1904 40.5939 51.5578 40.7132 51.8403 40.8325C52.1229 40.9518 52.3646 41.1276 52.5656 41.3631C52.7665 41.5986 52.8732 41.9094 52.8795 42.2893C52.8795 42.6315 52.7853 42.9423 52.5938 43.2154C52.4023 43.4886 52.1354 43.7052 51.787 43.8622C51.4385 44.0191 51.0429 44.0976 50.5908 44.0976C50.1104 44.0976 49.6803 44.016 49.2973 43.8527H49.3067V43.8496Z" fill="#B5F0E5"/>
<path d="M63.1866 37.9126C63.5665 38.1135 63.8679 38.4181 64.0908 38.8231C64.3106 39.2281 64.4236 39.7178 64.4236 40.2986V43.9907H63.3938V40.4462C63.3938 39.8214 63.24 39.3442 62.9292 39.0114C62.6215 38.6786 62.204 38.5154 61.6765 38.5154C61.1491 38.5154 60.7033 38.6881 60.383 39.0366C60.0628 39.385 59.9027 39.8842 59.9027 40.5404V43.9939H58.8729V40.4493C58.8729 39.8246 58.7191 39.3474 58.4114 39.0146C58.1037 38.6818 57.6862 38.5185 57.1587 38.5185C56.6313 38.5185 56.1855 38.6912 55.8652 39.0397C55.545 39.3882 55.3849 39.8874 55.3849 40.5435V43.997H54.3457V37.7305H55.3849V38.6347C55.5921 38.3082 55.8684 38.057 56.2137 37.8812C56.5591 37.7054 56.9421 37.6175 57.3628 37.6175C57.8902 37.6175 58.3549 37.7368 58.7567 37.9723C59.1617 38.2077 59.4631 38.5562 59.6609 39.0114C59.8367 38.5688 60.1256 38.2266 60.5306 37.9817C60.9356 37.7368 61.3845 37.6143 61.8806 37.6143C62.3766 37.6143 62.8036 37.7148 63.1835 37.9189V37.9126H63.1866Z" fill="#B5F0E5"/>
<path d="M66.1244 39.1498C66.385 38.6663 66.7398 38.2896 67.195 38.0227C67.6471 37.7558 68.1526 37.624 68.7114 37.624C69.2702 37.624 69.738 37.7433 70.1399 37.9787C70.5449 38.2142 70.8463 38.5125 71.0441 38.8704V37.7276H72.0958V43.9941H71.0441V42.8262C70.8369 43.1935 70.5323 43.4949 70.1242 43.7366C69.7161 43.9752 69.242 44.0977 68.702 44.0977C68.162 44.0977 67.6408 43.9595 67.1919 43.6864C66.7429 43.4133 66.3882 43.0271 66.1276 42.5311C65.867 42.035 65.7383 41.473 65.7383 40.8389C65.7383 40.2047 65.867 39.6364 66.1276 39.1529H66.1244V39.1498ZM70.7552 39.6113C70.5637 39.2597 70.3063 38.9928 69.9829 38.8044C69.6595 38.6161 69.3016 38.525 68.9123 38.525C68.523 38.525 68.1683 38.6161 67.848 38.7982C67.5278 38.9802 67.2735 39.2471 67.082 39.5987C66.8905 39.9504 66.7963 40.3616 66.7963 40.8326C66.7963 41.3035 66.8905 41.7305 67.082 42.0852C67.2735 42.44 67.5278 42.71 67.848 42.8984C68.1683 43.0868 68.523 43.1778 68.9123 43.1778C69.3016 43.1778 69.6564 43.0836 69.9829 42.8984C70.3063 42.7132 70.5637 42.44 70.7552 42.0852C70.9468 41.7305 71.0409 41.3161 71.0409 40.8451C71.0409 40.3742 70.9468 39.9598 70.7552 39.6113Z" fill="#B5F0E5"/>
<path d="M75.6783 37.9095C76.0174 37.7117 76.4318 37.6113 76.9185 37.6113V38.685H76.6453C75.4805 38.685 74.8966 39.3192 74.8966 40.5844V43.9908H73.8574V37.7243H74.8966V38.7415C75.0787 38.3836 75.3393 38.1042 75.6783 37.9064V37.9095Z" fill="#B5F0E5"/>
<path d="M79.3894 38.588V42.2769C79.3894 42.5815 79.4554 42.7981 79.5841 42.9237C79.7128 43.0493 79.9389 43.112 80.2591 43.112H81.0251V43.9911H80.0864C79.5056 43.9911 79.0723 43.8593 78.7835 43.5924C78.4947 43.3255 78.3502 42.886 78.3502 42.2769V38.588H77.5371V37.7277H78.3502V35.5332H79.3894V37.7277H81.0251V38.588H79.3894Z" fill="#B5F0E5"/>
<path d="M85.3358 39.1502C85.5964 38.6667 85.9512 38.2899 86.4064 38.0231C86.8585 37.7562 87.3703 37.6243 87.9322 37.6243C88.4189 37.6243 88.8741 37.7374 89.2917 37.9603C89.7092 38.1863 90.0294 38.4814 90.2524 38.8456V35.5303H91.3041V43.9913H90.2524V42.814C90.0451 43.1876 89.7406 43.4953 89.3387 43.7339C88.9337 43.9725 88.4628 44.0949 87.9197 44.0949C87.3765 44.0949 86.8585 43.9568 86.4033 43.6836C85.9512 43.4105 85.5933 43.0243 85.3327 42.5283C85.0721 42.0323 84.9434 41.4703 84.9434 40.8361C84.9434 40.2019 85.0721 39.6336 85.3327 39.1502H85.3358ZM89.9667 39.6148C89.7751 39.2632 89.5177 38.9963 89.1943 38.8079C88.871 38.6196 88.5131 38.5285 88.1237 38.5285C87.7344 38.5285 87.3797 38.6196 87.0594 38.8017C86.7392 38.9838 86.4849 39.2506 86.2934 39.6023C86.1019 39.9539 86.0077 40.3652 86.0077 40.8361C86.0077 41.307 86.1019 41.734 86.2934 42.0888C86.4849 42.4435 86.7392 42.7135 87.0594 42.9019C87.3797 43.0903 87.7344 43.1813 88.1237 43.1813C88.5131 43.1813 88.8678 43.0871 89.1943 42.9019C89.5177 42.7167 89.7751 42.4435 89.9667 42.0888C90.1582 41.734 90.2524 41.3196 90.2524 40.8486C90.2524 40.3777 90.1582 39.9633 89.9667 39.6148Z" fill="#B5F0E5"/>
<path d="M93.0658 39.1498C93.3264 38.6663 93.6812 38.2896 94.1364 38.0227C94.5885 37.7558 95.094 37.624 95.6528 37.624C96.2117 37.624 96.6794 37.7433 97.0813 37.9787C97.4863 38.2142 97.7877 38.5125 97.9855 38.8704V37.7276H99.0372V43.9941H97.9855V42.8262C97.7783 43.1935 97.4737 43.4949 97.0656 43.7366C96.6575 43.9752 96.1834 44.0977 95.6434 44.0977C95.1034 44.0977 94.5822 43.9595 94.1333 43.6864C93.6843 43.4133 93.3296 43.0271 93.069 42.5311C92.8084 42.035 92.6797 41.473 92.6797 40.8389C92.6797 40.2047 92.8084 39.6364 93.069 39.1529L93.0658 39.1498ZM97.6967 39.6113C97.5051 39.2597 97.2477 38.9928 96.9243 38.8044C96.601 38.6161 96.243 38.525 95.8537 38.525C95.4644 38.525 95.1097 38.6161 94.7894 38.7982C94.4692 38.9802 94.2149 39.2471 94.0234 39.5987C93.8319 39.9504 93.7377 40.3616 93.7377 40.8326C93.7377 41.3035 93.8319 41.7305 94.0234 42.0852C94.2149 42.44 94.4692 42.71 94.7894 42.8984C95.1097 43.0868 95.4644 43.1778 95.8537 43.1778C96.243 43.1778 96.5978 43.0836 96.9243 42.8984C97.2477 42.7132 97.5051 42.44 97.6967 42.0852C97.8882 41.7305 97.9824 41.3161 97.9824 40.8451C97.9824 40.3742 97.8882 39.9598 97.6967 39.6113Z" fill="#B5F0E5"/>
<path d="M102.063 38.5848V42.2769C102.063 42.5815 102.129 42.7981 102.258 42.9237C102.387 43.0493 102.613 43.112 102.933 43.112H103.699V43.9911H102.76C102.179 43.9911 101.746 43.8593 101.457 43.5924C101.168 43.3255 101.024 42.886 101.024 42.2769V38.5848H100.211V37.7277H101.024V35.5332H102.063V37.7277H103.699V38.5848H102.063Z" fill="#B5F0E5"/>
<path d="M104.954 39.1498C105.214 38.6663 105.569 38.2896 106.024 38.0227C106.476 37.7558 106.982 37.624 107.541 37.624C108.1 37.624 108.567 37.7433 108.969 37.9787C109.374 38.2142 109.676 38.5125 109.873 38.8704V37.7276H110.925V43.9941H109.873V42.8262C109.666 43.1935 109.362 43.4949 108.953 43.7366C108.545 43.9752 108.071 44.0977 107.531 44.0977C106.991 44.0977 106.47 43.9595 106.021 43.6864C105.572 43.4133 105.217 43.0271 104.957 42.5311C104.696 42.035 104.568 41.473 104.568 40.8389C104.568 40.2047 104.696 39.6364 104.957 39.1529L104.954 39.1498ZM109.585 39.6113C109.393 39.2597 109.136 38.9928 108.812 38.8044C108.489 38.6161 108.131 38.525 107.742 38.525C107.352 38.525 106.998 38.6161 106.677 38.7982C106.357 38.9802 106.103 39.2471 105.911 39.5987C105.72 39.9504 105.626 40.3616 105.626 40.8326C105.626 41.3035 105.72 41.7305 105.911 42.0852C106.103 42.44 106.357 42.71 106.677 42.8984C106.998 43.0868 107.352 43.1778 107.742 43.1778C108.131 43.1778 108.486 43.0836 108.812 42.8984C109.136 42.7132 109.393 42.44 109.585 42.0852C109.776 41.7305 109.87 41.3161 109.87 40.8451C109.87 40.3742 109.776 39.9598 109.585 39.6113Z" fill="#B5F0E5"/>
</g>
</g>
<defs>
<linearGradient id="paint0_linear_499_141" x1="9.88942" y1="11.616" x2="13.6569" y2="35.1626" gradientUnits="userSpaceOnUse">
<stop stop-color="#B5F0E5"/>
<stop offset="1" stop-color="#B5F0E5"/>
</linearGradient>
<linearGradient id="paint1_linear_499_141" x1="26.6851" y1="-0.941995" x2="28.0979" y2="24.4883" gradientUnits="userSpaceOnUse">
<stop stop-color="#B5F0E5"/>
<stop offset="1" stop-color="#B5F0E5"/>
</linearGradient>
</defs>
</svg>
