<?xml version="1.0" encoding="utf-8"?>
<!-- Generator: Adobe Illustrator 25.3.1, SVG Export Plug-In . SVG Version: 6.00 Build 0)  -->
<svg version="1.1" id="Layer_1" xmlns="http://www.w3.org/2000/svg" xmlns:xlink="http://www.w3.org/1999/xlink" x="0px" y="0px"
	 viewBox="0 0 682.1 282.9" style="enable-background:new 0 0 682.1 282.9;" xml:space="preserve">
<style type="text/css">
	.st0{fill:#FFFFFF;}
</style>
<g>
	<g>
		<path class="st0" d="M255.5,84.5c-6.2-5.5-15.7-4.9-21.2,1.3c-5.5,6.2-4.9,15.7,1.3,21.2c6.2,5.5,15.7,4.9,21.2-1.3
			c1-1.2,1.8-2.5,2.4-3.8h280.7V89.5H259.2C258.3,87.7,257.1,85.9,255.5,84.5z"/>
		<path class="st0" d="M480.4,123.2h-37.5H198.8c-0.8-1.6-1.9-3.2-3.4-4.4c-5.8-5.2-14.8-4.6-20,1.2c-5.2,5.8-4.6,14.8,1.2,20
			c5.8,5.2,14.8,4.6,20-1.2c0.9-1,1.5-2.1,2.1-3.2h233.6l-23.2,27.1h-71.4c-0.8-1.6-1.9-3.2-3.4-4.4c-5.8-5.2-14.8-4.6-20,1.2
			c-5.2,5.8-4.6,14.8,1.2,20c5.8,5.2,14.8,4.6,20-1.2c0.9-1,1.5-2.1,2.1-3.2h77.1l33.7-39.4h31.8h87.2v-12.3H480.4z"/>
		<path class="st0" d="M249.8,69.8h176.6c0.6,1.4,1.4,2.7,2.4,3.9c5.5,6.2,15,6.8,21.3,1.3c6.2-5.5,6.8-15,1.3-21.3
			c-5.5-6.2-15-6.8-21.3-1.3c-1.7,1.5-2.9,3.2-3.7,5.1h-166l23.2-27.1h71.4c0.8,1.6,1.9,3.2,3.3,4.4c5.8,5.2,14.8,4.6,20-1.2
			c5.2-5.8,4.6-14.8-1.2-20c-5.8-5.2-14.8-4.6-20,1.2c-0.9,1-1.5,2.1-2.1,3.2h-77.1l-33.7,39.4h-25.9h-93.1v12.3h93.1H249.8z"/>
	</g>
	<g>
		<path class="st0" d="M7.9,256.7c0-0.5,0.1-1.1,0.3-1.6c0.2-0.5,0.5-0.9,0.8-1.3s0.8-0.6,1.3-0.8c0.5-0.2,1-0.3,1.5-0.3
			c0.5,0,1.1,0.1,1.6,0.3s0.9,0.5,1.3,0.8c0.4,0.4,0.6,0.8,0.8,1.3s0.3,1,0.3,1.6c0,0.5-0.1,1-0.3,1.5s-0.5,0.9-0.8,1.3
			c-0.4,0.4-0.8,0.6-1.3,0.8s-1,0.3-1.6,0.3c-0.5,0-1-0.1-1.5-0.3c-0.5-0.2-0.9-0.5-1.3-0.8c-0.4-0.4-0.6-0.8-0.8-1.3
			C8,257.8,7.9,257.3,7.9,256.7z"/>
		<path class="st0" d="M74.3,240.5c-0.2,0.3-0.3,0.5-0.5,0.6s-0.4,0.2-0.7,0.2c-0.3,0-0.6-0.1-1-0.4c-0.4-0.3-0.9-0.6-1.5-1
			c-0.6-0.4-1.3-0.7-2.2-1c-0.9-0.3-1.9-0.4-3.1-0.4c-1.1,0-2.2,0.2-3,0.5c-0.9,0.3-1.6,0.7-2.2,1.3c-0.6,0.5-1,1.1-1.3,1.9
			c-0.3,0.7-0.4,1.5-0.4,2.3c0,1.1,0.3,1.9,0.8,2.6c0.5,0.7,1.2,1.3,2.1,1.8c0.9,0.5,1.8,0.9,2.9,1.3c1.1,0.4,2.2,0.7,3.3,1.1
			c1.1,0.4,2.2,0.8,3.3,1.3c1.1,0.5,2,1.1,2.9,1.8c0.9,0.7,1.5,1.6,2.1,2.7c0.5,1.1,0.8,2.4,0.8,4c0,1.7-0.3,3.2-0.8,4.7
			c-0.6,1.5-1.4,2.7-2.5,3.8c-1.1,1.1-2.4,1.9-4,2.5c-1.6,0.6-3.4,0.9-5.4,0.9c-2.4,0-4.7-0.4-6.7-1.3c-2-0.9-3.7-2.1-5.2-3.6
			l1.5-2.4c0.1-0.2,0.3-0.4,0.5-0.5c0.2-0.1,0.4-0.2,0.7-0.2c0.4,0,0.8,0.2,1.3,0.6c0.5,0.4,1.1,0.8,1.8,1.3
			c0.7,0.5,1.6,0.9,2.6,1.3c1,0.4,2.2,0.6,3.7,0.6c1.2,0,2.3-0.2,3.2-0.5s1.8-0.8,2.4-1.4s1.2-1.3,1.5-2.2c0.4-0.8,0.5-1.8,0.5-2.8
			c0-1.1-0.3-2.1-0.8-2.8c-0.5-0.7-1.2-1.3-2-1.8c-0.8-0.5-1.8-0.9-2.9-1.3c-1.1-0.3-2.2-0.7-3.3-1.1c-1.1-0.4-2.2-0.8-3.3-1.3
			c-1.1-0.5-2-1.1-2.9-1.8c-0.8-0.8-1.5-1.7-2-2.8c-0.5-1.1-0.8-2.5-0.8-4.2c0-1.3,0.3-2.6,0.8-3.9c0.5-1.2,1.3-2.4,2.3-3.3
			c1-1,2.2-1.7,3.7-2.3c1.5-0.6,3.1-0.9,5-0.9c2.1,0,4,0.3,5.8,1c1.7,0.7,3.3,1.6,4.6,2.9L74.3,240.5z"/>
		<path class="st0" d="M99,251.1h1.9c0.7,0,1.2-0.1,1.6-0.3c0.4-0.2,0.8-0.5,1.1-0.9l12.6-14.2c0.4-0.4,0.8-0.8,1.1-0.9
			c0.4-0.2,0.8-0.3,1.4-0.3h4.4l-14.4,16.3c-0.4,0.4-0.7,0.7-1,1c-0.3,0.3-0.7,0.5-1,0.7c0.5,0.2,0.9,0.4,1.3,0.7
			c0.4,0.3,0.8,0.7,1.2,1.2l15,17.9h-4.4c-0.3,0-0.6,0-0.8-0.1s-0.4-0.1-0.6-0.2c-0.2-0.1-0.3-0.2-0.5-0.3c-0.1-0.1-0.3-0.3-0.4-0.4
			l-13.1-15c-0.2-0.2-0.4-0.4-0.5-0.5c-0.2-0.1-0.4-0.3-0.6-0.4c-0.2-0.1-0.5-0.2-0.8-0.2c-0.3,0-0.6-0.1-1.1-0.1H99v17.3h-5.1
			v-37.8H99V251.1z"/>
		<path class="st0" d="M154.4,257.3v15h-5.1v-15l-13.8-22.8h4.5c0.5,0,0.8,0.1,1.1,0.3s0.5,0.5,0.7,0.8l8.7,14.7
			c0.4,0.6,0.6,1.2,0.9,1.7c0.2,0.5,0.5,1.1,0.6,1.6c0.2-0.5,0.4-1.1,0.6-1.6s0.5-1.1,0.9-1.7l8.6-14.7c0.2-0.3,0.4-0.5,0.6-0.8
			c0.3-0.3,0.6-0.4,1.1-0.4h4.5L154.4,257.3z"/>
		<path class="st0" d="M187.3,234.8c0.2,0.1,0.5,0.3,0.8,0.7l21.9,28.5c-0.1-0.5-0.1-0.9-0.1-1.3c0-0.4,0-0.8,0-1.3v-26.8h4.5v37.8
			h-2.6c-0.4,0-0.7-0.1-1-0.2s-0.5-0.4-0.8-0.7L188,243c0,0.4,0.1,0.9,0.1,1.3s0,0.8,0,1.2v26.9h-4.5v-37.8h2.6
			C186.7,234.6,187,234.6,187.3,234.8z"/>
		<path class="st0" d="M257.3,234.6v4.2h-18.1v12.6h14.7v4h-14.7v12.9h18.1v4.2H234v-37.8H257.3z"/>
		<path class="st0" d="M301,234.6v4.3h-12.2v33.5h-5.1v-33.5h-12.3v-4.3H301z"/>
		<path class="st0" d="M363.4,234.6v4.3h-12.2v33.5H346v-33.5h-12.3v-4.3H363.4z"/>
		<path class="st0" d="M384.9,256.6v15.8h-5.1v-37.8h10.7c2.4,0,4.5,0.2,6.2,0.7c1.7,0.5,3.2,1.2,4.3,2.1c1.1,0.9,2,2,2.5,3.3
			s0.8,2.7,0.8,4.3c0,1.3-0.2,2.6-0.6,3.7c-0.4,1.2-1,2.2-1.8,3.1c-0.8,0.9-1.8,1.7-2.9,2.4s-2.5,1.1-3.9,1.5
			c0.6,0.4,1.2,0.9,1.7,1.6l11,15h-4.5c-0.9,0-1.6-0.4-2.1-1.1l-9.8-13.5c-0.3-0.4-0.6-0.7-1-0.9c-0.4-0.2-0.9-0.3-1.6-0.3H384.9z
			 M384.9,252.9h5.4c1.5,0,2.8-0.2,3.9-0.5s2.1-0.9,2.8-1.5c0.8-0.7,1.3-1.4,1.7-2.4c0.4-0.9,0.6-1.9,0.6-3c0-2.3-0.7-3.9-2.2-5.1
			c-1.5-1.1-3.7-1.7-6.6-1.7h-5.6V252.9z"/>
		<path class="st0" d="M454.9,272.4h-4c-0.5,0-0.8-0.1-1.1-0.3s-0.5-0.5-0.6-0.9l-3.5-9.1h-17l-3.5,9.1c-0.1,0.3-0.3,0.6-0.6,0.8
			s-0.7,0.4-1.1,0.4h-4l15.1-37.8h5.2L454.9,272.4z M430.1,258.3h14.1l-5.9-15.4c-0.4-0.9-0.8-2.1-1.1-3.6c-0.2,0.7-0.4,1.4-0.6,2
			s-0.4,1.1-0.5,1.6L430.1,258.3z"/>
		<path class="st0" d="M503,253.5c0,2.8-0.4,5.4-1.3,7.7c-0.9,2.3-2.2,4.3-3.8,6c-1.6,1.7-3.6,2.9-5.9,3.8c-2.3,0.9-4.8,1.4-7.6,1.4
			h-14.1v-37.8h14.1c2.8,0,5.3,0.5,7.6,1.4c2.3,0.9,4.2,2.2,5.9,3.9c1.6,1.7,2.9,3.7,3.8,6C502.5,248.1,503,250.7,503,253.5z
			 M497.7,253.5c0-2.3-0.3-4.4-1-6.2c-0.6-1.8-1.5-3.4-2.7-4.6c-1.2-1.3-2.6-2.2-4.2-2.9c-1.7-0.7-3.5-1-5.5-1h-9v29.5h9
			c2,0,3.9-0.3,5.5-1c1.7-0.7,3.1-1.6,4.2-2.9c1.2-1.3,2.1-2.8,2.7-4.6C497.4,257.9,497.7,255.8,497.7,253.5z"/>
		<path class="st0" d="M526.6,272.4h-5.1v-37.8h5.1V272.4z"/>
		<path class="st0" d="M550.9,234.8c0.2,0.1,0.5,0.3,0.8,0.7l21.9,28.5c-0.1-0.5-0.1-0.9-0.1-1.3c0-0.4,0-0.8,0-1.3v-26.8h4.5v37.8
			h-2.6c-0.4,0-0.7-0.1-1-0.2s-0.5-0.4-0.8-0.7L551.6,243c0,0.4,0.1,0.9,0.1,1.3s0,0.8,0,1.2v26.9h-4.5v-37.8h2.6
			C550.3,234.6,550.7,234.6,550.9,234.8z"/>
		<path class="st0" d="M614.5,268.7c1,0,2,0,2.8-0.1s1.7-0.2,2.4-0.4s1.5-0.4,2.1-0.7c0.7-0.3,1.3-0.6,2-0.9v-8.3H618
			c-0.3,0-0.6-0.1-0.8-0.3s-0.3-0.4-0.3-0.7v-2.9h11.6v14.5c-0.9,0.7-1.9,1.3-3,1.8s-2.1,0.9-3.3,1.3c-1.2,0.3-2.4,0.6-3.8,0.8
			c-1.3,0.2-2.8,0.2-4.4,0.2c-2.7,0-5.3-0.5-7.5-1.4c-2.3-0.9-4.3-2.3-5.9-4c-1.7-1.7-2.9-3.7-3.9-6.1c-0.9-2.4-1.4-5-1.4-7.8
			c0-2.9,0.5-5.5,1.4-7.9c0.9-2.4,2.2-4.4,3.9-6.1c1.7-1.7,3.7-3,6.1-3.9c2.4-0.9,5-1.4,8-1.4c1.5,0,2.9,0.1,4.2,0.3
			c1.3,0.2,2.5,0.5,3.6,1s2.1,0.9,3,1.5c0.9,0.6,1.8,1.3,2.6,2l-1.5,2.3c-0.3,0.5-0.7,0.7-1.2,0.7c-0.3,0-0.6-0.1-0.9-0.3
			c-0.4-0.2-0.9-0.5-1.5-0.9c-0.5-0.4-1.2-0.7-2-1s-1.7-0.6-2.8-0.8c-1.1-0.2-2.3-0.3-3.8-0.3c-2.1,0-4.1,0.3-5.8,1
			c-1.7,0.7-3.2,1.7-4.4,3c-1.2,1.3-2.1,2.9-2.8,4.7c-0.7,1.8-1,3.9-1,6.2c0,2.4,0.3,4.5,1,6.4c0.7,1.9,1.6,3.5,2.9,4.8
			c1.2,1.3,2.7,2.3,4.4,3C610.6,268.3,612.5,268.7,614.5,268.7z"/>
		<path class="st0" d="M666.3,256.7c0-0.5,0.1-1.1,0.3-1.6s0.5-0.9,0.8-1.3c0.4-0.4,0.8-0.6,1.3-0.8s1-0.3,1.5-0.3
			c0.5,0,1.1,0.1,1.6,0.3s0.9,0.5,1.3,0.8s0.6,0.8,0.8,1.3s0.3,1,0.3,1.6c0,0.5-0.1,1-0.3,1.5s-0.5,0.9-0.8,1.3
			c-0.4,0.4-0.8,0.6-1.3,0.8s-1,0.3-1.6,0.3c-0.5,0-1-0.1-1.5-0.3s-0.9-0.5-1.3-0.8c-0.4-0.4-0.6-0.8-0.8-1.3
			S666.3,257.3,666.3,256.7z"/>
	</g>
</g>
</svg>
