<svg width="123" height="25" viewBox="0 0 123 25" fill="none" xmlns="http://www.w3.org/2000/svg">
<g clip-path="url(#clip0_1_28)" filter="url(#filter0_d_1_28)">
<path d="M29.1268 9.56283C30.755 9.56283 32.0749 8.30091 32.0749 6.74425C32.0749 5.18758 30.755 3.92566 29.1268 3.92566C27.4986 3.92566 26.1787 5.18758 26.1787 6.74425C26.1787 8.30091 27.4986 9.56283 29.1268 9.56283Z" fill="#B5F0E5"/>
<path d="M6.9481 16.6324C8.5763 16.6324 9.89621 15.3705 9.89621 13.8138C9.89621 12.2572 8.5763 10.9952 6.9481 10.9952C5.3199 10.9952 4 12.2572 4 13.8138C4 15.3705 5.3199 16.6324 6.9481 16.6324Z" fill="#B5F0E5"/>
<path d="M21.7329 10.9952C19.2686 10.9952 17.2876 9.10077 17.2876 6.74425C17.2876 5.17323 15.983 3.92566 14.3401 3.92566C12.6972 3.92566 11.3926 5.17323 11.3926 6.74425C11.3926 8.31526 12.6972 9.56283 14.3401 9.56283C16.8044 9.56283 18.7855 11.4573 18.7855 13.8138C18.7855 15.3848 20.0901 16.6324 21.7329 16.6324C23.3758 16.6324 24.6804 15.3848 24.6804 13.8138C24.6321 12.2428 23.3275 10.9952 21.7329 10.9952Z" fill="#B5F0E5"/>
<path d="M38.6934 16.124V5.0345H40.7711L41.0127 6.65173C41.7375 5.49657 43.1871 4.71106 44.9266 4.71106C47.3909 4.71106 48.9854 6.28208 48.9854 8.77722V16.124H46.4245V8.91584C46.4245 7.66827 45.5547 6.88276 44.1535 6.88276C42.4623 6.88276 41.3509 7.99171 41.3026 9.42411V16.124H38.6934Z" fill="#B5F0E5"/>
<path d="M50.4348 1.93869C50.4348 1.06077 51.1598 0.367676 52.078 0.367676C53.0446 0.367676 53.7213 1.06077 53.7213 1.93869C53.7213 2.81661 53.0446 3.55591 52.078 3.55591C51.1598 3.55591 50.4348 2.86282 50.4348 1.93869Z" fill="#B5F0E5"/>
<path d="M53.3347 5.03455H50.7732V16.0779H53.3347V5.03455Z" fill="#B5F0E5"/>
<path d="M55.3154 16.1241V5.03457H57.3932L57.5865 6.55938C58.3113 5.49663 59.7125 4.66492 61.452 4.66492C63.0949 4.66492 64.3995 5.45042 64.9793 6.7442C65.6558 5.58904 67.1054 4.66492 68.9415 4.66492C71.3575 4.66492 72.9037 6.32834 72.9037 8.68487V16.0317H70.2944V8.86969C70.2944 7.62212 69.5213 6.83661 68.265 6.83661C66.4772 6.83661 65.3659 7.94557 65.3659 9.42417V16.1241H62.8049V8.86969C62.8049 7.62212 62.0318 6.83661 60.7755 6.83661C58.9877 6.83661 57.8764 7.94557 57.8764 9.42417V16.1241H55.3154Z" fill="#B5F0E5"/>
<path d="M77.1074 14.1372L76.8658 16.0778H74.7881V0.460083H77.349V6.51311C78.1704 5.45037 79.5717 4.75727 81.2145 4.75727C84.2586 4.75727 86.433 7.16 86.433 10.5793C86.433 14.0447 84.2586 16.4937 81.2145 16.4937C79.3784 16.4013 77.8322 15.5233 77.1074 14.1372ZM83.8238 10.5331C83.8238 8.36137 82.5192 6.83656 80.6347 6.83656C78.7503 6.83656 77.3973 8.36137 77.3973 10.4869C77.3973 12.751 78.7503 14.3682 80.6347 14.3682C82.5192 14.322 83.8238 12.751 83.8238 10.5331Z" fill="#B5F0E5"/>
<path d="M87.2061 10.4869C87.2061 6.88276 89.767 4.71106 93.1494 4.71106C96.8699 4.71106 99.0443 7.2062 99.0443 10.4869C99.0443 14.2296 96.58 16.4475 93.1494 16.4475C89.3804 16.4013 87.2061 13.9061 87.2061 10.4869ZM96.435 10.4869C96.435 8.31515 95.1304 6.83655 93.1494 6.83655C91.1199 6.83655 89.8153 8.31515 89.8153 10.4869C89.8153 12.8896 91.2166 14.322 93.1494 14.322C95.1788 14.322 96.435 12.7048 96.435 10.4869Z" fill="#B5F0E5"/>
<path d="M100.397 16.124V5.03449H102.475L102.765 7.20619C103.49 5.68138 104.844 4.89587 106.777 4.89587H107.212V7.2986H106.777C104.36 7.2986 102.959 8.54617 102.959 10.6255V16.0778H100.397V16.124Z" fill="#B5F0E5"/>
<path d="M107.355 10.5331C107.355 7.11379 109.578 4.71106 112.622 4.71106C114.458 4.71106 115.956 5.54277 116.681 6.79034L116.922 5.08071H119V16.124H116.439V14.5992C115.714 15.7082 114.41 16.4013 112.719 16.4013C109.578 16.4013 107.355 13.9985 107.355 10.5331ZM116.439 10.4869C116.439 8.31515 115.135 6.79034 113.25 6.79034C111.317 6.79034 110.013 8.31515 110.013 10.5331C110.013 12.751 111.317 14.322 113.202 14.322C115.086 14.322 116.439 12.751 116.439 10.4869Z" fill="#B5F0E5"/>
</g>
<defs>
<filter id="filter0_d_1_28" x="0" y="0" width="123" height="25" filterUnits="userSpaceOnUse" color-interpolation-filters="sRGB">
<feFlood flood-opacity="0" result="BackgroundImageFix"/>
<feColorMatrix in="SourceAlpha" type="matrix" values="0 0 0 0 0 0 0 0 0 0 0 0 0 0 0 0 0 0 127 0" result="hardAlpha"/>
<feOffset dy="4"/>
<feGaussianBlur stdDeviation="2"/>
<feComposite in2="hardAlpha" operator="out"/>
<feColorMatrix type="matrix" values="0 0 0 0 0 0 0 0 0 0 0 0 0 0 0 0 0 0 0.25 0"/>
<feBlend mode="normal" in2="BackgroundImageFix" result="effect1_dropShadow_1_28"/>
<feBlend mode="normal" in="SourceGraphic" in2="effect1_dropShadow_1_28" result="shape"/>
</filter>
<clipPath id="clip0_1_28">
<rect width="115" height="17" fill="white" transform="translate(4)"/>
</clipPath>
</defs>
</svg>
