<svg width="1098" height="140" viewBox="0 0 1098 140" fill="none" xmlns="http://www.w3.org/2000/svg">
<path fill-rule="evenodd" clip-rule="evenodd" d="M0.0429993 0H121.365V19.592H19.657V43.758H120.913V140H0V120.408H101.299V98.283H0.0429993V0ZM101.299 78.691V63.35H19.657V78.691H101.299ZM147.022 0H166.637V66.278H255.719V0H275.334V85.87H220.985V140H201.371V85.87H147.022V0ZM302.217 0H430.529V140H410.914V19.592H377.108V82.449H357.493V19.592H321.832V140H302.217V0ZM456.595 0H580.82V140H456.595V0ZM476.21 19.592V60.85H561.206V19.592H476.21ZM561.206 80.442H476.21V120.408H561.206V80.442ZM612.069 140V0H631.684V140H612.069ZM662.933 0H787.16V140H662.933V0ZM682.547 19.592V120.408H767.54V19.592H682.547ZM852.24 19.592H806.77V0H915.47V19.592H871.86V140H852.24V19.592ZM940.08 140V0H959.7V140H940.08ZM983.58 0H1098V19.592H1003.2V120.408H1098V140H983.58V0Z" fill="#B5F0E5"/>
</svg>
