<svg width="64" height="64" viewBox="0 0 64 64" fill="none" xmlns="http://www.w3.org/2000/svg">
<path d="M37.5769 29.3117V36.944C37.5833 37.084 37.5606 37.224 37.5099 37.3547C37.459 37.4856 37.3817 37.6043 37.2825 37.7035C37.1833 37.8024 37.0646 37.8797 36.9337 37.9304C36.803 37.9811 36.663 38.0037 36.523 37.9973H18.2171C16.5747 37.9973 15.4345 37.6835 14.7313 37.0373C14.3739 36.7011 14.0932 36.2915 13.9083 35.8371C13.7234 35.3824 13.6387 34.8933 13.6598 34.4029C13.6574 33.8659 13.7846 33.336 14.0307 32.8587C14.2758 32.3933 14.5917 31.9688 14.967 31.6005L22.3041 24.2976H3.5486C2.56562 28.2182 2.40239 32.2995 3.06909 36.2861C3.7358 40.2728 5.21812 44.0789 7.42328 47.4664H53.2121L37.5875 29.3251L37.5769 29.3117Z" fill="white"/>
<path d="M37.5767 2.66455V25.5979L37.6173 25.5464L37.6602 25.4931L46.2143 18.247C46.3495 18.0905 46.5178 17.9659 46.7069 17.8819C46.8957 17.7979 47.101 17.7567 47.3077 17.7611H51.7727C51.9799 17.7485 52.1845 17.812 52.3482 17.9397C52.5119 18.0674 52.6234 18.2504 52.6615 18.4544C52.6847 18.6134 52.6679 18.7756 52.6125 18.9264C52.5567 19.0772 52.4645 19.2117 52.3437 19.3176L52.3095 19.3496L43.0562 27.451L58.0445 44.9491C60.1426 40.8998 61.2677 36.4168 61.3298 31.8566C61.3919 27.2963 60.3895 22.7844 58.4026 18.6794C56.4154 14.5744 53.4983 10.9894 49.8829 8.20935C46.2677 5.42927 42.0535 3.53071 37.5759 2.66455H37.5767Z" fill="white"/>
<path d="M29.6811 19.6752C30.3168 20.3256 30.6392 21.284 30.6392 22.5238C30.6494 23.0354 30.5622 23.5444 30.3822 24.0235C30.2147 24.447 29.9627 24.8319 29.6411 25.1544L22.4046 32.3886H31.9659V2.13336C26.458 2.13829 21.0628 3.69366 16.3976 6.62152C11.7324 9.54936 7.9857 13.7314 5.58618 18.6891H26.3912C27.9558 18.6891 29.0318 19.0118 29.6811 19.6752Z" fill="white"/>
<path fill-rule="evenodd" clip-rule="evenodd" d="M30.8045 59.8344V61.5808C30.8075 61.6024 30.8056 61.6245 30.7987 61.6453C30.7917 61.6659 30.78 61.6848 30.7643 61.7003C30.7488 61.7157 30.7299 61.7272 30.7091 61.7339C30.6883 61.7408 30.6661 61.7427 30.6445 61.7395H26.0411C25.9772 61.7403 25.9135 61.7352 25.8507 61.7237C24.9719 61.6499 24.3474 61.3931 23.9771 60.9536C23.6067 60.5139 23.4215 59.8496 23.4213 58.9611V50.5141C23.4183 50.4923 23.4203 50.4704 23.4273 50.4496C23.4343 50.4288 23.446 50.4099 23.4615 50.3947C23.4771 50.3792 23.496 50.3675 23.5168 50.3608C23.5376 50.3539 23.5597 50.3523 23.5813 50.3555H25.5661C25.5878 50.352 25.6099 50.3539 25.6307 50.3608C25.6515 50.3675 25.6705 50.3789 25.6861 50.3944C25.7016 50.4099 25.7133 50.4288 25.7203 50.4496C25.7272 50.4701 25.7292 50.4923 25.7261 50.5141V59.1515C25.7261 59.5008 25.9325 59.6755 26.3453 59.6755H30.6464C30.668 59.6725 30.6899 59.6747 30.7104 59.6816C30.7309 59.6885 30.7496 59.7 30.7651 59.7155C30.7803 59.7309 30.792 59.7496 30.7987 59.7704C30.8056 59.7909 30.8075 59.8128 30.8045 59.8344ZM17.1594 50.3555H15.54C15.5183 50.3523 15.4962 50.3539 15.4754 50.3608C15.4546 50.3675 15.4357 50.3792 15.4202 50.3947C15.4046 50.4099 15.3929 50.4288 15.3859 50.4496C15.3789 50.4704 15.3769 50.4923 15.38 50.5141V59.8008H10.0768C9.96022 59.8008 9.90235 59.7587 9.90235 59.6739C9.91086 59.5931 9.95081 59.5189 10.0136 59.4675L13.5869 55.8941C13.7043 55.7765 13.7963 55.636 13.857 55.4813C13.9246 55.2984 13.9568 55.1045 13.952 54.9099C13.9834 54.5155 13.858 54.1245 13.6029 53.8221C13.37 53.584 12.9413 53.4651 12.3168 53.4651H7.10905C7.0874 53.4616 7.06526 53.4635 7.04444 53.4704C7.02361 53.4771 7.00465 53.4885 6.9891 53.504C6.97356 53.5195 6.96182 53.5384 6.95486 53.5592C6.9479 53.5797 6.9459 53.6019 6.94902 53.6237V55.2432C6.94566 55.2648 6.9475 55.2872 6.95436 55.308C6.96121 55.3291 6.97289 55.348 6.98849 55.3637C7.00406 55.3792 7.0231 55.3909 7.04406 55.3979C7.065 55.4045 7.08726 55.4064 7.10905 55.4032H10.7293C10.9088 55.4032 10.9989 55.4507 10.9989 55.5459C10.9986 55.5725 10.9928 55.5992 10.982 55.6237C10.9711 55.6483 10.9554 55.6704 10.9357 55.6888L7.26769 59.3421C7.11806 59.4883 6.99212 59.6571 6.89438 59.8421C6.80475 60.0163 6.75857 60.2099 6.75971 60.4059C6.75041 60.5869 6.78036 60.768 6.84753 60.9365C6.91468 61.1051 7.01742 61.2571 7.14878 61.3824C7.4078 61.6203 7.87089 61.7395 8.53809 61.7395L15.4956 61.739C15.5102 61.7415 15.5252 61.7417 15.54 61.7395H17.0407C17.0519 61.7408 17.0633 61.7408 17.0744 61.7395H17.1594C17.1811 61.7427 17.2032 61.7408 17.224 61.7339C17.2448 61.7272 17.2637 61.7157 17.2793 61.7003C17.2948 61.6848 17.3065 61.6659 17.3135 61.6453C17.3205 61.6245 17.3225 61.6024 17.3194 61.5808V57.3126C17.3336 57.3862 17.3577 57.4578 17.3914 57.5253C17.4457 57.6424 17.5153 57.752 17.5984 57.8509L20.6053 61.5979C20.64 61.6424 20.6845 61.6787 20.7354 61.7032C20.7862 61.728 20.8421 61.7408 20.8986 61.7408H23.1277C23.2198 61.7408 23.237 61.704 23.1794 61.6299L19.7581 57.3587C19.7287 57.3299 19.7027 57.2979 19.6805 57.2635C19.6577 57.236 19.6427 57.2029 19.637 57.168C19.6417 57.1371 19.6571 57.1085 19.6805 57.088C19.7093 57.0557 19.7349 57.0296 19.7581 57.008L22.9896 53.6261C23.0352 53.584 23.0562 53.5472 23.0501 53.5152C23.044 53.4832 23.0125 53.4675 22.9552 53.4675H20.7088C20.6534 53.4643 20.5981 53.4741 20.5472 53.4963C20.4962 53.5184 20.4512 53.5517 20.4154 53.5944L17.616 56.5171C17.5256 56.6197 17.45 56.7347 17.3914 56.8587C17.3581 56.9212 17.3339 56.988 17.3194 57.0571V50.5141C17.3225 50.4923 17.3205 50.4704 17.3135 50.4496C17.3065 50.4288 17.2948 50.4099 17.2793 50.3947C17.2637 50.3792 17.2448 50.3675 17.224 50.3608C17.2032 50.3539 17.1811 50.3523 17.1594 50.3555ZM33.4082 59.1277C33.3242 58.9976 33.28 58.8459 33.2813 58.6912C33.2786 58.6696 33.281 58.648 33.288 58.6275C33.2952 58.6072 33.3066 58.5888 33.3221 58.5736C33.3376 58.5584 33.3562 58.5472 33.3765 58.5403C33.397 58.5336 33.4189 58.5315 33.4402 58.5347H39.3138C39.3354 58.5376 39.3576 58.5357 39.3784 58.5288C39.3992 58.5219 39.4181 58.5101 39.4333 58.4944C39.4488 58.4789 39.4605 58.46 39.4672 58.4392C39.4741 58.4184 39.4757 58.3963 39.4725 58.3747V56.7235C39.4792 56.2645 39.4069 55.808 39.2592 55.3736C39.1226 54.9816 38.8906 54.6296 38.5845 54.3496C38.2442 54.0507 37.8434 53.8285 37.4096 53.6987C36.8584 53.5347 36.2853 53.4571 35.7104 53.4685C35.1776 53.4688 34.6472 53.5355 34.1309 53.6669C33.6162 53.7947 33.1346 54.0301 32.7176 54.3576C32.2784 54.7125 31.9301 55.1669 31.7016 55.6835C31.4208 56.348 31.2877 57.0659 31.3122 57.7872C31.3 58.3933 31.3776 58.9979 31.5426 59.5813C31.6816 60.056 31.9512 60.4824 32.3205 60.8117C32.7378 61.1608 33.2336 61.4032 33.7653 61.5184C34.4976 61.6805 35.2464 61.7552 35.9962 61.7405H39.3208C39.3424 61.7435 39.3642 61.7416 39.385 61.7347C39.4056 61.7277 39.4242 61.7163 39.4397 61.7008C39.4552 61.6853 39.4666 61.6667 39.4736 61.6459C39.4805 61.6253 39.4824 61.6032 39.4794 61.5819V59.9624C39.4826 59.9405 39.4808 59.9187 39.4741 59.8979C39.4672 59.8771 39.4557 59.8581 39.4402 59.8424C39.4248 59.8269 39.4061 59.8152 39.3853 59.8083C39.3645 59.8013 39.3424 59.7992 39.3208 59.8024H34.9008C34.6861 59.8035 34.4722 59.7739 34.2658 59.7152C34.0818 59.6648 33.9072 59.5845 33.7496 59.4771C33.6141 59.384 33.4981 59.2653 33.4082 59.1277ZM37.5858 56.6685C37.565 56.6757 37.5429 56.6776 37.5213 56.6747L33.4413 56.6752C33.4194 56.6784 33.3973 56.6765 33.3762 56.6699C33.3554 56.6629 33.3362 56.6512 33.3208 56.6357C33.305 56.62 33.2936 56.6011 33.2866 56.58C33.2797 56.5592 33.2778 56.5368 33.2813 56.5152C33.2826 56.4125 33.3045 56.3115 33.3453 56.2173C33.3861 56.1232 33.4453 56.0384 33.5192 55.9675C33.6909 55.7944 33.8928 55.6547 34.1149 55.5547C34.3546 55.4429 34.6045 55.3552 34.8616 55.2928C35.0925 55.2328 35.3298 55.2008 35.5682 55.1976C36.1101 55.1669 36.6498 55.2909 37.1242 55.5547C37.2941 55.6504 37.4352 55.7901 37.5328 55.9589C37.6304 56.1277 37.681 56.3195 37.6797 56.5147C37.6829 56.5363 37.6813 56.5584 37.6744 56.5792C37.6677 56.6 37.656 56.6189 37.6408 56.6344C37.6253 56.6499 37.6066 56.6616 37.5858 56.6685ZM42.744 61.2315C42.744 61.5701 42.5957 61.7395 42.2995 61.7395H41.2355C41.1685 61.7427 41.1021 61.7264 41.0445 61.6928C40.9867 61.6589 40.94 61.6088 40.9101 61.5491C40.8387 61.412 40.8032 61.2589 40.8069 61.1045V54.5155C40.8093 54.3792 40.8392 54.2448 40.8952 54.1206C40.9512 53.9963 41.032 53.8848 41.1325 53.7928C41.2419 53.6845 41.3723 53.5998 41.5155 53.544C41.6589 53.488 41.812 53.4619 41.9659 53.4675H45.5544C45.9216 53.4645 46.285 53.5432 46.6181 53.6976C46.9411 53.8475 47.2341 54.0547 47.4835 54.3088C47.7304 54.5606 47.9269 54.8568 48.0632 55.1822C48.1992 55.5037 48.2693 55.8491 48.2696 56.1984V61.5808C48.2696 61.6875 48.2109 61.7395 48.0947 61.7395H46.4912C46.4696 61.7427 46.4475 61.7408 46.4267 61.7341C46.4059 61.7272 46.3869 61.7157 46.3712 61.7003C46.3557 61.6848 46.344 61.6661 46.3371 61.6453C46.3301 61.6245 46.328 61.6024 46.3312 61.5808V56.5317C46.3392 56.3086 46.2984 56.0864 46.212 55.8808C46.14 55.72 46.0245 55.5824 45.8787 55.4837C45.7269 55.3851 45.5568 55.3176 45.3787 55.2853C45.1744 55.247 44.9672 55.2283 44.7595 55.2296H43.2192C43.0989 55.2312 42.9832 55.2763 42.8939 55.3568C42.8501 55.3875 42.8139 55.4278 42.7877 55.4744C42.7616 55.5211 42.7461 55.5731 42.7429 55.6267L42.744 61.2315ZM55.3032 50.5141V53.3085C55.3061 53.3301 55.3043 53.352 55.2973 53.3728C55.2904 53.3933 55.2789 53.4123 55.2635 53.4277C55.248 53.4429 55.2293 53.4547 55.2085 53.4616C55.1877 53.4685 55.1659 53.4704 55.1443 53.4675H52.1437C51.6909 53.4541 51.2424 53.5581 50.8416 53.7691C50.4784 53.9728 50.1728 54.2651 49.9525 54.6187C49.7027 55.0261 49.528 55.4749 49.4363 55.9443C49.3205 56.5083 49.2648 57.0829 49.2696 57.6589C49.272 58.1243 49.328 58.5877 49.4363 59.0403C49.5421 59.5027 49.716 59.9469 49.9525 60.3584C50.1747 60.7488 50.4779 61.0872 50.8416 61.3507C51.2227 61.6165 51.6792 61.7528 52.1437 61.7395H57.0813C57.1029 61.7427 57.1251 61.7408 57.1459 61.7341C57.1667 61.7272 57.1856 61.7157 57.2013 61.7003C57.2168 61.6848 57.2285 61.6661 57.2355 61.6453C57.2424 61.6245 57.2445 61.6024 57.2413 61.5808V50.5141C57.2445 50.4923 57.2424 50.4701 57.2355 50.4496C57.2285 50.4288 57.2168 50.4099 57.2013 50.3944C57.1856 50.3789 57.1667 50.3675 57.1459 50.3608C57.1346 50.357 57.1229 50.3548 57.1111 50.354C57.1012 50.3534 57.0912 50.3539 57.0813 50.3555H55.4619C55.4403 50.3523 55.4184 50.3544 55.3976 50.3611C55.3771 50.368 55.3581 50.3797 55.3429 50.3949C55.3275 50.4104 55.316 50.4293 55.3091 50.4499C55.3021 50.4704 55.3 50.4925 55.3032 50.5141ZM55.2973 55.4987C55.3043 55.5192 55.3064 55.5413 55.3032 55.5632L55.3024 59.6437C55.3056 59.6653 55.3035 59.6875 55.2965 59.7083C55.2896 59.7291 55.2779 59.7477 55.2624 59.7632C55.2467 59.7787 55.2277 59.7901 55.2069 59.7971C55.1861 59.8037 55.164 59.8056 55.1424 59.8024H53.412C53.1051 59.8056 52.7987 59.7739 52.4989 59.7072C52.2456 59.6517 52.0091 59.5376 51.808 59.3739C51.6061 59.1987 51.4531 58.9744 51.3635 58.7229C51.2472 58.3805 51.1933 58.0203 51.2051 57.6589C51.1933 57.2717 51.2469 56.8851 51.3635 56.5157C51.4499 56.2491 51.6064 56.0104 51.8168 55.8253C52.0187 55.6581 52.2587 55.5435 52.5157 55.4917C52.8109 55.4309 53.1115 55.4019 53.4128 55.4045H55.1432C55.1648 55.4011 55.1869 55.4029 55.2077 55.4096C55.2285 55.4165 55.2475 55.428 55.2632 55.4435C55.2787 55.4589 55.2904 55.4779 55.2973 55.4987Z" fill="white"/>
</svg>
