<svg width="220" height="225" viewBox="0 0 220 225" fill="none" xmlns="http://www.w3.org/2000/svg">
<g clip-path="url(#clip0_1_3)">
<path d="M130.913 101.919V130.54C130.937 131.065 130.852 131.59 130.662 132.08C130.471 132.571 130.181 133.016 129.809 133.388C129.437 133.759 128.992 134.049 128.501 134.239C128.011 134.429 127.486 134.514 126.961 134.49H58.314C52.155 134.49 47.879 133.313 45.242 130.89C43.9019 129.629 42.8493 128.093 42.156 126.389C41.4626 124.684 41.1447 122.85 41.224 121.011C41.2148 118.997 41.692 117.01 42.615 115.22C43.534 113.475 44.7184 111.883 46.126 110.502L73.64 83.116H3.30696C-0.379216 97.8184 -0.991357 113.123 1.5088 128.073C4.00896 143.023 9.56763 157.296 17.837 169.999H189.545L130.953 101.969L130.913 101.919Z" fill="#B5F0E5"/>
<path d="M130.913 1.992V87.992L131.065 87.799L131.226 87.599L163.304 60.426C163.811 59.8394 164.442 59.372 165.15 59.0571C165.859 58.7421 166.629 58.5874 167.404 58.604H184.148C184.925 58.5568 185.692 58.795 186.306 59.2737C186.92 59.7525 187.338 60.4389 187.481 61.204C187.568 61.8001 187.505 62.4086 187.296 62.974C187.088 63.5394 186.742 64.0437 186.289 64.441L186.161 64.561L151.461 94.941L207.667 160.559C215.535 145.374 219.754 128.563 219.987 111.462C220.22 94.3612 216.461 77.4416 209.01 62.0478C201.558 46.654 190.619 33.2103 177.061 22.785C163.503 12.3597 147.701 5.2401 130.91 1.992H130.913Z" fill="#B5F0E5"/>
<path d="M101.304 65.782C103.688 68.221 104.897 71.815 104.897 76.464C104.935 78.3828 104.608 80.2915 103.933 82.088C103.305 83.6763 102.36 85.1195 101.154 86.329L74.017 113.457H109.872V0C89.2175 0.0184662 68.9855 5.85113 51.491 16.8306C33.9965 27.81 19.9462 43.4926 10.948 62.084H88.967C94.834 62.084 98.869 63.294 101.304 65.782Z" fill="#B5F0E5"/>
<path d="M22.0179 224.695C19.5159 224.695 17.7793 224.249 16.808 223.356C16.3154 222.887 15.9301 222.316 15.6783 221.684C15.4264 221.052 15.3141 220.374 15.349 219.694C15.3447 218.959 15.5179 218.234 15.854 217.58C16.2205 216.886 16.6928 216.254 17.2539 215.705L31.0089 202.005C31.0827 201.936 31.1417 201.853 31.1825 201.761C31.2232 201.669 31.2448 201.57 31.2459 201.469C31.2459 201.112 30.908 200.934 30.235 200.934H16.659C16.5773 200.947 16.4938 200.94 16.4153 200.914C16.3367 200.888 16.2653 200.845 16.2069 200.786C16.1484 200.728 16.1046 200.656 16.0789 200.578C16.0532 200.499 16.0463 200.416 16.0589 200.334V194.261C16.0472 194.18 16.0547 194.097 16.0808 194.019C16.1069 193.941 16.1509 193.87 16.2092 193.812C16.2675 193.755 16.3386 193.711 16.4167 193.686C16.4948 193.66 16.5778 193.654 16.659 193.666H36.188C38.53 193.666 40.1376 194.112 41.011 195.005C41.9677 196.139 42.438 197.605 42.3199 199.084C42.338 199.815 42.2173 200.542 41.964 201.227C41.7362 201.807 41.3913 202.334 40.951 202.775L27.5509 216.175C27.3156 216.368 27.1658 216.646 27.1339 216.949C27.1339 217.267 27.3509 217.425 27.7879 217.425H53.888C53.9696 217.413 54.053 217.42 54.1314 217.445C54.2099 217.471 54.2811 217.515 54.3395 217.573C54.3979 217.632 54.4418 217.703 54.4676 217.782C54.4933 217.86 54.5003 217.943 54.488 218.025V224.098C54.4997 224.179 54.4922 224.262 54.4661 224.34C54.44 224.418 54.396 224.489 54.3377 224.546C54.2794 224.604 54.2083 224.648 54.1302 224.673C54.0521 224.699 53.9692 224.705 53.888 224.693L22.0179 224.695Z" fill="#B5F0E5"/>
<path d="M48.275 182.005H54.348C54.4292 181.993 54.5121 182 54.5901 182.025C54.6681 182.051 54.739 182.094 54.7973 182.152C54.8556 182.21 54.8996 182.28 54.9257 182.358C54.9519 182.436 54.9596 182.519 54.9481 182.6V224.1C54.9596 224.181 54.9519 224.264 54.9257 224.342C54.8996 224.42 54.8556 224.49 54.7973 224.548C54.739 224.606 54.6681 224.649 54.5901 224.675C54.5121 224.7 54.4292 224.707 54.348 224.695H48.275C48.1938 224.707 48.1109 224.701 48.0328 224.675C47.9547 224.65 47.8836 224.606 47.8253 224.549C47.7669 224.491 47.723 224.42 47.6969 224.342C47.6708 224.264 47.6633 224.181 47.6751 224.1V182.6C47.6636 182.519 47.6712 182.436 47.6973 182.358C47.7235 182.28 47.7675 182.21 47.8258 182.152C47.884 182.094 47.955 182.051 48.033 182.025C48.111 182 48.1939 181.993 48.275 182.005ZM66.5581 194.151C66.692 193.992 66.861 193.866 67.052 193.783C67.2429 193.701 67.4503 193.664 67.658 193.675H76.082C76.297 193.675 76.4151 193.734 76.4381 193.854C76.4611 193.974 76.3821 194.112 76.2111 194.27L64.093 206.952C64.006 207.033 63.9101 207.131 63.8021 207.252C63.7142 207.33 63.6565 207.436 63.639 207.552C63.6602 207.684 63.7166 207.807 63.8021 207.91C63.8853 208.04 63.9829 208.159 64.093 208.267L76.923 224.284C77.139 224.562 77.0744 224.701 76.7291 224.7H68.3701C68.1579 224.701 67.9485 224.653 67.7578 224.56C67.5671 224.467 67.4002 224.331 67.27 224.164L55.994 210.113C55.6825 209.742 55.4216 209.332 55.218 208.892C55.01 208.476 54.8988 208.017 54.893 207.552C54.9161 207.146 55.027 206.751 55.218 206.392C55.4375 205.928 55.721 205.497 56.0601 205.111L66.5581 194.151Z" fill="#B5F0E5"/>
<path d="M105.517 217.551V224.1C105.528 224.181 105.521 224.264 105.495 224.342C105.468 224.42 105.424 224.49 105.366 224.548C105.308 224.606 105.237 224.649 105.159 224.675C105.081 224.7 104.998 224.707 104.917 224.695H87.6539C87.4146 224.699 87.1755 224.679 86.9399 224.636C83.6446 224.359 81.3026 223.397 79.9139 221.748C78.5253 220.099 77.8306 217.609 77.8299 214.276V182.6C77.8184 182.519 77.8261 182.436 77.8522 182.358C77.8784 182.28 77.9224 182.21 77.9807 182.152C78.0389 182.094 78.1099 182.051 78.1879 182.025C78.2659 182 78.3488 181.993 78.4299 182.005H85.8729C85.9541 181.993 86.0371 181.999 86.1152 182.025C86.1933 182.05 86.2644 182.094 86.3227 182.151C86.381 182.209 86.425 182.28 86.4511 182.358C86.4771 182.436 86.4846 182.519 86.4729 182.6V214.99C86.4729 216.3 87.2469 216.955 88.7949 216.955H104.924C105.005 216.944 105.087 216.952 105.164 216.978C105.241 217.004 105.311 217.048 105.369 217.105C105.426 217.163 105.469 217.234 105.495 217.311C105.521 217.388 105.528 217.47 105.517 217.551Z" fill="#B5F0E5"/>
<path d="M114.805 213.264C114.8 213.844 114.966 214.413 115.281 214.901C115.618 215.417 116.053 215.862 116.561 216.211C117.152 216.614 117.807 216.916 118.497 217.104C119.271 217.325 120.073 217.435 120.878 217.431H137.453C137.534 217.419 137.617 217.427 137.695 217.453C137.773 217.479 137.843 217.523 137.901 217.582C137.959 217.64 138.002 217.711 138.028 217.789C138.053 217.867 138.06 217.95 138.048 218.031V224.104C138.059 224.185 138.052 224.267 138.026 224.345C138 224.422 137.957 224.492 137.899 224.55C137.841 224.608 137.771 224.651 137.694 224.677C137.616 224.703 137.534 224.711 137.453 224.699H124.986C122.174 224.754 119.366 224.475 116.62 223.866C114.626 223.434 112.767 222.525 111.202 221.216C109.817 219.981 108.806 218.383 108.285 216.602C107.666 214.414 107.375 212.147 107.421 209.874C107.329 207.169 107.828 204.477 108.881 201.985C109.738 200.049 111.044 198.344 112.691 197.013C114.255 195.785 116.061 194.902 117.991 194.423C119.927 193.931 121.916 193.681 123.914 193.679C126.07 193.636 128.219 193.927 130.286 194.542C131.913 195.03 133.416 195.862 134.692 196.983C135.84 198.034 136.71 199.353 137.222 200.823C137.776 202.452 138.047 204.164 138.022 205.885V212.077C138.034 212.158 138.028 212.241 138.002 212.319C137.977 212.397 137.933 212.468 137.875 212.527C137.818 212.585 137.747 212.629 137.669 212.655C137.591 212.681 137.508 212.689 137.427 212.677H115.401C115.321 212.666 115.239 212.673 115.162 212.699C115.086 212.724 115.016 212.767 114.958 212.823C114.9 212.88 114.857 212.949 114.83 213.026C114.804 213.102 114.795 213.184 114.805 213.264ZM130.705 205.702C130.786 205.713 130.869 205.706 130.947 205.68C131.025 205.654 131.095 205.61 131.153 205.551C131.21 205.493 131.254 205.422 131.279 205.344C131.305 205.266 131.311 205.183 131.299 205.102C131.304 204.371 131.114 203.651 130.748 203.018C130.382 202.385 129.853 201.862 129.216 201.502C127.437 200.513 125.413 200.049 123.381 200.163C122.487 200.176 121.597 200.295 120.731 200.52C119.767 200.754 118.83 201.083 117.931 201.502C117.098 201.877 116.341 202.402 115.697 203.05C115.42 203.316 115.198 203.635 115.045 203.987C114.892 204.34 114.81 204.72 114.805 205.104C114.792 205.186 114.799 205.269 114.825 205.348C114.851 205.426 114.894 205.498 114.953 205.556C115.011 205.615 115.083 205.658 115.161 205.684C115.24 205.71 115.323 205.717 115.405 205.704L130.705 205.702Z" fill="#B5F0E5"/>
<path d="M150.29 222.79C150.29 224.061 149.734 224.696 148.623 224.695H144.633C144.382 224.707 144.133 224.647 143.917 224.52C143.7 224.393 143.525 224.206 143.413 223.981C143.145 223.467 143.012 222.893 143.026 222.314V197.605C143.035 197.094 143.147 196.59 143.357 196.124C143.567 195.658 143.87 195.24 144.247 194.895C144.657 194.489 145.146 194.172 145.683 193.962C146.221 193.752 146.795 193.655 147.372 193.675H160.829C162.206 193.664 163.569 193.959 164.818 194.538C166.029 195.101 167.128 195.877 168.063 196.83C168.989 197.774 169.726 198.885 170.237 200.105C170.747 201.311 171.01 202.607 171.011 203.916V224.1C171.011 224.5 170.791 224.695 170.355 224.695H164.342C164.261 224.707 164.178 224.701 164.1 224.675C164.022 224.65 163.951 224.606 163.892 224.548C163.834 224.491 163.79 224.42 163.764 224.342C163.738 224.264 163.73 224.181 163.742 224.1V205.166C163.772 204.329 163.619 203.497 163.295 202.725C163.025 202.122 162.592 201.606 162.045 201.236C161.476 200.866 160.838 200.613 160.17 200.492C159.404 200.349 158.627 200.279 157.848 200.283H152.072C151.621 200.289 151.187 200.458 150.852 200.76C150.688 200.875 150.552 201.026 150.454 201.202C150.356 201.377 150.298 201.572 150.286 201.772L150.29 222.79Z" fill="#B5F0E5"/>
<path d="M197.387 193.079V182.6C197.375 182.519 197.383 182.437 197.409 182.359C197.434 182.282 197.478 182.211 197.536 182.154C197.593 182.096 197.664 182.053 197.741 182.027C197.819 182.001 197.901 181.993 197.982 182.005H204.055C204.136 181.993 204.219 181.999 204.297 182.025C204.375 182.05 204.446 182.094 204.505 182.151C204.563 182.209 204.607 182.28 204.633 182.358C204.659 182.436 204.667 182.519 204.655 182.6V224.1C204.667 224.181 204.659 224.264 204.633 224.342C204.607 224.42 204.563 224.491 204.505 224.549C204.446 224.606 204.375 224.65 204.297 224.675C204.219 224.701 204.136 224.707 204.055 224.695H185.539C183.797 224.745 182.085 224.234 180.656 223.237C179.292 222.249 178.155 220.98 177.322 219.516C176.435 217.973 175.782 216.308 175.386 214.573C174.98 212.876 174.77 211.138 174.761 209.393C174.743 207.234 174.952 205.078 175.386 202.963C175.73 201.204 176.385 199.52 177.322 197.992C178.148 196.666 179.294 195.571 180.656 194.806C182.159 194.015 183.841 193.625 185.539 193.675H196.791C196.872 193.686 196.954 193.679 197.032 193.653C197.109 193.627 197.18 193.584 197.238 193.526C197.296 193.468 197.339 193.398 197.365 193.32C197.391 193.242 197.398 193.16 197.387 193.079ZM197.387 201.534C197.399 201.453 197.391 201.37 197.365 201.292C197.339 201.214 197.295 201.143 197.237 201.085C197.178 201.028 197.107 200.984 197.029 200.959C196.951 200.933 196.868 200.927 196.787 200.939H190.298C189.168 200.929 188.04 201.038 186.934 201.266C185.97 201.46 185.07 201.89 184.313 202.517C183.524 203.212 182.937 204.106 182.613 205.106C182.176 206.492 181.975 207.941 182.019 209.393C181.975 210.748 182.176 212.1 182.613 213.383C182.949 214.327 183.523 215.168 184.28 215.824C185.034 216.438 185.921 216.866 186.871 217.074C187.995 217.324 189.144 217.444 190.295 217.431H196.784C196.865 217.443 196.948 217.437 197.026 217.411C197.104 217.386 197.175 217.342 197.234 217.284C197.292 217.227 197.336 217.156 197.362 217.078C197.388 217 197.396 216.917 197.384 216.836L197.387 201.534Z" fill="#B5F0E5"/>
</g>
<defs>
<clipPath id="clip0_1_3">
<rect width="220" height="225" fill="white"/>
</clipPath>
</defs>
</svg>
