<svg width="260" height="72" viewBox="0 0 260 72" fill="none" xmlns="http://www.w3.org/2000/svg">
<path d="M182.98 72H166.42C146.56 72 130.42 55.86 130.42 36C130.42 16.14 146.56 0 166.42 0C186.28 0 202.42 16.14 202.42 36V71.28H188.02V36C188.02 24.06 178.36 14.4 166.42 14.4C154.48 14.4 144.82 24.06 144.82 36C144.82 47.94 154.48 57.6 166.42 57.6H182.98V72Z" fill="white"/>
<path d="M101.62 71.2799H87.2202V35.9999C87.2202 16.14 103.36 0 123.22 0V14.4C111.28 14.4 101.62 24.06 101.62 35.9999V71.2799Z" fill="white"/>
<path d="M36.8198 72C16.9598 72 0.819824 55.86 0.819824 36C0.819824 16.14 16.9598 0 36.8198 0C56.6798 0 72.8198 16.14 72.8198 36V43.2H31.4198V28.8H57.1598C54.1598 20.4 46.1798 14.4 36.8198 14.4C24.8798 14.4 15.2198 24.06 15.2198 36C15.2198 47.94 24.8798 57.6 36.8198 57.6C44.0198 57.6 50.7398 54 54.7598 48L66.6998 56.04C60.0398 66 48.8798 72 36.8198 72Z" fill="white"/>
<path d="M259.18 14.4062H224.02V71.2863H259.18V14.4062Z" fill="white"/>
</svg>
