<svg width="169" height="155" viewBox="0 0 169 155" fill="none" xmlns="http://www.w3.org/2000/svg">
<path d="M29 0H138V155H122V84H121.843C120.075 64.3773 103.583 49 83.5 49C63.4169 49 46.9253 64.3773 45.157 84H45V155H29V0Z" fill="#B5F0E5"/>
<path d="M0 22L6.5 44H12V133C9.23858 133 7 135.239 7 138V144H6C3.23858 144 1 146.239 1 149V155H57V149C57 146.239 54.7614 144 52 144H51V138C51 135.239 48.7614 133 46 133H40V22H0Z" fill="#B5F0E5"/>
<path d="M123 133C120.239 133 118 135.239 118 138V144H117C114.239 144 112 146.239 112 149V155H168V149C168 146.239 165.761 144 163 144H162V138C162 135.239 159.761 133 157 133V44H162.5L169 22H129V133H123Z" fill="#B5F0E5"/>
</svg>
