<svg width="144" height="32" viewBox="0 0 144 32" fill="none" xmlns="http://www.w3.org/2000/svg">
<g clip-path="url(#clip0_145_87)">
<mask id="mask0_145_87" style="mask-type:luminance" maskUnits="userSpaceOnUse" x="0" y="0" width="144" height="32">
<path d="M144 0H0V32H144V0Z" fill="white"/>
</mask>
<g mask="url(#mask0_145_87)">
<path d="M25.9673 13.4614L27.7832 11.6483C29.9622 9.47272 32.913 8.24893 36 8.20361V12.1469C33.9572 12.1922 32.0505 12.9628 30.5978 14.4132L28.7819 16.2262L25.9673 13.4614Z" fill="#B5F0E5"/>
<path d="M8.12606 20.3966C5.94701 22.5269 3.0416 23.7054 0 23.7507V19.8074C1.99747 19.7621 3.90414 18.9915 5.35685 17.5864L8.12606 20.3966Z" fill="#B5F0E5"/>
<path d="M17.9767 4.98582L16.3878 3.39942C14.1179 1.13314 11.1671 0 8.1709 0V1.90368V3.94333C10.123 3.98865 12.075 4.71386 13.5731 6.20961L15.162 7.796L17.9767 4.98582Z" fill="#B5F0E5"/>
<path d="M9.5791 13.4164L19.5664 3.44475C21.7455 1.26912 24.6963 0.0453256 27.7833 0V3.94333C25.7404 3.98865 23.8338 4.75919 22.3811 6.20961L12.3937 16.1812L9.5791 13.4164Z" fill="#B5F0E5"/>
<path d="M18.068 21.484L8.21686 11.6484C6.03781 9.47272 3.087 8.24893 0 8.20361V12.147C2.04287 12.1923 3.94954 12.9628 5.40225 14.4132L15.2534 24.2489L18.068 21.484Z" fill="#B5F0E5"/>
<path d="M21.8359 17.5864L13.619 25.7904C12.1663 27.2408 10.2597 28.0566 8.2168 28.0566V32C11.3038 31.9546 14.2546 30.7762 16.4337 28.5552L24.6505 20.3966L21.8359 17.5864Z" fill="#B5F0E5"/>
<path d="M19.7021 12.238L27.7828 20.306C29.9619 22.4816 32.9127 23.7054 35.9997 23.7508V19.8074C33.9568 19.7621 32.0501 18.9916 30.5974 17.5411L22.5168 9.47314L19.7021 12.238Z" fill="#B5F0E5"/>
<path d="M19.6108 28.6456C21.7899 30.7759 24.6953 31.9545 27.7369 31.9998V28.0564C25.7394 28.0111 23.8328 27.2405 22.3801 25.8354L19.6108 28.6456Z" fill="#B5F0E5"/>
<path d="M48 16.0224C48 10.7014 51.9458 7.54492 56.1607 7.54492C60.2858 7.54492 62.7071 9.97993 63.4245 12.8208L60.8239 13.6776C60.3307 11.6935 58.851 10.1152 56.1158 10.1152C53.4255 10.1152 50.78 12.0542 50.78 16.0224C50.78 19.8553 53.3807 21.8394 56.1607 21.8394C58.8958 21.8394 60.4203 20.0808 60.9584 18.277L63.4694 19.0887C62.752 21.8394 60.2858 24.4999 56.1158 24.4999C51.8113 24.4999 48 21.3434 48 16.0224Z" fill="#B5F0E5"/>
<path d="M76.2037 20.0808H69.3433L67.8188 24.1843H64.9043L71.2266 7.90576H74.455L80.7324 24.1843H77.7282L76.2037 20.0808ZM70.3298 17.5105H75.2621L72.7959 10.8368L70.3298 17.5105Z" fill="#B5F0E5"/>
<path d="M94.3634 24.1845L86.3821 11.829V24.1845H83.647V7.86084H87.1444L94.498 19.4046V7.86084H97.2331V24.1394H94.3634V24.1845Z" fill="#B5F0E5"/>
<path d="M112.119 7.86084H115.034L108.891 24.1394H106.111L100.103 7.86084H103.062L107.591 20.5319L112.119 7.86084Z" fill="#B5F0E5"/>
<path d="M125.885 20.0808H119.025L117.5 24.1843H114.586L120.908 7.90576H124.092L130.414 24.1843H127.41L125.885 20.0808ZM120.011 17.5105H124.944L122.478 10.8368L120.011 17.5105Z" fill="#B5F0E5"/>
<path d="M141.355 12.4602C141.175 11.4682 140.368 9.93501 138.171 9.93501C136.512 9.93501 135.391 11.0172 135.391 12.2798C135.391 13.317 136.019 14.0836 137.274 14.3541L139.606 14.8501C142.476 15.4363 144 17.2401 144 19.5398C144 22.065 141.982 24.5 138.261 24.5C134.136 24.5 132.252 21.8395 131.983 19.4947L134.539 18.7732C134.719 20.4867 135.929 22.0199 138.261 22.0199C140.189 22.0199 141.22 21.0279 141.22 19.7653C141.22 18.7281 140.458 17.8714 139.068 17.5557L136.781 17.0597C134.315 16.5637 132.656 14.9403 132.656 12.5053C132.656 9.75464 135.167 7.5 138.171 7.5C141.982 7.5 143.462 9.84483 143.821 11.6485L141.355 12.4602Z" fill="#B5F0E5"/>
</g>
</g>
<defs>
<clipPath id="clip0_145_87">
<rect width="144" height="32" fill="white"/>
</clipPath>
</defs>
</svg>
