<svg width="207" height="47" viewBox="0 0 207 47" fill="none" xmlns="http://www.w3.org/2000/svg">
<g clip-path="url(#clip0_9_78)">
<g filter="url(#filter0_d_9_78)">
<path d="M4 8.09504C4 3.62427 7.62428 0 12.095 0H34.3036C38.7744 0 42.3987 3.62428 42.3987 8.09505V30.3036C42.3987 34.7744 38.7744 38.3987 34.3036 38.3987H12.095C7.62427 38.3987 4 34.7744 4 30.3036V8.09504Z" fill="#B5F0E5"/>
<path fill-rule="evenodd" clip-rule="evenodd" d="M13.26 7.14319H10.0443C11.1619 9.70424 11.4885 11.5127 11.8072 15.066H10.0443V16.8262H11.9085C12.0962 22.7551 12.0978 25.8523 12.0706 31.6413H15.5025C15.51 25.9234 15.5029 22.9281 15.3694 17.303C15.3632 17.0421 15.5742 16.8262 15.8352 16.8262H30.0799C30.3364 16.8262 30.5458 17.0353 30.5455 17.2919C30.542 20.2117 30.5055 22.5008 30.4701 24.7211C30.4351 26.9146 30.4013 29.0407 30.4013 31.6413H33.8332C33.8023 25.6841 33.8218 22.5462 33.9953 16.8262H35.8696V15.066H34.127C34.3784 11.7368 34.622 9.92645 35.8696 7.14319H32.6533C32.244 7.14319 31.8807 7.41033 31.7704 7.80442C31.632 8.29903 31.5344 8.71362 31.4291 9.24637C31.3857 9.46575 31.1942 9.62542 30.9706 9.62542H14.9473C14.7264 9.62542 14.5364 9.46963 14.491 9.25348C14.3779 8.71549 14.2795 8.29789 14.1426 7.80533C14.033 7.41077 13.6695 7.14319 13.26 7.14319ZM15.1617 14.5322L15.0361 13.2295C15.0098 12.9566 15.2243 12.7204 15.4984 12.7204H21.9512C22.2078 12.7204 22.4157 12.9284 22.4157 13.1849V14.4876C22.4157 14.7442 22.2078 14.9521 21.9512 14.9521H15.624C15.3848 14.9521 15.1847 14.7704 15.1617 14.5322ZM30.8799 13.2286L30.7569 14.5313C30.7344 14.7699 30.5341 14.9522 30.2944 14.9522H24.1184C23.8618 14.9522 23.6539 14.7442 23.6539 14.4876V13.1849C23.6539 12.9284 23.8618 12.7204 24.1184 12.7204H30.4174C30.6912 12.7204 30.9056 12.956 30.8799 13.2286Z" fill="#042420"/>
<path d="M73.4929 17.1655H93.0632V20.4462H73.4929V17.1655ZM92.5773 6.56946H96.8624V31.0422H92.5773V6.56946ZM69.6495 6.56946H73.8905V31.0422H69.6495V6.56946Z" fill="#B5F0E5"/>
<path d="M107.439 24.9712V21.7282H122.813V24.9712H107.439ZM101.21 31.0422L112.917 6.56946H117.423L129.218 31.0422H124.624L114.375 8.94509H115.965L105.76 31.0422H101.21Z" fill="#B5F0E5"/>
<path d="M134.425 6.56946H138.666V31.0422H134.425V6.56946Z" fill="#B5F0E5"/>
<path d="M155.054 19.1264L155.009 17.1278L172.459 31.0422H166.495L150.769 18.2214L164.684 6.56946H170.56L155.054 19.1264ZM146.528 6.56946H150.769V31.0422H146.528V6.56946Z" fill="#B5F0E5"/>
<path d="M187.626 31.457C184.652 31.457 182.001 30.9417 179.675 29.911C177.377 28.8803 175.566 27.4222 174.241 25.5368C172.945 23.6514 172.297 21.414 172.297 18.8247C172.297 16.2102 172.945 13.9603 174.241 12.0749C175.566 10.1894 177.377 8.73141 179.675 7.70071C182.001 6.67001 184.652 6.15466 187.626 6.15466C190.631 6.15466 193.281 6.67001 195.578 7.70071C197.875 8.73141 199.687 10.1894 201.012 12.0749C202.337 13.9603 203 16.2102 203 18.8247C203 21.414 202.337 23.6514 201.012 25.5368C199.687 27.4222 197.875 28.8803 195.578 29.911C193.281 30.9417 190.631 31.457 187.626 31.457ZM187.626 28.1764C189.747 28.1764 191.632 27.8245 193.281 27.1206C194.93 26.4167 196.241 25.3734 197.213 23.9908C198.185 22.6081 198.671 20.8861 198.671 18.8247C198.671 16.7633 198.185 15.0413 197.213 13.6586C196.241 12.276 194.93 11.2327 193.281 10.5288C191.632 9.79982 189.747 9.4353 187.626 9.4353C185.565 9.4353 183.695 9.79982 182.016 10.5288C180.337 11.2327 179.012 12.276 178.04 13.6586C177.068 15.0413 176.582 16.7633 176.582 18.8247C176.582 20.8861 177.068 22.6081 178.04 23.9908C179.012 25.3734 180.337 26.4167 182.016 27.1206C183.695 27.8245 185.565 28.1764 187.626 28.1764Z" fill="#B5F0E5"/>
</g>
</g>
<defs>
<filter id="filter0_d_9_78" x="0" y="0" width="207" height="46.3987" filterUnits="userSpaceOnUse" color-interpolation-filters="sRGB">
<feFlood flood-opacity="0" result="BackgroundImageFix"/>
<feColorMatrix in="SourceAlpha" type="matrix" values="0 0 0 0 0 0 0 0 0 0 0 0 0 0 0 0 0 0 127 0" result="hardAlpha"/>
<feOffset dy="4"/>
<feGaussianBlur stdDeviation="2"/>
<feComposite in2="hardAlpha" operator="out"/>
<feColorMatrix type="matrix" values="0 0 0 0 0 0 0 0 0 0 0 0 0 0 0 0 0 0 0.25 0"/>
<feBlend mode="normal" in2="BackgroundImageFix" result="effect1_dropShadow_9_78"/>
<feBlend mode="normal" in="SourceGraphic" in2="effect1_dropShadow_9_78" result="shape"/>
</filter>
<clipPath id="clip0_9_78">
<rect width="207" height="47" fill="white"/>
</clipPath>
</defs>
</svg>
