<svg width="594" height="160" viewBox="0 0 594 160" fill="none" xmlns="http://www.w3.org/2000/svg">
<path d="M93.848 84.453V107.831C93.8679 108.26 93.7981 108.688 93.643 109.089C93.488 109.489 93.2511 109.853 92.9476 110.156C92.644 110.46 92.2805 110.697 91.8802 110.852C91.48 111.007 91.0517 111.077 90.623 111.057H34.6012C29.575 111.057 26.0858 110.096 23.9335 108.118C21.7581 106.12 20.6563 103.405 20.6563 100.049C20.6486 98.404 21.0376 96.7818 21.7902 95.3196C22.5403 93.8942 23.507 92.594 24.6558 91.4654L47.1086 69.0976H2.43112C1.97235 72.553 1.74202 76.035 1.74158 79.5208C1.74158 122.887 36.8779 158.043 80.2211 158.043C90.7417 158.055 101.157 155.945 110.844 151.838C120.53 147.731 129.29 141.711 136.598 134.139L93.8801 84.4965L93.848 84.453Z" fill="#B5F0E5"/>
<path d="M69.6848 54.9366C71.6304 56.9295 72.6166 59.8645 72.6166 63.6614C72.6477 65.2288 72.3809 66.7877 71.8304 68.2554C71.318 69.5524 70.5462 70.731 69.5624 71.7191L47.4167 93.8772H76.6777V1.08063C44.5849 2.50867 17.5075 23.2196 6.73474 51.9163H59.6177C64.4048 51.9163 67.6978 52.9043 69.6848 54.9366Z" fill="#B5F0E5"/>
<path d="M93.9718 72.9233L94.1028 72.7597L120.281 50.5652C120.696 50.0859 121.21 49.704 121.789 49.4467C122.367 49.1894 122.996 49.063 123.629 49.0766H137.292C138.919 49.0766 139.831 50.1419 140.013 51.1976C140.121 51.8631 140.037 52.8427 139.04 53.8408L138.935 53.9389L110.619 78.7533L146.827 121.06C154.609 108.605 158.725 94.208 158.704 79.5195C158.704 40.8031 130.697 8.6341 93.8494 2.17981V73.0889C93.8895 73.0357 93.9283 72.9772 93.9718 72.9233Z" fill="#B5F0E5"/>
<path d="M188.472 125.631C182.945 125.631 179.109 124.647 176.963 122.678C175.875 121.643 175.023 120.385 174.467 118.991C173.911 117.597 173.663 116.1 173.74 114.601C173.73 112.98 174.113 111.38 174.855 109.938C175.665 108.408 176.708 107.013 177.948 105.803L208.335 75.5859C208.498 75.4345 208.628 75.2517 208.718 75.0485C208.808 74.8453 208.856 74.6258 208.859 74.4036C208.859 73.6162 208.112 73.2238 206.625 73.2238H176.634C176.453 73.2516 176.269 73.2364 176.095 73.1797C175.922 73.123 175.764 73.0264 175.635 72.8975C175.506 72.7686 175.409 72.6112 175.352 72.4379C175.295 72.2647 175.28 72.0807 175.308 71.9005V58.5056C175.282 58.3263 175.299 58.1435 175.356 57.9717C175.414 57.7999 175.511 57.644 175.64 57.5164C175.769 57.3888 175.926 57.2933 176.098 57.2372C176.271 57.1811 176.454 57.166 176.634 57.1933H219.776C224.95 57.1933 228.502 58.1777 230.431 60.1466C232.545 62.648 233.584 65.8814 233.323 69.1435C233.363 70.7546 233.096 72.3584 232.536 73.87C232.033 75.1495 231.271 76.3116 230.299 77.2842L200.696 106.839C200.176 107.265 199.845 107.879 199.775 108.547C199.775 109.248 200.254 109.596 201.219 109.596H258.879C259.059 109.569 259.243 109.585 259.416 109.641C259.59 109.698 259.747 109.795 259.876 109.924C260.005 110.053 260.102 110.21 260.159 110.383C260.216 110.556 260.231 110.74 260.204 110.92V124.314C260.23 124.494 260.213 124.677 260.156 124.848C260.098 125.02 260.001 125.176 259.872 125.304C259.743 125.431 259.586 125.527 259.414 125.583C259.241 125.639 259.058 125.654 258.879 125.627L188.472 125.631Z" fill="#B5F0E5"/>
<path d="M246.478 31.4737H259.895C260.074 31.4468 260.257 31.4621 260.429 31.5184C260.602 31.5747 260.759 31.6704 260.887 31.7979C261.016 31.9253 261.113 32.0809 261.171 32.2525C261.229 32.424 261.246 32.6067 261.22 32.786V124.319C261.246 124.498 261.229 124.681 261.171 124.852C261.113 125.024 261.016 125.18 260.887 125.307C260.759 125.435 260.602 125.53 260.429 125.587C260.257 125.643 260.074 125.658 259.895 125.631H246.478C246.299 125.659 246.116 125.643 245.943 125.587C245.771 125.531 245.614 125.436 245.485 125.308C245.356 125.181 245.259 125.025 245.201 124.853C245.144 124.681 245.127 124.498 245.153 124.319V32.786C245.128 32.6067 245.144 32.424 245.202 32.2525C245.26 32.0809 245.357 31.9253 245.486 31.7979C245.615 31.6704 245.772 31.5747 245.944 31.5184C246.116 31.4621 246.299 31.4468 246.478 31.4737ZM286.869 58.2629C287.165 57.9118 287.538 57.6344 287.96 57.4522C288.382 57.27 288.84 57.1881 289.299 57.2131H307.909C308.384 57.2131 308.644 57.3432 308.695 57.6078C308.746 57.8725 308.572 58.1769 308.194 58.5254L281.423 86.497C281.231 86.6756 281.019 86.8919 280.78 87.1588C280.586 87.3303 280.459 87.5644 280.42 87.8203C280.467 88.111 280.591 88.3838 280.78 88.61C280.964 88.8958 281.18 89.1601 281.423 89.3975L309.767 124.725C310.244 125.338 310.101 125.644 309.338 125.642H290.872C290.403 125.644 289.94 125.538 289.519 125.333C289.098 125.128 288.729 124.829 288.442 124.46L263.531 93.4689C262.843 92.6509 262.266 91.7454 261.817 90.776C261.357 89.8575 261.112 88.8469 261.099 87.8203C261.15 86.9256 261.395 86.0529 261.817 85.262C262.302 84.2381 262.928 83.2871 263.677 82.4366L286.869 58.2629Z" fill="#B5F0E5"/>
<path d="M372.936 109.874V124.319C372.961 124.498 372.944 124.681 372.887 124.852C372.829 125.024 372.732 125.18 372.603 125.307C372.474 125.435 372.317 125.53 372.145 125.587C371.973 125.643 371.79 125.658 371.61 125.631H333.473C332.945 125.639 332.416 125.596 331.896 125.501C324.616 124.891 319.442 122.768 316.375 119.131C313.307 115.495 311.772 110.001 311.771 102.651V32.786C311.745 32.6068 311.762 32.424 311.82 32.2525C311.878 32.0809 311.975 31.9253 312.104 31.7979C312.232 31.6704 312.389 31.5747 312.561 31.5184C312.734 31.4621 312.917 31.4468 313.096 31.4737H329.539C329.718 31.4464 329.902 31.4614 330.074 31.5175C330.247 31.5736 330.404 31.6692 330.533 31.7968C330.661 31.9244 330.758 32.0803 330.816 32.2521C330.874 32.4239 330.89 32.6067 330.864 32.786V104.226C330.864 107.115 332.574 108.56 335.994 108.56H371.626C371.804 108.536 371.986 108.553 372.156 108.61C372.327 108.668 372.481 108.764 372.608 108.892C372.735 109.019 372.831 109.174 372.888 109.345C372.945 109.515 372.961 109.696 372.936 109.874Z" fill="#B5F0E5"/>
<path d="M393.455 100.419C393.444 101.699 393.81 102.954 394.506 104.029C395.25 105.168 396.211 106.15 397.334 106.919C398.64 107.808 400.085 108.473 401.611 108.888C403.321 109.375 405.092 109.618 406.871 109.61H443.488C443.667 109.584 443.85 109.601 444.022 109.659C444.194 109.717 444.35 109.814 444.477 109.942C444.605 110.071 444.701 110.227 444.757 110.399C444.814 110.571 444.829 110.754 444.802 110.933V124.328C444.828 124.506 444.811 124.688 444.754 124.859C444.697 125.029 444.601 125.185 444.473 125.312C444.346 125.439 444.191 125.535 444.019 125.592C443.848 125.649 443.666 125.666 443.488 125.64H415.946C409.734 125.762 403.53 125.145 397.464 123.803C393.059 122.851 388.952 120.845 385.495 117.958C382.435 115.235 380.202 111.709 379.051 107.781C377.684 102.956 377.04 97.9552 377.142 92.9418C376.94 86.9768 378.04 81.0393 380.367 75.5416C382.261 71.2708 385.146 67.5118 388.784 64.5755C392.239 61.867 396.23 59.9201 400.493 58.863C404.77 57.7768 409.165 57.2255 413.578 57.222C418.34 57.1275 423.089 57.7694 427.655 59.1253C431.249 60.2007 434.569 62.0371 437.388 64.5093C439.925 66.8264 441.846 69.7367 442.977 72.9787C444.202 76.5721 444.799 80.3484 444.745 84.1436V97.8007C444.772 97.9798 444.757 98.1629 444.701 98.3352C444.645 98.5074 444.549 98.6643 444.421 98.7929C444.293 98.9215 444.137 99.0183 443.965 99.0759C443.793 99.1334 443.61 99.1499 443.43 99.1241H394.771C394.594 99.0993 394.414 99.1157 394.244 99.1717C394.075 99.2277 393.92 99.322 393.793 99.4471C393.666 99.5723 393.569 99.725 393.51 99.8935C393.451 100.062 393.432 100.242 393.455 100.419ZM428.58 83.74C428.76 83.7654 428.943 83.7487 429.114 83.691C429.286 83.6333 429.442 83.5363 429.57 83.4077C429.697 83.2791 429.793 83.1224 429.849 82.9503C429.905 82.7782 429.92 82.5955 429.892 82.4167C429.904 80.8037 429.484 79.2169 428.675 77.8207C427.866 76.4246 426.697 75.27 425.291 74.4765C421.36 72.295 416.89 71.271 412.4 71.5232C410.424 71.5509 408.459 71.8151 406.546 72.3105C404.418 72.8267 402.346 73.5523 400.36 74.4765C398.52 75.3032 396.847 76.4605 395.425 77.8907C394.812 78.4778 394.322 79.1805 393.984 79.9582C393.646 80.736 393.466 81.5731 393.455 82.421C393.427 82.6011 393.442 82.7854 393.499 82.9586C393.555 83.1319 393.652 83.2893 393.781 83.4182C393.91 83.5471 394.068 83.6437 394.242 83.7004C394.415 83.7571 394.6 83.7723 394.78 83.7446L428.58 83.74Z" fill="#B5F0E5"/>
<path d="M471.847 121.429C471.847 124.232 470.619 125.633 468.164 125.631H459.35C458.796 125.659 458.246 125.525 457.767 125.245C457.288 124.965 456.902 124.552 456.654 124.056C456.063 122.922 455.769 121.658 455.799 120.38V65.8813C455.818 64.7542 456.067 63.6426 456.531 62.6149C456.995 61.5872 457.664 60.6647 458.497 59.9039C459.403 59.0092 460.483 58.3089 461.67 57.8461C462.857 57.3834 464.127 57.168 465.4 57.2131H495.129C498.172 57.189 501.181 57.8392 503.942 59.1167C506.616 60.3576 509.045 62.0701 511.11 64.1719C513.155 66.2541 514.785 68.7055 515.913 71.3953C517.04 74.055 517.621 76.9129 517.623 79.8007V124.319C517.623 125.201 517.137 125.631 516.174 125.631H502.89C502.711 125.659 502.527 125.643 502.355 125.587C502.182 125.531 502.025 125.436 501.896 125.308C501.768 125.181 501.671 125.025 501.613 124.853C501.555 124.681 501.539 124.498 501.565 124.319V82.5577C501.631 80.7128 501.294 78.8758 500.577 77.174C499.981 75.8438 499.025 74.7063 497.816 73.8898C496.558 73.0735 495.15 72.5156 493.673 72.2488C491.982 71.9327 490.264 71.7783 488.544 71.7879H475.784C474.787 71.8009 473.829 72.1746 473.088 72.8398C472.726 73.0945 472.425 73.4275 472.209 73.8139C471.992 74.2003 471.865 74.6302 471.838 75.0721L471.847 121.429Z" fill="#B5F0E5"/>
<path d="M575.892 55.8987V32.786C575.866 32.6077 575.883 32.426 575.94 32.2552C575.997 32.0844 576.093 31.9291 576.221 31.8018C576.348 31.6745 576.504 31.5786 576.675 31.5216C576.846 31.4647 577.028 31.4483 577.206 31.4737H590.622C590.802 31.4464 590.985 31.4614 591.158 31.5175C591.33 31.5736 591.487 31.6692 591.616 31.7968C591.745 31.9244 591.842 32.0803 591.9 32.2521C591.957 32.4239 591.974 32.6067 591.948 32.786V124.319C591.974 124.498 591.957 124.681 591.9 124.853C591.842 125.025 591.745 125.181 591.616 125.308C591.487 125.436 591.33 125.531 591.158 125.587C590.985 125.643 590.802 125.659 590.622 125.631H549.718C545.869 125.742 542.087 124.615 538.93 122.415C535.917 120.236 533.405 117.437 531.565 114.208C529.605 110.806 528.164 107.132 527.288 103.306C526.391 99.563 525.927 95.7296 525.907 91.881C525.867 87.1183 526.33 82.3646 527.288 77.6988C528.047 73.8187 529.496 70.1056 531.565 66.7348C533.389 63.8113 535.922 61.3943 538.93 59.7077C542.251 57.9629 545.967 57.1037 549.718 57.2132H574.575C574.754 57.2386 574.936 57.222 575.108 57.165C575.279 57.1079 575.435 57.0119 575.562 56.8844C575.69 56.7569 575.786 56.6013 575.843 56.4302C575.901 56.2591 575.917 56.0773 575.892 55.8987ZM575.892 74.5471C575.918 74.3678 575.901 74.1849 575.843 74.0132C575.786 73.8414 575.689 73.6854 575.56 73.5579C575.431 73.4303 575.274 73.3345 575.102 73.2784C574.929 73.2223 574.746 73.2075 574.566 73.2348H560.231C557.735 73.2126 555.244 73.4541 552.799 73.9558C550.671 74.3845 548.682 75.3327 547.009 76.7153C545.266 78.2472 543.969 80.2198 543.253 82.4256C542.289 85.4817 541.845 88.678 541.941 91.881C541.845 94.8694 542.289 97.8506 543.253 100.681C543.996 102.763 545.265 104.617 546.936 106.065C548.601 107.42 550.562 108.364 552.66 108.822C555.143 109.374 557.681 109.638 560.224 109.61H574.56C574.739 109.637 574.922 109.622 575.095 109.566C575.267 109.51 575.424 109.414 575.553 109.287C575.682 109.159 575.779 109.003 575.837 108.831C575.894 108.659 575.911 108.477 575.885 108.297L575.892 74.5471Z" fill="#B5F0E5"/>
</svg>
