<svg width="1173" height="257" viewBox="0 0 1173 257" fill="none" xmlns="http://www.w3.org/2000/svg">
<mask id="mask0_252_767" style="mask-type:alpha" maskUnits="userSpaceOnUse" x="289" y="45" width="878" height="166">
<path d="M289.436 207V48.8H347.97C357.311 48.8 365.673 50.608 373.056 54.224C380.589 57.6893 386.541 62.7367 390.91 69.366C395.279 75.9953 397.464 84.056 397.464 93.548V96.26C397.464 105.752 395.204 113.888 390.684 120.668C386.315 127.297 380.363 132.345 372.83 135.81C365.447 139.275 357.161 141.008 347.97 141.008H303.9V207H289.436ZM303.9 127.9H346.388C357.688 127.9 366.577 125.113 373.056 119.538C379.685 113.963 383 106.129 383 96.034V93.774C383 83.5287 379.761 75.694 373.282 70.27C366.954 64.6953 357.989 61.908 346.388 61.908H303.9V127.9ZM424.948 207V48.8H486.872C496.665 48.8 505.253 50.4573 512.636 53.772C520.169 57.0867 526.045 61.908 530.264 68.236C534.633 74.4133 536.818 81.9467 536.818 90.836V93.096C536.818 103.793 534.256 112.231 529.134 118.408C524.011 124.435 517.984 128.427 511.054 130.386V133.098C516.327 133.249 520.772 134.906 524.388 138.07C528.004 141.234 529.812 146.281 529.812 153.212V207H515.348V154.794C515.348 149.973 513.992 146.281 511.28 143.72C508.718 141.159 504.801 139.878 499.528 139.878H439.412V207H424.948ZM439.412 126.77H485.516C497.268 126.77 506.308 124.058 512.636 118.634C519.114 113.059 522.354 105.149 522.354 94.904V93.774C522.354 83.5287 519.19 75.694 512.862 70.27C506.684 64.6953 497.569 61.908 485.516 61.908H439.412V126.77ZM554.414 207L606.168 48.8H631.932L683.686 207H668.544L654.984 164.964H583.116L569.556 207H554.414ZM587.184 151.856H650.916L620.406 57.388H617.694L587.184 151.856ZM762.15 210.164C750.097 210.164 739.55 207.753 730.51 202.932C721.47 197.96 714.464 190.728 709.492 181.236C704.52 171.593 702.034 159.766 702.034 145.754V110.046C702.034 88.9527 707.534 72.982 718.532 62.134C729.682 51.1353 744.522 45.636 763.054 45.636C781.436 45.636 795.297 50.7587 804.638 61.004C814.13 71.2493 818.876 84.8847 818.876 101.91V103.04H804.412V101.458C804.412 93.1713 802.981 85.864 800.118 79.536C797.256 73.0573 792.736 68.01 786.558 64.394C780.532 60.6273 772.697 58.744 763.054 58.744C748.44 58.744 736.989 63.1887 728.702 72.078C720.566 80.9673 716.498 93.4727 716.498 109.594V146.206C716.498 162.327 720.566 174.833 728.702 183.722C736.989 192.611 748.44 197.056 763.054 197.056C777.368 197.056 787.914 192.913 794.694 184.626C801.474 176.339 804.864 165.19 804.864 151.178V146.658H752.658V134.002H818.876V207H805.768V189.146H803.056C801.248 192.762 798.687 196.227 795.372 199.542C792.058 202.706 787.688 205.267 782.264 207.226C776.991 209.185 770.286 210.164 762.15 210.164ZM855.981 207V48.8H884.231L932.143 198.412H934.855L982.767 48.8H1011.02V207H997.005V57.388H994.293L946.381 207H920.617L872.705 57.388H869.993V207H855.981ZM1036.87 207L1088.62 48.8H1114.39L1166.14 207H1151L1137.44 164.964H1065.57L1052.01 207H1036.87ZM1069.64 151.856H1133.37L1102.86 57.388H1100.15L1069.64 151.856Z" fill="white"/>
</mask>
<g mask="url(#mask0_252_767)">
<rect x="243" y="-16" width="958" height="288" fill="url(#paint0_linear_252_767)"/>
</g>
<rect x="50.2036" y="81.2037" width="140.296" height="140.296" rx="10.5" stroke="#04471C" stroke-width="7"/>
<rect x="26.8521" y="57.8518" width="140.296" height="140.296" rx="10.5" stroke="#058C42" stroke-width="7"/>
<rect x="3.5" y="34.5" width="140.296" height="140.296" rx="10.5" stroke="#16DB65" stroke-width="7"/>
<defs>
<linearGradient id="paint0_linear_252_767" x1="291" y1="42" x2="1167" y2="206.5" gradientUnits="userSpaceOnUse">
<stop stop-color="#16DB65"/>
<stop offset="1" stop-color="#058C42"/>
</linearGradient>
</defs>
</svg>
