<svg width="28" height="27" viewBox="0 0 28 27" fill="none" xmlns="http://www.w3.org/2000/svg">
<path d="M24.9374 6.87231C25.2011 7.39423 25.3533 7.97867 25.3533 8.60116V21.2386C25.3533 23.3589 23.6299 25.0823 21.5096 25.0823H8.86947C8.24698 25.0823 7.65982 24.93 7.14062 24.6664C7.77399 25.9195 9.07062 26.7812 10.5684 26.7812H23.2058C25.3261 26.7812 27.0495 25.0578 27.0495 22.9375V10.3001C27.0495 8.80231 26.1878 7.50568 24.9347 6.87231H24.9374Z" fill="#B5F0E5"/>
<path d="M19.8924 23.636C22.0126 23.636 23.736 21.9126 23.736 19.7923V7.15219C23.736 6.92385 23.7116 6.70366 23.6735 6.4862C23.5865 5.9969 23.4098 5.54023 23.157 5.13248C22.7846 4.53174 22.2546 4.04244 21.6212 3.72168C21.7897 4.05331 21.9093 4.40941 21.9746 4.78726C22.0126 5.00472 22.0371 5.2249 22.0371 5.45324V18.0907C22.0371 20.2109 20.3137 21.9344 18.1934 21.9344H5.55599C5.39833 21.9344 5.24067 21.9208 5.08844 21.9017C4.63992 21.8474 4.21587 21.7142 3.82715 21.5184C4.21043 22.2769 4.83836 22.8885 5.60492 23.2554C5.97189 23.4294 6.36877 23.549 6.78739 23.6007C6.94233 23.6197 7.09727 23.6333 7.25494 23.6333H19.8924V23.636Z" fill="#B5F0E5"/>
<path d="M5.02615 20.6051H16.4838C18.6041 20.6051 20.3275 18.8817 20.3275 16.7614V4.12128C20.3275 3.84945 20.2976 3.58305 20.2432 3.32481C20.1318 2.79202 19.9062 2.30273 19.599 1.87867C18.9004 0.910954 17.7669 0.277588 16.4838 0.277588H3.84369C1.72341 0.277588 0 2.001 0 4.12128V16.7614C0 18.3842 1.01393 19.7733 2.44104 20.336C2.77268 20.4665 3.12606 20.5535 3.49575 20.5861C3.60991 20.5969 3.7268 20.6051 3.84641 20.6051H5.02887H5.02615ZM18.074 16.7614C18.074 17.6394 17.3591 18.3543 16.4811 18.3543H8.58986V12.7709C8.58986 10.6507 10.3133 8.92725 12.4335 8.92725H18.074V16.7614ZM18.074 7.2283H10.7346C8.61432 7.2283 6.89091 8.95171 6.89091 11.072V18.3543H5.27624V9.62313C5.27624 7.50285 6.99965 5.77945 9.11993 5.77945H18.074V7.2283ZM3.41148 18.2918C2.74277 18.1015 2.25348 17.4899 2.25348 16.7614V4.12128C2.25348 3.24326 2.96839 2.52835 3.84641 2.52835H16.4838C17.0655 2.52835 17.5711 2.84095 17.8511 3.30578C17.9871 3.53412 18.0686 3.79508 18.074 4.07778H7.42098C5.3007 4.07778 3.57729 5.80119 3.57729 7.92147V18.3244C3.52021 18.3136 3.46584 18.3027 3.41148 18.2864V18.2918Z" fill="#B5F0E5"/>
</svg>
