<svg width="191" height="191" viewBox="0 0 191 191" fill="none" xmlns="http://www.w3.org/2000/svg">
<g clip-path="url(#clip0_503_138)">
<path d="M190.5 95.3C190.5 42.6 147.9 0 95.3 0C42.7 0 0 42.6 0 95.3C0 148 42.6 190.6 95.3 190.6C148 190.6 190.5 147.9 190.5 95.3Z" fill="#B5F0E5"/>
<path d="M77.5 99.8995C85.7 98.5995 91.2 90.8995 89.9 82.6995C88.6 74.4995 80.9 68.9995 72.7 70.2995C64.5 71.5995 59 79.2995 60.3 87.4995C61.7 95.6995 69.4 101.2 77.5 99.8995ZM116.7 99.8995C124.9 98.5995 130.4 90.8995 129.1 82.6995C127.8 74.4995 120.1 68.9995 111.9 70.2995C103.7 71.5995 98.2 79.2995 99.5 87.4995C100.8 95.6995 108.5 101.2 116.7 99.8995Z" fill="#042420"/>
<path d="M94.7 23.2998C54 23.2998 21 56.8998 21 98.2998H39.8C39.8 67.1998 64.2 42.0998 94.6 42.0998C125.1 42.0998 149.4 67.2998 149.4 98.2998H168.2C168.4 56.8998 135.4 23.2998 94.7 23.2998Z" fill="#042420"/>
</g>
<defs>
<clipPath id="clip0_503_138">
<rect width="190.5" height="190.5" fill="white"/>
</clipPath>
</defs>
</svg>
