<svg width="480" height="482" viewBox="0 0 480 482" fill="none" xmlns="http://www.w3.org/2000/svg">
<g clip-path="url(#clip0_503_143)">
<path d="M371.2 161H328.8C323.9 161 319.2 158.9 315.9 155.2L298.7 135.8C296.1 132.9 292.5 131.2 288.6 131.2C284.7 131.2 281.1 132.9 278.5 135.8L263.7 152.5C258.9 157.9 251.9 161.1 244.7 161.1H12.6C6 179.8 1.7 199.7 0 220.4H219.1C223 220.4 226.6 218.8 229.3 216L249.7 194.7C252.2 192 255.8 190.5 259.4 190.5H260.2C264.1 190.5 267.7 192.2 270.3 195.1L287.5 214.5C290.8 218.2 295.5 220.3 300.4 220.3H479.2C477.5 199.7 473.2 179.7 466.6 160.9L371.2 161Z" fill="#B5F0E5"/>
<path d="M132.6 345.2C136.5 345.2 140.1 343.6 142.8 340.8L163.2 319.5C165.8 316.8 169.3 315.3 173 315.3H173.8C177.7 315.3 181.4 317 183.9 319.8L201.1 339.2C204.4 342.9 209.1 345 214 345H456.4C465.5 326.2 472.1 306.1 476.1 285H243.4C238.5 285 233.8 282.9 230.5 279.2L213.3 260C210.7 257.1 207.1 255.5 203.2 255.5C199.3 255.5 195.6 257.2 193.1 260L178.3 276.7C173.5 282.2 166.5 285.3 159.2 285.3H3.30005C7.30005 306.4 13.9 326.5 23 345.3L132.6 345.2Z" fill="#B5F0E5"/>
<path d="M304.5 96.1C308.4 96.1 312 94.5 314.7 91.7L335.1 70.4C337.6 67.7 341.2 66.2 344.9 66.2H345.7C349.6 66.2 353.2 67.9 355.8 70.8L373 90.3C376.3 94 381 96.1 385.9 96.1H432C388.1 37.7 318.3 0 239.7 0C161.1 0 91.2001 37.7 47.3 96.1H304.5Z" fill="#B5F0E5"/>
<path d="M212 404.7H149C144.1 404.7 139.4 402.6 136.1 398.9L118.9 379.5C116.3 376.6 112.7 375 108.8 375C104.9 375 101.2 376.7 98.7 379.5L83.9001 396.2C79.1001 401.7 72.1001 404.8 64.8001 404.8H63.8C107.7 451.8 170.2 481.3 239.7 481.3C309.2 481.3 371.6 451.8 415.6 404.8L212 404.7Z" fill="#B5F0E5"/>
</g>
<defs>
<clipPath id="clip0_503_143">
<rect width="479.3" height="481.2" fill="white"/>
</clipPath>
</defs>
</svg>
