<svg width="492" height="492" viewBox="0 0 492 492" fill="none" xmlns="http://www.w3.org/2000/svg">
<g clip-path="url(#clip0_504_160)">
<path d="M246.506 31.3838C219.952 31.3838 198.42 127.698 198.42 246.508C198.42 365.318 219.952 461.632 246.506 461.632C273.06 461.632 294.592 365.318 294.592 246.508C294.592 127.698 273.06 31.3838 246.506 31.3838ZM249.826 449.491C246.789 453.541 243.753 450.503 243.753 450.503C231.523 436.333 225.409 410.009 225.409 410.009C204.019 341.171 209.11 193.368 209.11 193.368C219.162 76.0279 237.449 48.3086 243.672 42.1547C244.307 41.5266 245.144 41.1428 246.035 41.0708C246.925 40.9988 247.813 41.2432 248.541 41.7611C257.57 48.159 265.143 74.916 265.143 74.916C287.505 157.928 285.48 235.879 285.48 235.879C287.505 303.706 274.274 379.631 274.274 379.631C264.09 437.333 249.826 449.491 249.826 449.491Z" fill="#B5F0E5"/>
<path d="M433.102 139.45C419.881 116.409 325.631 145.665 222.526 204.788C119.42 263.911 46.6907 330.522 59.9019 353.553C73.1131 376.585 167.372 347.338 270.478 288.215C373.583 229.093 446.313 162.482 433.102 139.45ZM72.0996 350.392C67.0379 349.755 68.1813 345.594 68.1813 345.594C74.3903 327.94 94.1491 309.535 94.1491 309.535C143.237 256.722 273.983 187.588 273.983 187.588C380.755 137.911 413.92 140.007 422.333 142.324C423.196 142.565 423.947 143.104 424.451 143.845C424.955 144.586 425.181 145.482 425.088 146.374C424.076 157.395 404.587 177.271 404.587 177.271C343.752 238.002 275.126 275.044 275.126 275.044C217.301 310.566 144.859 336.857 144.859 336.857C89.7368 356.72 72.1016 350.392 72.1016 350.392H72.0996Z" fill="#B5F0E5"/>
<path d="M432.635 354.321C445.959 331.34 373.412 264.424 270.669 204.857C167.926 145.289 73.6878 115.671 60.3763 138.691C47.0647 161.71 119.599 228.587 222.402 288.154C325.204 347.722 419.324 377.342 432.635 354.321ZM69.2047 147.57C67.2367 142.904 71.3912 141.781 71.3912 141.781C89.7841 138.307 115.62 146.222 115.62 146.222C185.907 162.228 311.239 240.735 311.239 240.735C407.736 308.26 422.536 338.002 424.753 346.445C424.979 347.311 424.891 348.228 424.506 349.036C424.121 349.844 423.463 350.489 422.648 350.859C412.585 355.466 385.636 348.602 385.636 348.602C302.572 326.33 236.142 285.523 236.142 285.523C176.455 253.331 117.435 203.796 117.435 203.796C72.5877 166.036 69.2185 147.622 69.2185 147.622L69.2047 147.57Z" fill="#B5F0E5"/>
<path d="M246 271.308C259.977 271.308 271.308 259.977 271.308 246C271.308 232.022 259.977 220.691 246 220.691C232.022 220.691 220.691 232.022 220.691 246C220.691 259.977 232.022 271.308 246 271.308Z" fill="#B5F0E5"/>
<path d="M349.765 163.999C357.872 163.999 364.444 157.2 364.444 148.814C364.444 140.427 357.872 133.629 349.765 133.629C341.658 133.629 335.085 140.427 335.085 148.814C335.085 157.2 341.658 163.999 349.765 163.999Z" fill="#B5F0E5"/>
<path d="M108.827 215.63C116.934 215.63 123.506 208.831 123.506 200.445C123.506 192.058 116.934 185.26 108.827 185.26C100.719 185.26 94.1472 192.058 94.1472 200.445C94.1472 208.831 100.719 215.63 108.827 215.63Z" fill="#B5F0E5"/>
<path d="M216.136 401.901C224.243 401.901 230.815 395.103 230.815 386.716C230.815 378.33 224.243 371.531 216.136 371.531C208.028 371.531 201.456 378.33 201.456 386.716C201.456 395.103 208.028 401.901 216.136 401.901Z" fill="#B5F0E5"/>
</g>
<defs>
<clipPath id="clip0_504_160">
<rect width="492" height="492" fill="white"/>
</clipPath>
</defs>
</svg>
