<svg width="463" height="463" viewBox="0 0 463 463" fill="none" xmlns="http://www.w3.org/2000/svg">
<g clip-path="url(#clip0_504_170)">
<path d="M374.281 79.4238H88.4104V339.246H374.281V79.4238Z" fill="#042420"/>
<path fill-rule="evenodd" clip-rule="evenodd" d="M462.846 231.5C462.846 359.185 359.27 462.692 231.5 462.692C103.731 462.692 0.154053 359.185 0.154053 231.5C0.154053 103.816 103.731 0.307617 231.5 0.307617C359.27 0.307617 462.846 103.816 462.846 231.5ZM165.943 323.503H121.045C111.611 323.503 106.951 323.503 104.109 321.686C101.04 319.698 99.1649 316.404 98.9376 312.768C98.7669 309.419 101.097 305.328 105.757 297.149L216.616 101.877C221.333 93.5846 223.72 89.4385 226.732 87.9051C229.971 86.2581 233.836 86.2581 237.075 87.9051C240.088 89.4385 242.475 93.5846 247.192 101.877L269.982 141.633L270.098 141.836C275.193 150.732 277.776 155.243 278.904 159.978C280.154 165.146 280.154 170.598 278.904 175.767C277.768 180.537 275.21 185.081 270.038 194.112L211.807 296.979L211.657 297.243C206.528 306.212 203.929 310.758 200.327 314.187C196.406 317.937 191.689 320.661 186.517 322.197C181.799 323.503 176.514 323.503 165.943 323.503ZM279.325 323.503H343.658C353.149 323.503 357.924 323.503 360.767 321.631C363.835 319.642 365.767 316.29 365.939 312.657C366.103 309.416 363.823 305.484 359.356 297.781C359.202 297.519 359.048 297.252 358.891 296.98L326.666 241.89L326.3 241.269C321.771 233.617 319.485 229.752 316.55 228.259C313.312 226.611 309.502 226.611 306.264 228.259C303.308 229.792 300.921 233.825 296.204 241.946L264.094 297.037L263.984 297.227C259.283 305.336 256.934 309.388 257.103 312.713C257.331 316.348 259.206 319.698 262.275 321.686C265.06 323.503 269.834 323.503 279.325 323.503Z" fill="#B5F0E5"/>
</g>
<defs>
<clipPath id="clip0_504_170">
<rect width="463" height="463" fill="white"/>
</clipPath>
</defs>
</svg>
