<svg width="412" height="412" viewBox="0 0 412 412" fill="none" xmlns="http://www.w3.org/2000/svg">
<g clip-path="url(#clip0_504_178)">
<path fill-rule="evenodd" clip-rule="evenodd" d="M206 0C319.779 0 412 92.2213 412 206C412 319.779 319.779 412 206 412C92.2213 412 0 319.779 0 206C0 92.2213 92.2213 0 206 0Z" fill="#B5F0E5"/>
<path d="M113.217 206L113.366 260.471L159.65 287.707V319.597L86.279 276.565V190.072L113.217 206ZM113.217 151.529V183.271L86.2625 167.326V135.584L113.217 119.639L140.304 135.584L113.217 151.529ZM178.979 135.584L205.934 119.639L233.021 135.584L205.934 151.529L178.979 135.584Z" fill="#042420"/>
<path d="M132.695 249.181V217.291L159.65 233.236V264.978L132.695 249.181ZM178.979 299.129L205.934 315.075L233.021 299.129V330.871L205.934 346.816L178.979 330.871V299.129ZM271.679 135.584L298.634 119.639L325.721 135.584V167.326L298.634 183.271V151.529L271.679 135.584ZM298.634 260.471L298.783 206L325.738 190.055V276.549L252.367 319.581V287.69L298.634 260.471Z" fill="#042420"/>
<path d="M279.305 249.18L252.35 264.977V233.235L279.305 217.29V249.18Z" fill="#042420"/>
<path d="M279.305 162.819L279.454 194.709L233.038 221.945V276.548L206.083 292.345L179.128 276.548V221.945L132.712 194.709V162.819L159.782 146.874L205.918 174.241L252.334 146.874L279.421 162.819H279.305ZM132.695 108.364L205.934 65.1836L279.305 108.364L252.35 124.31L205.934 96.9419L159.65 124.31L132.695 108.364Z" fill="#042420"/>
</g>
<defs>
<clipPath id="clip0_504_178">
<rect width="412" height="412" fill="white"/>
</clipPath>
</defs>
</svg>
