<svg width="512" height="512" viewBox="0 0 512 512" fill="none" xmlns="http://www.w3.org/2000/svg">
<g clip-path="url(#clip0_506_138)">
<path d="M256 512C397.385 512 512 397.385 512 256C512 114.615 397.385 0 256 0C114.615 0 0 114.615 0 256C0 397.385 114.615 512 256 512Z" fill="#B5F0E5"/>
<path d="M131.4 181C131.4 181 118.2 197.7 122.6 273.2C122.6 273.2 93.7 347.2 103.5 385C113.3 422.7 151.5 420.8 151.5 420.8C151.5 420.8 212.8 474.7 259.8 427.2C306.9 379.6 220.6 195.3 220.6 195.3L209.8 131.6C209.8 131.6 198 140.9 199.5 202.2C201 263.5 175.5 220.3 175.5 220.3L131.4 181Z" fill="#042420"/>
<path d="M136.3 247.7L120.1 293.3L114.2 325.2C114.2 325.2 94.1 396.3 177 395.3C177 395.3 241.7 453.2 283.9 414.4L295.2 402.1L314.8 371.7L347.2 275.1C347.2 275.1 336.9 208.9 271.7 181.5C271.7 181.5 266.3 178.6 256.5 182.5C256.5 182.5 229.5 121.7 212.4 129.1C212.4 129.1 197.7 136.9 210.4 196.8L187.4 207.1C187.4 207.1 162.2 159.3 138.9 168.9C117.2 177.6 136.3 247.7 136.3 247.7Z" fill="#042420"/>
<path d="M220.1 158.9L222.1 185.4C222.1 185.4 223.6 200.6 239.7 195.2C244.3 193.7 248.3 190.5 247.9 185.3C247.6 181.4 244.9 177.8 243.1 174.5C239.8 168.2 237.1 161.5 233.2 155.4C231.2 152.3 227.1 145.4 222.6 146.2C222.6 146.2 219.2 145.2 220.1 158.9Z" fill="#B5F0E5"/>
<path d="M149.3 188.7C149.6 188.5 156.2 180.2 169.9 200.4C183.6 220.6 182.2 218 182.2 218C182.2 218 189.6 226.1 174.5 236.5C171.2 238.9 167.6 240.9 163.8 242.5C161.4 243.4 158.9 243.9 156.4 243.9C153.5 243.8 152.2 242.3 151.5 239.6C149.2 230.8 146.6 222 145.3 213C144.3 206 142.3 193.2 149.3 188.7Z" fill="#B5F0E5"/>
<path d="M308.5 229.4C308.5 234.2 301.5 238.1 292.8 238.1C284.1 238.1 277.1 234.2 277.1 229.4C277.1 224.6 284.3 217.5 292.9 217.5C301.5 217.5 308.5 224.6 308.5 229.4Z" fill="#042420"/>
<path d="M217.955 266.961C222.606 258.742 222.091 249.653 216.804 246.661C211.517 243.669 203.46 247.907 198.809 256.126C194.157 264.345 194.673 273.433 199.96 276.425C205.247 279.417 213.304 275.18 217.955 266.961Z" fill="#042420"/>
<path d="M240.2 306.7L283.1 284.4C283.1 284.4 336.5 256.5 349.5 278C362.5 299.5 349.5 332.4 349.5 332.4C349.5 332.4 343.9 370.9 304.6 374.3L283.5 377.2L256.5 377.9C256.5 377.9 213.1 380.4 181.2 356.8L171.1 344.5C171.1 344.5 150.8 316.6 165 296.5C179.2 276.4 227.8 307.5 227.8 307.5C227.8 307.5 234.6 311.2 240.2 306.7Z" fill="#042420"/>
<path d="M337.5 195.5C343.189 195.5 347.8 190.889 347.8 185.2C347.8 179.512 343.189 174.9 337.5 174.9C331.811 174.9 327.2 179.512 327.2 185.2C327.2 190.889 331.811 195.5 337.5 195.5Z" fill="#042420"/>
<path d="M314.7 170.2C320.389 170.2 325 165.588 325 159.9C325 154.211 320.389 149.6 314.7 149.6C309.011 149.6 304.4 154.211 304.4 159.9C304.4 165.588 309.011 170.2 314.7 170.2Z" fill="#042420"/>
<path d="M278.2 162.1C283.889 162.1 288.5 157.489 288.5 151.8C288.5 146.111 283.889 141.5 278.2 141.5C272.511 141.5 267.9 146.111 267.9 151.8C267.9 157.489 272.511 162.1 278.2 162.1Z" fill="#042420"/>
<path d="M286.3 78.7998C288.5 109.2 284.1 136.7 276.7 136.7C269.3 136.7 259.5 107 259.5 78.7998C259.5 67.1998 265.6 65.2998 273 65.2998C280.5 65.2998 285.5 67.1998 286.3 78.7998Z" fill="#042420"/>
<path d="M354.5 97.7004C343.3 126 327.4 148.9 320.8 145.7C314.2 142.5 318.2 111.5 330.5 86.1004C335.6 75.6004 341.9 76.6004 348.5 79.8004C355.1 83.1004 358.8 86.9004 354.5 97.7004Z" fill="#042420"/>
<path d="M403.3 152.9C378.6 170.8 353 181.6 349.1 175.3C345.2 169 365.3 145.1 389.2 130.2C399.1 124.1 403.9 128.3 407.8 134.5C411.6 140.8 412.7 146 403.3 152.9Z" fill="#042420"/>
<path d="M238.2 276.8C237.3 276.9 236.4 277 235.5 277.1C235.6 277.4 235.7 277.7 235.7 278.1C235.7 281.2 230.8 283.8 224.7 284C224.7 284.3 224.6 284.5 224.7 284.8C225 288.6 231.6 291.2 239.3 290.6C247.1 290 253.2 286.4 252.9 282.6C252.5 278.8 246 276.2 238.2 276.8Z" fill="#B5F0E5"/>
<path d="M292.4 263.4C291.5 263.5 290.6 263.6 289.7 263.7C289.8 264 289.9 264.3 289.9 264.7C289.9 267.8 285 270.4 278.9 270.6C278.9 270.9 278.8 271.1 278.9 271.4C279.2 275.2 285.8 277.8 293.5 277.2C301.3 276.6 307.4 273 307.1 269.2C306.8 265.4 300.2 262.8 292.4 263.4Z" fill="#B5F0E5"/>
<path d="M310.2 279.3C310.2 279.3 288.7 285.6 290 297.7C291.3 309.8 317.2 316.1 317.2 316.1C317.2 316.1 324.2 318.9 328.2 312.2C332.2 305.6 338.1 296.6 336.5 283.7C336.5 283.7 336 274.1 310.2 279.3Z" fill="#B5F0E5"/>
</g>
<defs>
<clipPath id="clip0_506_138">
<rect width="512" height="512" fill="white"/>
</clipPath>
</defs>
</svg>
