<svg width="588" height="625" viewBox="0 0 588 625" fill="none" xmlns="http://www.w3.org/2000/svg">
<g clip-path="url(#clip0_507_138)">
<path d="M293.978 131.089C356.252 131.089 406.736 101.744 406.736 65.5446C406.736 29.3453 356.252 0 293.978 0C231.703 0 181.22 29.3453 181.22 65.5446C181.22 101.744 231.703 131.089 293.978 131.089Z" fill="#B5F0E5"/>
<path d="M293.978 624.955C356.252 624.955 406.736 595.61 406.736 559.411C406.736 523.212 356.252 493.866 293.978 493.866C231.703 493.866 181.22 523.212 181.22 559.411C181.22 595.61 231.703 624.955 293.978 624.955Z" fill="#B5F0E5"/>
<path d="M136.842 221.818C167.979 167.917 167.777 109.539 136.391 91.4273C105.004 73.3154 54.3184 102.328 23.1811 156.229C-7.95614 210.13 -7.75405 268.508 23.6325 286.62C55.0191 304.732 105.705 275.719 136.842 221.818Z" fill="#B5F0E5"/>
<path d="M564.726 468.722C595.863 414.821 595.678 356.453 564.313 338.353C532.947 320.254 482.279 349.276 451.142 403.177C420.005 457.078 420.189 515.446 451.555 533.546C482.92 551.645 533.589 522.623 564.726 468.722Z" fill="#B5F0E5"/>
<path d="M136.406 533.531C167.793 515.419 167.995 457.041 136.858 403.14C105.72 349.239 55.0348 320.227 23.6483 338.338C-7.7383 356.45 -7.94039 414.828 23.1969 468.729C54.3341 522.63 105.02 551.643 136.406 533.531Z" fill="#B5F0E5"/>
<path d="M564.339 286.634C595.705 268.534 595.89 210.166 564.752 156.265C533.615 102.365 482.947 73.342 451.581 91.4416C420.216 109.541 420.031 167.909 451.168 221.81C482.306 275.711 532.974 304.734 564.339 286.634Z" fill="#B5F0E5"/>
</g>
<defs>
<clipPath id="clip0_507_138">
<rect width="588" height="625" fill="white"/>
</clipPath>
</defs>
</svg>
