<svg width="2500" height="2500" viewBox="0 0 2500 2500" fill="none" xmlns="http://www.w3.org/2000/svg">
<mask id="mask0_145_72" style="mask-type:luminance" maskUnits="userSpaceOnUse" x="0" y="0" width="2500" height="2500">
<path d="M2500 0H0V2500H2500V0Z" fill="white"/>
</mask>
<g mask="url(#mask0_145_72)">
<path d="M2450 1608C2318 2063 1939 2405 1473 2489V2133C1557 2101 1633 2050 1695 1984C1729 1947 1759 1906 1782 1862C1826 1778 1850 1685 1850 1590C1850 1589 1850 1588 1850 1587C1850 1273 1623 1147 1410 1054L1302 1006C1187 954 1099 908 1099 830C1099 721 1194 663 1283 663C1378 663 1432 698 1489 797L1533 874L1818 691L1781 622C1716 498 1605 402 1473 356V30C1501 35 1528 41 1556 48C1559 49 1562 49 1565 50C1568 51 1571 51 1574 52C1575 52 1576 52 1577 53C1584 55 1592 57 1600 59C2134 214 2501 703 2501 1259C2501 1377 2484 1495 2451 1608H2450Z" fill="#B5F0E5"/>
<path d="M1500 1604C1500 1747 1371 1836 1251 1836C1107 1836 1025 1717 1009 1607L995 1511L650 1608L666 1685C715 1928 881 2103 1107 2155V2499C1046 2492 985 2480 926 2464C918 2462 909 2460 901 2457C368 2302 0 1813 0 1257V56C0 29 22 7 49 7H1107V351C983 387 878 469 812 579C770 652 748 734 748 818C748 819 748 820 748 821V828C751 1108 957 1226 1152 1314L1249 1356L1257 1360C1411 1431 1498 1477 1498 1603L1500 1604Z" fill="#B5F0E5"/>
</g>
</svg>
