<svg width="45" height="45" viewBox="0 0 45 45" fill="none" xmlns="http://www.w3.org/2000/svg">
<g clip-path="url(#clip0_510_152)">
<path fill-rule="evenodd" clip-rule="evenodd" d="M22.4 3.2C11.8 3.2 3.2 11.8 3.2 22.4C3.2 33 11.8 41.6 22.4 41.6H33.9C30.5 43.6 26.6 44.8 22.4 44.8C10 44.8 0 34.7 0 22.4C0 10 10 0 22.4 0C34.8 0 44.8 10 44.8 22.4C44.8 23.5 44.7 24.6 44.6 25.6H41.4C41.6 24.6 41.7 23.5 41.7 22.4C41.6 11.8 33 3.2 22.4 3.2Z" fill="#B5F0E5"/>
<path fill-rule="evenodd" clip-rule="evenodd" d="M40.8 35.2004C40 36.3004 39 37.4004 38 38.4004H33H22.4C13.6 38.4004 6.40002 31.2004 6.40002 22.4004C6.40002 13.6004 13.6 6.40039 22.4 6.40039C31.2 6.40039 38.4 13.6004 38.4 22.4004C38.4 23.5004 38.3 24.6004 38.1 25.6004H34.8C35.1 24.6004 35.2 23.5004 35.2 22.4004C35.2 15.3004 29.5 9.60039 22.4 9.60039C15.3 9.60039 9.60002 15.3004 9.60002 22.4004C9.60002 29.5004 15.3 35.2004 22.4 35.2004H32H36.7H40.8Z" fill="#B5F0E5"/>
<path fill-rule="evenodd" clip-rule="evenodd" d="M42.6 31.9998C43.1 30.9998 43.5 29.8998 43.8 28.7998H40.4H37H33.4H29.5H22.3C18.8 28.7998 15.9 25.8998 15.9 22.3998C15.9 18.8998 18.8 15.9998 22.3 15.9998C25.8 15.9998 28.7 18.8998 28.7 22.3998C28.7 23.5998 28.4 24.6998 27.8 25.5998H31.3C31.7 24.5998 31.8 23.4998 31.8 22.3998C31.8 17.0998 27.5 12.7998 22.2 12.7998C16.9 12.7998 12.6 17.0998 12.6 22.3998C12.6 27.6998 16.9 31.9998 22.2 31.9998H30.7H35H39H42.6Z" fill="#B5F0E5"/>
</g>
<defs>
<clipPath id="clip0_510_152">
<rect width="44.8" height="44.8" fill="white"/>
</clipPath>
</defs>
</svg>
