<svg width="616" height="770" viewBox="0 0 616 770" fill="none" xmlns="http://www.w3.org/2000/svg">
<g clip-path="url(#clip0_511_160)">
<path d="M308 0C478.104 0 616 137.896 616 308C616 467.896 494.164 599.324 338.272 614.526C339.174 603.482 338.976 592.372 337.722 581.35C328.768 503.118 267.102 441.364 188.892 432.322V24.31L188.738 23.958C225.412 8.536 265.716 0 308 0Z" fill="#B5F0E5"/>
<path d="M150.37 432.278V43.67L150.216 43.428C162.58 36.036 175.45 29.524 188.716 23.958L188.87 24.31V432.322C267.08 441.364 328.768 503.118 337.7 581.35C338.976 592.372 339.152 603.482 338.25 614.526C328.306 615.494 318.208 615.978 308 616C201.08 616 106.876 561.528 51.656 478.808C78.43 452.848 113.08 436.48 150.15 432.3H150.37V432.278Z" fill="#B5F0E5" fill-opacity="0.6"/>
<path d="M338.272 614.526C331.848 693.506 270.38 759.55 188.672 768.9C95.722 779.526 11.748 712.8 1.122 619.85C-5.104 565.466 15.158 514.14 51.678 478.808C106.898 561.528 201.102 616 308.022 616C318.23 615.978 328.306 615.494 338.272 614.526Z" fill="#B5F0E5"/>
<path d="M150.37 43.6697V432.278H150.15C113.08 436.458 78.452 452.804 51.656 478.786C19.03 429.902 0.0220032 371.184 0.0220032 308C0.0220032 195.58 60.258 97.1957 150.238 43.4277L150.37 43.6697Z" fill="#B5F0E5"/>
</g>
<defs>
<clipPath id="clip0_511_160">
<rect width="616" height="770" fill="white"/>
</clipPath>
</defs>
</svg>
