<svg width="995" height="1001" viewBox="0 0 995 1001" fill="none" xmlns="http://www.w3.org/2000/svg">
<g clip-path="url(#clip0_511_174)">
<path d="M27.4 444.9L499.2 190.9L623.4 188.4C623.4 188.4 753.1 204.2 856.1 305C856.2 305.1 856.3 305.1 856.3 305.2C884.5 332.9 910.7 367.7 931.4 411.5C932.8 414.4 934.2 417.4 935.5 420.4C935.5 420.4 1086.7 664.4 894.2 876.8C701.7 1089.1 242.8 987.4 104.9 764.3C103.9 762.8 102.9 761.2 101.9 759.6C80.7 725.5 64.9 691.7 53.3 660.4C38.6 620.8 30.4 585.3 25.9 558.8C20.8 528.5 27.5 444.9 27.4 444.9Z" fill="#B5F0E5"/>
<path d="M218.8 420.3C187.5 509.2 226.6 610.2 304.7 519.9C415.9 366.9 626.1 336.6 709.8 347.4C812.3 367.2 892.3 470.8 917.7 472.8C943.1 474.8 931.4 411.5 931.4 411.5C932.8 414.4 934.2 417.4 935.5 420.4C935.5 420.4 1086.7 664.4 894.2 876.8C701.7 1089.1 242.8 987.4 105 764.2C104 762.7 103 761.1 102 759.5C80.8 725.4 65 691.6 53.4 660.3C106.8 572.1 243.9 348.5 218.8 420.3Z" fill="#B5F0E5"/>
<path d="M680.7 183.7C730.1 135.2 810.6 66.5001 871.3 31.3001C900.5 14.3001 925.1 5.10007 939.4 9.60007C942.2 10.4001 944.5 11.8001 946.5 13.7001C970.2 36.9001 960.9 183.1 950.1 293.6C943.1 364.2 935.5 420.3 935.5 420.3C920 387.1 903.5 354.6 853.7 302.3C833 282 811.9 264.9 790.5 250.6C754.5 226.6 718 210.5 682.2 200.3C677.4 198.9 672.6 197.7 667.8 196.5C671.8 192.5 676.1 188.2 680.7 183.7Z" fill="#B5F0E5"/>
<path d="M871.3 31.4004C861.2 104.9 859.1 232.3 950.1 293.7C943.1 364.3 935.5 420.4 935.5 420.4C920 387.2 903.5 354.7 853.7 302.4C833 282.1 811.9 265 790.5 250.7C754.5 226.7 718 210.6 682.2 200.4L680.6 183.8C730.1 135.2 810.6 66.6004 871.3 31.4004Z" fill="#B5F0E5"/>
<path d="M51.1 14.8999C100.8 -0.900131 264.3 151.4 366.8 231.4C366.8 231.4 508 157.4 667.9 196.5C675.4 198.3 683 200.4 690.7 202.8C644.1 201.1 575.3 199.7 545.8 205C499 213.5 329 264 254.7 383.2C180.4 502.3 183.4 642 185.2 703.4C186.6 752.3 150.8 782.9 96.9 751.4C52.4 677.1 33.7 604.6 25.9 558.8C24.8 548.7 23.7 538.3 22.4 527.8C21.6 521.8 21 515.8 20.3 509.9C-12.3 223.4 2.49999 30.2999 51.1 14.8999Z" fill="#B5F0E5"/>
<path d="M939.4 9.5996C898.2 41.7996 811.3 123.1 790.5 250.6C749.7 223.4 708.2 206.4 667.8 196.5C736 126.7 892.6 -5.0004 939.4 9.5996Z" fill="#B5F0E5"/>
<path d="M667.3 196.7C685.3 175 706 155.4 726.3 135.9C757.2 107.2 789.4 79.7996 823.8 55.3996C846.9 39.0996 870.8 23.8996 897 12.5996C910.8 7.2996 925.2 1.3996 940.7 5.6996C943.9 6.4996 944.8 11.1996 942 13.0996C894 48.5996 852.2 94.2996 827 149.1L819.7 165.5L813.4 182.3C805.1 205.4 799.9 229.5 794.4 253.3C793 255.5 790 256 787.9 254.6C778.6 248.4 769.2 242.5 759.6 236.9C730.6 220 699.1 207.3 667.3 196.7ZM668.3 196.4C701.8 201.6 733.8 213.8 763.7 229.4C773.7 234.6 783.5 240.5 793 246.7L785.8 249.9C796.9 176.8 837.6 112.5 884.8 57.3996C900.7 38.9996 918 21.7996 936.8 6.2996L938.1 13.6996C903.4 6.6996 826.4 68.0996 796.8 89.5996C755.4 121.4 714.9 155 676 189.9C673.8 191.8 670.7 194.7 668.3 196.4Z" fill="#042420"/>
<path d="M667 196.8C676.8 184.1 688.5 173 699.5 161.5C755.8 105.8 814.8 52.5001 884.9 14.3001C903.6 5.50008 934 -9.29992 952.6 8.00008C961.2 17.3001 963.6 31.4001 965.5 42.8001C973.1 106.3 966 169.9 959.6 233C952.5 295.7 945.3 358.2 939.4 421C939.3 422.2 938.5 423.5 937.3 424.1C935.4 425.1 933 424.3 932 422.4C910.7 378.7 880.4 340.6 846.8 305.9C817.8 277.4 785.3 252.3 749.7 232.6C723.7 217.7 695.1 206.6 667 196.8ZM668.6 196.3C771.5 212.9 868.9 286.6 919.6 377.4C927 390.8 933.3 404.8 939.2 418.7L931.6 419.9C947.4 326.9 953.2 232.3 954.1 138.1C954.2 107.2 954.4 75.5001 949.5 45.3001C948 37.1001 946.4 29.3001 942.8 22.8001C940.6 18.9001 937.7 17.5001 932.8 17.2001C919.6 16.9001 904.8 23.7001 892.5 29.7001C878.9 36.3001 865.6 44.2001 852.6 52.6001C790.6 93.1001 732.8 140.3 677.2 189.2C674.9 191.3 671.1 194.7 668.6 196.3Z" fill="#042420"/>
<path d="M368.1 222.4C368.1 222.4 340.4 237.6 319.8 261.6C352.6 235.2 386.7 222.4 386.7 222.4H368.1Z" fill="#B5F0E5"/>
<path d="M51.4 15.5999C-13.1 43.8999 7.49998 316.1 13.6 383C17.2 425.3 22.2 467.5 27.3 509.7C28.2 526.3 30.7 543.5 33.8 560C49.6 643.2 82.8 724.3 134.8 791.4C297.4 992.8 731.1 1076.6 907.6 855.5C1000.8 743.2 1010.9 600.4 955.1 468.2C948.3 452.5 940.8 436.9 932.1 422.5C922.3 401.2 910.8 380.8 897.4 361.7C858 307 809.5 265.5 746.8 233.1C629.5 174.1 486.8 182.8 368.9 235.7C367.3 236.5 365.2 236.4 363.7 235.2C313.4 194.4 265.2 151.3 215.2 110.2C183.7 85.1999 89.5 5.29991 51.4 15.5999ZM50.9 14.0999C89.1 3.19991 184 82.2999 217.7 107.1C268.8 146.7 318.3 188.5 369.7 227.6L364.5 227.1C374.6 221.8 384.7 217.4 395.1 213.2C508.7 167.3 642.8 163.1 753 220.8C791.5 240.1 833 272.6 859.2 300.4C887.5 326.7 922.7 378 938.8 418.3C976.3 486.9 996.5 565.5 994.1 643.8C992.1 722.5 961.9 798.9 913.2 860.1C769.1 1044.8 477.4 1024.3 286.6 929.9C216.3 895 150.5 846.6 105.6 781C52.7 701.7 18.3 603.9 13.6 510.7C1.59998 384.1 -6.30002 256.1 6.59997 129.3C10.8 98.8999 18.7 25.7999 50.9 14.0999Z" fill="#042420"/>
<path d="M56.5 68.9004C67.3 73.4004 104.5 111.5 145.4 160.9C178.5 200.9 214 248.4 239.8 291.4C256.3 318.9 134.9 522 113 560.3C92.9 595.4 48.5 468.3 36.9 334.3C35.8 322.3 35.1 310.4 34.6 298.4C28.8 152.3 36.9 60.8004 56.5 68.9004Z" fill="#B5F0E5"/>
<path d="M327.6 643.201C334.7 558.101 380.3 476.801 445.2 436.601C520.2 394.601 584.3 375.2 647.8 375.5C663 375.6 678.3 376.801 693.6 379.101C708.6 381.401 723.7 384.7 739.1 389C805.1 407.5 947.7 477.2 925.6 671.8C924.9 677.6 924.1 683.3 923.1 689C891 873.9 688.2 995.201 467.4 887.401C358 834.001 319.8 736.3 327.6 643.201Z" fill="#042420"/>
<path d="M636.5 336.4C646.2 339.3 668.7 347.7 692.6 335.4C716.5 323.1 725.8 350.5 713.1 357.5C698.7 365.4 694.7 374.5 693.5 379.2C678.2 376.9 663 375.7 647.7 375.6C643.6 368.2 622.3 367.2 614.5 354.5C606.7 341.7 626.8 333.4 636.5 336.4Z" fill="#042420"/>
<path d="M386.7 314C392.9 308.2 399.3 303.1 405.8 298.7C463.8 258.7 527.1 270.4 536.6 295C547.2 322.3 500.8 331.7 472.4 343.6C446.5 354.4 416.3 374.2 393.7 387.1C377.1 396.6 364.4 402.4 360.6 398.2C351.5 388.3 342.5 354.9 386.7 314Z" fill="white"/>
<path d="M773.8 272.5C807.2 284.9 832.4 305.8 848.8 323.2C860.2 335.3 867.2 345.7 869.7 350.4C875.8 361.8 857 364.4 833.5 355.7C832.5 355.3 831.4 354.9 830.3 354.5C805 345.5 746 328.9 729.2 321.5C705.1 310.9 717.2 251.5 773.8 272.5Z" fill="white"/>
<path d="M405.8 298.7C463.8 258.7 527.1 270.4 536.6 295C547.2 322.3 500.8 331.7 472.4 343.6C446.5 354.4 416.3 374.2 393.7 387.1C370.3 352.9 386.3 320.8 405.8 298.7Z" fill="#042420"/>
<path d="M773.8 272.5C807.2 284.9 832.4 305.8 848.8 323.2C849.4 334.1 846.1 346.9 830.3 354.5C805 345.5 746 328.9 729.2 321.5C705.1 310.9 717.2 251.5 773.8 272.5Z" fill="#042420"/>
<path d="M504.4 274.3C432.1 255.3 368 310 355.4 348.3C342.8 386.6 354.9 400.2 355.4 388.9C355.9 377.6 355.4 360 373.4 336C391.5 312 449.4 285.5 449.4 285.5C449.4 285.5 477.1 292.5 504.4 274.3Z" fill="#042420"/>
<path d="M869.5 341.4C849.1 316.3 815.3 294.2 815.3 294.2C815.3 294.2 820.4 311.2 833.4 319.9C846.4 328.7 870.7 355.7 870.7 355.7C870.7 355.7 876.6 352.4 869.5 341.4Z" fill="#042420"/>
<path d="M504.4 294.2C495.9 295.1 429.8 304.3 439.2 290.5C448.6 276.7 473.9 278.2 494.7 279.8C517.1 281.5 512.9 293.4 504.4 294.2Z" fill="white"/>
<path d="M803.6 314.5C790.8 308.3 768.9 297.1 772.1 288.5C775.3 279.9 799.9 294.9 814.6 302.5C833.1 312 816.4 320.7 803.6 314.5Z" fill="white"/>
<path d="M445.2 436.601C520.2 394.601 584.3 375.2 647.8 375.5C663 375.6 678.3 376.801 693.6 379.101C708.6 381.401 723.7 384.7 739.1 389C805.1 407.5 947.7 477.201 925.6 671.701C924.9 677.501 924.1 683.201 923.1 688.901C859.5 755.101 757.8 798.001 643 797.901C503.7 797.901 383.4 734.701 327.5 643.201C334.6 558.101 380.2 476.801 445.2 436.601Z" fill="#042420"/>
<path d="M467 888.1C462.9 886 452 880.1 448 878C443.7 875.5 434.2 869.5 429.8 866.7C424.1 862.8 418.3 858 412.5 854.1C399.7 843.4 387.2 832.1 376.6 819.1C325.6 759.9 309.2 675.6 326.6 599.9C341.5 533.1 379.1 469.5 437 431.7C511.4 388.4 599.1 358.7 686 371.5C752.6 380.6 817.6 409.4 864.2 458.8C911.7 507.4 933 576.6 930.9 643.8C930.5 682.4 923.2 721.1 908.6 756.9C871.9 848.2 785.9 914.7 689 928C613.2 939.7 535.3 921.3 467 888.1ZM467.7 886.6C570.8 937.6 691.7 939.2 790 876.4C852.5 836.4 899.6 772.2 916.4 699.3C929 644.6 928.6 585.1 906.7 532.8C878 462.3 811 414 739.3 394.7C633 365.6 539 391.2 446.1 446.3C361.9 503 321.5 614.9 336.4 714.1C341.9 748.7 355.5 782.3 375.8 810.8C379 814.8 383.4 820.7 386.6 824.7C393.2 831.8 401.5 841.1 409 847.3L414.2 852.1L419.8 856.4C426.1 861.7 436 868.3 443 872.7C449.7 877.2 460.6 882.6 467.7 886.6Z" fill="#042420"/>
<path d="M624.5 349.4C634.4 344.4 652.5 363.5 652.5 363.5C630 361.9 614.5 354.5 624.5 349.4Z" fill="#B5F0E5"/>
<path d="M709.7 347.4C701.4 342.9 690.6 363.5 690.6 363.5C701.2 361.2 718 351.9 709.7 347.4Z" fill="#B5F0E5"/>
<path d="M145.4 160.9C178.5 200.9 214 248.4 239.8 291.4C256.3 318.9 134.9 522 112.9 560.3C92.8 595.4 48.4 468.3 36.8 334.3C134.4 390.3 148.1 261.2 145.4 160.9Z" fill="#B5F0E5"/>
<path d="M239.3 291.7C203 231.8 156.6 179 109.9 127.3C94.3 110.6 78.5 93.0997 61 78.6997C58.6 76.8997 56.2 74.9997 54.2 74.1997C51.3 76.6997 49 83.2997 47.8 87.9997C39.9 121.4 39.1 156.6 38 191.1C37.6 214.3 37.5 237.7 37.7 261C37.5 331 43.2 401.1 61.3 468.9C66.6 488.9 86.2 555.8 105 562.2C106.6 562.1 107.6 561 108.6 559.5L109.5 558C112.9 550.9 182.6 429.7 188.3 419.2C201.1 395.1 248.5 315.1 239.3 291.7ZM240.3 291.1C250.4 310 204.7 399.9 194.3 422.4C171.3 469.7 145.1 515.5 117.7 560.3C115.7 564.4 110.6 570.9 104.4 570.1C73.6 565.8 49 431.7 43.4 401.2C30.8 332 27.6 261.4 27.8 191.1C28.6 162.2 27.6 87.5997 45.2 66.7997C52.9 58.6997 61.5 64.2997 68 69.7997C77.4 77.4997 85.6 85.8997 93.8 94.3997C150 154 197.5 221.4 240.3 291.1Z" fill="#042420"/>
</g>
<defs>
<clipPath id="clip0_511_174">
<rect width="994.3" height="1000.5" fill="white"/>
</clipPath>
</defs>
</svg>
