<svg width="38" height="38" viewBox="0 0 38 38" fill="none" xmlns="http://www.w3.org/2000/svg">
<g clip-path="url(#clip0_511_203)">
<path fill-rule="evenodd" clip-rule="evenodd" d="M18.6876 37.5661C24.2533 37.5661 29.2537 35.1453 32.6932 31.2992C31.0932 29.9087 28.682 29.8242 26.9787 31.1986L26.6533 31.4612C23.5346 33.9777 18.9902 33.6061 16.3218 30.6163C14.8664 28.9857 12.3739 28.8192 10.7146 30.2417L6.96283 33.4582C10.1762 36.0289 14.2524 37.5661 18.6876 37.5661ZM24.7776 28.4708C27.7481 26.0738 31.9234 26.1598 34.7804 28.4748C36.4881 25.6453 37.4706 22.3289 37.4706 18.7831C37.4706 14.843 36.2575 11.1863 34.1844 8.16614C32.8479 7.88152 31.3993 8.21394 30.2997 9.18838L29.9867 9.46572C26.9874 12.1235 22.4308 11.962 19.6272 9.09858C18.0982 7.53685 15.6006 7.48557 14.0087 8.98321L9.64272 13.0907L7.24092 10.5378L11.6069 6.43026C14.5889 3.6248 19.2675 3.72087 22.1318 6.64638C23.6284 8.17497 26.0609 8.26118 27.662 6.84236L27.975 6.56503C28.9469 5.70377 30.0713 5.12316 31.2487 4.81779C27.9209 1.82273 23.5171 0 18.6876 0C9.15256 0 1.27697 7.10479 0.0659628 16.3092C2.96213 14.9194 6.53455 15.4542 8.89592 17.8724C10.3867 19.399 12.7871 19.5601 14.4685 18.2465L16.9096 16.3394C19.9776 13.9426 24.3144 14.0586 27.2498 16.616L32.0024 20.7567L29.6999 23.3995L24.9473 19.2589C23.2782 17.8046 20.8121 17.7386 19.0676 19.1015L16.6265 21.0087C13.5372 23.4221 9.12707 23.1261 6.38814 20.3213C4.79547 18.6903 2.19063 18.6334 0.528257 20.1933L0 20.689C0.395333 24.612 1.99788 28.1789 4.43052 31.0123L8.43321 27.5807C11.5415 24.9158 16.2106 25.2277 18.9369 28.2823C20.3614 29.8784 22.7873 30.0767 24.4521 28.7333L24.7776 28.4708Z" fill="#B5F0E5"/>
</g>
<defs>
<clipPath id="clip0_511_203">
<rect width="37.4706" height="37.5661" fill="white"/>
</clipPath>
</defs>
</svg>
