<svg width="441" height="446" viewBox="0 0 441 446" fill="none" xmlns="http://www.w3.org/2000/svg">
<g clip-path="url(#clip0_511_205)">
<path d="M322.9 39.2374C311.423 50.7138 300.908 63.1524 291.562 76.4155L288.607 75.4534C271.563 69.887 253.901 66.451 236.102 65.2827C230.741 64.8704 210.743 64.8704 204.214 65.2827C184.49 66.5884 169.371 69.5434 152.19 75.5221C151.503 75.797 150.884 76.0032 150.266 76.2094C140.576 63.0149 129.786 50.6451 117.897 39.3061C174.938 10.0997 241.668 6.59487 301.389 29.6164C307.78 32.0217 314.034 34.8393 320.151 37.863L322.9 39.2374Z" fill="#042420"/>
<path d="M429.284 299.897C420.625 324.568 407.636 347.452 390.799 367.381C381.658 378.101 371.556 387.929 360.698 396.862C335.27 417.341 305.581 431.979 273.9 439.676C238.851 448.128 202.29 448.128 167.24 439.676C135.49 431.979 105.87 417.341 80.4425 396.862C69.5841 387.929 59.4817 378.101 50.3415 367.381C1.89125 310.136 -12.8156 231.519 11.8562 160.668C16.5294 147.542 22.3709 134.897 29.3807 122.871C32.6107 117.374 36.5968 111.189 38.521 108.646C45.1185 137.028 53.2278 161.974 56.2517 170.976C56.0455 171.457 55.7706 172.007 55.4957 172.488C39.4831 204.924 30.824 236.192 28.7622 269.453C28.7622 269.866 28.6935 270.347 28.6935 270.759C28.1437 280.724 28.4186 285.465 30.068 291.719C35.2222 311.305 51.0975 332.883 75.9754 354.049C116.729 388.685 171.982 413.699 213.835 416.585C257.475 419.54 321.869 394.045 364.752 356.798C371.487 350.819 377.81 344.497 383.72 337.762C387.981 332.814 394.304 324.293 393.823 324.293C393.685 324.293 393.823 324.155 394.097 324.018C394.304 323.881 394.51 323.674 394.372 323.537C394.304 323.468 394.441 323.262 394.647 323.193C394.853 323.125 394.991 322.987 394.922 322.85C394.853 322.712 394.922 322.575 395.197 322.506C395.403 322.437 395.472 322.231 395.403 322.094C395.334 321.956 395.403 321.819 395.541 321.819C395.678 321.819 395.816 321.613 395.816 321.475C395.816 321.338 395.953 321.132 396.09 321.132C396.228 321.132 396.365 320.994 396.365 320.857C396.571 320.307 396.915 319.757 397.259 319.276C398.29 317.696 402.413 310.342 402.963 309.105C406.88 300.24 409.354 292.338 410.522 284.435C411.072 280.655 411.416 273.714 411.141 272.065C411.072 271.79 411.072 271.309 411.003 270.553C410.866 269.179 410.797 267.117 410.66 265.055C410.522 261.963 410.247 257.633 410.041 255.503C407.086 224.304 399.114 198.808 383.995 171.801C383.377 170.77 382.827 169.739 382.483 168.914C382.346 168.708 382.277 168.502 382.208 168.365C384.339 161.974 393.067 135.241 400.008 104.66L400.145 104.798L401.176 106.172C402.963 108.577 407.705 115.724 409.835 119.16C419.525 134.966 427.085 151.94 432.445 169.67C444.884 212.346 443.853 257.84 429.284 299.897Z" fill="#042420"/>
<path d="M340.081 217.775C339.874 218.874 336.644 222.173 333.414 224.578C323.93 231.519 306.956 237.979 289.706 241.071C279.879 242.858 270.051 243.133 267.096 241.69C265.172 240.728 264.897 239.972 265.584 237.498C267.027 232.344 271.701 226.708 278.985 221.417C282.696 218.737 297.747 209.597 304.757 205.749C316.302 199.426 325.649 195.647 331.971 194.753C333.964 194.478 336.369 194.41 337.125 194.753C338.362 195.234 339.737 198.876 340.287 203.275C340.562 205.611 340.424 215.919 340.081 217.775Z" fill="#042420"/>
<path d="M178.168 240.522C177.755 241.346 175.693 242.24 173.357 242.583C171.02 242.927 163.873 242.721 159.818 242.24C145.249 240.315 129.786 235.849 118.515 230.351C112.193 227.258 107.657 224.166 104.29 220.799L102.365 218.806L102.159 216.194C101.816 211.659 101.884 204.512 102.434 201.969C102.778 199.839 103.534 197.777 104.564 195.922C105.114 195.234 105.114 195.234 107.588 195.234C110.612 195.234 113.155 195.715 117.278 197.021C125.731 199.633 138.308 205.955 153.633 215.163C166.278 222.723 171.02 226.434 174.663 231.519C177.137 234.68 178.786 239.147 178.168 240.522Z" fill="#042420"/>
<path d="M275.48 336.181C275.48 336.388 274.656 339.686 273.625 343.603C272.594 347.52 271.769 350.682 271.769 350.819C271.013 350.888 270.326 350.956 269.57 350.888H267.371L264.347 358.035C262.698 361.952 261.186 365.594 260.98 366.144L260.567 367.106L259.124 364.769L257.681 362.433V343.397L257.131 343.535C255.963 343.81 247.647 344.909 244.005 345.253C228.954 346.765 213.835 346.421 198.853 344.291C196.448 343.947 194.386 343.672 194.318 343.741C194.249 343.81 194.318 348.208 194.455 353.637L194.661 363.395L193.493 365.182C192.874 366.144 192.256 366.969 192.256 367.037C192.05 367.243 191.363 366.144 189.782 362.983C188.064 359.684 186.827 356.179 185.933 352.537L185.452 350.544L183.322 350.682L181.191 350.888L180.642 348.345C180.367 346.971 180.023 344.84 179.886 343.672L179.68 341.473L177.893 339.892C176.862 338.999 175.831 338.106 175.625 337.968C175.281 337.693 175.144 337.212 175.144 336.8V335.975L183.734 336.044L192.325 336.113L192.6 337.006L192.874 337.9L195.83 338.037C197.479 338.106 202.702 338.243 207.375 338.381L215.966 338.587L218.165 335.151L220.433 331.715H223.319L223.25 324.568L223.182 317.421L219.402 315.771C207.238 310.411 200.09 304.295 197.41 296.873C196.86 295.361 196.86 294.811 196.723 287.939C196.654 281.136 196.654 280.517 197.135 279.006C198.097 275.569 200.778 272.889 204.214 271.996C205.382 271.652 208.475 271.652 224.694 271.652L243.799 271.721L245.929 272.752C248.472 273.989 249.64 274.882 251.083 276.806C252.733 279.006 253.214 280.724 253.214 284.916C253.214 290.894 252.802 296.048 252.183 298.11C251.29 300.928 249.915 303.608 248.197 306.013C244.761 310.411 238.507 314.809 232.803 316.802L231.153 317.421L231.222 324.636L231.291 331.852L232.803 331.989L234.315 332.127L236.377 335.219L238.369 338.312H247.578C252.664 338.312 257.131 338.381 257.543 338.449C258.231 338.587 258.368 338.518 259.055 337.35L259.88 336.113H267.783C273.693 335.838 275.48 335.975 275.48 336.181Z" fill="#042420"/>
<path d="M239.194 355.904C237.888 356.66 236.995 357.003 236.789 356.866C236.583 356.797 235.621 355.973 234.59 355.217L232.734 353.705L230.81 355.766C226.618 360.302 226.48 360.508 225.243 360.577C223.319 360.783 222.907 360.439 220.57 356.935C219.333 355.148 218.371 353.636 218.371 353.636C218.371 353.636 217.478 353.499 216.447 353.43L214.522 353.224L213.629 355.079L212.736 356.935L211.155 356.454C209.918 356.041 208.681 355.56 207.513 355.01L205.451 353.98V350.062L223.731 350.131L242.012 350.2L242.081 352.055C242.149 354.254 242.218 354.186 239.194 355.904Z" fill="#042420"/>
<path d="M411.003 272.064C410.935 271.789 410.935 271.308 410.866 270.552C394.372 268.765 347.297 267.666 303.588 303.744C303.588 303.744 289.5 239.146 223.525 239.146C157.55 239.146 133.085 303.744 133.085 303.744C96.1115 263.955 46.6304 266.841 28.7622 269.452C28.7622 269.865 28.6935 270.346 28.6935 270.758C28.1437 280.723 28.4186 285.465 30.068 291.718C35.2222 311.304 51.0974 332.882 75.9754 354.048C116.729 388.684 171.982 413.698 213.835 416.584C257.475 419.539 321.869 394.044 364.752 356.797C371.487 350.818 377.81 344.496 383.72 337.761C387.981 332.813 394.304 324.292 393.823 324.292C393.685 324.292 393.823 324.154 394.097 324.017C394.304 323.88 394.51 323.673 394.372 323.536C394.304 323.467 394.441 323.261 394.647 323.192C394.853 323.124 394.991 322.986 394.922 322.849C394.853 322.711 394.922 322.574 395.197 322.505C395.403 322.436 395.472 322.23 395.403 322.093C395.334 321.955 395.403 321.818 395.541 321.818C395.678 321.818 395.816 321.612 395.816 321.474C395.816 321.337 395.953 321.131 396.09 321.131C396.228 321.131 396.365 320.993 396.365 320.856C396.571 320.306 396.915 319.756 397.259 319.275C398.29 317.695 402.413 310.342 402.963 309.105C406.88 300.24 409.354 292.337 410.522 284.434C410.935 280.654 411.278 273.713 411.003 272.064ZM239.194 355.904C237.888 356.66 236.995 357.003 236.789 356.866C236.583 356.797 235.621 355.972 234.59 355.216L232.734 353.705L230.81 355.766C226.618 360.302 226.48 360.508 225.243 360.577C223.319 360.783 222.907 360.439 220.57 356.934C219.333 355.148 218.371 353.636 218.371 353.636C218.371 353.636 217.478 353.498 216.447 353.43L214.522 353.224L213.629 355.079L212.736 356.934L211.155 356.453C209.918 356.041 208.681 355.56 207.513 355.01L205.451 353.979V350.062L223.731 350.131L242.012 350.2L242.081 352.055C242.149 354.254 242.218 354.186 239.194 355.904ZM273.556 343.534C272.525 347.451 271.7 350.612 271.7 350.75C270.945 350.818 270.257 350.887 269.501 350.818H267.302L264.347 358.034C262.698 361.951 261.186 365.593 260.98 366.143L260.567 367.105L259.124 364.769L257.681 362.432V343.396L257.131 343.534C255.963 343.809 247.647 344.908 244.005 345.252C228.954 346.764 213.835 346.42 198.853 344.29C196.448 343.946 194.386 343.671 194.318 343.74C194.249 343.809 194.318 348.207 194.455 353.636L194.661 363.394L193.493 365.181C192.874 366.143 192.256 366.968 192.256 367.036C192.05 367.243 191.363 366.143 189.782 362.982C188.064 359.683 186.827 356.179 185.933 352.536L185.452 350.543L183.322 350.681L181.191 350.887L180.642 348.344C180.367 346.97 180.023 344.84 179.886 343.671L179.68 341.472L177.893 339.892C176.862 338.998 175.831 338.105 175.625 337.967C175.281 337.693 175.144 337.211 175.144 336.799V335.975L183.734 336.043L192.325 336.112L192.6 337.005L192.874 337.899L195.83 338.036C197.479 338.105 202.702 338.242 207.375 338.38L215.966 338.586L218.165 335.15L220.433 331.714H223.319L223.25 324.567L223.182 317.42L219.402 315.771C207.238 310.41 200.09 304.294 197.41 296.872C196.86 295.36 196.86 294.811 196.723 287.938C196.654 281.135 196.654 280.517 197.135 279.005C198.097 275.569 200.778 272.889 204.214 271.995C205.382 271.652 208.475 271.652 224.694 271.652L243.799 271.72L245.929 272.751C248.472 273.988 249.64 274.881 251.083 276.806C252.733 279.005 253.214 280.723 253.214 284.915C253.214 290.893 252.802 296.048 252.183 298.109C251.29 300.927 249.915 303.607 248.197 306.012C244.761 310.41 238.507 314.808 232.803 316.801L231.153 317.42L231.222 324.636L231.291 331.851L232.803 331.989L234.315 332.126L236.377 335.219L238.369 338.311H247.578C252.664 338.311 257.131 338.38 257.543 338.448C258.231 338.586 258.368 338.517 259.055 337.349L259.88 336.112H267.783C273.9 336.112 275.686 336.181 275.686 336.387C275.48 336.318 274.587 339.685 273.556 343.534Z" fill="#B5F0E5"/>
<path d="M410.454 265.055C410.316 261.962 410.041 257.633 409.835 255.502C406.88 224.303 398.908 198.808 383.789 171.8C383.17 170.769 382.621 169.739 382.277 168.914C382.139 168.708 382.071 168.502 382.002 168.364C384.132 161.973 392.86 135.241 399.801 104.66C409.217 63.1521 415.196 14.635 396.915 0.0661192C396.915 0.0661192 365.302 -2.2704 322.968 39.2372C311.492 50.7136 300.977 63.1521 291.63 76.4153L288.675 75.4532C271.632 69.8868 253.97 66.4507 236.17 65.2824C230.81 64.8701 210.811 64.8701 204.283 65.2824C184.559 66.5881 169.44 69.5432 152.259 75.5219C151.571 75.7968 150.953 76.0029 150.334 76.2091C140.644 63.0146 129.855 50.6449 117.966 39.3059C73.9137 -2.40784 41.1325 -0.00260611 41.1325 -0.00260611C21.7524 15.0473 28.3499 65.7635 38.3835 108.645C44.981 137.027 53.0904 161.973 56.1142 170.976C55.9081 171.457 55.6332 172.006 55.3583 172.487C39.3457 204.924 30.6865 236.192 28.6248 269.453C46.5616 266.841 95.974 263.886 133.016 303.745C133.016 303.745 157.482 239.147 223.456 239.147C289.431 239.147 303.52 303.745 303.52 303.745C347.228 267.666 394.304 268.834 410.797 270.552C410.729 269.178 410.591 267.116 410.454 265.055ZM69.103 145.068C69.103 145.068 43.4003 80.8134 49.9978 44.1164C51.0974 37.9315 53.1591 32.5025 56.3891 28.3792C56.3891 28.3792 85.5279 31.2655 132.535 83.4935C132.535 83.4935 123.601 87.823 111.643 97.0316C111.643 97.0316 111.574 97.1003 111.506 97.1003C98.5167 107.065 81.8856 122.871 69.103 145.068ZM178.168 240.521C177.755 241.346 175.693 242.239 173.357 242.583C171.02 242.927 163.873 242.72 159.818 242.239C145.249 240.315 129.786 235.848 118.515 230.351C112.193 227.258 107.657 224.166 104.29 220.798L102.365 218.805L102.159 216.194C101.815 211.658 101.884 204.511 102.434 201.969C102.778 199.838 103.534 197.777 104.564 195.921C105.114 195.234 105.114 195.234 107.588 195.234C110.612 195.234 113.155 195.715 117.278 197.021C125.731 199.632 138.308 205.955 153.633 215.163C166.278 222.722 171.02 226.433 174.663 231.519C177.137 234.68 178.786 239.147 178.168 240.521ZM340.081 217.775C339.874 218.874 336.644 222.173 333.414 224.578C323.931 231.519 306.956 237.979 289.706 241.071C279.879 242.858 270.051 243.133 267.096 241.69C265.172 240.727 264.897 239.971 265.584 237.498C267.027 232.343 271.701 226.708 278.985 221.417C282.696 218.737 297.747 209.597 304.757 205.748C316.302 199.426 325.649 195.646 331.971 194.753C333.964 194.478 336.37 194.409 337.125 194.753C338.362 195.234 339.737 198.876 340.287 203.274C340.562 205.611 340.424 215.919 340.081 217.775ZM328.672 97.0316L328.535 96.9629C316.989 87.7543 308.33 83.4248 308.33 83.4248C353.757 31.1968 381.865 28.3105 381.865 28.3105C384.957 32.5025 386.95 37.8627 388.05 44.0476C394.441 80.7447 369.632 145.068 369.632 145.068C359.254 126.582 345.304 110.226 328.672 97.0316Z" fill="#B5F0E5"/>
<path d="M388.118 44.0477C382.758 43.3605 357.399 43.223 328.672 97.0317L328.535 96.9629C316.989 87.7543 308.33 83.4249 308.33 83.4249C353.757 31.1968 381.865 28.3105 381.865 28.3105C385.026 32.5025 387.019 37.8628 388.118 44.0477Z" fill="#042420"/>
<path d="M369.701 145.068C359.255 126.513 345.372 110.226 328.672 97.0316C357.399 43.223 382.689 43.3604 388.118 44.0476C394.51 80.8134 369.701 145.068 369.701 145.068Z" fill="#042420"/>
<path d="M389.149 44.254C388.806 44.1853 388.462 44.1166 388.118 44.0479L389.149 44.254Z" fill="#042420"/>
<path d="M132.535 83.4249C132.535 83.4249 123.601 87.7543 111.643 96.9629C111.643 96.9629 111.574 97.0317 111.506 97.0317C81.7482 43.1543 55.5645 43.3605 49.9291 44.0477C51.0287 37.8628 53.0904 32.4338 56.3204 28.3105C56.3892 28.3105 85.528 31.1968 132.535 83.4249Z" fill="#042420"/>
<path d="M111.574 97.0316C98.5167 107.065 81.8856 122.802 69.103 145.068C69.103 145.068 43.4003 80.8134 49.9978 44.0476C55.5644 43.3604 81.8169 43.223 111.574 97.0316Z" fill="#042420"/>
<path d="M49.9978 44.0479C49.6542 44.1166 49.2419 44.1853 48.8983 44.254L49.9978 44.0479Z" fill="#042420"/>
<path d="M300.152 180.734C300.152 180.734 278.16 182.108 280.909 164.928C283.658 147.748 300.839 145.686 305.65 146.373C310.461 147.06 329.703 153.932 326.267 168.364C322.831 182.795 318.02 180.046 315.271 180.734C312.522 181.421 300.152 180.734 300.152 180.734Z" fill="#B5F0E5"/>
<path d="M137.964 180.734C137.964 180.734 115.973 182.108 118.722 164.928C121.47 147.748 138.651 145.686 143.462 146.373C148.273 147.06 167.515 153.932 164.079 168.364C160.643 182.795 155.832 180.046 153.083 180.734C150.334 181.421 137.964 180.734 137.964 180.734Z" fill="#B5F0E5"/>
</g>
<defs>
<clipPath id="clip0_511_205">
<rect width="441" height="446" fill="white"/>
</clipPath>
</defs>
</svg>
