<svg width="30" height="30" viewBox="0 0 30 30" fill="none" xmlns="http://www.w3.org/2000/svg">
<path fill-rule="evenodd" clip-rule="evenodd" d="M15 30C23.2843 30 30 23.2843 30 15C30 6.71573 23.2843 0 15 0C6.71573 0 0 6.71573 0 15C0 23.2843 6.71573 30 15 30ZM9.34768 18.2595C9.18948 18.2595 9.04031 18.3165 8.93183 18.4142L6.09769 20.9667C5.91236 21.1336 6.04345 21.4186 6.30562 21.4186H20.6526C20.8108 21.4186 20.96 21.3616 21.0684 21.2639L23.9026 18.7114C24.0879 18.5445 23.9568 18.2595 23.6947 18.2595H9.34768ZM8.93173 8.88391C9.04473 8.78621 9.1939 8.72921 9.34758 8.72921H23.6946C23.9567 8.72921 24.0878 9.01418 23.9025 9.1811L21.0683 11.7336C20.9599 11.8313 20.8107 11.8883 20.6525 11.8883H6.30552C6.04335 11.8883 5.91226 11.6034 6.09759 11.4364L8.93173 8.88391ZM20.6526 13.4638C20.8108 13.4638 20.96 13.5208 21.0684 13.6185L23.9026 16.1711C24.0879 16.338 23.9568 16.6229 23.6947 16.6229H9.34768C9.18948 16.6229 9.04031 16.566 8.93183 16.4682L6.09769 13.9157C5.91236 13.7488 6.04345 13.4638 6.30562 13.4638H20.6526Z" fill="#B5F0E5"/>
</svg>
