<svg width="158" height="158" viewBox="0 0 158 158" fill="none" xmlns="http://www.w3.org/2000/svg">
<g clip-path="url(#clip0_145_64)">
<path d="M2 78.9988C2 121.525 36.4731 155.998 78.9988 155.998C121.525 155.998 156 121.524 156 78.9988C156 36.4732 121.525 2 78.9988 2C36.4731 2 2 36.4731 2 78.9988Z" fill="#B5F0E5" stroke="#B5F0E5" stroke-width="4"/>
<path fill-rule="evenodd" clip-rule="evenodd" d="M44.1542 60.3876L46.1043 54.3628C46.5007 53.1374 47.4678 52.1839 48.6977 51.8079L54.752 49.9461C55.59 49.6901 55.5968 48.5078 54.7656 48.2383L48.7385 46.2881C47.5154 45.8918 46.5618 44.9246 46.1836 43.6947L44.324 37.6405C44.0681 36.8047 42.8858 36.7956 42.6162 37.6291L40.6661 43.654C40.2697 44.877 39.3026 45.8306 38.0727 46.2089L32.0184 48.0684C31.1804 48.3266 31.1713 49.5067 32.0048 49.7762L38.0319 51.7263C39.255 52.1227 40.2086 53.0921 40.5868 54.322L42.4464 60.374C42.7023 61.212 43.8846 61.2211 44.1542 60.3876Z" fill="#042420"/>
<path fill-rule="evenodd" clip-rule="evenodd" d="M139.848 56.8811C137.352 54.0901 133.457 52.5187 129.67 51.8743C125.853 51.2554 121.85 51.3128 118.082 51.9823C110.457 53.2721 103.53 56.4293 97.488 60.3242C94.3505 62.2357 91.6749 64.4475 88.9029 66.7001C87.5673 67.8393 86.3496 69.0525 85.0814 70.2483L81.6162 73.6961C77.8509 77.6318 74.1397 81.2166 70.5489 84.1879C66.9436 87.1455 63.5729 89.3918 60.2511 90.9605C56.9314 92.5373 53.3793 93.4646 48.7494 93.613C44.1602 93.7749 38.7306 92.9466 32.9228 91.5795C27.0838 90.2184 20.9522 88.2783 14.1003 86.6089C16.4911 93.2415 20.0913 99.1028 24.7136 104.461C29.3901 109.726 35.2296 114.524 42.7313 117.68C50.1246 120.906 59.4156 122.064 68.103 120.317C76.8134 118.64 84.4572 114.61 90.6358 109.948C96.8303 105.239 101.842 99.8748 106.067 94.298C107.233 92.7572 107.85 91.895 108.694 90.6907L111.027 87.2352C112.648 85.0978 114.124 82.6642 115.728 80.5465C118.874 76.1113 121.976 71.6812 125.58 67.5998C127.394 65.5297 129.307 63.5496 131.565 61.6467C132.691 60.7179 133.908 59.8089 135.256 58.9901C136.624 58.1069 138.069 57.4156 139.848 56.8811Z" fill="#042420"/>
<path fill-rule="evenodd" clip-rule="evenodd" d="M139.848 56.8808C137.167 50.1148 132.182 44.4194 125.491 40.2167C118.841 36.0601 109.605 33.9389 100.452 35.7471C95.9306 36.6216 91.55 38.3052 87.7058 40.5472C83.879 42.7803 80.4498 45.4685 77.4811 48.3524C75.9991 49.7992 74.6539 51.3084 73.3175 52.8262L69.8537 57.2423L64.5038 64.3512C57.6835 73.4976 50.339 84.2166 38.2862 87.3927C26.4539 90.5108 21.322 87.7493 14.1003 86.6085C15.4208 90.0176 17.0564 93.3284 19.2738 96.2409C21.4499 99.2124 24.0203 102.003 27.2159 104.396C28.8308 105.545 30.5358 106.679 32.4294 107.641C34.3145 108.57 36.3473 109.388 38.5171 110.003C42.8331 111.186 47.6922 111.601 52.3969 110.964C57.1038 110.336 61.6028 108.845 65.5354 106.864C69.497 104.901 72.948 102.511 76.0295 99.9891C82.155 94.9021 86.9196 89.2815 90.9443 83.6C92.9687 80.7594 94.8063 77.8652 96.5058 74.9702L98.5061 71.5236C99.1176 70.5161 99.7361 69.5024 100.364 68.5584C102.899 64.7654 105.378 61.7241 108.389 59.4413C111.358 57.0995 115.493 55.3693 121.018 54.9674C126.52 54.5606 132.872 55.312 139.848 56.8808Z" fill="#042420"/>
<path fill-rule="evenodd" clip-rule="evenodd" d="M110.081 113.097C110.081 118.067 114.112 122.097 119.081 122.097C124.051 122.097 128.076 118.067 128.076 113.097C128.076 108.128 124.051 104.097 119.081 104.097C114.112 104.097 110.081 108.128 110.081 113.097Z" fill="#042420"/>
</g>
<defs>
<clipPath id="clip0_145_64">
<rect width="158" height="158" fill="white"/>
</clipPath>
</defs>
</svg>
