<svg width="512" height="512" viewBox="0 0 512 512" fill="none" xmlns="http://www.w3.org/2000/svg">
<g clip-path="url(#clip0_511_242)">
<path d="M250.1 0H261.9C262.3 0.1 262.7 0.2 263.1 0.3C265.4 0.4 267.7 0.4 270 0.6C275.9 1.1 281.8 1.4 287.7 2.2C295.1 3.2 302.6 4.4 310 5.9C326.2 9.3 342 14.3 357.2 20.9C429.8 52.2 483.9 115.2 503.8 191.7C506.2 200.8 508 210.1 509.4 219.4C510.2 224.9 510.8 230.5 511.2 236C511.6 240.3 511.6 244.7 511.8 249C511.9 249.4 512 249.7 512.1 250.1V261.9C512 262.1 511.9 262.3 511.8 262.6C511.7 265.1 511.7 267.6 511.5 270.1C511.1 275.2 510.9 280.3 510.2 285.4C509.1 293.6 507.9 301.7 506.3 309.8C502.2 329.3 495.8 348.2 487.2 366.1C469.9 402.4 444.4 434 412.6 458.5C385.5 479.6 354.5 494.9 321.3 503.5C307 507.3 292.5 509.8 277.7 510.9C271.4 511.4 265.1 511.6 258.8 511.9C255.6 512 252.3 511.9 249.1 511.7C243.3 511.4 237.4 511.2 231.6 510.6C225.7 510 219.8 509.2 213.9 508.3C201.4 506.3 189.1 503.4 177.1 499.4C95.2001 473 32.3 407.2 9.30005 324.4C5.00005 309.1 2.20005 293.5 1.00005 277.6C0.600046 271.7 0.200046 265.7 4.59142e-05 259.8C-0.0999541 256.3 4.59105e-05 252.7 0.200046 249.2C0.600046 242.4 0.900046 235.7 1.50005 229C2.10005 222.7 3.00005 216.3 4.10005 210.1C6.80005 194.8 11 179.8 16.6 165.3C46.1 87.8 111.3 29.3 191.6 8.4C200.7 6 210 4.2 219.3 2.8C224.8 2 230.4 1.4 235.9 1C240.3 0.6 244.7 0.6 249 0.4C249.5 0.2 249.8 0.1 250.1 0ZM255.9 444.4C359.9 444.9 443.8 359.9 444.5 258.2C445.2 152.4 360.5 68.9 258.3 67.8C151.2 66.7 68.8 152.3 67.7 253.8C66.5 360.6 153.2 444.8 255.9 444.4Z" fill="#B5F0E5"/>
<path d="M255.9 444.4C153.2 444.9 66.5001 360.7 67.6001 253.8C68.7001 152.4 151.1 66.6995 258.2 67.7995C360.4 68.8995 445.1 152.4 444.4 258.2C443.9 359.9 360 444.8 255.9 444.4ZM357.1 199.2C356.5 198.7 356.1 198.3 355.7 198C353.6 196.4 351.6 194.7 349.5 193.1C319 169.5 284.2 151.9 247.1 141.3C230.5 136.4 213.4 133.5 196.2 132.6C189.8 132.3 183.4 132.6 177 132.8C170.7 133 164.4 133.8 158.2 135.1C147.5 137.3 137.3 140.8 128 146.6C119.2 152 112 159.7 107.3 169C102.3 178.9 101.3 189.6 102.4 200.5C103.3 208.4 105.4 216.2 108.4 223.5C113.6 236.6 121 248.4 129.6 259.6C138.7 271.3 148.9 282 160.1 291.6C163.2 294.4 167.9 294.6 171.1 291.9C188 278.6 205.7 266.5 224.2 255.6C228.4 253.3 231 249 231.1 244.3C231.5 238 231.9 231.6 232.4 225.3C232.8 220.4 233.3 215.5 234 210.6C235.2 202.7 236.5 194.7 238.1 186.9C240.3 175.6 243.3 164.4 247.1 153.5C247.7 151 250.3 149.5 252.8 150.1C253 150.2 253.2 150.2 253.4 150.3C255.2 150.9 257.1 151.5 258.9 152.1C262.3 153.2 263.5 155.5 262.3 158.9C256.6 176.2 252.5 194 250.2 212C249.1 220.5 248.3 229 247.6 237.5C247.1 244.7 247 252 246.8 259.2C246.7 263.3 246.9 267.5 247 271.6C247 273.9 247.1 276.1 247.2 278.4C247.7 285.9 248.1 293.4 248.8 300.8C249.3 306.5 250 312.2 250.9 317.9C252.2 325.8 253.9 333.7 255.5 341.6C256.4 345.8 254.7 349.2 250.7 350.9C247.8 352.1 244.9 353.2 242 354.4C237.9 356.1 233.2 356 229.3 354C214.6 347.2 200.4 339.6 186.6 331.1C160.9 314.8 137.7 295.6 118.6 271.7C108.9 259.5 100.6 246.4 94.6001 232C93.1001 228.3 91.8001 224.5 90.5001 220.7C90.2001 219.8 89.7001 219 88.7001 219.3C88.1001 219.5 87.5001 220 87.3001 220.6C85.2001 229.6 84.0001 238.7 83.7001 247.9C83.5001 255.5 83.7001 263.2 84.2001 270.8C84.6001 276.9 85.4001 282.9 86.6001 288.9C89.0001 302 93.0001 314.8 98.5001 326.9C102.3 335.2 106.7 343.2 111.7 350.8C112.4 352.3 114 353.1 115.6 352.9C117.1 352.7 118.4 351.6 118.8 350.1C119.4 348.8 120 347.5 120.7 346.2C127 334.8 135.3 324.9 144.5 315.7C146.7 313.6 150.2 313.4 152.6 315.3C153.6 316 154.5 316.8 155.4 317.5C158.1 319.5 158.7 323.3 156.7 326C156.5 326.3 156.2 326.6 155.9 326.9C149.6 333.1 143.9 339.9 138.9 347.1C135.3 352.5 132 358.1 130.6 364.5C129.1 371.1 131.1 375.3 137.2 378.1C141.8 380.1 146.7 381.2 151.7 381.3C156.2 381.5 160.7 381.5 165.1 381.1C172.2 380.4 179.4 379.6 186.4 378.2C203.1 374.8 219.6 370.1 235.5 364C258.2 355.5 280.3 345.5 301.7 334C327.1 320.5 351.2 304.9 373.8 287.2C375 286.4 375.7 285 375.7 283.6C376 277.8 376.5 272 376.7 266.3C376.9 261.3 376.9 256.3 377 251.3C377 249.1 376.9 246.9 376.8 244.7C376.6 239.8 376.6 234.9 376.3 230C375.9 224 375.4 218 374.7 212.1C373.9 205.3 373 198.4 371.9 191.6C369.5 176.8 365.7 162.3 360.6 148.2C356.6 137.1 351.6 126.5 344.8 116.9C340.4 110.6 335.3 104.8 328.7 100.7C321.2 95.9995 313.3 94.6995 304.8 97.8995C299.9 99.8995 295.4 102.8 291.6 106.5C285 112.7 279.9 120.1 275.4 128C273.8 130.9 274.6 133.2 277.7 134.4C306.1 145.4 332.9 160.3 357.2 178.7C361 181.5 363.6 185.6 364.5 190.2C365.3 194.2 366 198.1 366.5 202.1C367.3 208.6 363.9 213.8 358 215.3C339.8 219.9 322 225.8 304.7 232.9C289 239.3 273.6 246.5 258.6 254.4C255.6 255.9 253.4 254.5 253.4 251.2C253.5 248.6 253.7 246.1 253.7 243.5C253.7 240 255.2 237.8 258.5 236.3C268.1 231.9 277.5 227.2 287.1 223C306.4 214.4 326.3 207.3 346.7 201.7C350.2 200.9 353.5 200.1 357.1 199.2ZM255.8 428.6C263.1 428.5 270.4 428 277.7 427C278.9 427 279.9 426.2 280.3 425.1C280.6 424 280.1 422.8 279.2 422.2C271.5 415.7 265.6 407.8 260.5 399.2C256.8 392.8 253.5 386.2 250.7 379.4C249.7 377 248 376.3 245.6 377.2C227.1 384.3 208.1 390 188.7 394C180.8 395.6 172.9 396.7 164.8 397.2C163.5 397.3 162.5 397.6 162.1 398.9C161.7 400.2 162.5 401 163.6 401.6C166.9 403.6 170.1 405.6 173.5 407.5C193.3 418.4 215.1 425.2 237.5 427.5C243.6 428.1 249.7 428.2 255.8 428.6ZM253.2 125.9C257 125.9 259.3 124.5 260.8 121.8C264.4 115.1 268.7 108.8 273.4 102.9C277 98.3995 281 94.3995 285.5 90.7995C286.4 90.1995 286.8 89.0995 286.5 87.9995C286.3 86.9995 285.4 86.1995 284.4 85.9995C283.8 85.8995 283.2 85.7995 282.6 85.6995C275.7 84.9995 268.9 84.1995 262 83.7995C257.1 83.5995 252.2 83.5995 247.3 83.9995C240.7 84.4995 234.2 85.0995 227.7 85.9995C212.5 88.3995 197.6 92.8995 183.6 99.3995C174 103.8 164.9 109.1 156.3 115.2C155.5 115.8 154.8 116.4 155.2 117.5C155.6 118.5 156.5 118.6 157.4 118.4C165 117 172.6 116.2 180.3 116C186.8 115.9 193.3 116.1 199.8 116.4C205.9 116.8 212 117.4 218.1 118.2C228.3 119.6 238.4 121.7 248.3 124.5C250.3 125.3 252 125.7 253.2 125.9ZM309.5 418.5C311.5 418.2 313.6 418 315.5 417.5C321.9 415.9 327.1 412.4 331.8 408C340 400.3 345.9 391 350.9 381C351.6 379.7 351.1 378 349.8 377.3C349.3 377.1 348.8 376.9 348.3 377C345 377.1 341.7 377.4 338.4 377.4C333.1 377.4 327.8 377.3 322.6 376.9C317.2 376.6 311.7 376.2 306.4 375.3C298.4 374.1 290.5 372.6 282.6 371C278.6 370.2 274.6 369 270.6 368C269.1 367.5 267.4 367.9 266.3 369.1C265.3 370.3 265.1 372 265.9 373.3C268.9 379.2 271.6 385.3 274.8 391.1C279 399 284.8 405.9 291.9 411.5C297 415.7 302.7 418.3 309.5 418.5ZM230.7 270.5C223.9 273.2 181.7 302.6 179 306.5C197.6 319.9 217.6 331.1 238.7 340.1C233.7 317.2 231.1 293.9 230.7 270.5ZM334 361.6C337.5 361.5 341 361.4 344.5 361.2C348 361 351.4 360.4 354.9 360.2C358.8 360 360.9 358 362.1 354.4C366.5 340.8 369.9 326.9 372.2 312.8C372.4 311.8 372.4 310.9 371.5 310.3C370.6 309.8 369.8 310.2 369 310.8C366.1 312.9 363.2 315 360.2 317C340 330.8 318.9 343.3 297.1 354.4C296.2 354.8 295.5 355.4 295.6 356.4C295.7 357.5 296.6 357.9 297.6 358.1C309.6 360.3 321.8 361.5 334 361.6ZM419.4 301C419.2 298.1 419.1 295.1 418.6 292.2C417.8 287.6 416.9 283.1 415.7 278.6C414.9 275.6 411.5 274.9 409.2 277C404.3 281.6 399.3 286.2 394.4 290.8C392.6 292.3 391.4 294.3 390.8 296.6C390.3 298.8 390 301.1 389.7 303.4C388.6 310.1 387.8 316.8 386.4 323.4C384.8 331.5 382.7 339.5 380.8 347.5C380.2 349.3 381.2 351.3 383 351.9C383.9 352.2 384.9 352.1 385.8 351.6C386.6 351.2 387.3 350.8 388.1 350.5C396.3 346.2 403.5 340.7 409 333.2C415.9 323.9 419.6 312.6 419.4 301ZM412.9 195C415.2 195.1 416.4 193.5 415.7 191.3C415.6 190.9 415.4 190.5 415.2 190.1C408 172.8 398 156.8 385.6 142.7C382.1 138.7 378.3 135 374.6 131.3C374.1 130.9 373.4 130.8 372.7 131C372 131.3 371.6 132.1 371.9 132.8C371.9 132.9 371.9 132.9 372 133C372.3 133.6 372.5 134.3 372.7 134.9C379.4 151.5 384.3 168.8 387.4 186.5C388 190.9 391.8 194.2 396.3 194C399.2 194 402.2 194.1 405.1 194.3C407.7 194.4 410.3 194.7 412.9 195ZM400.3 209.8C399.7 209.8 399.2 209.8 398.6 209.8C397.3 209.6 396.1 210.3 395.6 211.5C395 212.8 395.6 213.8 396.4 214.7C398.4 217.1 400.5 219.4 402.3 221.9C406.3 227.3 410.2 232.8 414.1 238.3C415.7 240.5 418.6 240.5 420 238.2C422.1 234.7 423.6 230.8 424.5 226.9C426 220.1 423.8 215.8 417.6 213.1C417.5 213 417.4 213 417.2 213C411.8 210.6 406.1 210 400.3 209.8ZM393 266.1H392.8C392.8 266.2 392.8 266.4 392.8 266.5C392.8 267.4 392.7 268.3 393.7 268.7C394.7 269.1 395.4 268.6 396 267.9C398.7 265.1 401.4 262.4 404 259.6C406 257.5 406.2 256 404.7 253.6C402 249.2 399.2 245 396.4 240.7C395.8 239.8 395.1 239.3 394.1 239.6C393.1 239.9 392.9 240.8 392.9 241.8C393 249.9 393 258 393 266.1ZM369.9 385C370.3 384.8 370.6 384.6 370.9 384.4C371.8 383.6 372.8 382.8 373.6 381.9C376.3 379.3 379 376.7 381.6 374C382 373.5 382.2 372.8 382 372.1C381.8 371.2 381 371 380.1 371.1C379.9 371.1 379.8 371.1 379.6 371.2C377.4 371.8 375.2 372.5 373 373.2C372.5 373.4 372 373.7 371.7 374.2C370.4 377.1 369.1 379.9 367.9 382.9C367.6 383.9 368.4 385 369.9 385ZM428.5 258.8C428.4 258.3 428.4 257.8 428.4 257.3C428.4 257 428.2 256.6 428 256.5C427.7 256.5 427.4 256.6 427.1 256.8C425.7 257.9 425.5 259.9 426.6 261.3C426.6 261.4 426.7 261.4 426.7 261.5C427.2 262.1 427.9 262 428.1 261.2C428.3 260.4 428.4 259.7 428.5 258.8Z" fill="#042420"/>
<path d="M357.1 199.2C353.5 200.1 350.1 200.9 346.8 201.8C326.4 207.4 306.5 214.5 287.2 223.1C277.6 227.4 268.2 232.1 258.6 236.4C255.4 237.9 253.8 240.1 253.8 243.6C253.8 246.2 253.6 248.7 253.5 251.3C253.4 254.6 255.7 256.1 258.7 254.5C273.7 246.6 289.1 239.4 304.8 233C322.1 225.8 339.9 220 358.1 215.4C364 213.9 367.4 208.7 366.6 202.2C366.1 198.2 365.4 194.2 364.6 190.3C363.7 185.7 361.1 181.6 357.3 178.8C333 160.4 306.2 145.5 277.8 134.5C274.7 133.3 273.9 130.9 275.5 128.1C280 120.2 285.1 112.9 291.7 106.6C295.5 102.9 300 99.9998 304.9 97.9998C313.3 94.6998 321.3 95.9998 328.8 100.8C335.4 105 340.5 110.7 344.9 117C351.7 126.7 356.6 137.3 360.7 148.3C365.8 162.4 369.6 176.9 372 191.7C373.1 198.5 374 205.3 374.8 212.2C375.5 218.2 376 224.1 376.4 230.1C376.7 235 376.8 239.9 376.9 244.8C377 247 377.1 249.2 377.1 251.4C377.1 256.4 377 261.4 376.8 266.4C376.6 272.2 376.1 278 375.8 283.7C375.8 285.1 375.1 286.5 373.9 287.3C351.3 305 327.1 320.6 301.8 334.1C280.5 345.6 258.3 355.6 235.6 364.1C219.6 370.2 203.2 374.9 186.5 378.3C179.5 379.7 172.3 380.5 165.2 381.2C160.7 381.6 156.3 381.7 151.8 381.4C146.8 381.3 141.9 380.2 137.3 378.2C131.2 375.3 129.2 371.1 130.7 364.6C132.2 358.2 135.4 352.6 139 347.2C144.1 340 149.8 333.2 156 327C158.5 324.7 158.7 320.9 156.4 318.4C156.1 318.1 155.8 317.8 155.5 317.6C154.6 316.8 153.7 316.1 152.7 315.4C150.3 313.5 146.8 313.7 144.6 315.8C135.5 325 127.1 334.8 120.8 346.3C120.1 347.6 119.4 348.9 118.9 350.2C118.4 351.7 117.2 352.7 115.7 353C114.1 353.2 112.5 352.4 111.8 350.9C106.8 343.3 102.4 335.3 98.6 327C93.1 314.9 89.1 302.1 86.7 289C85.6 283 84.8 277 84.3 270.9C83.8 263.3 83.6 255.6 83.8 248C84.1 238.8 85.3 229.7 87.4 220.7C87.6 220.1 88.2 219.6 88.8 219.4C89.8 219.1 90.3 219.9 90.6 220.8C92 224.6 93.2 228.4 94.7 232.1C100.7 246.5 109 259.6 118.7 271.8C137.8 295.7 160.9 314.9 186.7 331.2C200.4 339.7 214.7 347.4 229.4 354.1C233.4 356.1 238 356.2 242.1 354.5C245 353.3 247.9 352.2 250.8 351C254.8 349.3 256.5 345.9 255.6 341.7C254 333.8 252.4 326 251 318C250 312.3 249.4 306.6 248.9 300.9C248.2 293.4 247.8 286 247.3 278.5C247.2 276.2 247.1 274 247.1 271.7C247 267.6 246.8 263.4 246.9 259.3C247.1 252.1 247.2 244.8 247.7 237.6C248.3 229.1 249.1 220.6 250.3 212.1C252.6 194 256.7 176.2 262.4 159C263.6 155.6 262.4 153.3 259 152.2C257.2 151.6 255.4 151 253.5 150.4C251.1 149.4 248.4 150.6 247.4 153C247.3 153.2 247.3 153.4 247.2 153.6C243.5 164.5 240.5 175.7 238.2 187C236.7 194.9 235.3 202.8 234.1 210.7C233.4 215.6 232.9 220.5 232.5 225.4C232 231.7 231.6 238 231.2 244.4C231.1 249.1 228.4 253.5 224.3 255.7C205.8 266.6 188.1 278.7 171.2 292C167.9 294.6 163.2 294.5 160.2 291.7C149 282.1 138.8 271.4 129.7 259.7C121.1 248.6 113.8 236.7 108.5 223.6C105.5 216.2 103.4 208.5 102.5 200.6C101.3 189.7 102.4 179 107.4 169.1C112.1 159.9 119.2 152.1 128.1 146.7C137.4 140.9 147.6 137.4 158.3 135.2C164.5 133.9 170.8 133.1 177.1 132.9C183.5 132.7 189.9 132.4 196.3 132.7C213.6 133.6 230.7 136.5 247.2 141.4C284.3 152 319.1 169.6 349.6 193.2C351.7 194.8 353.7 196.5 355.8 198.1C356.2 198.3 356.5 198.6 357.1 199.2Z" fill="#B5F0E5"/>
<path d="M255.8 428.6C249.7 428.2 243.6 428.1 237.6 427.5C215.1 425.2 193.4 418.4 173.6 407.5C170.2 405.7 167 403.6 163.7 401.6C162.7 401 161.9 400.2 162.2 398.9C162.6 397.6 163.6 397.3 164.9 397.2C172.9 396.7 180.9 395.6 188.8 394C208.2 390 227.2 384.4 245.7 377.2C248.1 376.3 249.8 377 250.8 379.4C253.6 386.2 256.9 392.8 260.6 399.2C265.7 407.8 271.6 415.7 279.3 422.2C280.3 422.8 280.7 424 280.4 425.1C280 426.2 279 427 277.8 427C270.4 427.9 263.1 428.5 255.8 428.6Z" fill="#B5F0E5"/>
<path d="M253.2 125.9C252.1 125.6 250.3 125.3 248.5 124.8C238.6 122.1 228.5 120 218.3 118.5C212.2 117.7 206.1 117 200 116.7C193.5 116.3 187 116.1 180.5 116.3C172.8 116.5 165.1 117.3 157.6 118.7C156.6 118.9 155.8 118.8 155.4 117.8C155 116.7 155.7 116.1 156.5 115.5C165.1 109.4 174.2 104.1 183.8 99.7001C197.8 93.2001 212.6 88.6001 227.9 86.3001C234.4 85.3001 241 84.7001 247.5 84.3001C252.4 83.9001 257.3 83.9001 262.2 84.1001C269.1 84.5001 275.9 85.3001 282.8 86.0001C283.4 86.1001 284 86.2001 284.6 86.3001C285.7 86.4001 286.5 87.2001 286.7 88.3001C287 89.4001 286.6 90.5001 285.7 91.1001C281.2 94.7001 277.2 98.7001 273.6 103.2C268.8 109.1 264.6 115.5 261 122.1C259.3 124.6 257 125.9 253.2 125.9Z" fill="#B5F0E5"/>
<path d="M309.5 418.5C302.7 418.3 297 415.6 291.8 411.6C284.8 406 279 399.1 274.7 391.2C271.4 385.4 268.7 379.3 265.8 373.4C265 372.1 265.1 370.4 266.2 369.2C267.3 368 269 367.5 270.5 368.1C274.5 369.1 278.5 370.3 282.5 371.1C290.4 372.7 298.4 374.2 306.3 375.4C311.7 376.2 317.1 376.6 322.5 377C327.8 377.3 333.1 377.4 338.3 377.5C341.6 377.5 344.9 377.2 348.2 377.1C349.7 377 351 378.1 351.2 379.6C351.2 380.1 351.1 380.6 350.9 381.1C345.9 391.1 339.9 400.4 331.8 408.1C327.1 412.5 321.9 416.1 315.5 417.6C313.6 418 311.5 418.2 309.5 418.5Z" fill="#B5F0E5"/>
<path d="M230.7 270.5C231 293.9 233.7 317.3 238.7 340.2C217.6 331.2 197.6 319.9 179 306.6C181.7 302.6 223.9 273.2 230.7 270.5Z" fill="#B5F0E5"/>
<path d="M334 361.6C321.8 361.5 309.6 360.3 297.6 358.1C296.6 357.9 295.7 357.5 295.6 356.4C295.5 355.4 296.2 354.9 297.1 354.4C318.9 343.3 340 330.8 360.2 317C363.1 315 366.1 312.9 369 310.8C369.8 310.3 370.5 309.8 371.5 310.3C372.5 310.9 372.4 311.7 372.2 312.8C369.9 326.9 366.5 340.8 362.1 354.4C360.9 358 358.8 360 354.9 360.2C351.4 360.4 348 360.9 344.5 361.2C341 361.4 337.5 361.5 334 361.6Z" fill="#B5F0E5"/>
<path d="M419.4 301C419.5 312.6 415.9 323.9 409 333.2C403.5 340.7 396.3 346.2 388.1 350.5C387.3 350.9 386.6 351.3 385.8 351.6C384.1 352.5 382 351.9 381.1 350.3C380.6 349.4 380.5 348.4 380.8 347.5C382.7 339.5 384.7 331.5 386.4 323.4C387.7 316.8 388.6 310.1 389.7 303.4C390.1 301.1 390.3 298.8 390.8 296.6C391.4 294.4 392.7 292.3 394.4 290.8C399.3 286.2 404.3 281.6 409.2 277C411.4 274.9 414.9 275.6 415.7 278.6C416.9 283.1 417.8 287.6 418.6 292.2C419.2 295.1 419.2 298.1 419.4 301Z" fill="#B5F0E5"/>
<path d="M412.9 195C410.3 194.8 407.7 194.4 405 194.3C402.1 194.1 399.1 194.1 396.2 194C391.7 194.2 387.9 190.9 387.3 186.5C384.2 168.8 379.3 151.6 372.6 134.9C372.3 134.3 372.1 133.6 371.9 133C371.5 132.3 371.8 131.4 372.5 131.1C372.6 131.1 372.6 131 372.7 131C373.4 130.8 374.1 130.9 374.6 131.3C378.3 135 382.1 138.7 385.6 142.7C398 156.7 408.1 172.7 415.2 190.1C415.4 190.5 415.5 190.9 415.7 191.3C416.5 193.5 415.2 195.1 412.9 195Z" fill="#B5F0E5"/>
<path d="M400.3 209.8C406.1 210 411.8 210.6 417.3 212.8C417.4 212.8 417.5 212.9 417.7 212.9C423.9 215.6 426.1 219.9 424.6 226.7C423.7 230.7 422.2 234.5 420.1 238C418.7 240.4 415.8 240.4 414.2 238.1C410.3 232.6 406.4 227.1 402.4 221.7C400.6 219.2 398.5 216.9 396.5 214.5C395.7 213.5 395 212.6 395.7 211.3C396.2 210.1 397.5 209.5 398.7 209.6C399.2 209.8 399.7 209.8 400.3 209.8Z" fill="#B5F0E5"/>
<path d="M393 266.1C393 258 393 249.9 393 241.8C393 240.8 393.1 240 394.2 239.6C395.3 239.2 396 239.8 396.5 240.7C399.3 245 402.1 249.3 404.8 253.6C406.3 256 406 257.5 404.1 259.6C401.5 262.4 398.8 265.1 396.1 267.9C395.4 268.6 394.7 269.1 393.8 268.7C392.8 268.3 392.9 267.4 392.9 266.5C392.9 266.4 392.9 266.2 392.9 266.1H393Z" fill="#B5F0E5"/>
<path d="M369.9 385C368.4 385 367.6 383.9 368.1 382.7C369.3 379.8 370.6 376.9 371.9 374C372.2 373.5 372.6 373.2 373.2 373C375.4 372.3 377.6 371.7 379.8 371C380 371 380.1 370.9 380.3 370.9C381.1 370.8 382 371 382.2 371.9C382.3 372.6 382.2 373.3 381.8 373.8C379.2 376.5 376.5 379.1 373.8 381.7C372.9 382.6 372 383.4 371.1 384.2C370.6 384.6 370.2 384.8 369.9 385Z" fill="#B5F0E5"/>
<path d="M428.5 258.8C428.4 259.6 428.3 260.4 428.2 261.2C428 262 427.3 262.1 426.8 261.5C425.6 260.2 425.7 258.2 427 257C427.1 256.9 427.1 256.9 427.2 256.9C427.4 256.7 427.8 256.6 428.1 256.6C428.3 256.7 428.5 257.1 428.5 257.4C428.4 257.8 428.4 258.3 428.5 258.8Z" fill="#B5F0E5"/>
</g>
<defs>
<clipPath id="clip0_511_242">
<rect width="512" height="512" fill="white"/>
</clipPath>
</defs>
</svg>
