<svg width="330" height="330" viewBox="0 0 330 330" fill="none" xmlns="http://www.w3.org/2000/svg">
<g clip-path="url(#clip0_511_258)">
<path d="M165 330C256.339 330 330 256.339 330 165C330 73.6607 256.339 0 165 0C73.6607 0 0 73.6607 0 165C0 256.339 73.6607 330 165 330Z" fill="#B5F0E5"/>
<path d="M221.571 91.9287H108.429C87.8036 91.9287 74.8393 114.322 84.8572 132.589L154.393 253.393C159.107 261.054 170.304 261.054 175.018 253.393L244.554 132.589C255.161 114.322 242.196 91.9287 221.571 91.9287ZM154.982 216.857L139.661 187.393L103.125 121.982C100.768 117.857 103.714 112.554 109.018 112.554H154.982V216.857ZM226.875 121.982L190.339 187.393L175.018 216.857V112.554H220.982C226.286 112.554 229.232 117.857 226.875 121.982Z" fill="#042420"/>
</g>
<defs>
<clipPath id="clip0_511_258">
<rect width="330" height="330" fill="white"/>
</clipPath>
</defs>
</svg>
