<svg width="64" height="64" viewBox="0 0 64 64" fill="none" xmlns="http://www.w3.org/2000/svg">
<g clip-path="url(#clip0_511_263)">
<path d="M61.55 19.2799C58.55 16.5099 54.4001 12.2799 51.0201 9.27987L50.82 9.13987C50.4873 8.87265 50.1121 8.66308 49.71 8.51987C41.56 6.99987 3.63005 -0.0901273 2.89005 -0.000127297C2.6827 0.0289128 2.4845 0.104091 2.31005 0.219873L2.12005 0.369873C1.88609 0.607473 1.7084 0.894517 1.60005 1.20987L1.55005 1.33987V2.04987V2.15987C5.82005 14.0499 22.68 52.9999 26 62.1399C26.2 62.7599 26.5801 63.9399 27.2901 63.9999H27.4501C27.8301 63.9999 29.4501 61.8599 29.4501 61.8599C29.4501 61.8599 58.41 26.7399 61.34 22.9999C61.7193 22.5392 62.0541 22.0436 62.34 21.5199C62.413 21.1101 62.3786 20.6883 62.2402 20.2958C62.1017 19.9032 61.864 19.5532 61.55 19.2799ZM36.8801 23.3699L49.2401 13.1199L56.4901 19.7999L36.8801 23.3699ZM32.0801 22.6999L10.8 5.25987L45.23 11.6099L32.0801 22.6999ZM34 27.2699L55.78 23.7599L30.88 53.7599L34 27.2699ZM7.91005 6.99987L30.3 25.9999L27.06 53.7799L7.91005 6.99987Z" fill="#B5F0E5"/>
</g>
<defs>
<clipPath id="clip0_511_263">
<rect width="64" height="64" fill="white"/>
</clipPath>
</defs>
</svg>
