<svg width="169" height="194" viewBox="0 0 169 194" fill="none" xmlns="http://www.w3.org/2000/svg">
<g clip-path="url(#clip0_145_54)">
<path d="M66 44.1C63.9 43.8 63.8 43.7 64.8 43.6C66.7 43.3 71.1 43.7 74.2 44.4C81.4 46.1 87.9 50.5 94.8 58.2L96.6 60.3L99.2 59.9C110.3 58.1 121.7 59.5 131.2 63.9C133.8 65.1 137.9 67.5 138.4 68.1C138.6 68.3 138.9 69.6 139.1 70.9C139.8 75.6 139.5 79.1 138 81.8C137.2 83.3 137.2 83.7 137.7 85C138.1 86 139.3 86.7 140.4 86.7C142.8 86.7 145.3 82.9 146.5 77.6L147 75.5L147.9 76.5C153 82.2 157 90.1 157.6 95.7L157.8 97.2L156.9 95.9C155.4 93.6 154 92.1 152.1 90.8C148.7 88.5 145.1 87.8 135.6 87.3C127 86.8 122.1 86.1 117.3 84.5C109.1 81.8 104.9 78.3 95.2 65.4C90.9 59.7 88.2 56.6 85.5 54C79.6 48.3 73.7 45.3 66 44.1Z" fill="#B5F0E5"/>
<path d="M140.5 56.8C140.7 53 141.2 50.5 142.3 48.2C142.7 47.3 143.1 46.5 143.2 46.5C143.3 46.5 143.1 47.2 142.8 48C142 50.2 141.9 53.3 142.4 56.8C143.1 61.3 143.4 61.9 148.2 66.8C150.4 69.1 153 72 154 73.2L155.7 75.4L154 73.8C151.9 71.8 147.1 68 146 67.5C145.3 67.1 145.2 67.1 144.7 67.6C144.3 68 144.2 68.6 144.2 71.5C144.1 76 143.5 78.8 142 81.7C141.2 83.2 141.1 82.9 141.8 81.2C142.3 79.9 142.4 79.3 142.4 75C142.4 66.3 141.4 64.2 135.3 60.7C133.8 59.8 131.2 58.5 129.7 57.8C128.1 57.1 126.9 56.5 127 56.5C127.2 56.3 133.1 58 135.4 59C138.9 60.4 139.5 60.5 139.9 60.4C140.2 60.1 140.4 59.3 140.5 56.8Z" fill="#B5F0E5"/>
<path d="M70.1 71.7C65.9 65.9 63.2 56.9 63.8 50.2L64 48.1L65 48.3C66.8 48.6 69.9 49.8 71.4 50.7C75.4 53.1 77.2 56.4 78.9 64.6C79.4 67 80.1 69.8 80.4 70.7C80.9 72.2 82.8 75.7 84.4 77.9C85.5 79.5 84.8 80.3 82.3 80.1C78.5 79.7 73.4 76.2 70.1 71.7Z" fill="#B5F0E5"/>
<path d="M135.4 115.2C115.6 107.2 108.6 100.3 108.6 88.6C108.6 86.9 108.7 85.5 108.7 85.5C108.8 85.5 109.5 86.1 110.4 86.8C114.4 90 118.9 91.4 131.4 93.2C138.7 94.3 142.9 95.1 146.7 96.4C158.8 100.4 166.3 108.6 168.1 119.7C168.6 122.9 168.3 129 167.5 132.2C166.8 134.7 164.8 139.3 164.3 139.4C164.2 139.4 164 138.9 164 138.1C163.8 133.9 161.7 129.9 158.2 126.8C154 123.2 148.6 120.5 135.4 115.2Z" fill="#B5F0E5"/>
<path d="M121.4 118.5C121.2 117 120.7 115.1 120.4 114.3L119.9 112.8L120.8 113.9C122.1 115.4 123.1 117.2 124 119.7C124.7 121.6 124.7 122.2 124.7 125.3C124.7 128.3 124.6 129 124 130.7C123 133.4 121.8 135.3 119.8 137.4C116.2 141.1 111.5 143.1 104.8 144C103.6 144.1 100.2 144.4 97.1999 144.6C89.6999 145 84.6999 145.8 80.1999 147.4C79.5999 147.6 78.9999 147.8 78.8999 147.7C78.6999 147.5 81.8 145.7 84.3 144.5C87.8 142.8 91.4 141.9 99.3 140.5C103.2 139.9 107.2 139.1 108.2 138.7C118.1 135.6 123 127.9 121.4 118.5Z" fill="#B5F0E5"/>
<path d="M130.5 134.6C127.9 128.9 127.3 123.5 128.7 118.4C128.9 117.9 129.1 117.4 129.3 117.4C129.5 117.4 130.1 117.7 130.7 118.1C131.9 118.9 134.4 120.3 140.8 123.8C148.9 128.2 153.5 131.6 156.7 135.5C159.5 138.9 161.2 142.8 162 147.6C162.5 150.3 162.2 156.8 161.5 159.5C159.3 168 154.3 174.8 147 178.7C145.9 179.3 145 179.7 144.9 179.7C144.8 179.7 145.2 178.7 145.8 177.5C148.2 172.4 148.5 167.5 146.7 162C145.6 158.6 143.3 154.5 138.7 147.6C133.2 139.6 131.9 137.5 130.5 134.6Z" fill="#B5F0E5"/>
<path d="M56 165.2C63.4 159 72.5 154.6 80.9 153.2C84.5 152.6 90.5 152.8 93.8 153.7C99.1 155.1 103.9 158.1 106.4 161.8C108.8 165.4 109.9 168.5 111 175.4C111.4 178.1 111.9 180.9 112 181.5C112.8 185.1 114.4 187.9 116.4 189.4C119.5 191.7 124.9 191.8 130.2 189.8C131.1 189.5 131.9 189.2 131.9 189.3C132.1 189.5 129.4 191.3 127.6 192.2C125.1 193.5 123.1 193.9 120.4 193.9C115.6 193.9 111.5 191.4 108.2 186.4C107.5 185.4 106.1 182.5 104.9 179.8C101.4 171.7 99.6 169.3 95.5 166.6C91.9 164.3 87.3 163.8 83.8 165.5C79.2 167.7 78 173.6 81.2 177.2C82.5 178.7 84.9 179.9 86.9 180.2C90.6 180.7 93.8 177.8 93.8 174.1C93.8 171.7 92.9 170.3 90.5 169.2C87.3 167.8 83.8 169.4 83.9 172.5C83.9 173.8 84.5 174.6 85.8 175.2C86.6 175.6 86.6 175.6 86 175.5C83.1 174.9 82.4 171.3 84.7 169C87.5 166.2 93.4 167.4 95.4 171.3C96.2 172.9 96.3 176.1 95.6 178.1C93.9 182.5 89.1 184.8 84.2 183.5C80.9 182.6 79.5 181.7 75.5 177.6C68.5 170.4 65.8 169 55.8 167.5L53.9 167.2L56 165.2Z" fill="#B5F0E5"/>
<path fill-rule="evenodd" clip-rule="evenodd" d="M3.40005 4.3C26.7001 32.6 62.6001 76.6 64.4001 79C65.9001 81 65.3001 82.9 62.8001 84.3C61.4001 85.1 58.5001 85.9 57.1001 85.9C55.5001 85.9 53.6001 85.1 52.3001 83.8C51.4001 82.9 47.5001 77.2 38.7001 63.5C32.0001 53 26.3001 44.3 26.2001 44.2C25.8001 44 25.8001 44 38.0001 65.8C45.7001 79.5 48.2001 84.4 48.2001 85C48.2001 86.3 47.8001 87 46.2001 88.8C43.5001 91.8 42.3001 95.2 41.4001 102.3C40.4001 110.2 37.7001 115.8 30.0001 125.3C25.5001 130.9 24.8001 131.9 23.7001 134.2C22.3001 137 21.9001 138.6 21.7001 142.2C21.5001 146 21.9001 148.4 23.0001 152C24.0001 155.2 25.1001 157.3 27.8001 161.4C30.1001 165 31.5001 167.7 31.5001 168.7C31.5001 169.5 31.7001 169.5 35.3001 168.7C43.9001 166.7 51.0001 163.3 54.9001 159.1C57.3001 156.5 57.9001 155.1 57.9001 151.5C57.9001 149.2 57.8001 148.7 57.2001 147.3C56.2001 145.1 54.3001 143.3 50.2001 140.5C44.8001 136.8 42.5001 133.8 41.9001 129.8C41.4001 126.4 42.0001 124.1 45.0001 117.8C48.1001 111.3 48.9001 108.6 49.4001 102C49.7001 97.8 50.2001 96.1 51.4001 94.8C52.7001 93.4 53.8001 92.9 56.9001 92.5C62.0001 91.8 65.3001 90.5 67.9001 88C70.2001 85.9 71.2001 83.8 71.3001 80.7L71.4001 78.4L70.1001 77C65.4001 71.6 0.300054 0 5.35161e-05 0C-0.0999465 0 1.50005 1.9 3.40005 4.3ZM34.1001 146.5C35.2001 144.6 34.6001 142.2 32.8001 141C31.1001 139.9 28.5001 140.4 28.5001 141.9C28.5001 142.3 28.7001 142.7 29.3001 142.9C30.2001 143.4 30.3001 143.9 29.6001 145C28.9001 146.1 28.9001 147.1 29.8001 147.8C31.2001 148.9 33.1001 148.3 34.1001 146.5Z" fill="#B5F0E5"/>
<path fill-rule="evenodd" clip-rule="evenodd" d="M74.6 93.9C72.2 94.6 69.9 97.2 69.2 99.8C68.8 101.4 69 104.3 69.7 105.2C70.8 106.6 71.8 107 74.6 107C80.1 107 84.8 104.6 85.3 101.7C85.8 99.3 83.7 96 80.8 94.5C79.3 93.7 76.2 93.4 74.6 93.9ZM81 98.9C81.8 97.7 81.5 96.4 80 95.5C77.3 93.8 73.2 95.2 73.2 97.8C73.2 99.1 75.3 100.5 77.3 100.5C78.6 100.5 80.4 99.7 81 98.9Z" fill="#B5F0E5"/>
</g>
<defs>
<clipPath id="clip0_145_54">
<rect width="168.3" height="193.8" fill="white"/>
</clipPath>
</defs>
</svg>
