<svg width="600" height="600" viewBox="0 0 600 600" fill="none" xmlns="http://www.w3.org/2000/svg">
<g clip-path="url(#clip0_511_261)">
<path d="M300 0C134.3 0 0 134.3 0 300C0 465.7 134.3 600 300 600C465.7 600 600 465.7 600 300C600 134.3 465.7 0 300 0ZM449 347C436 318 388 254 318 261C245 269 162 310 138 370C101 341 133 291 155 268C150 246 164 198 172 178C175 161 189 149 196 146C195 134 216 128 226 126L227 124C230 115 233 104 259 96C281 88 301 108 309 119C311 113 319 104 327 111C399 122 423 201 427 238C441 248 470 274 477 298C484 327 476 333 466 341L464 343C459 349 453 349 449 347ZM435 378C419.3 443.8 366.5 494.3 300 507C258 507 191 441 172 410C133 407 142 387 151 378L146 376C164 334 215 284 315 272C370 265 412 304 437 344C438 357 437 371 435 378ZM216 328C222 343 240 367 266 339C264 331 250 317 216 328ZM256 470C252 464 276 461 288 460L304 456C307 443 301 442 298 443C274 445 276 417 282 408C289 400 304 403 309 404C314 406 322 404 325 403C340 402 339 420 336 429C335 441 318 445 310 445C309 454 311 458 313 458L347 466C360 471 353 472 347 473C330 462 318 466 310 468L304 470C290 465 275 466 269 468C266 471 259 475 256 470ZM345 344C346 332 358 312 393 330C388 342 371 361 345 344Z" fill="#B5F0E5"/>
</g>
<defs>
<clipPath id="clip0_511_261">
<rect width="600" height="600" fill="white"/>
</clipPath>
</defs>
</svg>
