<svg width="203" height="203" viewBox="0 0 203 203" fill="none" xmlns="http://www.w3.org/2000/svg">
<g clip-path="url(#clip0_0_1)">
<path d="M68.4031 95.8501L67.5322 97.1539C57.516 112.8 59.6935 133.227 73.1935 146.265C80.5967 154.089 91.0483 158 101.5 158C101.5 158 101.5 158 68.4031 95.8501Z" fill="#B5F0E5"/>
<path opacity="0.6" d="M101.5 114.538L68.4033 95.4153C101.5 158 101.5 158 101.5 158C101.5 144.527 101.5 128.881 101.5 114.538Z" fill="#B5F0E5"/>
<path opacity="0.6" d="M134.597 95.8501L135.468 97.1539C145.484 112.8 143.306 133.227 129.806 146.265C121.968 154.089 111.952 158 101.5 158C101.5 158 101.5 158 134.597 95.8501Z" fill="#B5F0E5"/>
<path opacity="0.2" d="M101.5 114.538L134.597 95.4153C101.5 158 101.5 158 101.5 158C101.5 144.527 101.5 128.881 101.5 114.538Z" fill="#B5F0E5"/>
<path opacity="0.2" d="M101.5 72.3809V104.977L130.242 88.8962L101.5 72.3809Z" fill="#B5F0E5"/>
<path opacity="0.6" d="M101.5 72.3809L72.7583 88.8962L101.5 104.977V72.3809Z" fill="#B5F0E5"/>
<path d="M101.5 45L72.7583 88.8962L101.5 72.3808V45Z" fill="#B5F0E5"/>
<path opacity="0.6" d="M101.5 72.3808L130.242 88.8962L101.5 45V72.3808Z" fill="#B5F0E5"/>
</g>
<path d="M101.481 203C81.4082 202.996 61.7868 197.041 45.0981 185.886C28.4093 174.732 15.4027 158.88 7.72272 140.334C0.0427263 121.788 -1.96575 101.381 1.95125 81.6938C5.86824 62.0065 15.5348 43.9226 29.7287 29.7287C43.9226 15.5348 62.0065 5.86824 81.6938 1.95125C101.381 -1.96575 121.788 0.0427263 140.334 7.72272C158.88 15.4027 174.732 28.4093 185.886 45.0981C197.041 61.7868 202.996 81.4082 203 101.481C203.002 114.814 200.378 128.016 195.277 140.334C190.176 152.652 182.699 163.844 173.271 173.271C163.844 182.699 152.652 190.176 140.334 195.277C128.016 200.378 114.814 203.002 101.481 203ZM101.481 7.91492C82.9878 7.92962 64.9137 13.4266 49.5434 23.711C34.1732 33.9954 22.1969 48.6057 15.1281 65.695C8.05943 82.7844 6.21567 101.586 9.8299 119.723C13.4441 137.86 22.3541 154.518 35.4337 167.593C48.5132 180.667 65.1752 189.57 83.3136 193.177C101.452 196.784 120.253 194.933 137.339 187.858C154.426 180.782 169.031 168.8 179.31 153.426C189.588 138.051 195.078 119.975 195.085 101.481C195.09 89.1896 192.672 77.0174 187.969 65.6607C183.266 54.3041 176.371 43.9858 167.678 35.2959C158.985 26.606 148.663 19.7149 137.305 15.0166C125.946 10.3184 113.773 7.90516 101.481 7.91492Z" fill="#B5F0E5"/>
<defs>
<clipPath id="clip0_0_1">
<rect width="81" height="113" fill="white" transform="translate(61 45)"/>
</clipPath>
</defs>
</svg>

