<svg width="512" height="424" viewBox="0 0 512 424" fill="none" xmlns="http://www.w3.org/2000/svg">
<g clip-path="url(#clip0_511_286)">
<path d="M437 0H511L357 152.48C301.23 207.67 210.81 207.67 155 152.48L0.939941 0H74.9999L192 115.83C209.047 132.631 232.02 142.049 255.955 142.049C279.89 142.049 302.863 132.631 319.91 115.83L437 0Z" fill="#B5F0E5"/>
<path d="M74.05 424H0L155 270.58C210.77 215.39 301.19 215.39 357 270.58L512 424H438L320 307.23C302.953 290.429 279.98 281.011 256.045 281.011C232.11 281.011 209.137 290.429 192.09 307.23L74.05 424Z" fill="#B5F0E5"/>
</g>
<defs>
<clipPath id="clip0_511_286">
<rect width="512" height="424" fill="white"/>
</clipPath>
</defs>
</svg>
