<svg width="769" height="769" viewBox="0 0 769 769" fill="none" xmlns="http://www.w3.org/2000/svg">
<g clip-path="url(#clip0_504_138)">
<path d="M69.5176 233.776V535.224C69.5176 554.603 79.6684 572.136 96.5864 581.98L357.739 732.704C374.349 742.239 394.958 742.239 411.569 732.704L672.721 581.98C689.332 572.444 699.79 554.603 699.79 535.224V233.776C699.79 214.398 689.639 196.864 672.721 187.021L411.569 36.2972C394.958 26.7616 374.349 26.7616 357.739 36.2972L96.5864 187.021C79.976 196.557 69.8252 214.398 69.8252 233.776H69.5176Z" fill="#042420"/>
<path d="M441.406 442.944L404.186 545.067C403.264 547.835 403.264 550.911 404.186 553.987L468.167 729.627L542.299 686.87L453.402 442.944C451.249 437.407 443.559 437.407 441.406 442.944Z" fill="#B5F0E5"/>
<path d="M516.153 271.303C514 265.766 506.31 265.766 504.157 271.303L466.937 373.426C466.014 376.195 466.014 379.271 466.937 382.347L571.829 669.953L645.96 627.196L516.153 271.611V271.303Z" fill="#B5F0E5"/>
<path d="M384.5 47.678C386.346 47.678 388.191 48.2932 389.729 49.216L672.106 212.244C675.49 214.09 677.335 217.781 677.335 221.472V547.528C677.335 551.219 675.182 554.91 672.106 556.756L389.729 719.784C388.191 720.707 386.346 721.322 384.5 721.322C382.654 721.322 380.809 720.707 379.271 719.784L96.894 556.756C93.5104 554.91 91.6648 551.219 91.6648 547.528V221.164C91.6648 217.473 93.818 213.782 96.894 211.936L379.271 48.9084C380.809 47.9856 382.654 47.3704 384.5 47.3704V47.678ZM384.5 0C374.349 0 364.506 2.4608 355.278 7.69L72.9012 170.718C54.7528 181.176 43.6792 200.248 43.6792 221.164V547.22C43.6792 568.137 54.7528 587.208 72.9012 597.667L355.278 760.695C364.198 765.924 374.349 768.385 384.5 768.385C394.651 768.385 404.494 765.924 413.722 760.695L696.099 597.667C714.247 587.208 725.321 568.137 725.321 547.22V221.164C725.321 200.248 714.247 181.176 696.099 170.718L413.414 7.69C404.494 2.4608 394.343 0 384.192 0H384.5Z" fill="#B5F0E5"/>
<path d="M197.479 670.261L223.625 598.897L275.917 642.269L227.009 687.179L197.479 670.261Z" fill="#042420"/>
<path d="M360.507 198.095H288.836C283.607 198.095 278.686 201.478 276.84 206.4L123.348 627.197L197.479 669.953L366.659 206.4C368.197 202.094 365.121 197.787 360.815 197.787L360.507 198.095Z" fill="#B5F0E5"/>
<path d="M486.008 198.095H414.337C409.108 198.095 404.186 201.478 402.341 206.4L227.009 686.871L301.14 729.627L491.852 206.4C493.39 202.094 490.314 197.787 486.008 197.787V198.095Z" fill="#B5F0E5"/>
</g>
<defs>
<clipPath id="clip0_504_138">
<rect width="769" height="769" fill="white"/>
</clipPath>
</defs>
</svg>
