<svg width="738" height="738" viewBox="0 0 738 738" fill="none" xmlns="http://www.w3.org/2000/svg">
<path fill-rule="evenodd" clip-rule="evenodd" d="M454.108 727.155C652.052 679.985 774.269 481.291 727.096 283.373C679.927 85.4464 481.22 -36.7999 283.294 10.3758C85.4107 57.5288 -36.8017 256.232 10.3989 454.16C57.5429 652.072 256.244 774.3 454.108 727.155ZM374.07 202.101C427.491 194.214 472.769 200.432 488.831 247.345C500.643 281.659 490.989 306.246 470.336 323.816C511.235 323.887 540.955 341.105 548.455 393.78C557.788 459.195 514.178 487.729 446.954 507.884L462.969 575.122L422.429 584.791L406.639 518.449C396.134 520.962 385.355 523.438 374.179 525.858L390.065 592.502L349.569 602.148L333.498 534.795C329.59 535.701 325.648 536.596 321.679 537.497C315.998 538.787 310.26 540.091 304.479 541.461L251.723 554.035L248.241 503.699C248.241 503.699 278.34 497.018 277.71 496.683C289.179 493.931 290.252 484.965 289.74 479.627L264.421 373.336C265.483 373.074 266.522 372.826 267.523 372.589C267.922 372.493 268.316 372.399 268.7 372.308C266.971 372.474 265.481 372.781 264.347 373.045L246.265 297.174C242.747 289.32 235.127 281.06 218.709 284.968C219.075 284.302 189.276 292.005 189.276 292.005L178.946 248.71L234.863 235.406L234.918 235.613C243.32 233.607 251.902 231.387 260.634 229.116L244.78 162.533L285.296 152.877L300.846 218.154C311.617 215.359 322.46 212.552 333.118 210.013L317.661 145.169L358.199 135.502L374.07 202.101ZM371.373 474.798C404.675 467.348 477.464 451.066 466.438 404.887C455.187 357.666 385.887 375.917 352.063 384.827C348.279 385.823 344.941 386.702 342.175 387.361L363.434 476.609C365.702 476.067 368.378 475.468 371.373 474.798ZM339.124 344.998C366.923 338.854 427.569 325.453 417.575 283.469C407.336 240.538 349.624 255.916 321.437 263.426C318.266 264.27 315.467 265.015 313.152 265.568L332.44 346.507C334.344 346.054 336.598 345.555 339.124 344.998Z" fill="#B5F0E5"/>
</svg>
