<svg width="30" height="30" viewBox="0 0 30 30" fill="none" xmlns="http://www.w3.org/2000/svg">
<path fill-rule="evenodd" clip-rule="evenodd" d="M11.3688 29.5509C19.4055 31.5548 27.5445 26.6644 29.5478 18.6286L29.5476 18.6287C31.5512 10.5926 26.6611 2.45221 18.6249 0.448851C10.5907 -1.55451 2.45171 3.33629 0.449228 11.373C-1.55501 19.4081 3.33542 27.5476 11.3688 29.5509ZM18.3133 9.07781C20.3915 9.79362 21.9112 10.8666 21.6127 12.8628L21.6128 12.8627L21.6133 12.863C21.3973 14.3243 20.5872 15.0317 19.5117 15.2797C20.9883 16.0485 21.7397 17.2275 21.0239 19.2715C20.1356 21.8102 18.0251 22.0243 15.2183 21.4932L14.5373 24.223L12.8912 23.8129L13.5635 21.1197C13.1368 21.0137 12.7009 20.9012 12.2517 20.7793L11.5772 23.4852L9.9331 23.0751L10.6142 20.3401C10.456 20.2996 10.2968 20.2581 10.1365 20.2163C9.90703 20.1565 9.67525 20.0961 9.44069 20.0373L7.29869 19.5033L8.1159 17.6191C8.1159 17.6191 9.32874 17.9416 9.31224 17.9177C9.77825 18.0331 9.98501 17.7292 10.0665 17.5267L11.1429 13.2114C11.1862 13.2218 11.2284 13.2323 11.269 13.2425C11.2852 13.2465 11.3012 13.2505 11.3168 13.2544C11.2512 13.228 11.1916 13.2112 11.1457 13.1995L11.9137 10.119C11.9337 9.76928 11.8131 9.32805 11.1466 9.16169C11.1723 9.14446 9.95114 8.86453 9.95114 8.86453L10.389 7.1065L12.6589 7.67332L12.657 7.68183C12.9982 7.76673 13.3499 7.84731 13.708 7.92884L14.3825 5.22573L16.0275 5.63587L15.3665 8.28605C15.8081 8.38686 16.2525 8.48855 16.6852 8.59648L17.3415 5.96368L18.9875 6.37382L18.3133 9.07781ZM13.1069 18.8816C14.4499 19.2363 17.3853 20.0116 17.852 18.1363H17.852C18.3301 16.2191 15.4839 15.5803 14.0947 15.2686C13.9393 15.2337 13.8022 15.2029 13.6899 15.1749L12.7861 18.7983C12.8782 18.8212 12.9861 18.8497 13.1069 18.8816ZM14.3733 13.5869C15.493 13.8857 17.9356 14.5376 18.361 12.8332H18.3612C18.7955 11.09 16.4217 10.5645 15.2624 10.3078C15.132 10.2789 15.0169 10.2534 14.9229 10.23L14.1035 13.5162C14.1808 13.5355 14.2716 13.5597 14.3733 13.5869Z" fill="#B5F0E5"/>
</svg>
