<svg width="800" height="800" viewBox="0 0 800 800" fill="none" xmlns="http://www.w3.org/2000/svg">
<g clip-path="url(#clip0_506_7764)">
<path d="M400 0C620.925 0 800 179.075 800 400C800 620.925 620.925 800 400 800C179.075 800 0 620.925 0 400C0 179.075 179.075 0 400 0ZM324.925 181.25C227.525 181.25 193.75 296.5 193.75 374.675C193.75 452.875 210.675 508.675 223.875 541.575C237.1 574.5 263.125 631.25 319.125 631.25C375.125 631.25 388.2 559.9 399.4 541.325C410.6 522.725 590.325 495.825 613.3 475.45C636.3 455.075 682.425 350.7 579.675 276.4C476.925 202.125 368.7 181.25 324.925 181.25ZM290.075 388.225L293.45 388.325C325.1 390.625 356.35 425.475 363.15 491.375C370.4 561.975 333.975 594.625 309.4 594.625C284.825 594.625 244.075 548.575 240.5 494.525C236.925 440.475 252.85 390.875 286.675 388.35L290.075 388.225ZM381.225 313.575C359.125 265.175 429.1 281.925 476.475 300.35C523.825 318.8 584.3 345.275 557.875 367C540.225 381.5 487.375 391.975 399.25 398.475C394.675 358.175 388.675 329.875 381.225 313.575Z" fill="#B5F0E5"/>
</g>
<defs>
<clipPath id="clip0_506_7764">
<rect width="800" height="800" fill="white"/>
</clipPath>
</defs>
</svg>
