<svg width="445" height="445" viewBox="0 0 445 445" fill="none" xmlns="http://www.w3.org/2000/svg">
<path d="M222.22 0C344.96 0 444.44 99.5 444.44 222.22C444.44 344.96 344.96 444.44 222.22 444.44C99.5 444.44 0 344.95 0 222.22C0 99.5 99.5 0 222.22 0Z" fill="#B5F0E5"/>
<path d="M230.41 237.91H314.85C316.65 237.91 317.5 237.91 317.63 235.55C318.32 226.96 318.32 218.32 317.63 209.72C317.63 208.05 316.8 207.36 314.99 207.36H146.94C144.86 207.36 144.3 208.05 144.3 210V234.72C144.3 237.91 144.3 237.91 147.63 237.91H230.41ZM308.2 178.47C308.44 177.84 308.44 177.15 308.2 176.53C306.79 173.46 305.12 170.53 303.18 167.78C300.26 163.08 296.82 158.75 292.9 154.86C291.05 152.51 288.91 150.4 286.51 148.61C274.49 138.38 260.2 131.14 244.84 127.5C237.09 125.76 229.17 124.93 221.23 125H146.65C144.57 125 144.29 125.83 144.29 127.64V176.94C144.29 179.02 144.29 179.58 146.93 179.58H307.2C307.2 179.58 308.59 179.3 308.87 178.47H308.19H308.2ZM308.2 266.8C305.84 266.54 303.46 266.54 301.1 266.8H147.08C145 266.8 144.3 266.8 144.3 269.58V317.78C144.3 320 144.3 320.56 147.08 320.56H218.19C221.59 320.82 224.99 320.58 228.32 319.87C238.64 319.13 248.79 316.89 258.47 313.2C261.99 311.98 265.39 310.39 268.6 308.48H269.57C286.24 299.81 299.78 286.19 308.32 269.47C308.32 269.47 309.29 267.37 308.2 266.82V266.8ZM116.39 345.55V344.72V312.36V301.39V268.75C116.39 266.94 116.39 266.67 114.17 266.67H84.03C82.36 266.67 81.67 266.67 81.67 264.45V238.06H113.89C115.69 238.06 116.39 238.06 116.39 235.7V209.59C116.39 207.92 116.39 207.51 114.17 207.51H84.03C82.36 207.51 81.67 207.51 81.67 205.29V180.85C81.67 179.32 81.67 178.91 83.89 178.91H113.75C115.83 178.91 116.39 178.91 116.39 176.27V101.41C116.39 99.1899 116.39 98.6299 119.17 98.6299H223.33C230.89 98.9299 238.4 99.7599 245.83 101.13C261.14 103.96 275.85 109.43 289.3 117.24C298.22 122.49 306.43 128.83 313.74 136.13C319.24 141.84 324.2 148.02 328.6 154.6C332.97 161.27 336.6 168.4 339.45 175.85C339.8 177.79 341.66 179.1 343.6 178.77H368.46C371.65 178.77 371.65 178.77 371.79 181.83V204.61C371.79 206.83 370.96 207.39 368.73 207.39H349.56C347.62 207.39 347.06 207.39 347.2 209.89C347.96 218.35 347.96 226.84 347.2 235.3C347.2 237.66 347.2 237.94 349.85 237.94H371.78C372.75 239.19 371.78 240.44 371.78 241.7C371.92 243.31 371.92 244.94 371.78 246.55V263.36C371.78 265.72 371.09 266.42 369 266.42H342.75C340.92 266.07 339.14 267.24 338.72 269.06C332.47 285.31 322.47 299.88 309.55 311.56C304.83 315.81 299.87 319.81 294.69 323.5C289.13 326.7 283.72 330.03 278.02 332.67C267.53 337.39 256.53 340.87 245.24 343.08C234.52 345 223.65 345.87 212.74 345.72H116.35V345.58L116.39 345.55Z" fill="#042420"/>
</svg>
