<svg width="651" height="651" viewBox="0 0 651 651" fill="none" xmlns="http://www.w3.org/2000/svg">
<g clip-path="url(#clip0_506_7768)">
<path d="M325.5 651C505.269 651 651 505.269 651 325.5C651 145.731 505.269 0 325.5 0C145.731 0 0 145.731 0 325.5C0 505.269 145.731 651 325.5 651Z" fill="#B5F0E5"/>
<path d="M325.5 640.574C499.51 640.574 640.574 499.511 640.574 325.5C640.574 151.49 499.51 10.4268 325.5 10.4268C151.49 10.4268 10.4264 151.49 10.4264 325.5C10.4264 499.511 151.49 640.574 325.5 640.574Z" fill="#B5F0E5"/>
<path d="M325.5 633.935C495.844 633.935 633.935 495.844 633.935 325.5C633.935 155.156 495.844 17.0645 325.5 17.0645C155.156 17.0645 17.0649 155.156 17.0649 325.5C17.0649 495.844 155.156 633.935 325.5 633.935Z" fill="#042420"/>
<path fill-rule="evenodd" clip-rule="evenodd" d="M142.314 290.738C140.47 289.054 138.522 287.367 136.731 285.683C134.939 283.999 133.099 282.312 131.255 280.628L125.777 275.42C124.881 274.524 123.933 273.736 123.037 272.837C122.141 272.049 121.089 271.153 120.194 270.361C112.923 263.462 105.611 256.563 98.4416 249.661C105.868 256.456 113.139 263.202 120.565 270.097L123.145 272.68C124.041 273.573 124.988 274.364 125.884 275.26L131.36 280.315C133.203 281.999 134.995 283.687 136.838 285.523C138.682 287.36 140.474 289.051 142.317 290.731L142.314 290.738ZM45.8234 289.697C45.8234 289.697 72.2627 292.433 85.1681 294.276C97.1222 295.964 134.519 301.703 134.519 301.703L45.8234 289.697ZM45.8234 289.697C53.25 290.329 60.6766 291.117 68.1032 291.908C71.8947 292.276 75.5298 292.697 79.165 293.065L84.7445 293.7C86.5882 293.96 88.3797 294.224 90.2233 294.488L112.347 298.016L123.405 299.859C127.04 300.491 130.676 301.179 134.467 301.811C130.832 301.443 127.04 300.915 123.405 300.387L112.347 298.807L90.2233 295.544C88.3797 295.28 86.5882 294.908 84.7445 294.648L79.1616 294.006C75.5264 293.637 71.735 293.11 68.0998 292.686C60.6732 291.794 53.2466 290.843 45.8199 289.686L45.8234 289.697ZM131.887 308.591C131.887 308.591 103.657 315.758 94.1224 318.497C84.748 321.077 56.3575 329.715 56.3575 329.715L131.884 308.595L131.887 308.591Z" fill="#042420"/>
<path fill-rule="evenodd" clip-rule="evenodd" d="M131.884 308.592C125.617 310.435 119.385 312.227 113.028 313.914L94.1711 318.97C87.9041 320.813 81.6719 322.605 75.4223 324.448L66.0479 327.028C62.9405 327.924 59.7809 328.712 56.5693 329.611C59.6733 328.57 62.8363 327.504 65.9437 326.608L75.3181 323.608C81.5851 321.657 87.8173 319.813 94.0669 317.866C100.438 316.286 106.708 314.598 113.08 313.071C119.135 311.543 125.509 310.019 131.884 308.595V308.592ZM60.3087 347.096C63.4126 345.937 99.2298 329.243 107.552 325.344C111.719 323.393 123.829 319.095 123.829 319.095L60.3087 347.096Z" fill="#042420"/>
<path fill-rule="evenodd" clip-rule="evenodd" d="M60.3086 347.096C63.0446 346.054 65.6278 344.78 68.2595 343.568L76.0542 339.933L91.699 332.402C96.907 329.927 101.969 327.194 107.34 324.868C110.08 323.712 112.819 322.764 115.555 321.868L119.722 320.552C121.142 320.184 122.461 319.761 123.888 319.393C118.68 321.868 113.198 323.976 107.983 326.396C102.775 328.979 97.4486 331.086 92.074 333.402L76.1687 340.405C70.8288 342.568 65.6208 344.884 60.3052 347.096H60.3086ZM63.7806 361.678C63.7806 361.678 96.223 342.665 107.389 336.555C113.236 333.291 132.144 323.913 132.144 323.913L63.7806 361.678Z" fill="#042420"/>
<path fill-rule="evenodd" clip-rule="evenodd" d="M63.7841 361.685C69.2594 358.314 74.8424 354.891 80.4253 351.415L88.7581 346.357C91.6017 344.673 94.3411 343.093 97.2402 341.409C100.084 339.722 102.823 338.038 105.719 336.458C107.097 335.607 108.542 334.867 110.038 334.246L114.461 332.035C120.308 329.191 126.155 326.292 132.318 323.816C126.735 327.347 120.992 330.351 115.253 333.455C112.409 335.034 109.51 336.458 106.667 338.038C103.823 339.617 101.084 341.305 98.1846 342.833C95.3411 344.516 92.6017 346.096 89.706 347.624L81.1197 352.311L63.791 361.685H63.7841ZM131.884 328.08C131.884 328.08 111.712 343.565 105.181 348.516C98.6499 353.467 79.4254 367.373 79.4254 367.373L131.884 328.08Z" fill="#042420"/>
<path fill-rule="evenodd" clip-rule="evenodd" d="M247.654 452.96L237.332 433.42L243.335 408.98L286.155 392.443L267.931 355.05L276.937 317.285L293.846 283.468L346.096 275.253L384.489 238.647L467.394 244.914L483.667 333.558L452.329 445.165L434.476 502.946L362.105 505.686L328.503 482.406L289.159 465.97L247.654 452.96Z" fill="#B5F0E5"/>
<path fill-rule="evenodd" clip-rule="evenodd" d="M374.591 452.329C374.591 452.329 364.581 456.912 347.509 455.857C342.568 449.222 307.966 446.114 307.966 446.114C307.966 446.114 303.647 444.798 296.009 447.958C288.322 451.083 281.051 450.697 274.257 452.381C267.462 454.065 260.716 445.218 255.508 443.375C250.3 441.427 243.394 436.74 243.394 436.74L228.812 435.316L199.529 422.939L153.008 376.591L140.366 396.381L136.467 420.873L150.532 449.895L188.401 484.393L262.244 503.142L306.012 490.247L360.841 467.071L374.591 452.326V452.329Z" fill="#B5F0E5"/>
<path fill-rule="evenodd" clip-rule="evenodd" d="M112.239 288.526L121.614 260.139L132.783 241.807L168.753 238.804L157.955 270.302L127.884 323.816L140.366 371.587L118.246 382.645L111.448 372.219L105.972 348.307L105.604 321.444L112.239 288.526Z" fill="#B5F0E5"/>
<path fill-rule="evenodd" clip-rule="evenodd" d="M152.584 450.381L145.685 440.743C145.685 440.743 143.842 436.16 144.897 432.156C145.939 428.101 145.789 427.837 145.265 426.31C144.741 424.782 140.314 419.515 140.578 414.984C140.838 410.401 140.21 408.873 143.578 405.241C147.105 401.714 146.053 395.603 146.053 395.603L150.636 398.447L151.678 396.867C151.678 396.867 153.362 398.183 153.362 400.238C153.73 397.395 152.202 384.225 155.678 381.226C159.153 378.226 165.316 395.287 165.316 395.287L161.524 370.532L151.779 345.148L134.45 321.973L133.408 296.426V294.214C133.408 294.214 125.454 306.435 123.242 316.087C121.662 322.722 125.454 330.781 124.666 340.315C124.03 349.797 123.242 349.058 125.558 352.814C127.874 356.571 133.512 364.296 131.301 369.879C129.353 374.674 122.714 371.303 122.714 371.303C122.714 371.303 121.399 375.198 119.607 376.622C118.975 374.306 118.291 372.83 117.027 371.414C116.92 372.31 116.659 373.521 116.659 373.521C116.659 373.521 115.5 369.886 114.34 365.303C112.764 359.196 111.076 351.137 109.549 346.818C108.917 349.294 107.337 356.824 107.337 356.824L108.233 368.414L112.552 384.319L116.718 394.735L120.774 407.481L124.298 416.043L127.141 422.574L129.617 437.271L141.571 449.909L147.945 452.756L152.577 450.384L152.584 450.381Z" fill="#B5F0E5"/>
<path fill-rule="evenodd" clip-rule="evenodd" d="M118.506 265.352C118.506 265.352 109.92 279.934 107.448 294.634C104.976 309.335 102.761 324.869 104.323 344.881C105.903 365.057 108.906 377.431 111.33 386.281C115.496 400.978 126.287 421.414 126.287 421.414L126.655 420.623C124.841 417.185 123.394 413.566 122.336 409.825C120.912 404.242 120.385 397.607 119.069 394.604C117.909 391.604 115.961 389.021 115.013 385.333C114.118 381.806 113.972 376.223 111.222 372.063C110.062 370.376 108.639 365.953 108.219 361.529C107.691 354.891 108.483 347.464 107.851 341.357C106.691 331.191 105.903 324.292 106.955 318.97C108.007 313.647 113.489 298.537 116.861 286.527C119.072 278.837 117.753 272.358 121.808 265.667C125.863 259.032 128.342 253.186 129.235 249.13C130.276 245.443 118.492 265.352 118.492 265.352H118.506Z" fill="#B5F0E5"/>
<path fill-rule="evenodd" clip-rule="evenodd" d="M159.222 259.504C159.222 259.504 154.799 260.823 152.692 263.139C150.584 265.351 149.688 267.194 146.845 270.934C144.001 274.673 143.841 277.728 141.522 282.416C139.206 286.999 134.096 293.898 133.464 296.373C132.832 298.849 131.78 310.435 130.464 315.914C129.304 321.392 131.78 328.135 131.78 328.135L134.78 327.5C134.78 327.5 134.78 331.399 137.783 334.034C140.783 336.614 141.31 325.288 141.31 325.288L152.528 287.419L169.434 275.937L171.277 266.667L159.216 259.504H159.222Z" fill="#B5F0E5"/>
<path fill-rule="evenodd" clip-rule="evenodd" d="M167.437 276.677C167.437 276.677 159.483 277.201 155.587 280.048C154.007 281.204 153.376 282.152 151.692 283.575C148.584 286.155 145.421 288.527 143.897 291.908C142.21 295.276 140.366 300.387 139.102 310.025C138.574 314.08 138.574 317.82 138.206 321.087C137.679 325.51 136.891 329.038 137.311 331.503C137.838 336.558 143.053 339.193 143.56 344.933L154.358 339.457L164.524 299.373L186.12 285.832L173.899 272.139L167.423 276.652L167.437 276.677Z" fill="#B5F0E5"/>
<path fill-rule="evenodd" clip-rule="evenodd" d="M110.472 546.593C110.517 546.197 110.562 545.802 110.608 545.395C112.184 531.855 112.451 521.591 113.607 515.165C115.291 506.054 116.451 502.665 116.187 499.256C115.819 493.781 115.399 489.777 115.927 485.562C116.715 479.979 122.194 473.344 122.037 468.761C121.93 465.126 120.086 462.758 118.506 460.547C116.927 458.335 115.663 456.491 115.663 456.491C115.663 456.491 126.461 449.065 126.356 419.146C126.577 419.209 126.789 419.297 126.988 419.41L132.308 434.524L135.943 438.947L149.9 464.966L167.861 482.403L194.404 500.256L211.049 518.369L212.733 566.668L190.981 594.899L187.419 601.35C159.117 587.142 133.165 568.674 110.469 546.59L110.472 546.593Z" fill="#B5F0E5"/>
<path fill-rule="evenodd" clip-rule="evenodd" d="M176.919 592.799C176.919 592.799 177.287 586.796 182.238 582.897C183.03 584.213 183.554 585.48 183.398 586.424C184.294 584.848 190.561 574.734 204.73 572.099C218.899 569.519 222.323 559.197 222.323 559.197L252.394 531.862L286.787 500.208L328.607 485.511L348.151 480.716C348.151 480.716 348.519 482.139 347.783 485.299C351.415 485.038 359.473 483.195 367.848 480.244C371.219 478.928 374.382 478.4 376.066 480.14C378.542 482.455 378.91 487.934 379.066 491.198C383.121 490.302 387.808 486.406 391.565 486.774C397.572 487.406 402.891 494.465 409.002 494.465C417.06 494.465 420.692 489.514 426.33 485.615C429.702 483.299 434.545 480.407 437.284 478.452C443.815 473.657 512.919 452.537 512.919 452.537L537.146 454.117L541.045 480.136L538.962 548.153C538.705 548.399 538.448 548.656 538.188 548.902L428.028 606.437L275.33 629.845C241.124 624.257 208.116 612.903 177.711 596.267L176.93 592.795L176.919 592.799Z" fill="#B5F0E5"/>
<path fill-rule="evenodd" clip-rule="evenodd" d="M119.732 555.246C121.902 550.708 123.853 546.913 124.197 545.556C124.468 548.292 124.964 554.295 125.964 560.676C123.865 558.892 121.787 557.08 119.732 555.243V555.246Z" fill="#B5F0E5"/>
<path fill-rule="evenodd" clip-rule="evenodd" d="M231.277 619.256L251.026 613.763L252.71 614.291C252.71 614.291 253.605 614.818 253.605 616.607C256.081 615.186 258.188 615.447 259.716 614.503C260.504 616.186 261.292 621.769 264.771 622.453C268.403 623.245 272.302 620.874 276.253 617.874C280.149 614.766 284.586 610.867 287.943 609.288C289.175 611.553 290.266 613.891 291.211 616.291C295.634 612.763 303.324 598.438 314.279 598.698C317.445 591.216 322.734 584.826 329.493 580.317C339.659 573.418 346.03 572.891 353.984 573.522C357.144 569.419 361.037 565.936 365.466 563.252C366.782 563.78 370.417 565.992 374.948 563.884C379.531 561.78 384.691 553.614 391.485 552.562C395.147 552.058 398.87 552.84 402.019 554.774C402.019 554.774 421.81 535.126 435.465 528.595C434.937 527.015 433.885 521.064 449.895 507.895C450.791 508.686 450.159 510.898 450.791 511.02C451.051 511.02 454.957 509.336 459.901 505.541C466.012 500.961 473.331 496.166 477.754 494.85C486.087 492.375 494.927 497.43 494.927 497.43C495.678 496.903 496.516 496.511 497.402 496.27C499.506 495.902 501.034 495.639 502.194 495.229C502.089 497.968 503.617 502.656 502.194 506.711C503.843 507.638 505.589 508.38 507.402 508.922C506.509 510.87 504.558 515.821 501.294 518.193C504.03 519.509 504.398 521.036 508.297 522.359C506.718 524.571 504.131 528.366 502.978 530.692C501.819 533.167 497.656 543.438 495.812 547.333C493.864 551.232 491.232 558.395 489.965 559.832C488.698 561.27 484.118 567.363 480.591 570.363C483.716 569.203 496.499 565.308 501.923 563.832C500.308 566.2 492.125 578.342 484.257 590.018C446.588 612.596 404.539 626.887 360.912 631.937C317.286 636.988 273.084 632.682 231.253 619.308L231.277 619.256Z" fill="#B5F0E5"/>
<path fill-rule="evenodd" clip-rule="evenodd" d="M168.739 275.253C168.739 275.253 164.16 275.253 163.264 275.885C162.368 276.517 167.847 277.836 169.531 278.468C171.215 279.1 174.85 281.996 175.798 284.315C176.693 286.527 208.716 299.429 208.716 299.429L231.364 298.269L239.172 287.482L224.319 274.472L234.735 243.766L220.937 245.977L187.755 265.768L171.111 272.142L168.739 275.253Z" fill="#B5F0E5"/>
<path fill-rule="evenodd" clip-rule="evenodd" d="M218.476 285.419C218.803 285.949 219.264 286.384 219.813 286.679C220.361 286.975 220.978 287.121 221.6 287.103C226.288 287.103 230.603 288.263 232.395 290.631C235.398 294.426 243.72 306.539 243.72 306.539L263.629 313.702L264.914 290.259L243.161 275.146L218.406 284.256V285.416H218.462L218.476 285.419Z" fill="#B5F0E5"/>
<path fill-rule="evenodd" clip-rule="evenodd" d="M214.57 294.11C214.57 294.11 218.201 294.374 222.784 292.686C227.367 290.999 234.898 287.367 238.165 288.791C242.745 290.738 241.797 296.849 246.752 302.331C249.751 305.703 255.23 305.599 258.338 309.234C261.445 312.869 272.135 311.181 272.135 311.181L276.191 333.055L259.917 353.915L254.595 379.826H232.589L212.486 371.851L202.584 347.894L207.535 323.667L214.57 294.11Z" fill="#B5F0E5"/>
<path fill-rule="evenodd" clip-rule="evenodd" d="M257.136 295.161C257.682 295.329 258.249 295.418 258.82 295.425C258.188 295.953 256.869 297.109 257.397 300.112C257.924 303.116 259.608 306.907 258.188 309.223C259.322 310.462 260.167 311.937 260.664 313.542C261.56 316.125 261.823 318.493 267.667 318.865C266.824 319.384 266.046 320.003 265.351 320.708C265.351 320.708 269.406 324.236 271.462 327.499C273.566 327.409 279.149 325.673 279.149 325.673L280.308 326.465L282.784 325.423C282.784 325.423 280.468 324.527 282.152 318.892C283.732 313.941 285.155 314.205 285.277 313.837C285.398 313.469 286.436 308.254 286.436 306.147C287.225 303.411 287.857 295.088 287.857 295.088L286.173 276.708L276.694 270.965L268.986 263.524L261.716 277.218L256.928 281.992L256.56 293.842L257.136 295.161Z" fill="#B5F0E5"/>
<path fill-rule="evenodd" clip-rule="evenodd" d="M279.94 279.784C279.94 279.784 281.624 284.575 282.26 288.262C282.484 287.546 282.607 286.801 282.628 286.051C282.628 286.051 283.944 293.321 284.204 296.324C284.732 296.217 285.246 296.061 285.364 296.585C285.482 297.109 286.683 302.959 286.405 306.223C288.599 302.605 291.634 299.57 295.252 297.376C297.359 296.057 299.835 294.637 302.418 294.529C306.473 294.425 309.421 297.113 314.268 297.113C325.958 297.113 336.548 288.526 344.343 285.895C350.082 283.943 355.033 282.523 358.508 279.36C360.196 277.94 363.199 274.781 365.935 270.09C369.57 263.84 373.362 258.4 377.156 257.716C375.439 258.031 373.693 258.155 371.948 258.084C371.948 258.084 373.108 256.924 375.073 255.344C377.038 253.765 379.392 251.817 382.76 251.817C388.767 251.817 391.767 252.709 395.138 252.709C398.509 252.605 400.457 251.817 400.457 251.817C400.457 251.817 403.988 254.292 411.939 254.292C419.893 254.397 425.212 255.081 429.375 255.452C433.538 255.824 447.492 254.292 451.495 254.41C454.105 254.511 456.668 255.138 459.03 256.254L446.124 218.757L399.766 178.238L372.167 197.779L329.712 240.231L288.631 255.452L280.045 265.09V279.784H279.94Z" fill="#B5F0E5"/>
<path fill-rule="evenodd" clip-rule="evenodd" d="M372.115 258.293C372.115 258.293 373.275 257.136 375.219 255.557C377.163 253.977 379.542 252.026 382.91 252.026C388.913 252.026 391.916 252.921 395.287 252.921C398.659 252.817 400.606 252.026 400.606 252.026C400.606 252.026 404.141 254.498 412.088 254.498C420.043 254.602 425.362 255.286 429.525 255.654C433.688 256.022 447.641 254.498 451.645 254.612C454.254 254.711 456.816 255.338 459.175 256.456L453.329 239.547L446.537 226.645L427.153 205.418C427.153 205.418 403.891 191.724 403.714 191.62C403.61 191.516 395.655 189.408 395.655 189.408L374.587 202.154L355.47 251.613L355.102 262.029L367.477 267.875C370.584 262.667 374.011 258.501 377.222 257.973C374.323 258.289 372.112 258.289 372.112 258.289L372.115 258.293Z" fill="#B5F0E5"/>
<path fill-rule="evenodd" clip-rule="evenodd" d="M371.851 261.823C370.008 261.928 368.483 261.56 368.06 260.244C366.48 255.82 365.216 255.188 363.893 255.188C362.571 255.188 360.786 258.032 359.727 258.292C358.668 258.553 357.411 255.029 357.411 255.029L356.252 254.501C356.252 254.501 349.457 258.924 344.665 264.139C339.874 269.354 332.024 278.204 328.496 279.781C324.969 281.357 312.852 281.888 308.706 282.784C304.56 283.68 299.963 286.683 299.332 287.367C298.7 288.051 301.179 288.787 301.547 289.471C301.915 290.103 297.488 289.839 297.12 290.513C296.86 291.04 298.161 294.04 298.807 295.568C299.937 295.006 301.177 294.7 302.439 294.672C306.494 294.568 309.446 297.255 314.289 297.255C325.983 297.255 336.569 288.669 344.363 286.034C350.106 284.086 355.057 282.662 358.533 279.503C360.217 278.083 363.22 274.92 365.959 270.233C367.959 267.021 369.91 264.018 371.862 261.806L371.851 261.823Z" fill="#B5F0E5"/>
<path fill-rule="evenodd" clip-rule="evenodd" d="M204.154 522.487C204.154 522.487 203.112 518.588 193.46 508.53C190.72 505.686 189.036 503.322 187.193 501.631C182.61 497.308 179.922 496.152 176.659 493.676C169.496 488.357 161.701 488.357 155.698 481.826C149.695 475.296 142.699 462.817 137.838 450.065C133.047 437.319 131.728 433.264 131.728 432.896C131.728 432.528 133.047 430.052 134.731 430.42C136.415 430.788 136.415 434.052 136.838 434.843C137.677 436.135 138.629 437.351 139.682 438.475C142.158 441.322 145.685 444.725 147.477 449.801C147.109 445.482 145.633 440.69 145.633 440.69C145.633 440.69 154.903 446.537 162.802 452.644C170.756 458.755 174.02 460.863 176.343 464.758C178.666 468.654 184.138 478.927 186.759 481.931C189.38 484.934 225.298 496.256 225.298 496.256L242.384 508.995L250.866 527.587L244.227 538.003L231.482 540.743L210.782 531.473L204.154 522.484V522.487Z" fill="#B5F0E5"/>
<path fill-rule="evenodd" clip-rule="evenodd" d="M158.167 458.44C158.167 458.44 162.486 465.339 173.02 471.869C182.502 477.612 197.512 482.827 210.893 485.935C218.58 487.778 226.27 489.198 233.169 489.306C251.762 489.566 264.56 484.251 280.416 482.511C289.002 481.615 299.536 480.931 310.491 478.345C324.552 474.973 332.875 471.179 344.2 465.846C352.415 462.054 359.949 459.211 366.056 455.575C374.643 450.52 380.91 444.885 388.18 443.201C387.284 445.677 386.336 450.1 379.174 454.683C382.965 454.575 388.18 454.315 388.18 454.315C388.18 454.315 383.125 457.315 374.223 464.057C368.744 468.224 361.477 475.276 354.05 479.963C349.255 482.966 344.041 485.171 340.617 486.969C332.284 491.552 328.923 493.868 323.448 499.468C325.396 499.364 325.556 499.468 325.556 499.468C325.556 499.468 318.653 500.364 313.706 502.996C312.664 502.996 310.859 502.628 307.699 503.524C305.224 504.312 301.956 506.107 298.589 507.051C293.794 508.475 292.217 507.843 292.217 507.843L293.006 509.423C293.006 509.423 286.756 509.315 284.673 509.527C285.041 509.631 284.937 509.791 284.937 509.791C284.571 509.852 284.218 509.977 283.895 510.159C282.893 510.808 281.79 511.288 280.631 511.579C279.999 511.683 279.472 511.683 278.68 511.843C278.944 512.475 280.999 516.009 281.947 518.092C281.159 518.62 269.306 527.574 269.306 527.574C269.673 528.153 269.974 528.771 270.201 529.418C270.57 530.574 270.729 532.261 271.097 533.05C271.99 534.629 272.517 534.893 272.517 534.893C272.517 534.893 271.097 535.157 268.618 535.789C266.514 536.317 263.931 537.209 260.285 537.737C259.167 537.882 258.042 537.97 256.914 538.001C257.442 539.16 259.758 543.584 255.491 548.691C251.224 553.798 249.908 554.541 248.592 557.805C247.929 557.304 247.224 556.863 246.484 556.486C245.064 555.854 243.113 554.909 242.429 553.642C242.03 555.33 241.502 556.986 240.849 558.593C239.533 562.121 237.586 565.6 237.217 568.231C235.794 566.652 233.162 563.544 229.527 564.176C225.892 564.808 222.996 569.759 222.364 571.183C222.364 570.287 221.732 569.603 221.576 570.655C221.468 571.814 219.469 583.925 208.303 593.723C208.199 591.247 208.199 585.768 207.935 583.98C206.893 585.022 205.619 586.56 198.032 589.827C190.606 593.091 191.783 596.358 191.783 596.358C191.783 596.358 191.151 591.15 195.154 585.664C199.21 580.189 201.685 577.606 201.685 577.186C201.62 576.758 201.437 576.356 201.157 576.026C200.63 575.498 199.578 574.866 199.578 574.446C200.209 574.186 206.476 571.183 206.108 564.964C205.74 559.385 203.372 556.486 201.685 554.434C201.425 554.17 204.164 552.222 203.793 551.59C203.529 551.222 200.161 548.743 199.737 547.424C199.837 546.636 200.014 545.861 200.265 545.108C200.633 543.948 200.897 543.157 200.793 542.368C200.529 541.053 199.105 537.417 198.685 537.049C199.053 537.154 201.685 537.049 201.685 537.049C201.685 537.049 199.581 533.678 199.21 532.098C198.838 530.519 198.05 526.356 197.63 525.567C198.526 525.672 200.737 525.828 200.737 525.567C200.845 524.776 198.789 523.46 199.696 522.443C200.327 522.547 201.539 523.075 202.695 524.55C202.063 522.863 201.011 519.599 198.796 518.283C199.838 517.915 203.379 516.964 206.487 518.807C209.594 520.651 210.653 523.231 210.653 523.231C210.653 523.231 212.497 524.654 215.344 526.762C218.608 529.342 222.767 533.011 229.405 535.608C230.829 536.4 234.461 536.4 237.096 535.872C238.243 535.599 239.343 535.155 240.36 534.556C240.727 534.34 241.115 534.163 241.519 534.029C240.953 532.892 240.302 531.8 239.572 530.762C240.467 530.762 241.519 530.869 241.519 530.869C241.519 530.869 242.151 529.446 239.308 526.703C239.94 526.071 240.731 525.661 240.731 524.595C239.835 524.491 238.256 523.175 237.888 522.647C238.412 522.279 239.203 521.068 240.099 520.7C239.308 520.068 237.36 517.433 236.464 517.172C237.32 516.854 238.148 516.467 238.94 516.012C238.94 516.012 234.516 514.853 233.093 513.905C231.669 512.863 229.565 511.061 228.301 510.534C226.982 510.006 224.666 509.746 223.718 508.69C224.611 508.954 226.034 508.69 227.09 508.69C227.878 508.69 228.249 508.794 228.51 508.794C228.406 508.426 228.406 507.635 230.461 507.374C231.45 507.225 232.409 506.923 233.305 506.478C233.305 506.478 231.353 506.374 229.138 504.267C226.923 502.159 225.083 500.475 223.819 500.211C222.503 499.948 220.028 501.107 218.5 501C216.392 500.739 215.497 499.684 215.497 499.684C215.497 499.684 208.494 500.316 192.956 490.837C179.523 482.619 173.676 475.352 173.676 475.352C172.419 474.896 171.204 474.331 170.045 473.664C164.989 471.033 157.983 465.554 158.195 458.388L158.167 458.44Z" fill="#B5F0E5"/>
<path fill-rule="evenodd" clip-rule="evenodd" d="M351.939 142.314C353.158 142.71 354.241 143.44 355.064 144.421C357.54 147.265 359.119 152.636 353.484 158.379C355.696 159.167 356.609 159.42 358.54 159.167C356.592 161.486 352.168 166.437 351.905 170.756C351.641 174.284 353.852 175.339 353.852 175.339C353.852 175.339 350.481 179.235 350.325 185.755C351.917 183.96 353.659 182.304 355.533 180.804C359.432 177.697 364.803 174.169 368.438 171.958C368.389 172.885 368.514 173.813 368.806 174.694C368.806 174.694 375.597 169.111 381.305 171.59C383.885 172.749 382.725 176.381 382.725 176.381C382.725 176.381 386.257 175.065 388.732 177.541C391.208 180.016 394.707 186.401 396.502 188.877C397.291 190.036 399.346 192.248 401.45 195.672C404.324 200.464 406.725 205.526 408.616 210.785C408.72 208.046 409.404 203.782 417.202 206.466C424.997 209.205 433.844 214.948 441.27 226.256C448.697 237.565 450.537 250.331 454.276 255.192C458.068 259.879 461.967 267.674 462.231 270.941C462.495 274.208 461.071 284.739 468.866 313.233C471.077 304.387 474.449 284.739 474.449 284.739L476.292 267.41L478.4 213.792L422.41 167.277L378.642 135.516L350.148 138.255L351.936 142.31L351.939 142.314Z" fill="#B5F0E5"/>
<path fill-rule="evenodd" clip-rule="evenodd" d="M455.964 222.107C455.964 222.107 455.172 216.899 442.007 208.046C428.837 199.303 418.567 199.303 409.088 191.877C401.818 186.03 394.235 172.597 389.298 168.173C384.503 163.802 383.715 151.161 383.715 151.161L399.884 137.62L423.931 102.862L444.26 80.4775L454.002 94.0183L467.543 109.924L475.074 141.842L477.813 188.561L455.94 222.111L455.964 222.107Z" fill="#B5F0E5"/>
<path fill-rule="evenodd" clip-rule="evenodd" d="M472.241 278.107C472.639 271.022 471.764 263.923 469.657 257.147C466.185 246.349 458.599 227.176 455.075 219.996C453.652 212.042 454.707 211.41 456.235 210.514C457.762 209.618 463.505 206.348 466.651 194.873C469.796 183.398 479.556 183.023 479.556 183.023L485.559 178.6L494.673 201.404L502.624 222L505.1 237.749L506.943 251.178L502.624 279.569L481.296 298.845L472.237 278.107H472.241Z" fill="#B5F0E5"/>
<path fill-rule="evenodd" clip-rule="evenodd" d="M174.603 594.541V593.958C175.047 593.681 175.438 593.329 175.76 592.917C176.128 592.389 176.395 591.757 176.655 591.601C177.183 591.337 179.659 590.559 180.975 590.809C182.29 591.059 185.769 592.493 187.613 592.389C191.404 592.285 195.828 589.385 202.834 590.705C213.368 592.653 215.844 599.815 221.955 603.871C226.121 606.718 230.433 605.45 231.065 605.45H232.485C232.749 605.45 234.697 603.239 235.752 603.346C237.86 603.451 238.068 605.19 239.384 605.294C242.491 605.662 248.498 603.714 251.501 604.506C252.392 604.785 253.202 605.275 253.862 605.935C254.522 606.594 255.013 607.404 255.293 608.294C255.925 610.242 255.397 612.717 253.869 614.141C250.605 617.141 247.498 619.988 246.866 622.474C247.67 623.086 248.442 623.74 249.178 624.432C223.118 617.792 198.045 607.753 174.603 594.573V594.541Z" fill="#B5F0E5"/>
<path fill-rule="evenodd" clip-rule="evenodd" d="M455.068 489.306C455.068 489.306 463.283 478.352 466.13 472.925C468.973 467.331 457.124 396.503 457.124 396.503L480.931 318.501L480.296 293.113C480.296 293.113 481.455 269.674 484.195 259.508C487.462 265.355 497.628 272.413 499.84 276.153C500.881 268.986 504.419 253.873 503.895 237.756C505.843 240.756 510.53 270.938 510.53 270.938L515.217 291.266L521.328 312.862L528.122 335.67L532.178 351.419L534.494 355.21L536.445 361.845L538.288 369.011L543.608 385.812L546.732 399.61L549.208 424.629C549.746 426.545 550.134 428.5 550.368 430.476C550.472 433.216 550 434.795 550 435.271C550 435.747 550.895 441.274 550.527 445.437C550 449.603 550 452.864 546.732 455.853C543.465 458.842 541.413 476.709 541.413 476.709L535.566 472.814C535.566 472.814 536.726 467.491 533.987 462.648C531.247 457.804 525.928 456.801 522.925 457.592C519.925 458.224 513.922 459.169 511.971 460.856C510.127 462.54 505.6 467.755 501.437 470.126C496.229 473.251 487.743 473.498 483.216 474.55C478.633 475.591 473.577 478.716 468.255 482.344C464.082 485.046 459.675 487.37 455.089 489.288L455.068 489.306Z" fill="#B5F0E5"/>
<path fill-rule="evenodd" clip-rule="evenodd" d="M455.068 604.388C455.068 604.388 455.415 604.614 456.085 604.982C493.505 587.45 527.033 562.599 554.69 531.896C554.388 521.237 553.996 510.311 553.565 506.263C552.673 497.676 553.305 488.934 553.041 483.879C552.777 478.823 549.934 458.228 548.618 452.908C547.194 447.589 544.451 444.954 544.035 444.954C543.667 445.062 541.451 454.964 541.451 457.453C541.451 459.943 540.924 465.935 540.924 467.463C540.556 467.355 540.399 466.421 540.399 466.04C539.872 467.355 539.24 469.675 538.976 469.939C538.712 470.202 539.344 467.727 538.976 467.199C538.608 466.671 537.934 466.935 538.08 465.619C538.143 464.839 538.266 464.065 538.448 463.304C538.448 463.304 536.868 465.619 535.712 471.518C534.553 477.365 534.553 477.525 534.132 478.049C533.764 478.685 531.657 480.789 531.549 481.58C531.445 483 533.501 484.424 533.657 485.212C533.761 486.531 531.813 492.639 531.181 495.628C530.549 498.617 530.813 504.475 530.14 507.478C529.612 510.217 529.098 511.797 527.296 512.953C528.612 513.217 529.876 513.585 529.876 513.585C529.876 513.585 531.719 521.38 527.032 528.018C525.348 530.334 524.928 531.39 523.137 533.497C519.606 537.393 516.866 541.83 516.602 544.715C516.42 543.864 516.297 543 516.234 542.132C516.234 542.132 510.759 548.506 508.44 552.142C505.44 556.829 501.277 556.565 500.107 557.725C498.937 558.884 498.683 560.988 499.065 562.676C498.024 562.936 496.065 563.308 494.746 567.363C494.114 569.467 492.534 571.529 490.059 572.946C487.583 574.362 484.58 574.79 483.052 575.158C484.368 575.526 484.896 575.526 485.528 575.946C484.74 577.262 481.105 579.317 477.049 581.952C472.994 584.428 471.043 588.06 470.043 590.431C469.001 592.643 467.463 594.066 464.988 594.33C466.029 594.962 467.571 596.434 468.359 596.91C467.199 597.173 465.234 597.174 461.724 600.177C458.037 603.232 456.773 604.128 455.085 604.392L455.068 604.388Z" fill="#B5F0E5"/>
<path fill-rule="evenodd" clip-rule="evenodd" d="M381.781 628.796C383.798 627.383 385.982 626.225 388.284 625.349C396.499 622.085 405.189 621.453 408.613 620.401C411.88 619.359 414.46 617.922 418.515 617.134C418.407 618.057 418.317 618.925 418.22 619.745C406.264 623.503 394.089 626.526 381.764 628.796H381.781Z" fill="#B5F0E5"/>
<path fill-rule="evenodd" clip-rule="evenodd" d="M533.299 412.724C533.299 412.724 531.615 421.834 528.612 427.577C525.609 433.32 522.362 441.271 522.362 441.271C522.382 439.479 522.594 437.695 522.994 435.948C519.203 438.16 509.985 443.482 507.37 445.85C504.895 448.062 500.732 451.961 499.68 453.805C502.155 446.538 504.735 440.007 505.159 437.004C501.367 439.743 483.667 454.332 474.452 463.971L445.746 487.198C442.433 488.985 439.022 490.583 435.528 491.983C430.58 494.087 424.733 495.878 420.414 497.566C421.574 494.458 423.414 491.715 425.997 489.084C428.736 486.504 436.951 477.602 438.215 473.46C439.375 469.14 439.639 466.561 438.111 462.926C436.687 463.294 433.424 463.453 431.212 464.085C429 464.717 426.629 467.085 426.629 467.085C426.629 467.085 428.313 457.447 431.948 448.336C429.209 448.44 424.521 449.228 424.521 449.228C424.521 449.228 431.052 438.274 442.229 430.639C438.806 431.368 435.457 432.407 432.222 433.743C425.692 436.483 418.529 440.538 413.21 442.75C416.21 438.583 437.278 408.516 449.815 380.493C462.314 352.526 466.984 345.364 469.723 330.354C471.144 322.928 470.765 311.953 471.144 302.123C471.512 292.377 472.723 283.635 471.935 277.788C475.199 281.843 487.42 293.273 487.84 318.82C488.208 344.364 476.15 378.865 463.349 397.454C466.474 398.35 474.57 399.405 482.889 384.955C491.208 370.504 491.108 366.47 494.111 360.463C494.479 363.467 494.371 364.519 494.371 364.519C494.371 364.519 506.488 349.825 512.228 331.337C513.387 339.291 516.811 346.298 511.436 360.887C506.645 374.053 500.378 377.268 500.378 377.268C500.378 377.268 503.485 376.74 508.065 374.001C508.856 375.948 508.7 378.167 510.016 378.952C511.332 379.736 513.123 381.059 513.387 382.323C514.807 380.216 517.019 377.528 517.706 375.528C517.179 379.695 516.811 397.912 518.748 407.183C522.807 406.815 526.966 406.551 529.81 399.228C527.862 406.394 527.862 410.71 529.178 416.821C531.338 415.349 533.285 412.713 533.285 412.713L533.299 412.724Z" fill="#B5F0E5"/>
<path fill-rule="evenodd" clip-rule="evenodd" d="M396.447 122.405C396.447 122.405 392.392 124.089 385.493 124.089C379.49 124.089 381.173 121.773 371.799 121.773C357.369 121.773 306.963 130.106 298.113 129.988C292.37 129.884 317.494 132.464 317.494 132.464L381.701 133.36L394.603 132.318L399.398 122.562L396.447 122.405Z" fill="#042420"/>
<path fill-rule="evenodd" clip-rule="evenodd" d="M229.957 247.918C229.957 247.918 221.739 254.185 218.264 258.98C214.788 263.774 212.945 266.93 208.994 270.829C209.921 270.865 210.848 270.74 211.733 270.461C211.733 270.461 211.733 271.503 211.101 271.777C211.647 271.716 212.2 271.778 212.719 271.958C213.238 272.139 213.71 272.433 214.101 272.819C212.941 273.451 209.782 276.614 212.257 280.353C214.101 283.197 218 283.457 218 283.457C218 283.457 217.104 286.04 220.843 285.776C228.902 285.408 237.908 281.877 242.068 282.773C246.234 283.815 248.602 284.197 251.55 289.307C254.675 294.363 257.397 295.154 257.397 295.154C257.397 295.154 259.24 290.464 258.82 283.461C260.332 279.686 261.17 275.675 261.296 271.611L258.556 251.438L246.602 236.321L231.117 244.908L229.957 247.907V247.918Z" fill="#B5F0E5"/>
<path fill-rule="evenodd" clip-rule="evenodd" d="M244.651 244.915C244.651 244.915 245.811 247.655 250.658 247.915C250.13 249.075 250.13 249.235 250.29 250.127C250.394 251.023 250.55 252.338 250.55 252.338C251.084 252.08 251.566 251.727 251.973 251.297C252.237 252.457 251.71 254.297 251.973 255.616C252.136 256.418 252.401 257.197 252.762 257.932C252.838 257.752 252.927 257.577 253.025 257.408C253.13 257.144 254.067 260.251 256.661 262.616C256.658 262.252 256.748 261.894 256.921 261.574C256.961 262.234 257.179 262.872 257.553 263.418C257.359 263.325 257.182 263.201 257.029 263.05C257.029 263.05 257.289 271.382 258.713 275.691C258.95 275.413 259.162 275.113 259.345 274.795C259.345 274.535 259.24 277.115 258.976 278.962C258.608 280.805 258.872 283.385 258.872 283.385C259.822 282.638 260.865 282.018 261.976 281.541C263.556 280.906 266.143 278.958 267.719 274.639C268.633 272.193 269.338 269.674 269.826 267.108C270.336 268.089 270.687 269.143 270.868 270.233C270.976 271.549 273.451 270.865 273.451 270.865L273.979 265.122L277.104 252.113L279.947 244.054L293.641 222.726L318.382 203.671L339.978 208.623L358.199 183.867L326.809 165.011L297.103 168.118L270.142 205.46L248.55 239.329L244.651 244.912V244.915Z" fill="#B5F0E5"/>
<path fill-rule="evenodd" clip-rule="evenodd" d="M400.238 190.877C400.238 190.877 398.395 191.245 393.075 194.002C387.756 196.759 384.069 197.634 382.014 201.689C379.958 205.744 379.802 208.959 379.802 208.959C379.802 208.959 383.437 207.379 385.545 206.852C387.756 206.327 390.232 206.484 389.968 207.379C389.715 207.994 389.363 208.562 388.926 209.063C388.926 209.063 393.093 208.959 392.982 211.015C392.871 213.07 392.194 215.334 391.405 216.334C390.614 217.375 387.35 218.917 386.982 220.129C386.086 222.604 387.35 222.708 386.875 224.708C386.506 226.659 384.77 230.451 379.08 237.086C373.233 243.724 370.747 248.412 370.747 248.412C370.747 248.412 367.903 243.092 366.428 238.509C365.386 239.034 359.793 242.141 359.793 242.141L346.835 197.005L347.096 194.002C347.096 194.002 348.255 192.582 348.519 189.947C346.572 189.315 346.308 188.787 343.724 186.315C341.141 183.843 339.037 180.836 334.722 178.781C334.09 177.621 333.298 176.045 330.139 175.409C326.979 174.774 325.083 174.253 325.083 174.253C325.083 174.253 326.767 173.618 327.559 172.302C325.608 172.566 324.031 173.198 319.764 173.093C315.445 172.986 314.969 172.83 312.601 173.198C310.234 173.566 307.393 174.621 306.335 170.986C305.175 170.09 302.699 170.882 300.592 173.986C298.484 177.09 297.748 179.569 293.693 180.78C293.408 182.568 292.782 184.284 291.849 185.836C290.69 187.787 288.846 189.735 286.371 192.63C282.471 197.213 283.103 204.744 276.888 210.487C270.622 216.226 277.93 194.578 277.93 194.578L287.936 170.621L316.431 142.759L360.675 139.759L364.994 162.674L386.59 170.101L400.231 190.905L400.238 190.877Z" fill="#B5F0E5"/>
<path fill-rule="evenodd" clip-rule="evenodd" d="M407.245 195.932L388.652 169.125L375.643 159.115C375.643 159.115 366.372 142.053 365.74 141.526C365.213 141.158 356.47 140.21 350.887 139.842L351.929 142.422C353.147 142.817 354.23 143.548 355.054 144.529C357.529 147.373 359.109 152.744 353.474 158.486C355.686 159.275 356.599 159.528 358.529 159.275C356.581 161.594 352.158 166.545 351.894 170.864C351.63 174.392 353.842 175.444 353.842 175.444C353.842 175.444 350.471 179.343 350.314 185.86C351.906 184.064 353.649 182.408 355.522 180.909C359.421 177.784 364.793 174.27 368.428 172.058C368.378 172.987 368.503 173.916 368.796 174.798C368.796 174.798 375.587 169.215 381.295 171.69C383.875 172.85 382.715 176.485 382.715 176.485C382.715 176.485 386.246 175.169 388.722 177.645C391.197 180.12 394.725 186.492 396.516 188.971C397.304 190.13 399.36 192.342 401.464 195.762C404.339 200.556 406.739 205.619 408.63 210.879C408.734 208.771 409.158 205.824 412.796 205.824L407.266 195.922L407.245 195.932Z" fill="#B5F0E5"/>
<path fill-rule="evenodd" clip-rule="evenodd" d="M128.516 272.093C128.516 272.093 127.2 268.826 128.516 262.455C129.832 256.084 131.887 253.081 132.571 243.706C133.255 234.332 139.366 222.638 139.366 222.638L156.271 214.951L168.229 218.215L171.756 234.228L156.639 242.561C156.639 242.561 155.851 246.088 151.584 248.932C147.317 251.775 141.418 253.987 139.998 256.886C139.149 258.661 138.53 260.537 138.154 262.469C138.154 262.469 133.835 261.573 131.256 264.417C128.516 267.316 128.62 269.896 128.516 272.107V272.093Z" fill="#B5F0E5"/>
<path fill-rule="evenodd" clip-rule="evenodd" d="M162.646 267.826C162.646 267.826 161.222 268.722 160.17 270.951C159.129 269.267 156.639 259.257 156.535 250.251C156.431 241.245 155.893 239.012 157.976 235.908C160.059 232.804 168.229 229.534 167.069 223.944C165.91 218.625 161.063 216.413 155.112 217.941C150.945 218.982 147.845 227.843 143.526 232.266C140.258 235.637 136.363 235.11 135.311 236.953C133.887 239.429 135.203 241.904 134.783 243.484C134.675 244.012 133.36 246.855 130.988 250.279C126.197 257.178 118.086 266.924 117.031 275.666C117.399 270.715 117.138 270.611 118.454 265.132L117.663 263.816L122.871 246.751L126.242 232.69L133.776 209.143L147.046 185.075L159.952 170.642L173.381 171.537L174.961 191.71L182.652 229.582L198.821 249.491L172.906 266.931L162.635 267.826H162.646Z" fill="#B5F0E5"/>
<path fill-rule="evenodd" clip-rule="evenodd" d="M170.704 274.982C170.704 274.982 168.493 275.51 167.701 275.09C166.909 274.67 166.125 274.194 166.385 273.666C166.646 273.138 168.069 272.246 168.069 271.823C168.098 271.44 167.977 271.061 167.732 270.766C167.486 270.471 167.135 270.283 166.753 270.243C165.541 270.087 165.173 270.875 165.173 270.875C165.173 270.875 164.014 269.982 163.069 269.833C163.628 269.765 164.19 269.729 164.753 269.725C163.298 269.066 161.754 268.623 160.17 268.41C161.486 267.621 164.069 265.302 165.753 265.302C167.437 265.302 168.493 265.042 168.229 264.146C167.965 263.25 166.649 261.934 165.229 261.407C165.753 260.775 166.125 259.827 164.861 257.24C163.542 254.66 164.069 252.921 164.493 252.293C164.861 251.501 166.177 250.081 166.809 249.185C167.441 248.289 167.968 247.078 169.02 246.446C169.548 246.078 171.232 245.404 172.919 244.762C174.763 244.13 176.291 243.338 177.343 244.13C178.502 244.918 177.975 245.974 177.975 245.974C177.975 245.974 181.61 244.654 184.874 246.342C188.141 247.918 196.095 248.921 196.095 248.921L198.946 254.664L180.089 270.833L172.295 274.732L170.715 274.993L170.704 274.982Z" fill="#B5F0E5"/>
<path fill-rule="evenodd" clip-rule="evenodd" d="M196.88 248.55C196.88 248.55 191.033 252.449 189.717 253.869C190.505 253.977 191.821 254.505 191.293 255.293C190.661 256.081 186.87 258.82 184.762 261.404C182.551 263.983 180.443 267.25 179.707 268.83C178.919 270.25 172.913 274.413 170.861 274.937C175.18 274.937 183.87 269.618 187.134 269.618C187.03 271.198 188.03 272.99 189.873 273.146C191.717 273.302 197.036 274.305 204.199 269.882C211.361 265.563 208.994 262.348 211.993 260.244C217.736 256.449 220.052 253.078 223.211 250.974C226.371 248.87 228.006 248.39 228.006 248.39C228.006 248.39 228.11 246.811 229.048 246.97C229.304 247 229.548 247.099 229.752 247.257C229.957 247.415 230.114 247.625 230.207 247.866C230.207 247.866 235.686 243.967 242.707 242.915C242.543 242.842 242.412 242.711 242.339 242.547C242.339 242.547 242.863 242.283 242.971 242.019C242.971 242.019 243.339 241.492 243.602 241.755C243.866 242.019 244.234 243.967 244.762 244.759C245.922 244.231 248.133 239.28 248.133 239.28L253.456 224.059V210.153L249.29 210.945L218.042 224.215L199.078 243.863L196.866 248.55H196.88Z" fill="#B5F0E5"/>
<path fill-rule="evenodd" clip-rule="evenodd" d="M286.839 180.342C288.53 179.932 290.15 179.275 291.648 178.391C291.016 180.078 291.016 181.922 288.277 185.925C285.537 189.929 285.433 190.508 283.221 194.668C281.01 198.987 280.746 205.202 278.638 207.938C279.583 207.479 280.596 207.177 281.638 207.046C281.638 207.046 279.534 208.889 278.638 210.837C277.743 212.785 276.163 216.84 272.267 219.319C268.372 221.798 263.417 223.374 258.098 229.221C252.775 234.96 247.3 242.231 244.557 244.845C245.981 242.37 247.929 237.419 248.456 234.155C248.984 230.891 248.349 226.989 249.244 222.673C250.14 218.357 250.14 215.246 254.452 207.712C258.765 200.178 266.146 174.002 266.146 174.002L282.051 168.947L286.846 180.325L286.839 180.342Z" fill="#B5F0E5"/>
<path fill-rule="evenodd" clip-rule="evenodd" d="M275.357 170.704C275.357 170.704 270.566 177.603 269.25 183.714C267.934 189.825 269.142 189.297 268.354 192.3C267.883 194.131 267.883 196.052 268.354 197.883C270.014 195.21 272.286 192.97 274.982 191.349C279.513 188.613 283.201 186.662 285.398 184.346C287.61 181.87 289.454 177.815 294.245 174.708C292.297 174.444 289.558 173.548 289.037 173.666C290.988 171.454 296.832 168.083 302.731 164.028C308.577 159.861 308.209 158.181 317.691 154.021C314.584 154.549 313.108 153.758 310.525 154.021C311.567 151.81 315.212 150.754 318.858 147.123C322.504 143.491 316.542 138.116 316.542 138.116L288.766 154.917L275.336 170.718L275.357 170.704Z" fill="#B5F0E5"/>
<path fill-rule="evenodd" clip-rule="evenodd" d="M199.987 158.167L200.619 153.112L208.573 140.366L216.896 117.982V87.38L216.264 69.6832L217.58 58.0936L218.58 54.4099L219.635 52.9863L226.426 56.5139L235.804 69.2596L236.7 93.8587L227.586 132.676L201.567 161.066L199.987 158.167Z" fill="#B5F0E5"/>
<path fill-rule="evenodd" clip-rule="evenodd" d="M220.687 51.5632C220.687 51.5632 216.521 51.6708 215.632 68.9995C214.743 86.3283 214.313 95.4388 213.681 104.025C213.049 112.611 211.577 117.823 210.837 122.882C210.098 127.94 209.678 134.836 207.31 139.051C206.268 140.998 204.042 147.109 198.828 151.692C192.981 156.747 184.245 160.278 182.922 160.542C180.603 161.067 168.857 162.226 164.066 164.861C162.382 165.757 159.483 166.809 156.271 169.813C149.897 175.552 141.418 185.822 135.307 198.2C125.933 216.688 116.558 268.883 116.558 268.883L118.666 265.355C118.666 265.355 118.93 260.668 123.617 252.45C128.2 244.235 126.884 235.017 133.255 219.268C135.731 213.265 138.838 205.47 142.63 198.831C148.636 188.034 155.903 178.763 163.226 173.708C175.18 165.493 188.349 163.702 188.349 163.702L202.518 154.327C202.518 154.327 204.994 149.536 208.261 144.057C212.841 136.37 218.677 127.784 219.951 115.302C221.902 96.8137 217.212 84.6999 217.476 73.7458C217.739 62.7916 217.844 54.7331 220.059 52.7818C222.274 50.8306 220.691 51.5701 220.691 51.5701L220.687 51.5632Z" fill="#042420"/>
<path fill-rule="evenodd" clip-rule="evenodd" d="M220.687 134.255C220.687 134.255 226.937 118.874 229.798 105.233C230.326 102.494 231.378 99.7576 231.641 97.546C232.957 84.6406 233.325 79.3215 231.641 72.2629C230.326 67.0549 225.27 62.3607 222.635 58.7221C220.055 54.9272 218.844 53.5141 219.371 52.7155C219.899 51.917 221.951 50.6115 223.951 50.7677C226.077 50.8296 228.168 51.3232 230.097 52.2185C232.026 53.1138 233.753 54.3921 235.172 55.9757C239.228 60.6629 242.439 76.5716 242.439 76.5716L245.818 97.5633L254.404 124.003L220.694 134.276L220.687 134.255Z" fill="#B5F0E5"/>
<path fill-rule="evenodd" clip-rule="evenodd" d="M279.413 118.246C279.413 118.246 278.253 118.77 276.149 118.246C276.239 119.106 276.089 119.974 275.718 120.754C275.346 121.535 274.766 122.197 274.041 122.669C271.83 121.774 251.126 123.565 251.126 123.565C251.126 123.565 241.488 121.878 238.485 109.132C236.381 100.65 240.064 88.9597 238.853 81.2693C237.009 69.9436 234.429 67.7285 234.166 64.2044C233.902 60.6803 233.638 59.781 233.638 57.5694C232.478 57.3055 231.794 56.9375 230.638 56.9375C230.374 55.8959 230.898 54.9862 229.742 53.1426C230.374 53.4065 234.693 53.9342 239.748 58.7256C243.915 62.6246 243.915 64.0447 244.543 64.8363C245.331 65.6244 251.706 71.0859 254.445 76.53C257.185 81.9741 262.504 99.3341 263.716 102.178C264.084 103.337 264.875 104.497 266.84 107.129C269.896 110.924 274.371 117.198 279.426 118.239L279.413 118.246Z" fill="#B5F0E5"/>
<path fill-rule="evenodd" clip-rule="evenodd" d="M245.286 65.0996C248.477 70.2538 251.344 75.6018 253.869 81.1125C256.977 88.1155 258.82 93.8582 262.719 98.5454C260.612 92.4381 256.872 80.4285 254.661 76.1614C252.185 71.6478 247.13 66.787 245.286 65.1031V65.0996Z" fill="#042420"/>
<path fill-rule="evenodd" clip-rule="evenodd" d="M209.469 151.692C209.469 151.692 204.15 153.008 194.248 158.223C190.981 159.907 187.877 161.327 184.874 162.646C177.072 166.174 168.704 169.434 162.066 171.232C162.594 171.864 162.854 172.125 162.854 172.125C162.854 172.125 162.854 174.708 164.278 176.18C163.49 176.972 152.952 184.134 156.063 208.098C158.167 207.31 160.642 206.254 161.011 206.254C161.646 206.362 161.802 208.098 162.59 208.098C163.378 208.098 165.962 207.056 168.701 203.515C168.597 204.939 167.017 219.264 175.496 228.902C177.075 227.059 181.079 220.948 181.079 220.948L181.183 219C181.183 219 181.551 212.205 183.766 205.991C185.981 199.776 190.297 195.193 190.297 195.193L212.834 163.011L209.462 151.688L209.469 151.692Z" fill="#B5F0E5"/>
<path fill-rule="evenodd" clip-rule="evenodd" d="M188.401 198.945C187.369 199.674 186.233 200.242 185.03 200.629C184.662 199.313 184.134 194.782 187.242 190.359C190.877 185.036 198.828 178.138 201.039 172.652C202.463 169.121 201.831 160.274 214.472 148.948C227.114 137.623 232.062 133.727 232.062 133.727L252.498 123.457L277.621 133.359L265.139 182.28L255.449 205.195L216.91 197.928L188.398 198.945H188.401Z" fill="#B5F0E5"/>
<path fill-rule="evenodd" clip-rule="evenodd" d="M203.112 185.661L207.907 179.658V175.391C207.907 175.391 213.226 173.968 218.965 168.121C224.704 162.274 232.659 151.056 239.665 151.74C246.672 152.531 247.356 166.961 247.62 171.02C247.884 175.079 248.779 184.29 250.199 189.244C251.779 194.195 233.134 212.944 233.134 212.944L220.472 222.583L203.112 185.661Z" fill="#B5F0E5"/>
<path fill-rule="evenodd" clip-rule="evenodd" d="M217.948 235.645C217.948 235.645 221.847 229.534 218.989 228.218C220.673 224.427 223.781 220.424 223.781 220.424C223.781 220.424 225.993 214.948 233.155 208.206C240.318 201.463 244.745 196.984 245.904 192.457C246.619 189.506 247.008 186.486 247.064 183.45C247.838 184.083 248.667 184.646 249.54 185.134C250.699 185.662 256.175 190.189 255.386 199.303C254.598 208.417 251.22 212.209 251.22 212.209C251.22 212.209 247.956 215.472 245.641 217.16C243.162 218.844 242.269 220.792 238.106 220.951C238.534 220.611 239.015 220.344 239.53 220.16C239.53 220.16 235.211 219.635 232.891 221.739C230.572 223.843 225.642 230.326 223.166 232.277C220.691 233.857 217.958 235.648 217.958 235.648L217.948 235.645Z" fill="#B5F0E5"/>
<path fill-rule="evenodd" clip-rule="evenodd" d="M393.076 133.199C386.853 130.932 380.313 129.652 373.695 129.408C362.633 129.04 346.464 129.672 330.611 129.776C313.546 129.88 298.061 123.929 276.573 122.877C273.045 120.77 264.073 111.552 236.068 131.092C237.752 130.988 256.4 126.773 262.876 134.887C269.406 142.945 267.563 156.639 266.67 159.903C264.983 167.173 259.504 177.759 257.296 185.186C255.088 192.612 255.609 196.515 254.029 201.723C252.449 206.931 248.974 209.517 251.026 215.521C253.765 213.837 255.192 213.837 259.768 203.566C264.344 193.296 263.403 185.974 270.99 177.283C278.416 168.541 290.78 156.583 295.481 153.58C300.182 150.577 337.51 131.196 376.594 149.685C386.02 148.685 393.079 133.196 393.079 133.196L393.076 133.199Z" fill="#B5F0E5"/>
<path fill-rule="evenodd" clip-rule="evenodd" d="M251.814 126.034C251.775 125.638 251.688 125.249 251.553 124.874C251.188 124.104 250.708 123.393 250.13 122.767C250.13 122.767 240.86 121.083 236.172 121.607C227.954 122.503 220.528 132.669 217.052 137.884C213.577 143.099 209.257 151.154 204.57 155.317C204.622 154.911 204.528 154.5 204.306 154.157C204.306 154.157 204.57 154.525 204.046 155.053C203.522 155.581 203.518 155.841 203.782 156.094L204.574 156.883C204.834 156.883 212.105 153.615 222.007 144.383C232.541 134.745 240.599 129.801 244.814 128.107C247.062 127.151 249.412 126.456 251.817 126.034H251.814Z" fill="#B5F0E5"/>
<path fill-rule="evenodd" clip-rule="evenodd" d="M431.632 86.4316C431.632 86.4316 429.945 88.5357 427.837 90.855C423.15 95.806 417.039 101.386 411.824 107.128C406.877 112.607 401.294 116.874 395.023 124.037C388.753 131.2 381.482 139.15 379.642 141.47C377.958 143.789 376.643 147.581 376.643 149.528C375.747 148.896 374.695 148.212 374.695 148.212C375.138 149.039 375.667 149.817 376.274 150.532C377.59 152.375 379.642 154.698 380.698 156.115C381.993 157.918 382.922 159.957 383.434 162.118C384.066 162.222 388.121 163.014 393.18 154.691C398.238 146.369 404.87 137.258 404.87 137.258L415.404 121.613L422.042 108.343L430.375 93.4902L431.642 86.4316H431.632Z" fill="#B5F0E5"/>
<path fill-rule="evenodd" clip-rule="evenodd" d="M442.43 75.7939C442.43 75.7939 436.055 81.0019 433.58 84.1267C431.104 87.2515 425.247 95.4524 425.247 95.4524L427.355 95.1885L438.048 85.71L442.215 78.2834L442.427 75.8078L442.43 75.7939Z" fill="#042420"/>
<path fill-rule="evenodd" clip-rule="evenodd" d="M440.479 494.361C440.479 494.361 440.375 490.042 442.798 487.462C445.274 484.879 451.541 481.087 457.651 466.866C463.762 452.645 464.442 449.433 464.442 449.433C464.442 449.433 453.488 458.807 446.735 461.019C448.315 457.752 449.211 455.436 450.002 453.749C449.107 452.961 445.315 452.065 444.947 451.645C447.051 449.537 448.211 444.374 452.478 440.951C457.957 436.785 467.963 429.625 475.74 423.244C483.518 416.862 498.808 402.019 500.76 397.7C501.919 399.384 502.18 400.436 502.18 400.436C502.18 400.436 494.493 410.446 490.489 416.817C486.958 422.296 487.222 425.403 487.222 425.403L494.493 422.278C494.493 422.278 496.597 430.073 487.066 441.927C491.232 440.347 492.913 441.295 495.281 439.975C491.382 442.454 486.011 445.826 480.955 455.092C476.004 464.363 469.262 475.161 457.887 481.9C446.826 489.01 440.451 494.329 440.451 494.329L440.479 494.361Z" fill="#B5F0E5"/>
<path fill-rule="evenodd" clip-rule="evenodd" d="M411.932 138.682C411.932 138.682 407.613 147.685 406.981 154.691C406.877 156.379 406.453 157.695 406.453 159.642C406.349 165.909 406.821 172.916 405.412 176.18C404.884 174.864 404.62 173.968 404.092 173.444C403.304 175.655 401.881 182.554 400.721 185.134C400.197 183.45 399.037 177.603 399.145 170.704C399.252 163.805 399.405 162.486 399.405 161.066C399.145 163.17 397.721 166.017 397.193 167.701C396.405 166.281 395.509 164.437 394.454 162.91C393.822 163.951 393.034 165.489 392.35 166.281C392.242 165.649 391.982 163.962 391.822 161.594C391.718 158.854 391.558 155.327 391.718 154.587C391.978 153.167 394.194 147.584 398.881 142.473C404.464 136.363 410.206 124.62 411.89 120.985C413.574 117.35 420.737 102.236 420.737 102.236H426.216L418.261 120.353C418.261 120.353 413.47 130.255 410.995 133.894C408.519 137.533 403.304 147.959 400.985 152.014C402.669 149.803 404.092 148.643 405.78 146.536C407.411 145.06 411.939 138.689 411.939 138.689L411.932 138.682Z" fill="#B5F0E5"/>
<path fill-rule="evenodd" clip-rule="evenodd" d="M442.534 75.1064C441.639 77.8609 440.225 80.4184 438.368 82.6407C435.101 86.5397 428.094 91.7512 424.674 95.9107C421.549 99.966 415.3 111.028 418.14 124.141C419.181 121.298 421.143 115.663 426.358 109.288C431.573 102.914 437.156 95.5947 439.899 89.9076C442.635 84.1649 443.003 79.6374 443.003 79.6374L444.044 78.3215L443.413 75.3182L442.517 75.1064H442.534Z" fill="#B5F0E5"/>
<path fill-rule="evenodd" clip-rule="evenodd" d="M549.191 424.466C549.191 424.466 547.083 418.726 546.451 413.512C545.819 408.297 547.493 407.262 545.555 401.294C544.396 397.658 542.292 398.169 541.764 397.658C541.236 397.148 540.868 391.655 540.972 388.652C541.076 385.649 540.868 381.753 540.34 380.066C539.552 379.434 539.025 378.906 537.865 375.011C536.549 371.111 535.917 369.164 535.285 368.008C534.653 366.851 532.806 365.796 532.806 364.636C532.806 362.317 534.914 361.109 534.914 360.47C534.81 359.154 533.23 360.209 532.806 359.838C532.282 359.206 534.126 355.415 533.442 354.887C533.178 354.626 531.334 356.838 530.858 356.206C530.331 355.571 529.699 349.304 528.751 345.144C527.859 341.089 526.907 338.141 526.803 336.93C526.699 335.77 519.533 315.334 517.797 310.383C516.398 306.199 515.22 301.945 514.269 297.637C513.741 295.161 513.373 290.103 513.11 290.631C512.846 291.158 513.005 293.738 512.582 293.634C512.214 293.526 510.898 284.523 510.478 283.1C510.11 281.676 507.895 276.85 507.353 273.357C506.825 269.826 505.669 260.608 504.877 254.341C504.086 248.074 503.718 245.495 503.718 243.925C503.847 240.087 503.636 236.244 503.086 232.443C502.044 225.805 499.961 217.746 498.135 213.063C494.607 204.212 485.229 181.565 483.552 175.93C483.552 174.506 485.396 175.298 485.396 175.298C485.396 175.298 489.976 186.78 493.347 195.626C496.614 204.476 499.721 212.271 500.513 213.063C501.145 213.851 506.096 222.541 508.308 236.762C510.519 250.984 511.308 264.097 512.627 272.84C513.259 277.006 513.787 281.426 515.102 285.85C516.522 290.644 518.734 295.595 521.633 303.178C524.109 309.553 525.952 314.872 526.952 319.455C528.112 325.302 528.112 329.725 528.796 332.624C529.431 335.1 530.376 340.047 532.591 347.207C534.806 354.366 538.066 363.588 540.278 369.327C544.601 380.809 546.528 390.395 547.18 395.506C547.757 400.773 549.708 418.997 549.18 424.473L549.191 424.466Z" fill="#042420"/>
<path fill-rule="evenodd" clip-rule="evenodd" d="M442.798 74.4739L442.534 75.1058C442.534 75.1058 443.322 75.3697 443.166 76.4252C443.177 77.8693 443.089 79.3124 442.902 80.7444C442.642 82.588 442.114 84.008 442.01 85.1677C442.01 87.6432 442.378 90.4868 438.885 97.5454C437.844 99.4932 437.201 101.177 436.673 102.337C435.358 105.18 435.094 105.604 433.934 106.92C435.778 105.878 442.416 101.712 445.784 102.337C443.468 103.653 439.937 106.236 437.725 109.607C438.253 109.711 440.465 110.135 443.975 109.607C449.822 108.711 456.353 106.604 462.092 107.024C468.362 107.392 465.887 99.4932 465.887 99.4932L458.651 83.5879L444.958 73.9531L442.798 74.4774V74.4739Z" fill="#B5F0E5"/>
<path fill-rule="evenodd" clip-rule="evenodd" d="M478.508 193.616C478.508 193.616 472.397 187.506 469.921 166.535C467.446 145.467 467.973 114.455 467.973 114.455L463.022 102.341C463.022 102.341 461.981 94.2825 459.387 91.2827C456.794 88.2829 451.7 83.2242 449.381 80.7487C447.062 78.2732 444.43 74.9018 442.85 74.3741C443.638 73.0582 447.169 65.6316 460.703 65.5274C474.237 65.4233 478.41 72.954 479.823 75.6935C481.237 78.4329 487.618 90.2759 489.986 112.844C492.198 135.384 492.305 137.071 491.937 144.866C491.673 149.185 490.25 159.192 487.771 169.882C485.507 178.944 483.032 189.058 478.501 193.637L478.508 193.616Z" fill="#B5F0E5"/>
<path fill-rule="evenodd" clip-rule="evenodd" d="M459.346 211.577C461.382 211.724 463.416 211.265 465.192 210.258C467.14 210.153 474.199 211.049 479.622 204.15C479.99 205.727 480.941 209.997 478.462 213.789C479.782 212.469 481.73 211.945 481.993 211.577C482.098 213.525 483.941 219.528 476.147 234.117C478.251 231.801 480.726 231.906 482.938 231.642C483.045 234.381 484.518 243.596 480.622 248.55C478.042 251.922 473.827 250.866 473.827 250.866C473.889 250.13 473.889 249.39 473.827 248.654C473.723 247.231 473.195 245.811 473.567 244.863C471.53 243.933 469.675 242.648 468.088 241.068C463.505 236.749 457.554 229.378 457.134 223.899C456.606 217.788 462.085 216.473 462.085 216.473C461.626 216.062 461.235 215.582 460.925 215.049C460.662 214.157 460.398 212.733 459.346 211.577Z" fill="#B5F0E5"/>
<path fill-rule="evenodd" clip-rule="evenodd" d="M418.723 145.317C418.723 145.317 418.459 144.949 417.039 146.633C417.303 144.949 417.567 143.366 417.671 141.838C418.343 140.423 419.213 139.112 420.254 137.942C419.463 139.519 418.935 140.942 418.935 140.942C418.935 140.942 420.886 137.307 423.73 135.095C425.678 133.515 428.153 132.779 429.205 131.304C430.365 129.724 430.101 129.46 430.365 129.196C430.365 129.196 432.948 127.512 436.899 122.558C437.423 121.926 438.215 121.242 438.743 120.61C439.635 120.242 441.743 119.294 444.218 118.027C446.801 116.607 449.697 114.659 451.488 113.86C455.016 112.281 458.759 112.44 460.495 109.961C461.811 109.593 463.231 105.642 462.97 102.274C464.918 103.063 474.924 109.277 478.351 122.867C480.827 132.505 476.4 147.358 474.556 154.525C472.713 161.691 472.452 167.006 469.869 170.27C466.602 174.593 456.072 180.686 453.488 183.703C451.277 186.179 444.642 192.446 444.902 196.973C445.166 200.345 449.325 202.181 450.225 202.82C451.124 203.459 451.117 204.244 452.804 203.862C454.492 203.48 455.12 202.702 455.808 202.702C456.596 202.806 456.596 202.966 456.964 202.966C457.231 202.958 457.496 202.922 457.755 202.858C457.755 202.858 457.492 207.653 446.274 209.108C445.482 209.215 444.694 209.476 443.69 209.636C445.01 209.004 445.798 209.004 447.221 207.056C445.642 206.792 441.111 206.528 439.951 206.16C440.319 205.528 441.531 203.841 442.531 203.053C443.426 202.265 442.427 202.011 441.638 202.421C440.281 203.344 438.98 204.346 437.739 205.421C436.423 206.58 435.264 208.16 433.156 209.587C432.524 207.479 432.629 203.476 435.108 200.581C434.472 200.685 433.26 202.528 432.104 202.16C431.895 200.239 432.02 198.296 432.472 196.418C433.104 194.046 436.528 189.887 436.528 189.887L453.065 160.337L456.592 137.953L418.723 145.31V145.317Z" fill="#B5F0E5"/>
<path fill-rule="evenodd" clip-rule="evenodd" d="M417.831 146.581C417.831 146.581 416.935 147.213 418.727 148.425C418.463 148.793 417.831 150.108 417.039 151.004C416.147 152.046 415.196 152.692 414.828 153.587C414.039 155.431 413.408 156.695 413.408 157.486C413.408 158.278 413.144 163.333 410.932 166.597C410.14 167.757 409.245 169.704 408.613 171.02C407.297 173.336 406.137 175.187 405.873 176.228C405.349 178.072 404.981 183.127 404.981 183.127C404.981 183.127 406.141 181.704 406.561 181.179C405.925 182.495 405.241 183.915 404.241 184.971C404.873 184.443 406.717 183.127 409.824 180.388C414.144 176.756 420.886 170.645 429.104 165.805C426.625 166.701 424.521 166.701 422.837 166.965C424.153 165.649 436.003 151.744 442.218 150.428C442.596 149.949 442.783 149.349 442.746 148.74L437.423 148.216L426.625 150.532L425.049 142.199L417.831 146.57V146.581Z" fill="#B5F0E5"/>
<path fill-rule="evenodd" clip-rule="evenodd" d="M435.003 193.984C435.003 193.984 433.58 195.404 432.264 198.935C431.251 197.877 430.382 196.69 429.681 195.404C427.733 192.14 424.733 187.977 417.727 190.348C417.623 188.137 417.463 186.977 417.727 185.397C418.886 185.137 422.414 182.293 425.941 178.13C428.42 175.287 430.736 172.02 432.316 167.86C433.358 167.069 435.16 165.753 437.524 164.225C440.895 161.909 444.951 158.746 445.583 155.219C444.003 155.851 440.632 157.43 435.573 157.17C437.524 156.274 440.524 155.326 440.156 151.427C440.947 150.9 441.579 150.532 441.579 150.532C440.986 150.334 440.361 150.244 439.736 150.268C439.628 149.9 439.472 149.375 438.576 149.636C437.68 149.896 437.534 149.9 437.416 150.268C437.048 150.375 435.837 150.268 434.941 150.903C434.045 151.538 431.57 153.639 430.622 154.007C430.99 153.375 431.514 152.431 431.514 152.431C431.514 152.431 428.934 152.691 427.091 153.472C423.719 154.632 419.824 156.74 415.873 158.791C416.241 158.16 416.4 157.75 416.661 157.632C416.921 157.514 417.557 157.371 417.557 157.264C417.557 157.156 417.296 156.222 417.452 155.844C418.634 153.341 420.027 150.945 421.619 148.681C423.462 146.202 423.83 142.674 423.83 142.674L431.889 138.619L454.537 133.411L469.234 134.307L467.39 144.473L458.71 162.222L451.284 178.391L442.801 188.297L435.007 193.984H435.003Z" fill="#B5F0E5"/>
<path fill-rule="evenodd" clip-rule="evenodd" d="M471.713 149.99C471.713 149.99 462.863 160.944 460.387 162.632C461.967 159.26 471.713 139.192 475.24 133.609C474.452 132.977 473.397 132.977 475.872 123.193C473.768 128.141 473.029 130.724 471.293 132.04C469.557 133.356 469.341 132.936 468.168 132.936C468.39 132.535 468.481 132.075 468.428 131.62C468.428 131.62 461.002 130.724 455.929 130.724C450.857 130.724 440.816 133.464 435.229 135.675C430.806 137.519 428.33 137.519 426.75 138.675C425.171 139.991 424.275 141.414 423.483 141.782C422.851 142.15 419.852 143.098 419.164 144.098C418.532 145.14 417.48 146.31 417.48 146.574C417.48 146.838 417.216 147.209 418.008 146.942C418.268 146.838 420.22 145.782 422.431 144.466C425.431 142.782 429.066 140.835 431.702 139.675C439.232 136.672 441.604 137.199 444.971 136.567C448.499 135.936 453.558 134.46 456.926 134.46C460.297 134.356 466.671 134.46 468.147 134.724C467.515 135.252 466.987 135.884 467.251 138.095C467.251 138.727 466.724 139.411 466.21 140.939C464.633 145.258 461.63 152.421 459.96 156.056C457.644 161.003 455.013 165.166 453.711 167.746C452.409 170.326 449.544 177.12 446.707 180.756C443.871 184.391 442.388 186.602 441.499 187.394C440.611 188.186 434.229 192.869 434.705 194.557C435.864 194.189 443.187 191.432 448.503 185.446C453.818 179.461 454.877 175.808 459.037 172.541C463.196 169.274 466.463 163.798 468.411 159.271C470.043 155.056 469.675 153.74 471.727 150.001L471.713 149.99Z" fill="#B5F0E5"/>
<path fill-rule="evenodd" clip-rule="evenodd" d="M280.996 231.749C280.996 231.749 279.836 236.541 277.201 238.912C274.621 241.231 270.038 243.231 269.514 247.13C268.882 251.026 274.097 252.977 274.097 252.977C274.097 252.977 271.25 257.664 271.25 261.192C271.25 264.827 271.146 265.511 271.514 268.986C271.096 269.255 270.741 269.61 270.472 270.028C270.472 270.028 270.733 273.399 273.316 275.503C275.899 277.607 278.107 278.875 279.423 278.347C279.624 278.776 279.8 279.217 279.951 279.666C279.951 279.666 281.902 274.715 283.218 270.396C284.534 265.973 285.694 266.601 286.218 260.65C286.742 254.699 292.467 244.481 292.467 244.481L296.373 235.749L290.002 230.798L280.996 231.746V231.749Z" fill="#B5F0E5"/>
<path fill-rule="evenodd" clip-rule="evenodd" d="M292.846 240.332C291.532 241.681 290.319 243.124 289.218 244.651C287.534 246.97 286.218 249.075 283.742 249.974C281.267 250.873 279.687 250.866 279.843 253.345C279.999 255.824 282.319 256.873 283.635 258.136C285.058 259.452 286.218 261.664 285.586 264.143C286.374 263.775 287.798 263.351 289.113 260.508C290.429 257.664 299.634 240.336 299.634 240.336H292.846V240.332Z" fill="#B5F0E5"/>
<path fill-rule="evenodd" clip-rule="evenodd" d="M329.146 200.355C329.146 200.355 329.934 198.251 329.146 196.723C328.354 195.143 323.563 194.616 321.191 192.824C318.716 190.98 315.712 189.699 313.237 190.508C313.605 189.612 315.081 187.661 313.869 187.241C312.709 186.873 308.394 188.821 307.234 189.717C306.074 190.612 303.439 191.664 302.915 192.3C302.39 192.935 301.491 194.143 300.963 193.616C300.436 193.248 300.175 192.3 299.279 192.824C298.384 193.348 294.071 196.879 293.276 198.935C292.481 200.99 290.693 205.573 285.322 210.785C279.951 215.996 277.632 219.371 279.211 221.319C280.791 223.267 281.531 221.846 281.795 223.53C281.997 225.183 281.908 226.859 281.531 228.481C280.899 231.221 279.847 233.801 281.267 234.328C284.902 235.488 288.433 233.287 289.221 233.96C290.801 235.38 288.325 240.491 292.065 241.491C295.86 242.533 299.599 240.595 299.599 240.595L313.397 233.169L326.67 226.166L333.461 212.732L329.819 201.514L329.125 200.355H329.146Z" fill="#B5F0E5"/>
<path fill-rule="evenodd" clip-rule="evenodd" d="M316.126 232.433C316.126 232.433 313.806 228.905 316.653 225.794C319.5 222.683 323.552 221.371 325.132 219.423C324.831 219.052 324.428 218.778 323.972 218.635C325.021 216.759 326.621 215.25 328.555 214.312C327.767 213.524 326.712 212.892 325.556 212.892C322.972 212.892 321.389 214.472 319.021 214.472C316.706 214.472 316.442 213.313 316.442 213.313C316.442 213.313 320.341 212.944 319.969 211.205C319.601 209.361 318.928 209.361 318.928 209.361C318.928 209.361 326.458 206.237 327.774 204.57C329.09 202.903 328.934 200.935 329.198 200.147C330.09 200.147 335.305 197.407 337.413 198.567C339.52 199.727 338.044 202.886 338.044 202.886C338.044 202.886 344.422 198.091 347.672 193.39C350.516 193.654 351.839 191.442 353.922 191.442C356.505 191.442 360.56 194.97 361.348 202.501C361.876 206.82 362.664 209.295 361.876 216.934C361.508 221.253 361.612 230.475 362.918 235.051C363.81 238.686 365.918 238.318 365.918 238.318C365.594 239.426 364.953 240.414 364.074 241.161C362.65 242.477 362.494 245.956 362.65 247.272C362.86 248.234 363.125 249.184 363.442 250.116C363.442 250.116 361.758 252.063 361.335 253.383C360.967 254.699 359.231 255.595 357.963 255.595C356.696 255.595 357.331 255.487 355.647 255.595C353.964 255.702 353.436 255.963 352.38 255.595C351.325 255.226 350.537 254.803 350.96 251.428C351.328 248.057 337.951 240.21 337.951 240.21L316.077 232.415L316.126 232.433Z" fill="#B5F0E5"/>
<path fill-rule="evenodd" clip-rule="evenodd" d="M291.002 265.719C291.002 265.719 295.794 272.093 315.494 272.093C324.868 272.093 328.135 271.198 330.076 270.67C332.184 270.142 340.082 267.038 348.037 257.66C355.199 249.182 353.62 245.706 353.62 245.706L349.453 245.074L335.913 246.918L295.846 263.983L290.985 265.719H291.002Z" fill="#042420"/>
<path fill-rule="evenodd" clip-rule="evenodd" d="M305.696 267.299C305.696 267.299 288.631 271.094 288.631 260.296C288.631 249.762 299.165 238.7 301.8 236.752C304.54 234.801 311.07 232.586 311.07 232.586H326.819L329.819 240.54L328.503 257.709L305.696 267.296V267.299Z" fill="#042420"/>
<path fill-rule="evenodd" clip-rule="evenodd" d="M321.445 235.804C321.445 235.804 318.181 232.801 310.754 236.846C303.328 240.89 297.321 249.345 296.953 257.021C296.585 263.813 302.536 268.871 311.806 269.135C318.705 269.396 322.868 268.607 324.976 268.094C324.448 267.462 321.709 264.038 321.709 264.038L321.448 235.807L321.445 235.804Z" fill="#B5F0E5"/>
<path fill-rule="evenodd" clip-rule="evenodd" d="M318.233 237.485C318.233 237.485 317.445 236.853 315.108 238.117C313.161 239.159 310.317 241.912 308.105 243.86C306.682 245.019 305.786 245.544 304.981 246.439C301.713 250.338 298.974 256.713 300.557 259.873C302.14 263.032 307.352 266.667 320.625 264.192L318.195 237.489L318.233 237.485Z" fill="#B5F0E5"/>
<path fill-rule="evenodd" clip-rule="evenodd" d="M313.914 244.019C313.914 244.019 311.806 247.287 311.806 252.501C311.806 257.821 314.81 266.299 325.871 266.931C334.35 267.459 340.037 254.713 346.2 249.762C350.887 245.971 353.731 245.863 353.731 245.863C353.731 245.863 348.939 240.655 336.142 233.909C323.5 227.114 309.331 226.218 301.64 236.648C305.276 236.384 317.021 233.381 317.021 233.381L322.764 235.225L313.914 244.023V244.019Z" fill="#042420"/>
<path fill-rule="evenodd" clip-rule="evenodd" d="M330.451 250.918C330.083 250.13 329.819 249.074 331.347 248.814C332.875 248.554 333.559 248.706 334.086 249.856C334.614 251.005 335.128 251.963 334.347 252.439C333.559 252.859 331.503 252.439 330.448 250.911L330.451 250.918ZM327.976 243.491C327.976 243.491 327.448 243.859 327.712 243.123C327.816 242.231 328.503 240.648 330.187 241.019C331.871 241.391 331.507 243.231 331.229 243.759C330.951 244.287 329.545 245.179 328.489 244.8C328.356 244.766 328.232 244.701 328.128 244.61C328.024 244.519 327.943 244.404 327.892 244.276C327.84 244.148 327.82 244.01 327.832 243.872C327.844 243.734 327.889 243.602 327.962 243.484L327.976 243.491Z" fill="#B5F0E5"/>
<path fill-rule="evenodd" clip-rule="evenodd" d="M185.405 246.859C185.405 246.859 189.571 249.984 194.411 249.863C199.203 249.755 205.365 244.808 208.209 241.645C209.893 239.801 211.334 237.853 212.896 236.325C214.215 235.01 215.108 234.378 215.74 233.482C216.635 232.44 217.583 230.482 218.059 229.847C216.899 230.742 215.215 232.326 213.476 233.378C211.792 234.419 208.157 236.378 206.681 236.905C205.261 237.433 190.512 245.238 190.512 245.238L185.405 246.859Z" fill="#B5F0E5"/>
<path fill-rule="evenodd" clip-rule="evenodd" d="M191.772 207.941C191.772 207.941 194.088 206.362 198.567 205.358C202.886 204.317 211.577 203.515 211.577 203.515L218.739 206.639L221.583 217.437L216.375 228.659L209.74 232.825L202.206 220.711L191.79 207.962L191.772 207.941Z" fill="#B5F0E5"/>
<path fill-rule="evenodd" clip-rule="evenodd" d="M182.398 217.579L179.919 219.43C179.919 219.43 180.554 218.27 181.079 214.743C181.603 211.215 184.346 202.629 188.349 197.678C192.352 192.727 192.248 192.991 192.248 192.991C191.88 192.923 191.501 192.935 191.138 193.026C190.774 193.116 190.435 193.283 190.141 193.515C190.668 192.348 194.04 188.182 197.411 186.099C200.782 184.016 202.098 183.359 205.626 185.057C209.153 186.755 210.049 187.637 212.632 187.533C215.215 187.429 217.424 184.689 217.424 184.689C217.424 184.689 217.951 186.373 216.004 190.272C214.056 194.171 206.365 202.122 206.365 202.122L190.352 213.076L182.398 217.59V217.579Z" fill="#B5F0E5"/>
<path fill-rule="evenodd" clip-rule="evenodd" d="M194.244 206.626C194.244 206.626 205.834 208.205 209.362 204.942C209.466 205.31 209.889 205.31 209.889 205.574C209.861 205.773 209.768 205.957 209.625 206.098C210.009 206.037 210.397 206.002 210.785 205.994C211.249 206.132 211.726 206.22 212.209 206.258C212.597 206.249 212.985 206.213 213.368 206.15C213.332 206.412 213.243 206.664 213.107 206.89C212.971 207.117 212.79 207.314 212.577 207.469C213.104 207.469 213.618 207.574 213.618 207.994C213.618 208.414 213.722 209.681 213.09 209.945C212.567 210.09 212.01 210.052 211.511 209.837C211.553 210.834 211.823 211.809 212.302 212.684C213.344 214.632 215.566 216.851 218.552 216.212C218.552 216.212 220.128 220.003 213.493 228.43C212.601 229.589 211.65 231.169 210.493 232.485C210.037 233.481 209.687 234.523 209.452 235.593C209.452 235.593 220.673 231.273 223.885 221.423C227.152 211.521 227.784 201.779 227.152 192.668C227.044 190.085 226.624 188.245 225.992 186.926C224.413 183.658 219.986 184.186 218.198 186.03C215.615 188.613 211.295 195.036 205.292 199.459C199.182 203.883 198.921 204.667 194.231 206.626H194.244Z" fill="#B5F0E5"/>
<path fill-rule="evenodd" clip-rule="evenodd" d="M180.343 220.847C180.343 220.847 178.131 222.163 176.971 227.096C175.812 232.151 178.013 238.314 179.287 240.262C180.561 242.21 183.454 247.532 189.453 247.796C190.938 247.788 192.407 247.484 193.772 246.901C195.867 245.94 197.831 244.719 199.619 243.265C202.202 241.318 204.306 239.634 204.043 239.474C203.411 239.21 188.137 226.568 188.137 226.568L182.395 220.159L180.339 220.854L180.343 220.847Z" fill="#042420"/>
<path fill-rule="evenodd" clip-rule="evenodd" d="M194.779 241.807C194.779 241.807 197.887 241.547 199.73 240.387C201.574 239.227 188.932 226.693 188.932 226.693L189.828 240.234L194.779 241.807Z" fill="#B5F0E5"/>
<path fill-rule="evenodd" clip-rule="evenodd" d="M181.343 219.896C181.343 219.896 179.763 222.899 179.763 223.691C179.499 226.271 180.291 234.381 180.923 236.961C181.554 239.7 184.978 243.86 189.405 243.86C192.141 243.86 195.935 242.176 195.935 241.756C195.935 241.228 192.036 240.714 190.984 238.752C190.352 237.711 190.089 235.121 189.943 232.503C189.839 230.819 189.839 228.975 190.471 228.336C191.894 226.757 192.154 222.226 192.154 222.226L197.21 212.834H190.561L182.606 217.785L181.343 219.896Z" fill="#B5F0E5"/>
<path fill-rule="evenodd" clip-rule="evenodd" d="M179.395 222.795C179.395 222.795 184.603 215.896 189.297 214.313C193.991 212.73 196.092 213.681 196.092 213.681L193.352 220.688L189.453 225.007L189.717 227.219C189.717 227.219 189.082 233.065 192.981 237.121C196.88 241.176 199.775 241.02 201.463 241.02C203.15 241.02 207.994 239.596 210.469 233.749C212.681 228.274 214.524 221.25 210.101 214.209C205.779 207.202 198.144 206.932 196.668 206.932C195.192 206.932 183.606 207.511 179.395 222.785V222.795Z" fill="#042420"/>
<path fill-rule="evenodd" clip-rule="evenodd" d="M313.122 246.231C311.175 245.335 313.018 239.86 314.966 238.172C316.914 236.485 319.389 234.54 323.712 234.273C325.288 234.169 326.816 235.169 326.556 236.224C326.187 238.172 323.448 240.912 320.973 242.859C317.549 245.547 315.334 247.231 313.122 246.231Z" fill="#B5F0E5"/>
<path fill-rule="evenodd" clip-rule="evenodd" d="M207.782 216.368C209.205 216.264 211.049 217.41 211.417 218.951C211.785 220.635 210.521 224.006 207.782 224.006C205.57 224.006 204.411 221.267 204.411 220.479C204.435 219.831 204.616 219.198 204.938 218.635C205.042 218.475 205.306 216.632 207.782 216.368Z" fill="#B5F0E5"/>
<path fill-rule="evenodd" clip-rule="evenodd" d="M187.241 217.58C187.241 217.58 183.606 219.264 181.922 222.788C180.719 225.39 180.355 228.302 180.881 231.121C181.145 232.437 182.46 235.7 183.356 236.86C184.252 238.02 185.464 238.811 186.36 238.704C187.255 238.596 189.095 236.228 189.095 234.808C189.095 233.388 189.203 227.382 190.939 224.114C192.467 220.851 187.252 217.584 187.252 217.584L187.241 217.58Z" fill="#B5F0E5"/>
<path fill-rule="evenodd" clip-rule="evenodd" d="M187.769 217.316C187.137 217.684 186.085 218.212 186.346 218.896C186.61 219.527 188.821 219.937 189.613 221.479C190.509 223.058 190.509 224.742 190.245 225.534C190.933 225.207 191.557 224.76 192.088 224.215C193.248 222.899 194.668 221.111 195.88 221.111C196.671 221.111 197.46 221.479 198.199 221.479C199.359 221.479 200.515 221.111 200.675 219.899C200.935 218.319 198.463 216.896 197.039 217.16C197.303 216.118 197.671 214.58 196.512 213.524C195.352 212.469 191.72 214.316 190.929 214.844C190.137 215.371 187.769 217.319 187.769 217.319V217.316Z" fill="#B5F0E5"/>
<path fill-rule="evenodd" clip-rule="evenodd" d="M271.462 327.976L279.256 325.674L281.468 327.254C281.468 327.254 283.044 330.625 285.523 331.045C284.732 332.729 282.676 334.17 282.784 335.364C282.892 336.559 283.944 337.472 283.944 337.472C283.944 337.472 276.937 349.058 290.738 360.734C287.471 362.05 283.312 363.859 281.1 364.9C282.676 365.269 286.048 365.942 287.471 367.22C288.895 368.497 288.895 368.904 290.211 369.695C291.527 370.487 292.315 371.539 292.054 372.011C291.158 371.483 288.155 369.907 287.631 371.379C287.107 372.851 274.621 372.275 274.621 372.275L253.553 376.33C253.553 376.33 254.341 374.223 252.13 372.275C249.55 369.959 246.391 372.379 243.019 369.799C238.596 366.428 238.436 362.529 237.016 361.057C238.436 360.161 241.335 358.845 248.234 357.932C247.97 357.404 247.074 355.825 247.602 354.405C248.234 352.561 250.866 351.401 250.078 349.197C251.237 348.933 251.762 348.933 254.661 345.298C257.4 341.662 259.084 340.874 261.192 340.61C263.299 340.347 264.563 340.61 268.462 336.975C271.198 334.395 270.306 332.184 270.306 332.184C270.306 332.184 272.094 331.604 271.465 327.969L271.462 327.976Z" fill="#B5F0E5"/>
<path fill-rule="evenodd" clip-rule="evenodd" d="M248.446 329.146C248.55 328.618 248.974 328.354 251.817 328.618C254.661 328.882 272.674 326.934 277.573 326.67C282.524 326.302 299.956 326.563 308.439 328.354C316.921 330.146 325.503 332.253 329.663 333.305C333.829 334.465 335.142 334.882 334.982 335.409C334.878 335.937 333.94 336.451 333.402 336.305C332.878 336.201 319.077 331.986 314.813 331.097C310.55 330.208 295.797 327.83 287.732 327.972C280.201 328.08 277.198 327.868 270.826 328.604C264.452 329.396 253.918 330.448 250.758 330.028C247.633 329.66 248.279 329.66 248.439 329.132L248.446 329.146Z" fill="#B5F0E5"/>
<path fill-rule="evenodd" clip-rule="evenodd" d="M290.842 370.427C290.842 370.427 301.64 376.274 305.539 383.437C308.383 388.756 303.856 391.391 303.856 391.391C303.856 391.391 309.966 391.391 309.175 394.763C308.807 396.867 298.641 402.554 291.846 405.557C284.947 408.56 285.211 408.404 281.84 408.928C278.572 409.456 269.618 407.887 267.774 410.508C265.931 413.13 266.733 415.831 267.247 416.251C267.774 416.619 272.042 417.147 272.042 417.147C272.042 417.147 271.146 419.622 262.299 419.886C253.452 420.15 251.237 420.778 250.71 421.73C250.182 422.622 252.394 422.098 256.452 422.771C260.508 423.403 266.195 423.813 266.195 423.813C266.195 423.813 264.351 425.393 259.56 426.657C254.081 428.077 245.495 429.396 242.915 430.976C244.231 431.871 246.182 433.187 247.081 433.291C244.87 433.819 241.759 434.979 241.235 435.399C242.023 435.927 243.078 436.559 243.078 436.559C243.078 436.559 238.651 441.878 236.072 443.197C233.492 444.516 218.639 451.412 213.528 450.096C200.782 446.725 199.202 432.767 196.095 431.715C191.408 430.135 189.196 433.291 185.033 431.08C186.877 429.764 187.88 428.976 189.828 428.08C187.721 427.038 176.819 420.126 176.819 420.126C175.678 417.641 174.413 415.215 173.027 412.859C170.92 409.224 167.819 404.377 165.493 400.11C160.438 390.735 160.174 386.416 155.591 381.097C156.382 380.055 159.118 380.201 159.118 380.201L197.519 392.843L265.608 394.815L283.315 369.535L290.846 370.431L290.842 370.427Z" fill="#B5F0E5"/>
<path fill-rule="evenodd" clip-rule="evenodd" d="M189.981 408.981C190.392 409.438 190.871 409.829 191.401 410.14C192.72 411.036 194.668 412.092 195.984 413.668C196.512 412.88 197.828 411.456 200.15 413.668C202.473 415.88 205.358 414.303 207.153 414.828C208.997 415.463 209.101 415.723 209.101 415.723C209.101 415.723 210.143 414.828 212.473 413.88C213.896 413.352 215.58 412.984 217.424 412.46C219.108 412.092 220.951 411.564 222.218 411.564C223.378 412.352 227.538 416.772 244.234 410.248C259.983 404.137 263.615 403.453 266.25 404.398C266.514 403.766 266.778 402.554 270.833 402.714C270.833 401.03 267.462 395.287 267.462 395.287L248.87 388.916H238.7L208.205 394.499L191.307 404.141L189.991 409.002L189.981 408.981Z" fill="#B5F0E5"/>
<path fill-rule="evenodd" clip-rule="evenodd" d="M179.815 398.291C179.815 398.291 180.183 401.134 184.398 404.138C188.564 407.137 189.873 408.929 189.873 408.929C189.873 408.929 190.665 407.887 191.297 406.825C191.929 405.665 192.456 404.349 193.509 403.981C195.616 403.086 200.407 404.769 201.463 404.506C202.359 404.245 202.095 402.402 203.043 402.402C205.254 402.294 206.674 403.822 207.466 403.822C208.258 403.822 210.202 403.717 210.466 403.297C210.73 402.877 210.834 398.502 213.837 396.395C217.104 394.079 221.107 395.079 222.17 395.607C222.17 396.395 222.274 398.346 224.382 398.45C226.489 398.555 226.697 398.187 228.548 398.818C230.399 399.45 232.603 398.714 233.603 401.818C234.499 401.558 236.606 401.294 236.079 398.291C237.12 397.503 238.03 396.975 240.245 393.867C240.773 393.079 241.665 392.183 242.353 391.024C244.196 391.024 246.408 390.656 249.356 393.235C248.46 393.867 247.932 394.277 247.672 394.919C248.443 395.683 249.147 396.511 249.776 397.395C250.567 398.437 251.095 399.714 252.095 399.978C254.307 400.61 257.942 399.714 261.997 399.978C265.896 400.242 269.16 401.662 270.583 402.558C271.111 402.297 271.111 402.19 272.427 402.454C273.743 402.718 274.743 402.822 273.323 401.138C274.111 401.506 275.007 402.297 275.798 401.506C276.59 400.714 277.218 399.558 279.43 399.294C281.642 399.03 282.433 399.398 283.329 397.082C284.489 394.239 280.486 394.239 280.486 394.239C280.486 394.239 282.329 392.552 284.385 390.34C286.86 388.024 289.704 385.021 290.388 381.333C291.547 374.539 284.912 373.646 284.912 373.646L252.73 383.549L213.386 381.597L179.836 398.294L179.815 398.291Z" fill="#B5F0E5"/>
<path fill-rule="evenodd" clip-rule="evenodd" d="M150.9 305.327C150.9 305.327 149.858 306.643 149.216 309.751C148.574 312.858 148.848 312.49 148.32 314.702C147.793 316.913 141.31 338.929 143.741 346.356C146.171 353.783 150.379 356.522 153.011 362.525C153.539 363.841 154.053 364.633 154.327 365.792C155.223 369.688 154.435 372.691 155.487 376.59C155.855 377.906 156.806 379.434 158.226 381.013C161.351 384.277 166.444 387.385 168.642 389.596C171.746 392.863 176.173 399.502 181.808 400.13C184.811 400.498 189.078 399.234 192.606 397.13C195.731 395.179 197.661 392.443 200.939 390.881C203.254 389.721 205.73 389.301 207.942 388.773C212.525 387.878 216.688 387.732 219.163 388.246C222.954 389.037 231.909 391.777 236.87 391.777C240.747 391.714 244.602 391.184 248.352 390.197C255.883 387.985 264.993 384.19 271 382.506C274.528 381.465 277.371 381.19 280.27 380.559C285.221 379.399 289.381 377.819 291.752 374.816C290.172 372.972 288.225 370.129 277.687 370.233C265.733 370.497 251.932 377.132 245.137 378.187C238.342 379.243 235.395 380.135 227.808 377.396C220.371 374.628 220.125 372.799 220.125 372.799C220.125 372.799 212.316 367.337 209.049 353.414C205.782 339.492 209.049 329.347 217.531 319.705C219.743 317.229 219.215 315.018 219.215 315.018C219.215 315.018 224.798 307.487 223.27 300.435C221.587 293.429 210.789 294.852 210.789 294.852L150.904 305.327H150.9Z" fill="#B5F0E5"/>
<path fill-rule="evenodd" clip-rule="evenodd" d="M159.906 328.768C159.442 329.641 159.224 330.624 159.275 331.611C159.379 333.031 159.802 334.875 164.066 339.038C167.701 342.669 166.909 346.725 166.909 346.725C166.909 346.725 168.739 347.093 173.704 344.77C177.603 342.926 178.912 346.194 178.912 346.194C180.047 345.598 181.277 345.206 182.547 345.034C183.698 344.928 184.812 344.572 185.811 343.992C185.811 343.992 190.394 348.68 194.397 350.891C198.033 352.842 200.14 354.158 201.932 352.842C203.615 351.683 203.615 349.311 203.508 348.259C203.09 347.288 202.561 346.369 201.932 345.52C200.772 343.836 198.928 341.885 198.807 340.312C198.543 336.68 201.546 332.358 200.911 331.306C200.275 330.254 197.911 329.99 192.064 332.097C186.009 334.097 159.882 328.778 159.882 328.778L159.906 328.768Z" fill="#B5F0E5"/>
<path fill-rule="evenodd" clip-rule="evenodd" d="M173.704 352.311C173.704 352.311 170.704 349.467 171.756 335.666C173.03 335.647 174.302 335.771 175.548 336.034C175.548 336.034 177.183 346.728 173.704 352.311Z" fill="#B5F0E5"/>
<path fill-rule="evenodd" clip-rule="evenodd" d="M152.324 294.794C152.742 294.484 153.13 294.135 153.483 293.752C152.442 295.7 147.633 303.494 151.532 315.768C155.431 327.986 165.226 337.096 177.287 337.52C189.349 337.944 195.689 332.041 202.938 323.195C205.782 319.667 209.049 315.24 211.945 312.24C216.264 307.55 219.635 306.234 219.635 301.706C219.635 292.436 210.153 288.273 196.196 284.114C182.238 279.954 169.649 280.468 163.118 283.315C156.747 286.419 154.008 289.686 152.32 294.797L152.324 294.794Z" fill="#042420"/>
<path fill-rule="evenodd" clip-rule="evenodd" d="M197.144 356.47L198.185 355.942C198.185 355.942 198.446 351.776 200.133 351.887C201.817 352.151 202.609 354.366 202.449 355.154C202.345 355.942 201.925 357.262 200.237 357.102C198.025 357.154 197.133 356.47 197.133 356.47H197.144Z" fill="#B5F0E5"/>
<path fill-rule="evenodd" clip-rule="evenodd" d="M192.456 338.773C192.456 338.773 193.498 338.405 194.772 339.669C195.814 339.669 200.355 339.142 201.779 340.037C203.202 340.933 203.622 341.721 203.622 341.721C203.622 341.721 198.303 342.881 195.404 341.721C192.456 340.721 192.456 338.773 192.456 338.773Z" fill="#B5F0E5"/>
<path fill-rule="evenodd" clip-rule="evenodd" d="M215.896 339.562C215.896 339.298 213.052 337.35 210.049 336.715C209.521 336.611 209.414 336.979 209.007 336.979C208.744 336.875 208.639 336.083 208.639 336.083L206.931 336.982C206.931 336.982 206.667 337.35 207.563 338.024C208.351 338.656 209.671 339.184 210.039 340.236C210.407 341.288 210.407 341.656 210.566 341.815C210.67 341.919 212.514 341.815 213.41 341.288C214.306 340.76 215.993 339.899 215.885 339.552L215.896 339.562Z" fill="#B5F0E5"/>
<path fill-rule="evenodd" clip-rule="evenodd" d="M189.297 350.256C189.297 350.256 189.821 346.624 193.352 346.464C196.984 346.2 197.671 349.728 197.671 349.728L195.564 351.835C195.564 351.783 193.984 349.572 189.314 350.256H189.297Z" fill="#B5F0E5"/>
<path fill-rule="evenodd" clip-rule="evenodd" d="M212.209 334.61C212.209 334.61 210.257 336.718 205.942 337.35C205.574 336.822 204.782 335.77 205.942 334.086C207.101 332.402 208.417 331.874 209.733 332.398C210.314 332.493 210.855 332.751 211.294 333.143C211.733 333.535 212.05 334.044 212.209 334.61Z" fill="#B5F0E5"/>
<path fill-rule="evenodd" clip-rule="evenodd" d="M220.159 337.194C220.267 336.666 219.899 336.562 220.159 336.298C220.42 336.034 221.847 335.51 222.111 335.77C222.215 335.878 222.111 336.298 222.111 336.812C222.111 337.326 222.111 337.853 221.847 338.232C221.479 338.759 220.427 339.023 219.899 338.867C219.371 338.711 219.267 337.971 219.267 337.825C219.528 337.721 220.159 337.457 220.159 337.194ZM229.152 331.506C229.152 331.243 230.048 330.715 230.575 330.715C231.364 330.715 231.364 331.347 231.471 331.506C231.732 331.611 231.732 331.399 231.996 331.874C232.259 332.35 232.631 333.19 232.364 333.718C232.096 334.246 231.048 334.61 230.787 334.506C230.419 334.242 229.26 331.874 229.152 331.506Z" fill="#B5F0E5"/>
<path fill-rule="evenodd" clip-rule="evenodd" d="M211.049 338.406C211.049 338.406 212.209 338.666 213.788 339.986C213.261 340.354 212.469 340.774 212.469 340.774C212.469 340.774 212.365 339.562 211.049 338.402V338.406Z" fill="#B5F0E5"/>
<path fill-rule="evenodd" clip-rule="evenodd" d="M208.469 326.816C208.205 326.556 209.257 325.924 209.889 326.028C210.521 326.132 210.785 326.556 211.469 326.66C212.153 326.764 212.261 326.396 212.511 326.132C212.761 325.868 213.67 326.028 213.827 326.132C213.924 326.248 214.012 326.371 214.09 326.5C214.101 326.3 214.154 326.104 214.244 325.924C214.334 325.745 214.46 325.587 214.615 325.458C214.817 325.31 215.05 325.209 215.296 325.163C215.543 325.118 215.796 325.128 216.038 325.195C216.142 325.563 216.67 326.878 216.566 327.142C216.462 327.406 214.882 327.778 214.615 327.51C214.879 328.146 216.038 329.462 216.194 329.722C216.351 329.982 215.035 330.618 214.511 330.514C213.774 330.462 209.244 327.826 208.455 326.826L208.469 326.816ZM215.368 318.073C215.271 317.808 215.084 317.585 214.84 317.442C214.472 317.337 213.261 317.442 213.261 318.073C213.261 318.705 214.302 322.24 215.472 324.08C216.792 325.924 217.684 327.448 218.58 327.871C218.861 327.999 219.18 328.016 219.473 327.918C219.767 327.82 220.012 327.615 220.159 327.344C220.264 327.08 220.528 325.132 220.423 320.549C220.319 315.966 220.159 311.543 219.896 311.279C219.632 311.015 218.58 311.018 218.212 311.543C217.844 312.067 215.472 317.285 215.365 318.073H215.368Z" fill="#042420"/>
<path fill-rule="evenodd" clip-rule="evenodd" d="M210.681 345.04C210.681 345.04 208.837 343.88 207.046 344.672C205.362 345.464 205.466 348.571 205.466 348.571C205.845 348.719 206.254 348.773 206.658 348.727C207.063 348.681 207.449 348.537 207.785 348.307C208.945 347.519 210.417 346.203 210.681 345.044V345.04Z" fill="#B5F0E5"/>
<path fill-rule="evenodd" clip-rule="evenodd" d="M214.156 349.203C214.052 348.162 213.115 348.162 213.115 347.624C213.179 347.366 213.328 347.138 213.538 346.976C213.748 346.813 214.006 346.726 214.271 346.728C214.799 346.728 215.313 347.36 215.958 347.769C216.59 348.137 217.538 348.811 217.642 349.613C217.747 350.415 216.601 352.613 215.327 352.613C214.052 352.613 214.431 350.242 214.167 349.189L214.156 349.203ZM224.322 347.78C224.322 347.78 222.215 348.412 222.371 347.78C222.527 347.148 223.007 346.992 223.691 346.992C224.038 346.628 224.506 346.402 225.006 346.356C225.293 346.342 225.574 346.436 225.795 346.62C225.795 346.62 227.218 345.988 227.638 346.356C228.058 346.724 227.746 346.724 228.006 347.148C228.338 347.618 228.555 348.159 228.642 348.728C228.642 349.148 227.062 350.044 225.795 349.887C224.322 349.571 224.583 348.044 224.322 347.78ZM236.593 345.408C236.593 345.408 237.224 345.777 236.7 346.2C236.332 346.568 234.489 347.242 232.905 347.36C231.326 347.36 229.905 347.62 229.905 347.096C229.905 346.572 231.221 345.516 232.009 345.252C232.168 345.054 232.368 344.895 232.597 344.785C232.825 344.676 233.076 344.619 233.329 344.62C233.961 344.62 236.433 344.356 237.12 344.252C237.752 344.145 238.28 344.513 237.908 345.04C237.752 345.408 236.593 345.408 236.593 345.408ZM240.228 329.146C240.228 329.146 239.436 330.83 238.544 330.83C237.648 330.725 237.648 330.462 237.648 330.198C237.648 329.83 238.544 328.882 238.436 328.618C238.176 328.618 237.54 328.618 237.648 327.986C237.648 327.458 238.544 326.826 239.332 326.944C239.927 326.455 240.669 326.178 241.439 326.156C242.335 326.156 243.123 326.417 243.123 326.944C243.123 327.472 242.082 328.628 241.7 328.896C241.28 329.316 240.752 329.59 240.228 329.156V329.146ZM228.218 360.272C228.218 360.272 227.176 360.38 227.176 360.904C227.176 361.168 227.437 361.168 227.808 361.012C228.022 361 228.234 360.963 228.44 360.904C228.544 361.012 228.544 361.536 229.336 361.536C229.986 361.448 230.613 361.233 231.18 360.904C231.812 360.644 232.339 360.376 232.339 359.862C232.075 358.967 231.548 358.543 230.76 358.543C230.356 358.517 229.953 358.609 229.6 358.807C229.6 358.807 229.336 358.279 228.44 358.807C227.545 359.335 227.649 359.335 227.913 359.599C228.385 360.019 228.228 360.293 228.228 360.293L228.218 360.272ZM222.267 365.751C222.267 365.487 223.583 364.959 223.951 365.119C224.319 365.223 225.371 367.223 225.371 367.435C225.371 367.699 224.055 368.331 223.527 368.331C223 368.331 222.107 367.435 222.107 367.289C222.107 367.185 222.739 367.029 222.739 366.921C222.896 366.661 222.267 366.025 222.267 365.761V365.751ZM218.101 358.06C218.365 357.956 218.365 357.692 218.733 357.429C218.848 357.352 218.979 357.303 219.116 357.285C219.253 357.267 219.393 357.28 219.524 357.324C219.617 357.159 219.746 357.016 219.901 356.906C220.055 356.796 220.233 356.722 220.42 356.689C221.052 356.585 221.58 356.689 221.462 356.953C221.462 357.744 221.989 358.269 221.989 358.901C221.989 359.533 221.621 360.324 220.305 360.852C218.989 361.22 217.198 361.22 216.934 361.116C216.67 361.012 216.406 359.956 216.67 359.428C216.934 358.901 217.67 358.324 218.094 358.06H218.101Z" fill="#B5F0E5"/>
<path fill-rule="evenodd" clip-rule="evenodd" d="M219.778 358.418C219.778 358.418 218.882 358.946 218.882 359.21C218.802 359.464 218.767 359.731 218.778 359.998C218.778 360.154 219.937 359.894 220.094 359.734C220.146 359.63 219.778 358.692 219.778 358.418Z" fill="#B5F0E5"/>
<path fill-rule="evenodd" clip-rule="evenodd" d="M211.945 355.942C212.469 356.05 213.365 355.942 214.049 356.206C214.577 356.47 214.945 356.998 214.417 357.63C213.889 358.262 213.375 359.21 212.205 359.05C210.889 358.946 209.626 358.262 209.626 357.734C209.603 357.4 209.648 357.065 209.756 356.749C209.865 356.432 210.035 356.14 210.257 355.89C210.785 355.47 211.046 355.734 211.941 355.942H211.945Z" fill="#042420"/>
<path fill-rule="evenodd" clip-rule="evenodd" d="M211.313 356.471C211.313 356.471 209.629 357.787 209.205 358.422C208.678 359.054 206.098 362.318 205.31 363.002C205.571 362.54 205.87 362.1 206.202 361.686C205.16 362.352 204.38 363.356 203.99 364.529C203.358 366.481 207.521 367.533 210.257 368.324C212.993 369.116 214.052 369.366 214.052 369.366C213.045 367.852 212.18 366.248 211.469 364.574C210.427 362.099 209.889 361.835 210.573 360.675C211.101 359.516 211.893 358.728 211.893 357.832C211.577 356.998 211.313 356.471 211.313 356.471Z" fill="#B5F0E5"/>
<path fill-rule="evenodd" clip-rule="evenodd" d="M151.268 360.634C151.651 360.704 152.044 360.704 152.428 360.634C153.216 360.526 161.434 357.509 170.02 358.05C176.448 358.439 182.819 359.486 189.033 361.175C199.831 364.019 213.261 369.654 221.951 372.869C224.267 373.761 226.534 375.344 228.201 375.973C234.839 378.556 235.099 378.556 238.999 379.24C243.582 379.872 248.269 378.344 253.168 377.292C259.171 375.973 269.441 375.341 278.447 374.025C281.36 373.621 284.232 372.97 287.034 372.077C287.034 372.077 279.871 379.24 262.698 381.82C255.757 382.874 248.704 382.963 241.738 382.084C236.259 381.556 232.627 380.764 229.888 379.976C226.781 379.08 220.406 376.709 212.559 374.768C207.08 373.345 200.97 372.293 193.967 370.977C176.69 367.814 157.941 364.182 151.261 360.654L151.268 360.634Z" fill="#042420"/>
<path fill-rule="evenodd" clip-rule="evenodd" d="M131.884 328.083C127.718 331.611 123.298 334.982 118.982 338.246L105.972 348.241C101.549 351.505 97.2299 354.876 92.8031 358.144C88.3763 361.411 83.9565 364.515 79.2623 367.518C83.4287 363.99 87.8486 360.723 92.2719 357.512C96.6952 354.3 101.282 351.151 105.549 347.894L118.558 337.884C123.034 334.621 127.353 331.249 131.884 328.09V328.083ZM108.868 364.952C108.868 364.952 113.555 361.053 119.402 355.578C126.669 348.787 135.571 340.093 138.415 338.516L108.865 364.956L108.868 364.952Z" fill="#042420"/>
<path fill-rule="evenodd" clip-rule="evenodd" d="M108.868 364.949C111.187 362.633 113.663 360.37 116.138 358.155L119.93 354.891C121.089 353.849 122.409 352.679 123.565 351.52C125.881 349.204 128.148 346.725 130.464 344.357C131.612 343.166 132.825 342.041 134.099 340.986C134.736 340.422 135.443 339.943 136.203 339.562C136.838 339.194 137.522 338.52 138.415 338.402C137.89 339.194 137.259 339.562 136.731 340.246C136.099 340.774 135.571 341.406 135.047 341.93C133.887 343.09 132.571 344.142 131.412 345.197C128.936 347.305 126.357 349.363 123.881 351.568C121.405 353.773 119.09 356.151 116.611 358.363C113.927 360.63 111.451 362.842 108.868 364.96V364.949ZM140.366 343.881C140.366 343.881 123.197 360.686 119.666 363.422L140.366 343.881Z" fill="#042420"/>
<path fill-rule="evenodd" clip-rule="evenodd" d="M140.366 343.881C138.822 345.669 137.166 347.357 135.408 348.936L130.2 353.887C128.516 355.571 126.933 357.258 125.145 358.942C123.301 360.522 121.617 362.067 119.666 363.525L124.721 358.574C126.409 356.89 128.252 355.47 130.044 353.783L135.099 348.832C136.835 347.096 138.522 345.409 140.366 343.881ZM141.154 352.991C139.572 357.408 137.707 361.719 135.571 365.897C131.148 374.747 124.513 385.805 121.614 391.444L141.154 352.991Z" fill="#042420"/>
<path fill-rule="evenodd" clip-rule="evenodd" d="M141.154 352.995C141.154 354.943 140.626 356.63 139.994 358.314C139.378 360 138.676 361.652 137.89 363.265C137.099 364.845 136.203 366.532 135.307 368.06C134.411 369.588 133.359 371.164 132.568 372.747L127.249 382.122C125.405 385.247 123.614 388.389 121.666 391.392C122.982 388.021 124.773 384.861 126.461 381.754C128.304 378.629 129.988 375.504 131.669 372.272C132.489 370.661 133.227 369.01 133.88 367.324C134.668 365.637 135.457 364.057 136.092 362.529C136.88 360.845 137.512 359.262 138.304 357.738C139.196 356.103 139.935 354.523 141.147 352.995H141.154Z" fill="#042420"/>
<path fill-rule="evenodd" clip-rule="evenodd" d="M159.906 396.183C159.906 396.183 154.698 403.081 155.219 411.824C156.639 407.244 158.431 400.238 159.906 396.183ZM164.858 403.099C164.858 403.099 163.014 421.848 161.486 431.066C163.646 420.41 164.066 421.306 164.858 403.099ZM199.355 432.173C199.355 432.173 191.561 455.089 191.401 461.456C193.088 454.908 196.352 441.53 199.355 432.156V432.173Z" fill="#B5F0E5"/>
<path fill-rule="evenodd" clip-rule="evenodd" d="M217.58 394.767C217.58 394.767 230.221 415.623 239.703 433.424C237.138 424.466 231.235 408.037 217.58 394.767Z" fill="#B5F0E5"/>
<path fill-rule="evenodd" clip-rule="evenodd" d="M251.553 425.47C258.494 437.739 264.753 450.381 270.302 463.339C269.25 454.385 266.403 439.059 251.553 425.47Z" fill="#B5F0E5"/>
<path fill-rule="evenodd" clip-rule="evenodd" d="M351.415 456.22C353.519 454.904 357.682 447.738 361.317 445.95C364.949 444.107 367.688 443.738 370.956 440.103C374.219 436.308 375.122 433.993 382.278 430.993C392.287 426.67 385.402 421.087 385.402 421.087C386.505 420.004 387.684 419.002 388.93 418.087C391.513 416.14 394.513 413.768 394.253 409.605C393.885 402.602 392.569 392.436 386.826 386.537C392.409 385.378 403.099 384.589 409.741 382.906C417.428 380.954 420.959 378.215 420.959 378.215C420.959 378.215 416.536 370.684 423.699 363.101C430.861 355.518 436.708 350.987 441.027 342.505C436.076 341.873 428.528 339.242 409.266 346.561C410.305 347.05 411.309 347.613 412.269 348.245C412.269 348.245 400.419 351.512 396.1 355.147C388.565 361.518 387.618 366.733 379.455 370.632C371.292 374.531 363.074 373.476 356.283 376.635C349.492 379.795 348.488 382.482 346.009 383.642C346.537 384.274 345.905 385.326 346.905 386.221C346.273 387.117 342.586 393.12 338.846 393.12C339.214 394.544 342.374 395.596 342.374 395.596C342.374 395.596 340.058 397.283 334.159 397.703C337.159 400.828 340.006 404.234 347.853 409.185C347.221 410.501 344.586 412.452 345.641 414.928C346.801 417.403 349.808 420.775 361.81 423.514C355.7 423.775 348.54 425.198 338.895 423.882C329.257 422.722 327.677 422.039 321.726 423.514C322.358 424.146 324.042 424.146 325.517 425.83C323.938 425.934 314.036 424.67 310.664 429.097C307.137 433.677 305.609 441.211 305.873 446.266C304.029 447.162 302.238 448.742 303.133 452.009C304.029 455.276 308.716 456.328 311.72 458.38C314.72 460.592 314.983 461.38 317.83 460.855C320.83 460.224 325.254 457.224 327.837 457.224C330.42 457.224 332.26 459.172 332.26 459.172C332.26 459.172 339.267 455.8 339.951 456.432C340.582 457.064 340.055 461.119 340.739 461.751C341.433 462.227 349.325 457.54 351.432 456.22H351.415Z" fill="#B5F0E5"/>
<path fill-rule="evenodd" clip-rule="evenodd" d="M504.527 245.443C471.609 160.435 390.232 144.686 390.232 144.686H158.063L158.959 231.274H205.195V424.626H158.059V511.058H383.805C438.212 511.058 481.823 456.384 481.823 456.384C551.663 357.262 504.523 245.443 504.523 245.443H504.527ZM385.017 398.131C385.017 398.131 367.31 423.678 348.044 423.678H309.504L308.591 231.486H358.05C358.05 231.486 380.965 236.277 396.975 281.625C396.975 281.625 418.199 346.551 385.017 398.131Z" fill="#042420" fill-opacity="0.8"/>
</g>
<defs>
<clipPath id="clip0_506_7768">
<rect width="651" height="651" fill="white"/>
</clipPath>
</defs>
</svg>
