<svg width="335" height="542" viewBox="0 0 335 542" fill="none" xmlns="http://www.w3.org/2000/svg">
<g clip-path="url(#clip0_511_291)">
<path d="M0 295.17C59.0256 326.482 120.617 359.257 168.188 384.618L335 295.17C274.6 384.8 224.274 459.418 168.188 542C112.002 459.6 49.9526 368.678 0 295.17ZM6.41559 270.447L168.371 184.122L328.218 269.816L168.462 356.236L6.41559 270.447ZM168.188 156.465L0 244.906L167.454 0L335 245.455L168.188 156.465Z" fill="#B5F0E5"/>
<path d="M168.188 384.618L335 295.17C274.6 384.8 168.188 542 168.188 542V384.618ZM168.371 184.122L328.217 269.816L168.462 356.236L168.371 184.122ZM168.188 156.471L167.454 0L335 245.455L168.188 156.471Z" fill="#B5F0E5"/>
<path d="M6.41553 270.449L168.379 283.726L328.226 269.9L168.462 356.327L6.41553 270.449Z" fill="#B5F0E5"/>
<path d="M168.371 283.726L328.217 269.9L168.462 356.327L168.371 283.726Z" fill="#B5F0E5"/>
</g>
<defs>
<clipPath id="clip0_511_291">
<rect width="335" height="542" fill="white"/>
</clipPath>
</defs>
</svg>
