<svg width="105" height="105" viewBox="0 0 105 105" fill="none" xmlns="http://www.w3.org/2000/svg">
<g clip-path="url(#clip0_512_305)">
<path fill-rule="evenodd" clip-rule="evenodd" d="M52.5 105C23.625 105 0 81.3752 0 52.2377C0.2625 23.3627 23.625 -0.262287 52.7625 0.000213438C81.6375 0.262713 105 23.6252 105 53.0252C104.737 81.6377 81.375 105 52.5 105Z" fill="#B5F0E5"/>
<path fill-rule="evenodd" clip-rule="evenodd" d="M57.4875 46.2001L55.9125 54.6001L70.875 56.7001L69.8251 60.6376L55.125 58.5376C54.075 61.9501 53.55 65.6251 52.2375 68.7751C50.925 72.4501 49.6125 76.1251 48.0375 79.5376C45.9375 84.0001 42.2625 87.1501 37.275 87.9376C34.3875 88.4626 31.2375 88.2001 28.875 86.3626C28.0875 85.8376 27.3 84.7876 27.3 84.0001C27.3 82.9501 27.825 81.6376 28.6125 81.1126C29.1375 80.8501 30.45 81.1126 31.2375 81.3751C32.025 82.1626 32.8125 83.2125 33.3375 84.2625C34.9125 86.3625 37.0125 86.6251 39.1125 85.0501C41.475 82.9501 42.7876 80.0626 43.5751 77.1751C45.1501 70.8751 46.725 64.8376 48.0375 58.5376V57.4876L34.125 55.3876L34.65 51.4501L49.0876 53.5501L50.925 45.4126L35.9625 43.0501L36.4875 38.8501L51.975 40.9501C52.5 39.3751 52.7625 38.0626 53.2875 36.7501C54.6 32.0251 55.9125 27.3001 59.0625 23.1001C62.2125 18.9001 65.8876 16.2751 71.4001 16.5376C73.7626 16.5376 76.1251 17.3251 77.7001 19.1626C77.9626 19.4251 78.4875 19.9501 78.4875 20.4751C78.4875 21.5251 78.4876 22.8376 77.7001 23.6251C76.6501 24.4126 75.3375 24.1501 74.2875 23.1001C73.5 22.3126 72.975 21.5251 72.1875 20.7376C70.6125 18.6376 68.25 18.3751 66.4125 20.2126C65.1 21.5251 63.7875 23.3626 63 25.2001C61.1625 30.7126 59.8501 36.4876 58.0126 42.2626L72.4501 44.3626L71.4001 48.3001L57.4875 46.2001Z" fill="#042420"/>
</g>
<defs>
<clipPath id="clip0_512_305">
<rect width="105" height="105" fill="white"/>
</clipPath>
</defs>
</svg>
