<svg width="400" height="400" viewBox="0 0 400 400" fill="none" xmlns="http://www.w3.org/2000/svg">
<g clip-path="url(#clip0_513_340)">
<path d="M48.5 69.0995C51 65.9995 53.6 62.9995 56.2 59.9995C56.3 59.8995 56.6 59.7995 56.7 59.6995C56.9 59.3995 57.3 59.1995 57.6 58.8995L57.8 58.5995C59.6 56.8995 61.6 55.0995 63.8 53.3995C71.8 47.3995 80 42.7995 88.7 39.6995C116.7 29.8995 147.8 35.8995 172.2 58.9995C206.3 90.8995 203.2 142.4 176 176.6C141.6 227.6 82.6 298.7 164.3 362.4C179 373.9 189.9 383.3 236.2 396.7C205.9 402.3 177.8 400.5 146.6 392.6C124.5 380.1 89.7 353.399 77.9 317.299C60 262.599 109.4 180.7 133.2 149.2C165.9 105.6 113 58.3995 73.9 111.1C53.7 138.6 18 216.3 30.4 274C37.6 306.7 47.3 330.5 85.6 363.299C78.5 359.099 71.6 354.4 64.9 349C-24 266.1 -13.7 137.9 48.5 69.0995Z" fill="url(#paint0_linear_513_340)"/>
<path d="M351.5 330.9C349 334 346.4 337 343.8 340C343.7 340.1 343.4 340.2 343.3 340.3C343.1 340.6 342.7 340.8 342.4 341.1L342.2 341.4C340.4 343.1 338.4 344.9 336.2 346.5C328.2 352.5 320 357.1 311.3 360.2C283.3 370 252.2 364 227.8 340.9C193.7 309 196.8 257.5 224 223.3C258.4 172.3 317.4 101.2 235.7 37.4998C221 25.9998 210.1 16.5998 163.8 3.19983C194.1 -2.40017 222.2 -0.600168 253.4 7.29983C275.5 19.7998 310.3 46.4998 322.1 82.5998C340 137.3 290.6 219.2 266.8 250.7C234.1 294.3 287 341.5 326.1 288.8C346.5 261.3 382.2 183.6 369.8 125.9C362.6 93.1998 352.9 69.3998 314.6 36.5998C321.7 40.7998 328.6 45.4998 335.3 50.8998C424 133.9 413.7 262.1 351.5 330.9Z" fill="url(#paint1_linear_513_340)"/>
</g>
<defs>
<linearGradient id="paint0_linear_513_340" x1="-2.09333e-05" y1="217.636" x2="400" y2="217.636" gradientUnits="userSpaceOnUse">
<stop stop-color="#B5F0E5"/>
<stop offset="1" stop-color="#B5F0E5"/>
</linearGradient>
<linearGradient id="paint1_linear_513_340" x1="1.7765e-05" y1="182.363" x2="400" y2="182.363" gradientUnits="userSpaceOnUse">
<stop stop-color="#B5F0E5"/>
<stop offset="1" stop-color="#B5F0E5"/>
</linearGradient>
<clipPath id="clip0_513_340">
<rect width="400" height="400" fill="white"/>
</clipPath>
</defs>
</svg>
