<?xml version="1.0" standalone="no"?>
<!DOCTYPE svg PUBLIC "-//W3C//DTD SVG 20010904//EN"
 "http://www.w3.org/TR/2001/REC-SVG-20010904/DTD/svg10.dtd">
<svg version="1.0" xmlns="http://www.w3.org/2000/svg"
 width="200.000000pt" height="200.000000pt" viewBox="0 0 200.000000 200.000000"
 preserveAspectRatio="xMidYMid meet">

<g transform="translate(0.000000,200.000000) scale(0.100000,-0.100000)"
fill="#000000" stroke="none">
<path d="M843 1875 c-197 -36 -351 -121 -494 -273 -272 -290 -315 -714 -108
-1065 55 -93 201 -239 296 -296 291 -173 632 -173 926 0 93 55 239 201 296
296 173 291 173 632 0 926 -53 91 -210 248 -299 300 -188 109 -412 149 -617
112z m3 -389 c-9 -47 7 -82 44 -94 60 -21 100 11 100 80 0 45 2 48 25 48 23 0
25 -3 25 -49 0 -42 4 -53 27 -71 56 -44 123 -3 123 76 0 40 2 44 25 44 24 0
25 -2 25 -70 l0 -70 35 0 c56 0 40 -31 -22 -45 -18 -3 -33 -9 -33 -12 0 -3 18
-23 40 -45 64 -64 94 -138 98 -238 5 -113 -19 -178 -94 -260 -31 -32 -64 -62
-75 -65 -31 -10 -27 -98 6 -130 22 -23 31 -25 120 -25 130 0 168 22 211 119
33 74 50 57 30 -30 -8 -35 -16 -80 -18 -99 l-3 -35 -70 -3 c-38 -2 -139 0
-224 3 l-154 7 5 384 5 384 -87 0 -87 0 -6 -247 c-4 -137 -7 -310 -7 -385 l0
-138 -220 0 c-121 0 -220 3 -220 7 0 4 -7 51 -16 105 -9 54 -13 102 -9 106 4
4 10 3 12 -3 25 -65 64 -124 92 -142 30 -20 47 -23 142 -23 129 0 139 6 139
84 0 50 -1 53 -45 84 -55 39 -108 119 -131 196 -34 122 7 268 100 354 l44 41
-41 14 c-54 18 -56 42 -4 42 l37 0 0 68 0 67 31 0 c30 0 31 -1 25 -34z"/>
<path d="M790 1223 c-69 -78 -94 -181 -66 -276 18 -60 72 -140 99 -145 16 -3
17 15 17 227 0 130 -4 231 -9 231 -5 0 -24 -17 -41 -37z"/>
<path d="M1177 1138 c-4 -62 -7 -167 -7 -232 l0 -120 36 35 c55 52 77 103 82
189 5 89 -18 157 -72 209 l-33 32 -6 -113z"/>
</g>
</svg>
