<svg width="475" height="476" viewBox="0 0 475 476" fill="none" xmlns="http://www.w3.org/2000/svg">
<g clip-path="url(#clip0_513_391)">
<path d="M237.5 449.895C354.471 449.895 449.295 355.071 449.295 238.1C449.295 121.129 354.471 26.3052 237.5 26.3052C120.529 26.3052 25.7052 121.129 25.7052 238.1C25.7052 355.071 120.529 449.895 237.5 449.895Z" fill="#042420"/>
<path d="M237.5 0.600098C190.527 0.600098 144.609 14.5292 105.552 40.6261C66.4955 66.7229 36.0545 103.815 18.0787 147.213C0.102904 190.61 -4.60039 238.364 4.5636 284.434C13.7276 330.505 36.3473 372.823 69.5623 406.038C102.777 439.253 145.096 461.873 191.166 471.037C237.237 480.201 284.99 475.497 328.387 457.521C371.785 439.546 408.877 409.105 434.974 370.048C461.071 330.991 475 285.073 475 238.1C475.091 207.002 469.055 176.19 457.238 147.424C445.421 118.658 428.054 92.5017 406.128 70.4478C384.203 48.3938 358.148 30.8745 329.451 18.89C300.755 6.9055 269.979 0.690587 238.88 0.600098H237.5ZM241.526 246.151L216.798 329.535H349.062C349.938 329.504 350.812 329.646 351.633 329.953C352.454 330.261 353.206 330.726 353.847 331.325C354.488 331.923 355.005 332.641 355.368 333.439C355.731 334.237 355.933 335.099 355.963 335.975V338.161L344.461 377.84C343.954 379.716 342.824 381.365 341.257 382.514C339.689 383.663 337.778 384.246 335.835 384.165H133.414L167.343 268.578L129.389 280.079L138.015 253.627L175.969 242.126L223.699 79.9584C224.224 78.0925 225.359 76.4561 226.922 75.3097C228.485 74.1634 230.387 73.5731 232.325 73.6328H283.505C284.381 73.602 285.255 73.7443 286.076 74.0515C286.897 74.3586 287.649 74.8246 288.29 75.4227C288.931 76.0209 289.448 76.7395 289.811 77.5376C290.174 78.3356 290.376 79.1973 290.406 80.0735V82.2587L250.151 219.123L288.105 207.622L280.055 235.225L241.526 246.151Z" fill="#B5F0E5"/>
</g>
<defs>
<clipPath id="clip0_513_391">
<rect width="475" height="475" fill="white" transform="translate(0 0.600098)"/>
</clipPath>
</defs>
</svg>
