<svg width="300" height="300" viewBox="0 0 300 300" fill="none" xmlns="http://www.w3.org/2000/svg">
<path d="M150 300C232.843 300 300 232.843 300 150C300 67.1573 232.843 0 150 0C67.1573 0 0 67.1573 0 150C0 232.843 67.1573 300 150 300Z" fill="url(#paint0_linear_509_146)"/>
<path d="M76.17 195V124.4L129.71 164.695V195H143.375V161.85C143.37 159.354 142.193 157.001 140.2 155.5L75.27 106.615C73.891 105.59 72.218 105.037 70.5 105.037C66.1255 105.037 62.5205 108.625 62.5 113V195H76.17ZM224.24 195V124.4L170.7 164.695V195H157.035V161.85C157.04 159.354 158.217 157.001 160.21 155.5L225.14 106.635C226.519 105.61 228.192 105.057 229.91 105.057C234.277 105.057 237.879 108.633 237.91 113V195H224.24Z" fill="#042420"/>
<defs>
<linearGradient id="paint0_linear_509_146" x1="150" y1="0" x2="150" y2="300" gradientUnits="userSpaceOnUse">
<stop stop-color="#B5F0E5"/>
<stop offset="1" stop-color="#B5F0E5"/>
</linearGradient>
</defs>
</svg>
