<svg width="91" height="90" viewBox="0 0 91 90" fill="none" xmlns="http://www.w3.org/2000/svg">
<g clip-path="url(#clip0_510_150)">
<path d="M72.2 4.6L53.4 32.5C52.1 34.4 54.6 36.7 56.4 35.1L74.9 19C75.4 18.6 76.1 18.9 76.1 19.6V69.9C76.1 70.6 75.2 70.9 74.8 70.4L18.8 3.4C17 1.2 14.4 0 11.5 0H9.5C4.3 0 0 4.3 0 9.6V80.4C0 85.7 4.3 90 9.6 90C12.9 90 16 88.3 17.8 85.4L36.6 57.5C37.9 55.6 35.4 53.3 33.6 54.9L15.1 70.9C14.6 71.3 13.9 71 13.9 70.3V20.1C13.9 19.4 14.8 19.1 15.2 19.6L71.2 86.6C73 88.8 75.7 90 78.5 90H80.5C85.8 90 90.1 85.7 90.1 80.4V9.6C90.1 4.3 85.8 0 80.5 0C77.1 0 74 1.7 72.2 4.6Z" fill="#B5F0E5"/>
</g>
<defs>
<clipPath id="clip0_510_150">
<rect width="90.1" height="90" fill="white"/>
</clipPath>
</defs>
</svg>
