<svg width="300" height="384" viewBox="0 0 300 384" fill="none" xmlns="http://www.w3.org/2000/svg">
<g clip-path="url(#clip0_511_236)">
<path fill-rule="evenodd" clip-rule="evenodd" d="M240.1 159.9C255.7 179.5 265.1 204.4 265.1 231.4C265.1 258.4 255.5 284 239.4 303.8L238 305.5L237.6 303.3C237.3 301.5 236.9 299.6 236.5 297.7C228.5 262.4 202.3 232.1 159.1 207.5C130 191 113.3 171.1 108.9 148.5C106.1 133.9 108.2 119.2 112.2 106.6C116.3 93.9998 122.3 83.4998 127.4 77.1998L144.2 56.6998C147.1 53.0998 152.7 53.0998 155.6 56.6998L240.1 159.9ZM266.6 139.4L154.2 1.9998C152.1 -0.600195 148 -0.600195 145.9 1.9998L33.4 139.4L33 139.9C12.4 165.6 0 198.2 0 233.7C0 316.4 67.2 383.5 150 383.5C232.8 383.5 300 316.4 300 233.7C300 198.2 287.6 165.6 266.9 139.9L266.6 139.4ZM60.3 159.5L70.3 147.2L70.6 149.5C70.8 151.3 71.1 153.1 71.5 154.9C78 189 101.3 217.5 140.1 239.5C173.9 258.7 193.5 280.8 199.2 305.1C201.6 315.2 202 325.2 201 333.9L200.9 334.4L200.4 334.6C185.2 342 168 346.2 149.9 346.2C86.4 346.2 34.9 294.8 34.9 231.4C34.9 204.2 44.4 179.1 60.3 159.5Z" fill="#B5F0E5"/>
</g>
<defs>
<clipPath id="clip0_511_236">
<rect width="300" height="383.5" fill="white"/>
</clipPath>
</defs>
</svg>
