<svg width="110" height="110" viewBox="0 0 110 110" fill="none" xmlns="http://www.w3.org/2000/svg">
<g clip-path="url(#clip0_145_22)">
<path d="M89.09 22.93L86.09 25.93C93.2485 33.7583 97.2182 43.9821 97.2182 54.59C97.2182 65.1978 93.2485 75.4217 86.09 83.25L89.09 86.25C97.051 77.6148 101.471 66.2999 101.471 54.555C101.471 42.81 97.051 31.4952 89.09 22.86V22.93Z" fill="#B5F0E5"/>
<path d="M26 23.19C33.8283 16.0315 44.0521 12.0618 54.66 12.0618C65.2678 12.0618 75.4917 16.0315 83.32 23.19L86.32 20.19C77.6848 12.229 66.37 7.80914 54.625 7.80914C42.88 7.80914 31.5652 12.229 22.93 20.19L26 23.19Z" fill="#B5F0E5"/>
<path d="M23.19 83.28C16.04 75.4534 12.0755 65.2358 12.0755 54.635C12.0755 44.0341 16.04 33.8166 23.19 25.99L20.19 22.99C12.229 31.6252 7.80914 42.94 7.80914 54.685C7.80914 66.4299 12.229 77.7448 20.19 86.38L23.19 83.28Z" fill="#B5F0E5"/>
<path d="M83.28 86.05C75.4517 93.2085 65.2279 97.1782 54.62 97.1782C44.0122 97.1782 33.7883 93.2085 25.96 86.05L22.96 89.05C31.5952 97.011 42.9101 101.431 54.655 101.431C66.4 101.431 77.7148 97.011 86.35 89.05L83.28 86.05Z" fill="#B5F0E5"/>
<path d="M73.57 44.62C72.97 38.36 67.57 36.26 60.74 35.62V27H55.46V35.46C54.07 35.46 52.65 35.46 51.24 35.46V27H46V35.68H35.29V41.33C35.29 41.33 39.19 41.26 39.13 41.33C39.8332 41.2526 40.539 41.4513 41.0986 41.8841C41.6582 42.3168 42.028 42.95 42.13 43.65V67.41C42.115 67.6569 42.0506 67.8983 41.9406 68.1198C41.8307 68.3414 41.6775 68.5387 41.49 68.7C41.306 68.8644 41.0907 68.9899 40.857 69.0689C40.6233 69.148 40.376 69.179 40.13 69.16C40.2 69.22 36.29 69.16 36.29 69.16L35.29 75.47H45.9V84.29H51.18V75.6H55.4V84.25H60.69V75.53C69.61 74.99 75.83 72.79 76.61 64.44C77.24 57.72 74.08 54.72 69.03 53.51C72.1 52 74 49.2 73.57 44.62ZM66.17 63.4C66.17 69.96 54.93 69.21 51.35 69.21V57.57C54.93 57.58 66.17 56.55 66.17 63.4ZM63.72 47C63.72 53 54.34 52.27 51.36 52.27V41.69C54.34 41.69 63.72 40.75 63.72 47Z" fill="#B5F0E5"/>
<path d="M54.62 109.26C43.8161 109.258 33.2553 106.053 24.273 100.049C15.2907 94.0455 8.29015 85.5133 4.15657 75.5314C0.0229964 65.5495 -1.05802 54.566 1.05021 43.9698C3.15844 33.3735 8.36124 23.6403 16.0008 16.0008C23.6403 8.36124 33.3735 3.15844 43.9698 1.05021C54.566 -1.05802 65.5495 0.0229964 75.5314 4.15657C85.5133 8.29015 94.0455 15.2907 100.049 24.273C106.053 33.2553 109.258 43.8161 109.26 54.62C109.261 61.7958 107.849 68.9016 105.103 75.5314C102.358 82.1612 98.3333 88.1852 93.2593 93.2593C88.1852 98.3333 82.1612 102.358 75.5314 105.103C68.9016 107.849 61.7958 109.261 54.62 109.26ZM54.62 4.26002C44.6663 4.26793 34.9383 7.22654 26.6656 12.7619C18.3929 18.2972 11.9469 26.1609 8.14237 35.3588C4.3378 44.5568 3.34544 54.6762 5.29071 64.438C7.23599 74.1998 12.0316 83.1659 19.0713 90.2028C26.1111 97.2398 35.079 102.032 44.8416 103.973C54.6042 105.915 64.7232 104.918 73.9197 101.11C83.1161 97.3018 90.9772 90.8527 96.5093 82.5778C102.041 74.3029 104.996 64.5738 105 54.62C105.003 48.0042 103.701 41.4528 101.17 35.3404C98.6389 29.2279 94.9277 23.6743 90.2487 18.9972C85.5697 14.32 80.0147 10.6111 73.9012 8.08235C67.7878 5.55363 61.2358 4.25477 54.62 4.26002Z" fill="#B5F0E5"/>
</g>
<defs>
<clipPath id="clip0_145_22">
<rect width="109.26" height="109.26" fill="white"/>
</clipPath>
</defs>
</svg>
