<?xml version="1.0" encoding="utf-8"?>
<!-- Generator: Adobe Illustrator 26.3.1, SVG Export Plug-In . SVG Version: 6.00 Build 0)  -->
<svg version="1.1" id="Layer_1" xmlns="http://www.w3.org/2000/svg" xmlns:xlink="http://www.w3.org/1999/xlink" x="0px" y="0px"
	 viewBox="0 0 5000 2000" style="enable-background:new 0 0 5000 2000;" xml:space="preserve">
<style type="text/css">
	.st0{fill:#0052B5;}
</style>
<g>
	<path class="st0" d="M1690.3,1155.2c-8.5,35.2-21.8,70.3-36.4,101.9l-563.9,1.2h-114l-1.1-1.1c-0.1,18.7-0.4,37.5-0.6,56.2
		c-0.1,11.1-0.5,22.3-0.1,33.5c0.1,4.8,0.6,9.6,0.7,14.4l115-1.2l-1.2,1.2H1717c36.4-63.1,63.1-133.4,80-206.1H1690.3z"/>
	<path class="st0" d="M1204.4,742.1c0.1-0.7,0.2-1.5,0.2-2.2c0-12.5,0.2-24.9,0.4-37.4c-0.1-6.2,0-12.5,0.1-18.7
		c-0.9-6.8-0.5-13.7-0.4-20.5c0.1-8,0.1-16.1-0.3-24.1c-0.1,0.3-0.2,0.5-0.3,0.8h-114l-1.2-1.2h-502l-93.4,1.2l-30.3-1.2
		c-36.4,63.1-64.3,132.2-80,206.1h106.7c8.5-35.2,20.6-69.1,36.4-101.9l563.9-1.2h114C1204.2,741.8,1204.3,741.9,1204.4,742.1z"/>
	<path class="st0" d="M1600.6,488.3c-131-131-311.6-212.2-510.5-212.2c-200.1,1.2-380.8,82.5-511.7,213.4
		c-14.6,14.5-29.1,29.1-43.7,46.1h145.5c107.9-95.8,252.2-155.2,408.7-156.4l1.2,1.2c171-1.2,326.2,69.1,437.8,180.7
		c101.9,101.9,167.3,237.7,180.7,386.8H471.7l-103.1,1.2c-1.2,15.8-2.4,33.9-2.4,50.9c1.2,200.1,81.2,379.5,212.2,510.5
		s311.6,212.2,511.7,213.4c200.1-1.2,380.8-82.5,510.5-212.2c15.8-15.8,30.3-30.3,44.9-47.3H1500c-109.1,97-252.2,155.2-409.9,155.2
		c-172.2,0-326.2-69.1-439-181.9c-100.7-100.7-167.3-235.2-179.5-385.6l1235.6-1.2h104.3c1.2-15.8,2.4-34,2.4-50.9
		C1812.8,799.9,1731.6,619.3,1600.6,488.3z"/>
	<g>
		<path d="M2133.7,953.7V499.9h291.8v77.8h-206.2v108.3h188v77.8h-188v112.2h210.1v77.8L2133.7,953.7L2133.7,953.7z"/>
		<path d="M2505.8,953.7V499.9h158.9l78.5,395.5h11.7l78.5-395.5h158.9v453.9h-83v-391h-11.7l-77.8,391h-141.4l-77.8-391h-11.7v391
			H2505.8z"/>
		<path d="M3090.7,953.7V499.9h186.7c28.5,0,53.7,5.7,75.5,17.2c21.8,11.5,38.9,27.6,51.2,48.3c12.3,20.7,18.5,45.4,18.5,73.9v9.1
			c0,28.1-6.4,52.6-19.1,73.6c-12.8,21-30.1,37.2-51.9,48.6c-21.8,11.5-46.6,17.2-74.2,17.2h-101.1v166L3090.7,953.7L3090.7,953.7z
			 M3176.2,709.9h92.7c20.3,0,36.8-5.6,49.3-16.8s18.8-26.6,18.8-46v-6.5c0-19.5-6.3-34.8-18.8-46c-12.5-11.2-29-16.9-49.3-16.9
			h-92.7V709.9z"/>
		<path d="M3495.3,953.7V499.9h85.6v453.9H3495.3z"/>
		<path d="M3679.4,953.7V499.9h197.1c28.5,0,53.4,5,74.6,14.9c21.2,10,37.6,24,49.3,42.2c11.7,18.2,17.5,39.5,17.5,64.2v7.8
			c0,27.2-6.5,49.3-19.4,66.1c-13,16.8-29,29.2-48,37v11.7c17.3,0.9,30.7,6.8,40.2,17.8c9.5,11,14.3,25.6,14.3,43.8v148.5h-85.6
			V817.6c0-10.4-2.7-18.8-8.1-25.3c-5.4-6.5-14.4-9.7-26.9-9.7H3765v171.2H3679.4z M3765,704.7h102.4c20.3,0,36.2-5.5,47.7-16.5
			c11.4-11,17.2-25.6,17.2-43.8V638c0-18.2-5.6-32.8-16.9-43.8s-27.2-16.5-48-16.5H3765L3765,704.7L3765,704.7z"/>
		<path d="M4102.1,953.7V499.9h85.6v453.9H4102.1z"/>
		<path d="M4458.8,962.8c-56.2,0-100.7-15.7-133.6-47c-32.9-31.3-49.3-76.2-49.3-134.5V672.3c0-58.3,16.4-103.2,49.3-134.5
			c32.8-31.3,77.4-47,133.6-47c55.8,0,98.9,15.2,129.4,45.7c30.5,30.5,45.7,72.3,45.7,125.5v3.9h-84.3v-6.5
			c0-26.8-7.5-48.8-22.4-66.1c-14.9-17.3-37.7-25.9-68.4-25.9c-30.3,0-54,9.3-71.3,27.9c-17.3,18.6-25.9,43.9-25.9,75.8v111.5
			c0,31.6,8.6,56.7,25.9,75.5c17.3,18.8,41.1,28.2,71.3,28.2c30.7,0,53.5-8.7,68.4-26.3c14.9-17.5,22.4-39.4,22.4-65.8v-11.7h84.3
			v9.1c0,53.2-15.2,95-45.7,125.5C4557.6,947.6,4514.5,962.8,4458.8,962.8z"/>
		<path d="M2126.5,1501.7v-378.2h135.6l75.1,329.6h9.7v-329.6h70.2v378.2h-135.6l-75.1-329.6h-9.7v329.6H2126.5z"/>
		<path d="M2488.5,1501.7v-378.2h243.1v64.8h-171.8v90.2h156.7v64.8h-156.7v93.5h175.1v64.8L2488.5,1501.7L2488.5,1501.7z"/>
		<path d="M2875.4,1501.7v-313.4h-110.2v-64.8h291.8v64.8h-110.2v313.4H2875.4z"/>
		<path d="M3135.8,1501.7l-49.7-378.2h70.8l36.7,328.5h9.7l47.6-328.5h123.2l47.6,328.5h9.7l36.7-328.5h70.8l-49.7,378.2H3366
			l-48.6-336.1h-9.7l-48.6,336.1L3135.8,1501.7L3135.8,1501.7z"/>
		<path d="M3734.5,1509.2c-47.6,0-85.4-13.1-113.5-39.2c-28.1-26.1-42.1-63.5-42.1-112.1v-90.8c0-48.6,14-86,42.1-112.1
			c28.1-26.1,65.9-39.2,113.5-39.2s85.4,13.1,113.5,39.2c28.1,26.1,42.1,63.5,42.1,112.1v90.8c0,48.6-14,86-42.1,112.1
			C3819.9,1496.2,3782,1509.2,3734.5,1509.2z M3734.5,1445.5c26.6,0,47.4-7.7,62.1-23.2c14.8-15.5,22.1-36.2,22.1-62.1V1265
			c0-25.9-7.4-46.7-22.1-62.1c-14.8-15.5-35.5-23.2-62.1-23.2c-26.3,0-46.9,7.8-61.9,23.2c-15,15.5-22.4,36.2-22.4,62.1v95.1
			c0,25.9,7.5,46.7,22.4,62.1C3687.6,1437.7,3708.2,1445.5,3734.5,1445.5z"/>
		<path d="M3952.8,1501.7v-378.2H4117c23.8,0,44.5,4.2,62.1,12.4c17.6,8.3,31.3,20,41.1,35.1c9.7,15.1,14.6,32.9,14.6,53.5v6.5
			c0,22.7-5.4,41.1-16.2,55.1c-10.8,14-24.1,24.3-40,30.8v9.7c14.4,0.7,25.6,5.7,33.5,14.8s11.9,21.3,11.9,36.5v123.7h-71.3v-113.5
			c0-8.6-2.3-15.7-6.8-21.1c-4.5-5.4-12-8.1-22.4-8.1h-99.4v142.6L3952.8,1501.7L3952.8,1501.7z M4024.1,1294.2h85.4
			c16.9,0,30.2-4.6,39.7-13.8c9.5-9.2,14.3-21.3,14.3-36.5v-5.4c0-15.1-4.7-27.3-14-36.5c-9.4-9.2-22.7-13.8-40-13.8h-85.4
			L4024.1,1294.2L4024.1,1294.2z"/>
		<path d="M4294.2,1501.7v-378.2h71.3v150.2h9.7l122.7-150.2h91.3l-157.8,186.4l163.2,191.8h-94l-125.4-153.4h-9.7v153.4
			L4294.2,1501.7L4294.2,1501.7z"/>
	</g>
</g>
</svg>
