<?xml version="1.0" encoding="utf-8"?>
<!-- Generator: Adobe Illustrator 24.3.0, SVG Export Plug-In . SVG Version: 6.00 Build 0)  -->
<svg version="1.1" id="Layer_1" xmlns="http://www.w3.org/2000/svg" xmlns:xlink="http://www.w3.org/1999/xlink" x="0px" y="0px"
	 viewBox="0 0 5000 2000" style="enable-background:new 0 0 5000 2000;" xml:space="preserve">
<style type="text/css">
	.st0{fill:#0052B5;}
</style>
<g>
	<path class="st0" d="M471.67,1052.14c12.13,150.36,78.82,284.96,179.47,385.61c112.77,112.77,266.77,181.89,438.96,181.89l0,0
		c157.64,0,300.73-58.2,409.86-155.21h145.51c-14.55,16.98-29.1,31.53-44.87,47.29c-129.75,129.75-310.43,210.99-510.51,212.21l0,0
		l0,0c-200.08-1.21-380.76-82.46-511.72-213.42S367.39,1200.08,366.18,1000l0,0l0,0c0-16.98,1.21-35.17,2.43-50.93l103.07-1.21l0,0
		h1236.85c-13.34-149.15-78.82-284.96-180.68-386.82c-111.56-111.56-266.77-181.89-437.75-180.68l-1.21-1.21
		c-156.43,1.21-300.73,60.63-408.65,156.43H534.73c14.55-16.98,29.1-31.53,43.65-46.08c130.96-130.96,311.64-212.21,511.72-213.42
		l0,0l0,0c198.87,0,379.54,81.24,510.51,212.21s212.21,311.64,213.42,511.72l0,0l0,0c0,16.98-1.21,35.17-2.43,50.93h-104.28l0,0
		L471.67,1052.14z M852.43,1251.01c-31.53,31.53-31.53,84.88,0,116.41c32.74,32.74,84.88,31.53,116.41,0
		c2.43-2.43,4.85-4.85,6.06-6.06l115.2-1.21l-1.21,1.21h596.6h31.53c36.38-63.06,63.06-133.39,80.03-206.14h-106.71
		c-8.49,35.17-21.83,70.33-36.38,101.86l-563.86,1.21l0,0H976.12c-2.43-2.43-4.85-4.85-7.28-7.28
		C937.31,1219.48,885.17,1218.27,852.43,1251.01z M1210.15,631.37c-2.43,2.43-4.85,4.85-6.06,8.49H1090.1l-1.21-1.21H586.87
		l-93.37,1.21l-30.32-1.21c-36.38,63.06-64.27,132.17-80.03,206.14h106.71c8.49-35.17,20.61-69.12,36.38-101.86l563.86-1.21l0,0
		h113.98c2.43,2.43,4.85,4.85,6.06,6.06c32.74,32.74,84.88,33.95,117.62,1.21c31.53-31.53,31.53-84.88-1.21-117.62
		C1295.03,599.84,1241.67,599.84,1210.15,631.37z"/>
	<g>
		<path d="M2133.66,953.72V499.85h291.78v77.8h-206.19v108.29h188.04v77.81h-188.04v112.16h210.08v77.81H2133.66z"/>
		<path d="M2505.82,953.72V499.85h158.85l78.46,395.52h11.67l78.46-395.52h158.85v453.87h-82.99V562.74h-11.67l-77.81,390.98
			h-141.35l-77.81-390.98h-11.67v390.98H2505.82z"/>
		<path d="M3090.66,953.72V499.85h186.74c28.53,0,53.72,5.73,75.54,17.18c21.82,11.46,38.89,27.56,51.21,48.32
			c12.32,20.74,18.48,45.38,18.48,73.91v9.08c0,28.1-6.37,52.62-19.11,73.58c-12.76,20.97-30.07,37.18-51.89,48.63
			c-21.82,11.46-46.57,17.19-74.24,17.19h-101.15v165.99H3090.66z M3176.25,709.92h92.72c20.31,0,36.75-5.61,49.28-16.85
			c12.53-11.24,18.79-26.59,18.79-46.05v-6.49c0-19.45-6.26-34.78-18.79-46.03c-12.53-11.24-28.97-16.86-49.28-16.86h-92.72V709.92z
			"/>
		<path d="M3495.26,953.72V499.85h85.59v453.87H3495.26z"/>
		<path d="M3679.39,953.72V499.85h197.11c28.53,0,53.38,4.97,74.56,14.9c21.17,9.96,37.6,24,49.28,42.16
			c11.67,18.15,17.5,39.55,17.5,64.19v7.78c0,27.24-6.49,49.28-19.45,66.14c-12.97,16.85-28.97,29.17-47.99,36.95v11.68
			c17.29,0.86,30.7,6.8,40.2,17.83c9.51,11.02,14.27,25.61,14.27,43.76v148.49h-85.58V817.56c0-10.38-2.71-18.81-8.1-25.28
			c-5.42-6.49-14.38-9.74-26.91-9.74h-119.3v171.18H3679.39z M3764.98,704.74h102.44c20.32,0,36.2-5.51,47.66-16.54
			c11.45-11.03,17.18-25.61,17.18-43.76v-6.49c0-18.15-5.62-32.75-16.86-43.77c-11.24-11.02-27.23-16.54-47.98-16.54h-102.44V704.74
			z"/>
		<path d="M4102.14,953.72V499.85h85.59v453.87H4102.14z"/>
		<path d="M4458.75,962.8c-56.2,0-100.73-15.67-133.57-47.01c-32.86-31.34-49.28-76.19-49.28-134.55V672.32
			c0-58.35,16.42-103.2,49.28-134.55c32.84-31.34,77.37-47.01,133.57-47.01c55.76,0,98.88,15.24,129.35,45.72
			c30.48,30.47,45.72,72.29,45.72,125.46v3.89h-84.3v-6.49c0-26.79-7.45-48.84-22.37-66.13c-14.92-17.28-37.72-25.93-68.4-25.93
			c-30.27,0-54.05,9.29-71.33,27.88c-17.29,18.59-25.93,43.88-25.93,75.85v111.52c0,31.56,8.64,56.73,25.93,75.54
			c17.28,18.81,41.06,28.2,71.33,28.2c30.68,0,53.48-8.74,68.4-26.26c14.92-17.5,22.37-39.44,22.37-65.8v-11.68h84.3v9.08
			c0,53.17-15.24,94.99-45.72,125.46C4557.63,947.56,4514.51,962.8,4458.75,962.8z"/>
		<path d="M2126.52,1501.67v-378.23h135.62l75.1,329.6h9.73v-329.6h70.24v378.23h-135.62l-75.1-329.6h-9.72v329.6H2126.52z"/>
		<path d="M2488.53,1501.67v-378.23h243.14v64.84h-171.82v90.24h156.69v64.84h-156.69v93.47h175.06v64.84H2488.53z"/>
		<path d="M2875.39,1501.67v-313.39h-110.23v-64.84h291.77v64.84h-110.22v313.39H2875.39z"/>
		<path d="M3135.83,1501.67l-49.71-378.23h70.78l36.74,328.52h9.74l47.55-328.52h123.19l47.55,328.52h9.72l36.74-328.52h70.79
			l-49.71,378.23H3366l-48.63-336.07h-9.72l-48.63,336.07H3135.83z"/>
		<path d="M3734.49,1509.24c-47.55,0-85.37-13.05-113.47-39.18c-28.1-26.12-42.14-63.48-42.14-112.11v-90.77
			c0-48.63,14.04-86,42.14-112.12c28.1-26.1,65.92-39.17,113.47-39.17c47.55,0,85.37,13.06,113.47,39.17
			c28.1,26.13,42.14,63.49,42.14,112.12v90.77c0,48.63-14.04,86-42.14,112.11C3819.86,1496.19,3782.04,1509.24,3734.49,1509.24z
			 M3734.49,1445.47c26.65,0,47.36-7.74,62.14-23.23c14.76-15.48,22.15-36.19,22.15-62.14v-95.09c0-25.93-7.39-46.65-22.15-62.14
			c-14.77-15.48-35.49-23.23-62.14-23.23c-26.3,0-46.92,7.75-61.86,23.23c-14.96,15.49-22.42,36.2-22.42,62.14v95.09
			c0,25.95,7.47,46.66,22.42,62.14C3687.57,1437.73,3708.2,1445.47,3734.49,1445.47z"/>
		<path d="M3952.78,1501.67v-378.23h164.26c23.77,0,44.48,4.15,62.14,12.44c17.65,8.29,31.34,19.98,41.06,35.12
			c9.72,15.13,14.59,32.95,14.59,53.48v6.49c0,22.7-5.4,41.06-16.21,55.12c-10.81,14.04-24.15,24.31-39.99,30.79v9.74
			c14.41,0.72,25.58,5.66,33.5,14.85c7.92,9.19,11.89,21.34,11.89,36.48v123.73h-71.33V1388.2c0-8.64-2.26-15.66-6.75-21.06
			c-4.52-5.4-11.98-8.1-22.42-8.1h-99.43v142.64H3952.78z M4024.1,1294.19h85.37c16.93,0,30.16-4.59,39.72-13.78
			c9.54-9.19,14.32-21.34,14.32-36.47v-5.4c0-15.14-4.69-27.29-14.04-36.48c-9.37-9.19-22.7-13.78-39.99-13.78h-85.37V1294.19z"/>
		<path d="M4294.25,1501.67v-378.23h71.33v150.21h9.72l122.66-150.21h91.31l-157.76,186.41l163.17,191.82h-94.01l-125.36-153.44
			h-9.72v153.44H4294.25z"/>
	</g>
</g>
</svg>
