<?xml version="1.0" standalone="no"?>
<!DOCTYPE svg PUBLIC "-//W3C//DTD SVG 20010904//EN"
 "http://www.w3.org/TR/2001/REC-SVG-20010904/DTD/svg10.dtd">
<svg version="1.0" xmlns="http://www.w3.org/2000/svg"
 width="700.000000pt" height="700.000000pt" viewBox="0 0 700.000000 700.000000"
 preserveAspectRatio="xMidYMid meet">
<metadata>
Created by potrace 1.14, written by Peter Selinger 2001-2017
</metadata>
<g transform="translate(0.000000,700.000000) scale(0.100000,-0.100000)"
fill="#000000" stroke="none">
<path d="M3203 6015 c-414 -54 -790 -195 -1123 -423 -148 -101 -223 -165 -380
-319 l-145 -142 257 -1 257 0 78 63 c437 352 1000 521 1559 466 572 -55 1090
-329 1462 -774 146 -174 294 -431 372 -645 57 -155 120 -432 120 -527 l0 -33
-2342 -2 -2343 -3 -3 -150 c-19 -904 475 -1762 1278 -2223 845 -484 1895 -436
2695 123 140 98 241 185 385 329 l115 116 -257 0 -257 0 -83 -67 c-292 -235
-646 -389 -1040 -450 -155 -24 -461 -24 -618 1 -464 71 -863 267 -1198 590
-282 272 -476 595 -586 976 -26 93 -66 312 -66 366 l0 34 2343 2 2342 3 -1
210 c-1 238 -15 357 -70 578 -95 377 -268 715 -522 1017 -409 487 -998 807
-1632 885 -151 18 -452 18 -597 0z"/>
<path d="M1240 4640 c-75 -149 -140 -315 -180 -462 -16 -62 -30 -119 -30 -125
0 -10 44 -13 185 -13 l184 0 11 43 c15 59 57 180 89 254 l26 63 1180 2 1180 3
3 178 2 177 -1294 0 -1294 0 -62 -120z"/>
<path d="M5596 2943 c-3 -10 -10 -38 -16 -63 -6 -25 -32 -98 -58 -162 l-46
-118 -1183 0 -1183 0 0 -180 0 -180 1294 0 1294 0 55 108 c30 59 76 160 101
225 45 113 116 343 116 373 0 12 -32 14 -184 14 -167 0 -185 -2 -190 -17z"/>
</g>
</svg>
