<?xml version="1.0" standalone="no"?>
<!DOCTYPE svg PUBLIC "-//W3C//DTD SVG 20010904//EN"
 "http://www.w3.org/TR/2001/REC-SVG-20010904/DTD/svg10.dtd">
<svg version="1.0" xmlns="http://www.w3.org/2000/svg"
 width="700.000000pt" height="700.000000pt" viewBox="0 0 700.000000 700.000000"
 preserveAspectRatio="xMidYMid meet">
<metadata>
Created by potrace 1.14, written by Peter Selinger 2001-2017
</metadata>
<g transform="translate(0.000000,700.000000) scale(0.100000,-0.100000)"
fill="#000000" stroke="none">
<path d="M3437 6034 c-1 -1 -47 -4 -102 -8 -93 -6 -121 -9 -200 -21 -16 -3
-48 -7 -70 -10 -22 -4 -85 -18 -140 -31 -55 -14 -110 -28 -122 -30 -36 -7
-227 -76 -238 -85 -5 -5 -16 -9 -25 -9 -28 0 -298 -141 -410 -214 -150 -98
-248 -176 -385 -307 -69 -65 -185 -185 -185 -191 0 -1 114 -3 253 -3 l253 1
75 61 c271 222 663 402 974 448 22 4 47 8 55 10 49 13 156 20 310 20 153 0
334 -10 350 -20 3 -1 28 -6 55 -9 28 -4 68 -12 90 -18 22 -5 49 -12 59 -14 40
-7 223 -67 263 -85 23 -10 44 -19 48 -19 11 0 205 -98 266 -136 580 -350 977
-965 1045 -1620 l7 -60 -2335 -1 c-1285 0 -2340 -3 -2345 -6 -6 -4 -11 -39
-13 -79 -39 -985 504 -1903 1395 -2358 61 -31 124 -61 140 -68 17 -6 66 -25
110 -42 183 -70 405 -124 605 -146 36 -3 79 -8 95 -10 45 -5 357 -5 380 0 12
2 52 7 90 10 39 4 77 9 85 11 8 2 34 7 57 10 112 16 305 68 448 120 98 36 315
139 405 192 60 35 240 157 265 180 11 10 47 40 80 66 86 69 316 300 306 307
-5 3 -120 5 -255 4 l-246 0 -32 -31 c-95 -89 -316 -231 -490 -313 -91 -42
-285 -113 -342 -124 -12 -3 -59 -13 -106 -24 -139 -33 -270 -47 -455 -47 -152
0 -286 10 -385 30 -113 22 -143 29 -205 47 -543 154 -1033 535 -1297 1008 -14
25 -35 61 -46 80 -84 141 -192 472 -217 665 -3 22 -9 65 -13 96 l-8 56 1765 2
c3039 4 2924 3 2927 26 6 34 5 287 -1 355 -31 337 -130 679 -277 960 -332 633
-902 1094 -1588 1285 -75 20 -111 29 -220 50 -14 3 -47 8 -75 11 -27 4 -53 8
-56 10 -10 6 -365 23 -372 18z"/>
<path d="M1310 4762 c-16 -6 -127 -232 -175 -357 -43 -112 -89 -261 -100 -326
l-7 -35 184 0 184 0 36 110 c19 61 48 141 64 178 l29 68 275 0 c151 1 686 2
1188 3 l912 1 1 31 c2 82 -2 320 -7 324 -5 5 -2568 8 -2584 3z"/>
<path d="M5600 2956 c0 -15 -51 -169 -82 -248 l-42 -108 -296 0 c-162 -1 -696
-2 -1187 -3 l-892 -2 -3 -173 c-2 -96 -1 -177 2 -181 3 -3 588 -6 1300 -6
l1295 -1 66 131 c36 71 86 186 111 255 52 141 102 316 94 328 -4 6 -366 14
-366 8z"/>
</g>
</svg>
