<?xml version="1.0" standalone="no"?>
<!DOCTYPE svg PUBLIC "-//W3C//DTD SVG 20010904//EN"
 "http://www.w3.org/TR/2001/REC-SVG-20010904/DTD/svg10.dtd">
<svg version="1.0" xmlns="http://www.w3.org/2000/svg"
 width="700.000000pt" height="700.000000pt" viewBox="0 0 700.000000 700.000000"
 preserveAspectRatio="xMidYMid meet">
<g transform="translate(0.000000,700.000000) scale(0.100000,-0.100000)"
fill="#000000" stroke="none">
<path d="M3437 6034 c-1 -1 -47 -4 -102 -8 -93 -6 -121 -9 -200 -21 -16 -3
-48 -7 -70 -10 -22 -4 -85 -18 -140 -31 -55 -14 -110 -28 -122 -30 -36 -7
-227 -76 -238 -85 -5 -5 -15 -9 -23 -9 -26 0 -274 -127 -381 -195 -165 -104
-274 -190 -416 -326 -68 -65 -185 -185 -185 -190 0 -4 482 -3 505 0 6 1 28 18
50 38 113 101 366 258 525 325 154 64 359 126 475 143 22 4 47 8 55 10 46 13
155 20 310 20 153 0 334 -10 350 -20 3 -1 28 -6 55 -9 28 -4 68 -12 90 -18 22
-5 49 -12 59 -14 40 -7 223 -67 263 -85 23 -10 44 -19 48 -19 11 0 205 -98
266 -136 478 -289 827 -746 978 -1280 32 -116 71 -316 71 -369 l0 -31 -2335
-1 c-1285 0 -2338 -3 -2342 -7 -4 -4 -8 -14 -10 -24 -5 -25 -4 -324 1 -347 2
-11 7 -54 11 -95 4 -41 8 -77 10 -80 2 -3 6 -30 10 -60 4 -30 9 -58 11 -61 2
-3 6 -21 9 -40 35 -208 176 -562 307 -774 130 -209 209 -308 392 -490 486
-483 1111 -739 1801 -736 83 0 159 2 170 5 12 2 52 7 90 10 39 4 77 9 85 11 8
2 35 7 60 10 81 11 319 75 433 116 96 35 329 143 392 181 114 70 259 171 336
233 113 91 352 327 340 335 -5 3 -119 5 -253 4 l-243 0 -90 -73 c-119 -96
-252 -179 -410 -256 -113 -55 -304 -127 -369 -139 -12 -2 -39 -9 -61 -14 -80
-21 -192 -41 -275 -49 -185 -17 -463 -7 -610 22 -113 22 -144 29 -205 46 -837
237 -1458 954 -1569 1809 l-12 96 1040 2 c573 1 1627 2 2344 3 716 1 1305 5
1307 10 8 12 8 269 0 359 -25 313 -110 626 -246 908 -352 728 -1053 1260
-1840 1397 -13 2 -37 6 -54 9 -91 16 -436 40 -448 30z"/>
<path d="M4070 4865 c-66 -13 -111 -36 -148 -74 l-27 -28 -1293 1 c-853 1
-1297 -2 -1302 -9 -21 -25 -124 -244 -164 -347 -44 -114 -90 -263 -101 -329
l-7 -35 185 0 185 0 27 90 c14 50 43 130 63 178 l37 88 315 0 c173 1 706 2
1185 3 l869 2 41 -34 c137 -115 334 -94 427 47 142 215 -43 499 -292 447z"/>
<path d="M5581 2886 c-12 -39 -40 -119 -63 -178 l-42 -108 -296 0 c-162 -1
-695 -2 -1185 -3 l-890 -2 -36 32 c-151 136 -385 84 -464 -102 -10 -24 -17
-67 -17 -105 0 -151 108 -273 255 -287 80 -7 147 13 214 66 l48 38 1295 -2
1295 -1 66 131 c36 71 86 186 111 255 54 146 103 319 93 328 -4 4 -87 7 -185
8 l-178 1 -21 -71z"/>
</g>
</svg>
