<svg width="21" height="20" viewBox="0 0 21 20" fill="none" xmlns="http://www.w3.org/2000/svg">
<mask id="mask0_484_1140" style="mask-type:alpha" maskUnits="userSpaceOnUse" x="0" y="0" width="21" height="20">
<rect x="0.5" width="20" height="20" fill="#D9D9D9"/>
</mask>
<g mask="url(#mask0_484_1140)">
<path d="M8 15C7.5875 15 7.23438 14.8531 6.94062 14.5594C6.64687 14.2656 6.5 13.9125 6.5 13.5V3.5C6.5 3.0875 6.64687 2.73438 6.94062 2.44063C7.23438 2.14688 7.5875 2 8 2H16C16.4125 2 16.7656 2.14688 17.0594 2.44063C17.3531 2.73438 17.5 3.0875 17.5 3.5V13.5C17.5 13.9125 17.3531 14.2656 17.0594 14.5594C16.7656 14.8531 16.4125 15 16 15H8ZM8 13.5H16V3.5H8V13.5ZM5 18C4.5875 18 4.23437 17.8531 3.94062 17.5594C3.64687 17.2656 3.5 16.9125 3.5 16.5V5H5V16.5H14.5V18H5Z" fill="#B5F0E5"/>
</g>
</svg>
