<svg width="24" height="24" viewBox="0 0 24 24" fill="none" xmlns="http://www.w3.org/2000/svg">
<g clip-path="url(#clip0_349_12)">
<path d="M20.9998 20.9998L15.8028 15.8028M15.8028 15.8028C17.2094 14.3962 17.9996 12.4885 17.9996 10.4993C17.9996 8.51011 17.2094 6.60238 15.8028 5.19581C14.3962 3.78923 12.4885 2.99902 10.4993 2.99902C8.51011 2.99902 6.60238 3.78923 5.19581 5.19581C3.78923 6.60238 2.99902 8.51011 2.99902 10.4993C2.99902 12.4885 3.78923 14.3962 5.19581 15.8028C6.60238 17.2094 8.51011 17.9996 10.4993 17.9996C12.4885 17.9996 14.3962 17.2094 15.8028 15.8028Z" stroke="#B5F0E5" stroke-width="1.5" stroke-linecap="round" stroke-linejoin="round"/>
<g filter="url(#filter0_d_349_12)">
<rect x="12" y="2" width="4" height="4" rx="2" fill="#15FF81"/>
</g>
<g filter="url(#filter1_d_349_12)">
<rect x="3" y="14" width="4" height="4" rx="2" fill="#15FF81"/>
</g>
</g>
<defs>
<filter id="filter0_d_349_12" x="-2" y="-12" width="32" height="32" filterUnits="userSpaceOnUse" color-interpolation-filters="sRGB">
<feFlood flood-opacity="0" result="BackgroundImageFix"/>
<feColorMatrix in="SourceAlpha" type="matrix" values="0 0 0 0 0 0 0 0 0 0 0 0 0 0 0 0 0 0 127 0" result="hardAlpha"/>
<feOffset/>
<feGaussianBlur stdDeviation="7"/>
<feComposite in2="hardAlpha" operator="out"/>
<feColorMatrix type="matrix" values="0 0 0 0 0.235294 0 0 0 0 0.956863 0 0 0 0 0.403922 0 0 0 0.8 0"/>
<feBlend mode="normal" in2="BackgroundImageFix" result="effect1_dropShadow_349_12"/>
<feBlend mode="normal" in="SourceGraphic" in2="effect1_dropShadow_349_12" result="shape"/>
</filter>
<filter id="filter1_d_349_12" x="-11" y="0" width="32" height="32" filterUnits="userSpaceOnUse" color-interpolation-filters="sRGB">
<feFlood flood-opacity="0" result="BackgroundImageFix"/>
<feColorMatrix in="SourceAlpha" type="matrix" values="0 0 0 0 0 0 0 0 0 0 0 0 0 0 0 0 0 0 127 0" result="hardAlpha"/>
<feOffset/>
<feGaussianBlur stdDeviation="7"/>
<feComposite in2="hardAlpha" operator="out"/>
<feColorMatrix type="matrix" values="0 0 0 0 0.235294 0 0 0 0 0.956863 0 0 0 0 0.403922 0 0 0 0.8 0"/>
<feBlend mode="normal" in2="BackgroundImageFix" result="effect1_dropShadow_349_12"/>
<feBlend mode="normal" in="SourceGraphic" in2="effect1_dropShadow_349_12" result="shape"/>
</filter>
<clipPath id="clip0_349_12">
<rect width="24" height="24" fill="white"/>
</clipPath>
</defs>
</svg>
