<svg width="270" height="270" viewBox="0 0 270 270" fill="none" xmlns="http://www.w3.org/2000/svg">
<path d="M92.2656 110.381C92.2761 99.6542 83.6587 90.9502 73.018 90.9395C62.3772 90.9289 53.7426 99.6156 53.732 110.342C53.7215 121.068 62.3389 129.772 72.9797 129.783C83.6204 129.794 92.255 121.107 92.2656 110.381Z" stroke="#B5F0E5" stroke-width="0.5" stroke-miterlimit="10"/>
<path d="M73.0083 101.104C67.9363 101.099 63.8205 105.24 63.8154 110.352C63.8104 115.465 67.918 119.614 72.9901 119.619C78.0621 119.624 82.1779 115.484 82.183 110.371C82.188 105.258 78.0804 101.109 73.0083 101.104Z" stroke="#B5F0E5" stroke-width="0.5" stroke-miterlimit="10"/>
<path d="M105.111 110.394C105.128 92.5166 90.7659 78.0096 73.031 77.9919C55.2962 77.9741 40.905 92.4523 40.8874 110.33C40.8698 128.207 55.2324 142.714 72.9672 142.732C90.702 142.75 105.093 128.272 105.111 110.394Z" stroke="#B5F0E5" stroke-width="0.5" stroke-miterlimit="10"/>
<path d="M105.113 110.394C105.13 92.5166 90.7678 78.0096 73.033 77.9919C55.2982 77.9741 40.907 92.4523 40.8893 110.33C40.8717 128.207 55.2343 142.714 72.9692 142.732C90.704 142.75 105.095 128.272 105.113 110.394Z" stroke="#B5F0E5" stroke-width="0.5" stroke-miterlimit="10"/>
<path d="M117.955 110.408C117.979 85.3802 97.8718 65.0707 73.0437 65.0456C48.2155 65.0204 28.0686 85.2891 28.0442 110.317C28.0198 135.345 48.1272 155.654 72.9553 155.679C97.7835 155.704 117.93 135.436 117.955 110.408Z" stroke="#B5F0E5" stroke-width="0.5" stroke-miterlimit="10"/>
<path d="M154.995 200.002C155.009 185.67 143.388 174.041 129.038 174.026C114.688 174.012 103.043 185.618 103.029 199.949C103.015 214.28 114.637 225.91 128.987 225.924C143.337 225.939 154.981 214.333 154.995 200.002Z" stroke="#B5F0E5" stroke-width="0.5" stroke-miterlimit="10"/>
<path d="M256.834 129.056C256.904 58.3638 199.654 0.999352 128.961 0.929099C58.269 0.858846 0.904488 58.1094 0.834235 128.802C0.763982 199.494 58.0145 256.859 128.707 256.929C199.399 256.999 256.764 199.749 256.834 129.056Z" stroke="#B5F0E5" stroke-width="0.5" stroke-miterlimit="10"/>
<g filter="url(#filter0_d_275_49)">
<rect width="2.4242" height="2.40486" rx="1.20243" transform="matrix(0.00098585 -0.999999 0.999999 0.00100177 39.6895 106.934)" fill="#B5F0E5"/>
</g>
<g filter="url(#filter1_d_275_49)">
<rect width="2.4242" height="2.40486" rx="1.20243" transform="matrix(0.00098585 -0.999999 0.999999 0.00100177 42.0566 145.125)" fill="#B5F0E5"/>
</g>
<g filter="url(#filter2_d_275_49)">
<rect width="2.4242" height="2.40486" rx="1.20243" transform="matrix(0.00098585 -0.999999 0.999999 0.00100177 55.3965 121.252)" fill="#B5F0E5"/>
</g>
<g filter="url(#filter3_d_275_49)">
<rect width="2.4242" height="2.40486" rx="1.20243" transform="matrix(0.00098585 -0.999999 0.999999 0.00100177 94.7656 72.3223)" fill="#B5F0E5"/>
</g>
<g filter="url(#filter4_d_275_49)">
<rect x="250.412" y="160.966" width="5.32561" height="5.32561" rx="2.66281" transform="rotate(-89.9431 250.412 160.966)" fill="#B5F0E5"/>
</g>
<g filter="url(#filter5_d_275_49)">
<rect x="156.854" y="255.971" width="5.32561" height="5.32561" rx="2.66281" transform="rotate(-89.9431 156.854 255.971)" fill="#B5F0E5"/>
</g>
<g filter="url(#filter6_d_275_49)">
<rect width="2.4242" height="2.40486" rx="1.20243" transform="matrix(0.00098585 -0.999999 0.999999 0.00100177 92.5391 136.319)" fill="#B5F0E5"/>
</g>
<path d="M204.266 110.381C204.276 99.6542 195.659 90.9502 185.018 90.9395C174.377 90.9289 165.743 99.6156 165.732 110.342C165.721 121.068 174.339 129.772 184.98 129.783C195.62 129.794 204.255 121.107 204.266 110.381Z" stroke="#B5F0E5" stroke-width="0.5" stroke-miterlimit="10"/>
<path d="M185.008 101.104C179.936 101.099 175.82 105.24 175.815 110.352C175.81 115.465 179.918 119.614 184.99 119.619C190.062 119.624 194.178 115.484 194.183 110.371C194.188 105.258 190.08 101.109 185.008 101.104Z" stroke="#B5F0E5" stroke-width="0.5" stroke-miterlimit="10"/>
<path d="M217.111 110.394C217.128 92.5166 202.766 78.0096 185.031 77.9919C167.296 77.9741 152.905 92.4523 152.887 110.33C152.87 128.207 167.232 142.714 184.967 142.732C202.702 142.75 217.093 128.272 217.111 110.394Z" stroke="#B5F0E5" stroke-width="0.5" stroke-miterlimit="10"/>
<path d="M217.113 110.394C217.13 92.5166 202.768 78.0096 185.033 77.9919C167.298 77.9741 152.907 92.4523 152.889 110.33C152.872 128.207 167.234 142.714 184.969 142.732C202.704 142.75 217.095 128.272 217.113 110.394Z" stroke="#B5F0E5" stroke-width="0.5" stroke-miterlimit="10"/>
<path d="M229.955 110.408C229.979 85.3802 209.872 65.0707 185.044 65.0456C160.216 65.0204 140.069 85.2891 140.044 110.317C140.02 135.345 160.127 155.654 184.955 155.679C209.783 155.704 229.93 135.436 229.955 110.408Z" stroke="#B5F0E5" stroke-width="0.5" stroke-miterlimit="10"/>
<g filter="url(#filter7_d_275_49)">
<rect width="2.4242" height="2.40486" rx="1.20243" transform="matrix(0.00098585 -0.999999 0.999999 0.00100177 151.689 106.934)" fill="#B5F0E5"/>
</g>
<g filter="url(#filter8_d_275_49)">
<rect width="2.4242" height="2.40486" rx="1.20243" transform="matrix(0.00098585 -0.999999 0.999999 0.00100177 154.057 145.125)" fill="#B5F0E5"/>
</g>
<g filter="url(#filter9_d_275_49)">
<rect width="2.4242" height="2.40486" rx="1.20243" transform="matrix(0.00098585 -0.999999 0.999999 0.00100177 167.396 121.252)" fill="#B5F0E5"/>
</g>
<g filter="url(#filter10_d_275_49)">
<rect width="2.4242" height="2.40486" rx="1.20243" transform="matrix(0.00098585 -0.999999 0.999999 0.00100177 206.766 72.3223)" fill="#B5F0E5"/>
</g>
<g filter="url(#filter11_d_275_49)">
<rect width="2.4242" height="2.40486" rx="1.20243" transform="matrix(0.00098585 -0.999999 0.999999 0.00100177 204.539 136.319)" fill="#B5F0E5"/>
</g>
<defs>
<filter id="filter0_d_275_49" x="25.6895" y="90.5093" width="30.4082" height="30.4268" filterUnits="userSpaceOnUse" color-interpolation-filters="sRGB">
<feFlood flood-opacity="0" result="BackgroundImageFix"/>
<feColorMatrix in="SourceAlpha" type="matrix" values="0 0 0 0 0 0 0 0 0 0 0 0 0 0 0 0 0 0 127 0" result="hardAlpha"/>
<feOffset/>
<feGaussianBlur stdDeviation="7"/>
<feComposite in2="hardAlpha" operator="out"/>
<feColorMatrix type="matrix" values="0 0 0 0 0.235294 0 0 0 0 0.956863 0 0 0 0 0.403922 0 0 0 0.8 0"/>
<feBlend mode="normal" in2="BackgroundImageFix" result="effect1_dropShadow_275_49"/>
<feBlend mode="normal" in="SourceGraphic" in2="effect1_dropShadow_275_49" result="shape"/>
</filter>
<filter id="filter1_d_275_49" x="28.0566" y="128.701" width="30.4082" height="30.4268" filterUnits="userSpaceOnUse" color-interpolation-filters="sRGB">
<feFlood flood-opacity="0" result="BackgroundImageFix"/>
<feColorMatrix in="SourceAlpha" type="matrix" values="0 0 0 0 0 0 0 0 0 0 0 0 0 0 0 0 0 0 127 0" result="hardAlpha"/>
<feOffset/>
<feGaussianBlur stdDeviation="7"/>
<feComposite in2="hardAlpha" operator="out"/>
<feColorMatrix type="matrix" values="0 0 0 0 0.235294 0 0 0 0 0.956863 0 0 0 0 0.403922 0 0 0 0.8 0"/>
<feBlend mode="normal" in2="BackgroundImageFix" result="effect1_dropShadow_275_49"/>
<feBlend mode="normal" in="SourceGraphic" in2="effect1_dropShadow_275_49" result="shape"/>
</filter>
<filter id="filter2_d_275_49" x="41.3965" y="104.828" width="30.4082" height="30.4268" filterUnits="userSpaceOnUse" color-interpolation-filters="sRGB">
<feFlood flood-opacity="0" result="BackgroundImageFix"/>
<feColorMatrix in="SourceAlpha" type="matrix" values="0 0 0 0 0 0 0 0 0 0 0 0 0 0 0 0 0 0 127 0" result="hardAlpha"/>
<feOffset/>
<feGaussianBlur stdDeviation="7"/>
<feComposite in2="hardAlpha" operator="out"/>
<feColorMatrix type="matrix" values="0 0 0 0 0.235294 0 0 0 0 0.956863 0 0 0 0 0.403922 0 0 0 0.8 0"/>
<feBlend mode="normal" in2="BackgroundImageFix" result="effect1_dropShadow_275_49"/>
<feBlend mode="normal" in="SourceGraphic" in2="effect1_dropShadow_275_49" result="shape"/>
</filter>
<filter id="filter3_d_275_49" x="80.7656" y="55.8979" width="30.4082" height="30.4268" filterUnits="userSpaceOnUse" color-interpolation-filters="sRGB">
<feFlood flood-opacity="0" result="BackgroundImageFix"/>
<feColorMatrix in="SourceAlpha" type="matrix" values="0 0 0 0 0 0 0 0 0 0 0 0 0 0 0 0 0 0 127 0" result="hardAlpha"/>
<feOffset/>
<feGaussianBlur stdDeviation="7"/>
<feComposite in2="hardAlpha" operator="out"/>
<feColorMatrix type="matrix" values="0 0 0 0 0.235294 0 0 0 0 0.956863 0 0 0 0 0.403922 0 0 0 0.8 0"/>
<feBlend mode="normal" in2="BackgroundImageFix" result="effect1_dropShadow_275_49"/>
<feBlend mode="normal" in="SourceGraphic" in2="effect1_dropShadow_275_49" result="shape"/>
</filter>
<filter id="filter4_d_275_49" x="236.412" y="141.64" width="33.3301" height="33.3311" filterUnits="userSpaceOnUse" color-interpolation-filters="sRGB">
<feFlood flood-opacity="0" result="BackgroundImageFix"/>
<feColorMatrix in="SourceAlpha" type="matrix" values="0 0 0 0 0 0 0 0 0 0 0 0 0 0 0 0 0 0 127 0" result="hardAlpha"/>
<feOffset/>
<feGaussianBlur stdDeviation="7"/>
<feComposite in2="hardAlpha" operator="out"/>
<feColorMatrix type="matrix" values="0 0 0 0 0.235294 0 0 0 0 0.956863 0 0 0 0 0.403922 0 0 0 0.8 0"/>
<feBlend mode="normal" in2="BackgroundImageFix" result="effect1_dropShadow_275_49"/>
<feBlend mode="normal" in="SourceGraphic" in2="effect1_dropShadow_275_49" result="shape"/>
</filter>
<filter id="filter5_d_275_49" x="142.854" y="236.646" width="33.3301" height="33.3311" filterUnits="userSpaceOnUse" color-interpolation-filters="sRGB">
<feFlood flood-opacity="0" result="BackgroundImageFix"/>
<feColorMatrix in="SourceAlpha" type="matrix" values="0 0 0 0 0 0 0 0 0 0 0 0 0 0 0 0 0 0 127 0" result="hardAlpha"/>
<feOffset/>
<feGaussianBlur stdDeviation="7"/>
<feComposite in2="hardAlpha" operator="out"/>
<feColorMatrix type="matrix" values="0 0 0 0 0.235294 0 0 0 0 0.956863 0 0 0 0 0.403922 0 0 0 0.8 0"/>
<feBlend mode="normal" in2="BackgroundImageFix" result="effect1_dropShadow_275_49"/>
<feBlend mode="normal" in="SourceGraphic" in2="effect1_dropShadow_275_49" result="shape"/>
</filter>
<filter id="filter6_d_275_49" x="78.5391" y="119.895" width="30.4082" height="30.4268" filterUnits="userSpaceOnUse" color-interpolation-filters="sRGB">
<feFlood flood-opacity="0" result="BackgroundImageFix"/>
<feColorMatrix in="SourceAlpha" type="matrix" values="0 0 0 0 0 0 0 0 0 0 0 0 0 0 0 0 0 0 127 0" result="hardAlpha"/>
<feOffset/>
<feGaussianBlur stdDeviation="7"/>
<feComposite in2="hardAlpha" operator="out"/>
<feColorMatrix type="matrix" values="0 0 0 0 0.235294 0 0 0 0 0.956863 0 0 0 0 0.403922 0 0 0 0.8 0"/>
<feBlend mode="normal" in2="BackgroundImageFix" result="effect1_dropShadow_275_49"/>
<feBlend mode="normal" in="SourceGraphic" in2="effect1_dropShadow_275_49" result="shape"/>
</filter>
<filter id="filter7_d_275_49" x="137.689" y="90.5093" width="30.4082" height="30.4268" filterUnits="userSpaceOnUse" color-interpolation-filters="sRGB">
<feFlood flood-opacity="0" result="BackgroundImageFix"/>
<feColorMatrix in="SourceAlpha" type="matrix" values="0 0 0 0 0 0 0 0 0 0 0 0 0 0 0 0 0 0 127 0" result="hardAlpha"/>
<feOffset/>
<feGaussianBlur stdDeviation="7"/>
<feComposite in2="hardAlpha" operator="out"/>
<feColorMatrix type="matrix" values="0 0 0 0 0.235294 0 0 0 0 0.956863 0 0 0 0 0.403922 0 0 0 0.8 0"/>
<feBlend mode="normal" in2="BackgroundImageFix" result="effect1_dropShadow_275_49"/>
<feBlend mode="normal" in="SourceGraphic" in2="effect1_dropShadow_275_49" result="shape"/>
</filter>
<filter id="filter8_d_275_49" x="140.057" y="128.701" width="30.4082" height="30.4268" filterUnits="userSpaceOnUse" color-interpolation-filters="sRGB">
<feFlood flood-opacity="0" result="BackgroundImageFix"/>
<feColorMatrix in="SourceAlpha" type="matrix" values="0 0 0 0 0 0 0 0 0 0 0 0 0 0 0 0 0 0 127 0" result="hardAlpha"/>
<feOffset/>
<feGaussianBlur stdDeviation="7"/>
<feComposite in2="hardAlpha" operator="out"/>
<feColorMatrix type="matrix" values="0 0 0 0 0.235294 0 0 0 0 0.956863 0 0 0 0 0.403922 0 0 0 0.8 0"/>
<feBlend mode="normal" in2="BackgroundImageFix" result="effect1_dropShadow_275_49"/>
<feBlend mode="normal" in="SourceGraphic" in2="effect1_dropShadow_275_49" result="shape"/>
</filter>
<filter id="filter9_d_275_49" x="153.396" y="104.828" width="30.4082" height="30.4268" filterUnits="userSpaceOnUse" color-interpolation-filters="sRGB">
<feFlood flood-opacity="0" result="BackgroundImageFix"/>
<feColorMatrix in="SourceAlpha" type="matrix" values="0 0 0 0 0 0 0 0 0 0 0 0 0 0 0 0 0 0 127 0" result="hardAlpha"/>
<feOffset/>
<feGaussianBlur stdDeviation="7"/>
<feComposite in2="hardAlpha" operator="out"/>
<feColorMatrix type="matrix" values="0 0 0 0 0.235294 0 0 0 0 0.956863 0 0 0 0 0.403922 0 0 0 0.8 0"/>
<feBlend mode="normal" in2="BackgroundImageFix" result="effect1_dropShadow_275_49"/>
<feBlend mode="normal" in="SourceGraphic" in2="effect1_dropShadow_275_49" result="shape"/>
</filter>
<filter id="filter10_d_275_49" x="192.766" y="55.8979" width="30.4082" height="30.4268" filterUnits="userSpaceOnUse" color-interpolation-filters="sRGB">
<feFlood flood-opacity="0" result="BackgroundImageFix"/>
<feColorMatrix in="SourceAlpha" type="matrix" values="0 0 0 0 0 0 0 0 0 0 0 0 0 0 0 0 0 0 127 0" result="hardAlpha"/>
<feOffset/>
<feGaussianBlur stdDeviation="7"/>
<feComposite in2="hardAlpha" operator="out"/>
<feColorMatrix type="matrix" values="0 0 0 0 0.235294 0 0 0 0 0.956863 0 0 0 0 0.403922 0 0 0 0.8 0"/>
<feBlend mode="normal" in2="BackgroundImageFix" result="effect1_dropShadow_275_49"/>
<feBlend mode="normal" in="SourceGraphic" in2="effect1_dropShadow_275_49" result="shape"/>
</filter>
<filter id="filter11_d_275_49" x="190.539" y="119.895" width="30.4082" height="30.4268" filterUnits="userSpaceOnUse" color-interpolation-filters="sRGB">
<feFlood flood-opacity="0" result="BackgroundImageFix"/>
<feColorMatrix in="SourceAlpha" type="matrix" values="0 0 0 0 0 0 0 0 0 0 0 0 0 0 0 0 0 0 127 0" result="hardAlpha"/>
<feOffset/>
<feGaussianBlur stdDeviation="7"/>
<feComposite in2="hardAlpha" operator="out"/>
<feColorMatrix type="matrix" values="0 0 0 0 0.235294 0 0 0 0 0.956863 0 0 0 0 0.403922 0 0 0 0.8 0"/>
<feBlend mode="normal" in2="BackgroundImageFix" result="effect1_dropShadow_275_49"/>
<feBlend mode="normal" in="SourceGraphic" in2="effect1_dropShadow_275_49" result="shape"/>
</filter>
</defs>
</svg>
