<?xml version="1.0" encoding="UTF-8" standalone="no"?>
<!DOCTYPE svg PUBLIC "-//W3C//DTD SVG 1.1//EN" "http://www.w3.org/Graphics/SVG/1.1/DTD/svg11.dtd">
<svg width="100%" height="100%" viewBox="0 0 144 30" version="1.1" xmlns="http://www.w3.org/2000/svg" xmlns:xlink="http://www.w3.org/1999/xlink" xml:space="preserve" xmlns:serif="http://www.serif.com/" style="fill-rule:evenodd;clip-rule:evenodd;stroke-linejoin:round;stroke-miterlimit:2;">
    <g transform="matrix(1,0,0,1,-55.1173,-105.603)">
        <g>
            <g transform="matrix(1,0,0,1,-1.4397,-0.753777)">
                <path d="M80.568,118.841L82.266,117.144C84.278,115.124 87.01,113.981 89.861,113.968L89.861,117.623C87.98,117.637 86.178,118.393 84.849,119.726L83.151,121.423L80.568,118.841Z" style="fill:rgb(243,113,34);fill-rule:nonzero;"/>
                <path d="M64.076,125.228C62.072,127.204 59.372,128.32 56.557,128.334L56.557,124.679C58.402,124.661 60.17,123.931 61.489,122.641L64.076,125.228Z" style="fill:rgb(243,113,34);fill-rule:nonzero;"/>
                <path d="M73.2,110.989L71.741,109.53C69.727,107.514 66.995,106.374 64.146,106.36L64.146,110.013C66.027,110.029 67.827,110.784 69.158,112.114L70.616,113.572L73.2,110.989Z" style="fill:rgb(240,81,42);fill-rule:nonzero;"/>
                <path d="M65.419,118.769L74.656,109.533C76.667,107.513 79.4,106.37 82.251,106.357L82.251,110.013C80.369,110.027 78.568,110.783 77.239,112.115L68.002,121.352L65.419,118.769Z" style="fill:rgb(243,113,34);fill-rule:nonzero;"/>
            </g>
            <g transform="matrix(1,0,0,1,-1.4397,-0.753777)">
                <path d="M73.263,126.231L64.164,117.132C62.152,115.112 59.42,113.97 56.569,113.958L56.569,117.611C58.451,117.627 60.253,118.383 61.582,119.714L70.68,128.813L73.263,126.231Z" style="fill:rgb(240,81,42);fill-rule:nonzero;"/>
                <path d="M76.753,122.654L69.161,130.246C67.831,131.578 66.029,132.334 64.147,132.349L64.147,136.004C66.997,135.991 69.73,134.849 71.743,132.829L79.336,125.237L76.753,122.654Z" style="fill:rgb(243,113,34);fill-rule:nonzero;"/>
            </g>
            <g transform="matrix(1,0,0,1,-1.4397,-0.753777)">
                <path d="M74.775,117.674L82.257,125.156C84.268,127.175 87.001,128.317 89.852,128.33L89.852,124.676C87.97,124.661 86.168,123.905 84.84,122.574L77.358,115.09L74.775,117.674Z" style="fill:rgb(240,81,42);fill-rule:nonzero;"/>
                <path d="M74.701,132.9C76.705,134.876 79.405,135.991 82.22,136.005L82.22,132.352C80.375,132.334 78.607,131.603 77.288,130.313L74.701,132.9Z" style="fill:rgb(240,81,42);fill-rule:nonzero;"/>
            </g>
            <g transform="matrix(1,0,0,1,-1.4397,-0.753777)">
                <path d="M100.359,121.014C100.354,120.896 100.351,120.779 100.351,120.661C100.351,116.034 104.159,112.226 108.787,112.226C108.804,112.226 108.821,112.226 108.838,112.226C113.114,112.226 115.655,114.743 116.415,117.688L113.731,118.591C113.245,116.327 111.147,114.749 108.838,114.91C106.059,114.91 103.28,116.929 103.28,121.014C103.28,124.957 105.988,127.046 108.862,127.046C111.181,127.12 113.265,125.58 113.874,123.341L116.487,124.197C115.567,127.6 112.384,129.931 108.862,129.779C108.804,129.78 108.746,129.781 108.688,129.781C104.112,129.781 100.348,126.016 100.348,121.441C100.348,121.298 100.351,121.156 100.359,121.014" style="fill:rgb(51,48,66);fill-rule:nonzero;"/>
                <path d="M129.704,125.194L122.579,125.194L121.011,129.422L117.994,129.422L124.55,112.581L127.851,112.581L134.407,129.422L131.295,129.422L129.704,125.194ZM123.576,122.557L128.707,122.557L126.141,115.669L123.576,122.557Z" style="fill:rgb(51,48,66);fill-rule:nonzero;"/>
                <path d="M148.572,129.422L140.259,116.667L140.259,129.422L137.409,129.422L137.409,112.581L141.043,112.581L148.691,124.529L148.691,112.581L151.542,112.581L151.542,129.422L148.572,129.422Z" style="fill:rgb(51,48,66);fill-rule:nonzero;"/>
                <path d="M167.061,112.581L170.077,112.581L163.712,129.422L160.814,129.422L154.543,112.581L157.631,112.581L162.334,125.692L167.061,112.581Z" style="fill:rgb(51,48,66);fill-rule:nonzero;"/>
                <path d="M181.365,125.194L174.239,125.194L172.671,129.422L169.655,129.422L176.211,112.581L179.512,112.581L186.068,129.422L182.956,129.422L181.365,125.194ZM175.237,122.557L180.368,122.557L177.802,115.669L175.237,122.557Z" style="fill:rgb(51,48,66);fill-rule:nonzero;"/>
                <path d="M197.436,117.332C197.173,115.753 195.73,114.622 194.134,114.743C194.052,114.736 193.969,114.732 193.887,114.732C192.513,114.732 191.353,115.797 191.237,117.166C191.242,118.28 192.099,119.22 193.208,119.327L195.631,119.826C198.6,120.42 200.191,122.296 200.191,124.672C200.191,127.284 198.077,129.778 194.23,129.778C189.954,129.778 187.983,127.022 187.722,124.6L190.381,123.84C190.512,125.82 192.249,127.342 194.23,127.212C196.248,127.212 197.293,126.192 197.293,124.885C197.293,123.792 196.486,122.914 195.037,122.605L192.662,122.106C190.097,121.584 188.387,119.897 188.387,117.38C188.387,114.553 190.976,112.225 194.111,112.225C198.077,112.225 199.621,114.648 200.001,116.524L197.436,117.332Z" style="fill:rgb(51,48,66);fill-rule:nonzero;"/>
            </g>
        </g>
    </g>
</svg>
