<?xml version="1.0" encoding="UTF-8" standalone="no"?>
<!DOCTYPE svg PUBLIC "-//W3C//DTD SVG 1.1//EN" "http://www.w3.org/Graphics/SVG/1.1/DTD/svg11.dtd">
<svg width="100%" height="100%" viewBox="0 0 601 190" version="1.1" xmlns="http://www.w3.org/2000/svg" xmlns:xlink="http://www.w3.org/1999/xlink" xml:space="preserve" xmlns:serif="http://www.serif.com/" style="fill-rule:evenodd;clip-rule:evenodd;stroke-linejoin:round;stroke-miterlimit:2;">
    <g transform="matrix(1,0,0,1,-26,-230.949)">
        <path d="M49.8,295.2L58.9,295.2L58.9,299.5L26,299.5L26,295.2L35.1,295.2L35.1,238.6C35.1,236.8 34.5,236.2 32.7,236.2L26,236.2L26,231.3L61.3,231.3C65.6,231.3 69.8,231.9 73.5,233.1C81.4,236.1 86.3,243.4 85.7,252C85.1,260.5 79.6,266.6 71.1,268.4C65,269.6 58.9,269.6 53.5,269.6C50.5,269.6 49.2,270.2 49.2,272.6L49.2,292.1C49.8,292.8 49.8,294 49.8,295.2ZM49.2,235.6L49.2,264.8C53.5,264.8 57.7,265.4 62,264.8C67.5,264.2 69.3,261.8 69.9,256.3L69.9,244.1C69.3,239.8 66.9,237.4 62.6,236.8C58.3,236.2 54.1,236.2 49.2,235.6ZM160,354.8C161.2,353.6 163,351.8 165.5,349.9C166.1,349.3 167.3,348.7 167.9,349.3C168.5,349.3 169.1,351.1 169.1,351.7L169.1,373.6C169.1,374.8 169.1,376 166.7,376C164.9,376 163.7,376 163,373.6C162.4,370.6 161.8,366.9 160,363.9C157,357.2 152.1,352.9 144.2,353.6C136.3,353.6 129.6,356.6 125.3,364.6C124.1,366.4 123.5,368.9 122.9,371.3C121.7,381 121.1,390.8 123.5,400.5C125.9,410.8 135.1,416.9 146,415.7C155.1,414.5 162.4,407.2 163,396.8C163,395 164.2,394.4 166,394.4C167.8,394.4 167.8,395.6 167.8,397.4C167.2,407.7 159.3,416.9 148.9,419.9C137.9,422.3 120.9,419.3 112.4,405.3C106.9,396.2 105.7,386.4 108.1,376.1C112.4,354.2 134.3,346.9 148.3,350.5C152.7,351.1 156.3,353 160,354.8ZM397.9,233.1L397.9,237.4L391.2,237.4C389.4,237.4 388.8,238 388.8,239.8L388.8,260.5C388.8,261.7 388.8,262.9 390.6,262.9L412.5,262.9L412.5,237.3L403.4,237.3L403.4,233L435,233L435,237.3L428.3,237.3C426.5,237.3 425.9,237.9 425.9,239.7L425.9,293.3C425.9,295.1 426.5,295.7 428.3,295.1L433.2,295.1C435,295.1 435,296.3 435,297.5C435,299.3 434.4,299.3 433.2,299.3L403.4,299.3C402.2,295 402.8,295 406.4,295L411.3,295L411.3,270.1C411.3,268.3 410.7,267.1 408.3,267.7L389.4,267.7C387.6,267.7 387,268.3 387,270.1L387,293.2C387,295 387.6,295.6 389.4,295.6L392.4,295.6C396.1,295.6 396.1,295.6 396.1,299.9L364.5,299.9L364.5,295.6L371.2,295.6C373,295.6 373.6,295 373.6,293.2L373.6,239.6C373.6,237.8 373,237.2 371.2,237.2L364.5,237.2L364.5,232.9C376.6,233.1 386.9,233.1 397.9,233.1ZM97.9,266C98.5,255 100.9,245.9 109.5,238C122.3,226.4 151.5,227.7 158.8,252.6C161.8,262.9 161.8,273.3 157,283C151.5,295.2 138.7,301.9 124.7,300C111.3,298.2 101.6,289 99.1,275.7C98.5,272.7 97.9,269.6 97.9,266ZM113.1,265.4C113.1,269.1 113.1,272.7 113.7,276.4C114.3,283.1 116.1,288.6 121,293.4C125.9,298.3 133.8,298.3 138,293.4C140.4,290.4 142.9,286.7 144.1,283.1C146.5,274.6 146.5,266.1 145.3,257.5C144.7,253.2 144.1,249 142.3,245.3C139.9,239.8 135.6,236.2 128.9,236.2C122.8,236.2 118.6,239.9 116.1,245.3C112.5,250.8 113.1,258.1 113.1,265.4ZM556.1,237.4L556.1,233.1L575.6,233.1C578,233.1 579.9,233.7 581.1,236.1C590.8,249.5 600.6,262.9 610.3,276.3C610.3,275.7 610.3,276.3 611.5,276.9C611.5,275.7 612.1,275.1 612.1,274.5L612.1,241C612.1,238.6 611.5,237.3 609.1,237.3C607.3,237.3 605.5,237.3 603,236.7L603,232.4L626.1,232.4L626.1,236.7C623.7,236.7 622.5,237.3 620.6,237.3C618.2,237.3 616.9,238.5 616.9,241.6L616.9,296.4C616.9,297.6 616.3,299.4 615.1,299.4C613.9,299.4 612.7,298.8 611.4,298.2C610.8,298.2 610.8,297.6 610.8,297C599.8,281.8 588.9,266.6 577.3,251.4C575.5,248.4 573,245.9 570.6,242.3L570.6,290.9C570.6,293.9 571.2,295.2 574.2,295.2L576,295.2C579.6,295.2 579.6,295.2 579.6,299.5L556.5,299.5C555.3,295.8 555.3,295.2 559.5,295.2C565,294.6 565,294.6 565,289.1L565,240.4C565,238 564.4,236.7 562,237.4L556.1,237.4ZM277.4,414.4L284.7,414.4C286.5,414.4 286.5,415.6 286.5,416.8C286.5,418 286.5,419.2 284.7,419.2L256.1,419.2C254.3,419.2 254.3,418.6 254.3,416.8C254.3,415.6 254.3,414.4 256.1,414.4L263.4,414.4L263.4,360.3C263.4,357.9 262.8,356.6 260.4,356.6L256.7,356.6C254.9,356.6 254.3,356 254.3,354.2C254.3,352.4 254.9,351.8 256.7,351.8L291.4,351.8C298.7,351.8 306,354.2 309.7,360.9C316.4,371.9 310.3,385.2 297.5,387.7C292,388.9 285.9,388.9 280.5,388.9C278.1,388.9 277.5,389.5 277.5,391.9C277.4,399.8 277.4,406.5 277.4,414.4ZM276.8,370.6L276.8,382.8C276.8,384 276.8,385.2 278.6,385.2C282.3,385.2 285.9,385.2 289.6,384.6C294.5,384 296.9,381.6 296.9,376.7L296.9,363.9C296.3,359 294.5,356.6 289.6,356C285.9,355.4 282.9,356 279.3,355.4C277.5,355.4 276.9,356 276.9,357.8C276.8,362.7 276.8,367 276.8,370.6ZM383.9,357.2C380.2,357.8 376,357.8 372.9,359C369.9,359.6 368,362 367.4,365.1C366.8,367.5 366.2,370.6 366.2,373C365.6,376.7 365.6,376.7 361.3,376L361.3,371.1C361.9,365.6 362.5,360.1 362.5,354.7C362.5,353.5 362.5,352.3 364.3,352.3L418.5,352.3C418.5,352.3 419.1,352.3 419.7,352.9C420.3,360.2 420.9,368.1 421.5,375.4C417.2,376.6 417.2,376.6 416.6,372.4C416,370.6 415.4,368.7 415.4,366.3C414.2,360.8 410.5,357.8 405.1,357.8L398.4,357.8L398.4,414.4L411.2,414.4L411.2,418.7L371.6,418.7L371.6,414.4L384.4,414.4C383.9,395.6 383.9,376.7 383.9,357.2ZM509.3,299.5L479.5,299.5C478.3,295.2 478.9,295.2 482.5,295.2L486.8,295.2C485,290.9 483.8,286.7 482.5,283C482.5,282.4 481.3,282.4 480.7,282.4L462.4,282.4C461.8,282.4 460.6,283 460.6,283.6C459.4,287.3 458.2,290.9 456.9,294.6C458.7,294.6 459.9,295.2 461.2,295.2C464.9,295.2 464.9,296.4 464.2,299.5L442.9,299.5C442.3,295.2 442.3,295.2 445.9,295.2C449.6,295.2 451.4,294 452.6,290.3C458.7,272 465.4,253.8 472.1,234.9C472.7,233.1 473.3,231.2 475.8,231.2C478.2,231.2 479.5,232.4 480.1,234.9C485,249.5 490.4,264.1 495.3,278.7C497.1,283.6 499,288.4 500.2,293.3C500.8,295.1 502,295.7 503.9,295.7L505.7,295.7C509.9,295.2 509.9,295.2 509.3,299.5ZM481.3,276.9C478.3,268.4 475.2,260.5 472.8,251.9L472.2,251.9C469.2,259.8 466.7,268.3 463.7,276.2C469.1,276.9 474.6,276.9 481.3,276.9ZM216.6,414.4L224.5,414.4C222.7,410.1 221.5,405.9 220.2,402.2C220.2,401.6 219,401 218.4,401L200.1,401C199.5,401 198.3,401.6 197.7,402.2C196.5,405.9 195.3,408.9 194,413.2C196.4,413.8 198.9,413.8 201.3,414.4L201.3,418.7L180,418.7C178.8,414.4 178.8,414.4 183,414.4C187.9,414.4 187.9,414.4 189.7,409.5C196.4,391.2 202.5,373 209.2,354.1C209.8,352.3 210.4,350.4 213.5,350.4C216.5,350.4 217.2,352.2 217.8,354.1C224.5,373 231.2,392.4 237.9,411.3C238.5,413.7 239.7,414.3 242.2,414.3L245.2,414.3C247,414.3 247,415.5 247,416.7C247,417.9 246.4,419.1 245.2,419.1L219,419.1C215.3,418.7 217.2,416.3 216.6,414.4ZM200.1,396.2L218.4,396.2C215.4,387.7 212.3,379.8 209.9,371.2L209.3,371.2C206.2,379.8 203.2,387.7 200.1,396.2ZM456.9,418.7L456.9,414.4L464.8,414.4C463,410.1 461.8,406.5 460.5,402.2C460.5,401.6 459.3,401 458.1,401L440.5,401C439.9,401 438.7,401.6 438.1,402.8C436.9,405.8 435.7,409.5 434.4,413.8C436.8,414.4 439.3,414.4 441.7,415L441.7,419.3L420.4,419.3C419.2,415.6 419.2,415 423.4,415C428.3,415 428.3,415 430.1,410.1C436.8,391.8 442.9,373.6 449.6,355.3C450.2,353.5 450.8,351.6 453.9,351.6C456.9,351.6 457.6,353.4 458.2,355.3C464.9,374.2 471.6,393.6 478.3,412.5C478.9,414.3 480.1,415.5 482,414.9L484.4,414.9C486.2,414.9 487.4,414.9 487.4,417.3C487.4,419.7 486.2,419.7 484.4,419.7L459.4,419.7C458.8,418.7 458.2,418.7 456.9,418.7ZM450.3,371.8L449.7,371.8C446.7,379.7 444.2,388.2 441.2,396.1L459.5,396.1C455.7,387.7 452.7,379.8 450.3,371.8ZM259.1,266C264.6,256.3 269.4,247.7 274.9,238C272.5,237.4 270.6,237.4 268.2,236.8L268.2,232.5L289.5,232.5L289.5,236.2L288.9,236.8C282.8,236.2 279.8,239.2 277.3,244.1C273,253.2 267.6,261.7 262.7,270.3C262.1,271.5 261.5,272.7 261.5,274L261.5,292.3C261.5,294.1 262.1,294.7 263.9,294.7L266.9,294.7C270.6,294.7 270.6,294.7 269.9,299L238.9,299L238.9,294.7L245.6,294.7C246.8,294.7 248,294.1 248,292.9L248,274C248,272.8 247.4,272.2 246.8,271C240.7,260 234.6,249.7 228.5,239.4C227.3,238.2 225.5,237.6 224.2,237.6C222.4,237 220.5,237.6 218.7,237.6L218.7,233.3L249.1,233.3L249.1,237.6C246.7,237.6 244.8,237.6 241.8,238.2C248.2,247.1 253.1,256.3 259.1,266ZM356.5,234.3L356.5,255C356.5,256.8 356.5,258 354.1,258C352.3,258 351.1,257.4 351.1,255.6C350.5,249.5 348.1,243.4 342.6,239.8C333.5,232.5 318.3,237.4 314,248.9C312.8,253.8 312.2,259.2 312.2,264.1C312.2,270.2 312.8,276.9 314.6,283C317,292.1 326.2,297 335.9,296.4C345,295.2 351.7,287.9 352.3,278.8C352.3,277 352.9,275.8 355.3,275.8C357.7,275.8 357.1,277.6 357.1,278.8C356.5,288.5 349.2,297.1 338.8,300.1C324.8,303.8 308.4,297.1 301.1,284.3C293.8,270.9 293.8,246 313.9,235.6C324.2,230.1 335.8,228.9 346.2,236.2C346.8,236.8 348,236.2 348.6,236.2C349.8,235 351,233.8 352.9,232.5C353.5,232.5 354.7,231.3 355.3,231.9C355.9,231.9 356.5,233.7 356.5,234.3ZM545.8,392.5C544.6,401 544,408.9 542.8,417.5C542.8,418.1 541,418.7 539.8,418.7L497.8,418.7C494.1,418.7 494.1,418.7 494.8,414.4L503.3,414.4L503.3,359.7C503.3,357.3 502.7,356 500.3,356.7L497.9,356.7C493.6,356.7 493.6,356.7 494.9,352.4L528.4,352.4C529.6,356.7 529,356.7 525.4,356.7L517.5,356.7L517.5,413.9C528.5,416.3 537,411.5 539.4,401.1C540,399.3 540,397.4 540.6,395.6C541.5,391.9 541.5,391.3 545.8,392.5ZM220.8,273.3C219.6,281.8 219,290.9 217.8,299.5L169.7,299.5L169.7,295.2L176.4,295.2C178.2,295.2 178.8,294.6 178.8,292.8L178.8,237.4L170.3,237.4L170.3,233.1L205,233.1L205,237.4L193.4,237.4L193.4,292.1C193.4,294.5 194,295.1 196.4,295.1C208.6,295.1 214,290.2 216.5,278.1C216.5,277.5 217.1,276.9 217.1,276.3C215.9,272.7 217.8,272.7 220.8,273.3ZM320.6,356.6L320.6,352.3L353.5,352.3L353.5,356.6L346.2,356.6C345,356.6 343.8,357.2 343.8,358.4L343.8,413.2C343.8,413.8 343.8,413.8 344.4,414.4L353.5,414.4L353.5,418.7L320.6,418.7L320.6,414.4L327.9,414.4C329.7,414.4 329.7,413.8 329.7,412.6L329.7,359C329.7,357.2 329.1,356.6 327.3,356.6L320.6,356.6ZM516.6,237.4L516.6,233.1L545.8,233.1C549.4,232.5 549.4,232.5 549.4,237.4L539.6,237.4L539.6,292.1C539.6,295.1 540.2,295.8 543.3,295.1L545.7,295.1C549.3,295.1 549.3,295.1 549.3,299.4L516.4,299.4C515.8,295.1 515.8,295.1 520.1,295.1C526.2,295.1 526.2,295.1 526.2,289L526.2,240.3C526.2,237.9 525.6,236.6 523.2,237.3C520.8,237.4 518.4,237.4 516.6,237.4Z" style="fill-rule:nonzero;"/>
    </g>
</svg>
