<svg width="220" height="224" viewBox="0 0 220 224" fill="none" xmlns="http://www.w3.org/2000/svg">
<path d="M130.913 101.919V130.54C130.937 131.065 130.852 131.59 130.662 132.08C130.471 132.571 130.181 133.016 129.809 133.388C129.437 133.759 128.992 134.049 128.501 134.239C128.011 134.429 127.486 134.514 126.961 134.49H58.314C52.155 134.49 47.879 133.313 45.242 130.89C43.9019 129.629 42.8493 128.093 42.156 126.389C41.4626 124.684 41.1447 122.85 41.224 121.011C41.2148 118.997 41.692 117.01 42.615 115.22C43.534 113.475 44.7184 111.883 46.126 110.502L73.64 83.116H3.30696C-0.379216 97.8184 -0.991357 113.123 1.5088 128.073C4.00896 143.023 9.56763 157.296 17.837 169.999H189.545L130.953 101.969L130.913 101.919Z" fill="url(#paint0_linear_42_719)"/>
<path d="M130.913 1.992V87.992L131.065 87.799L131.226 87.599L163.304 60.426C163.811 59.8394 164.442 59.372 165.151 59.0571C165.859 58.7421 166.629 58.5874 167.404 58.604H184.148C184.925 58.5568 185.692 58.795 186.306 59.2737C186.92 59.7525 187.338 60.4389 187.481 61.204C187.568 61.8001 187.505 62.4086 187.297 62.974C187.088 63.5394 186.742 64.0437 186.289 64.441L186.161 64.561L151.461 94.941L207.667 160.559C215.535 145.374 219.754 128.563 219.987 111.462C220.22 94.3612 216.461 77.4416 209.01 62.0478C201.558 46.654 190.619 33.2103 177.061 22.785C163.504 12.3597 147.701 5.2401 130.91 1.992H130.913Z" fill="url(#paint1_linear_42_719)"/>
<path d="M101.304 65.782C103.688 68.221 104.897 71.815 104.897 76.464C104.935 78.3828 104.608 80.2915 103.933 82.088C103.305 83.6763 102.36 85.1195 101.154 86.329L74.017 113.457H109.872V0C89.2175 0.0184662 68.9855 5.85113 51.491 16.8306C33.9965 27.81 19.9462 43.4926 10.948 62.084H88.967C94.834 62.084 98.869 63.294 101.304 65.782Z" fill="url(#paint2_linear_42_719)"/>
<path d="M22.0179 223.523C19.5159 223.523 17.7793 223.076 16.808 222.184C16.3154 221.714 15.9301 221.144 15.6783 220.512C15.4264 219.88 15.3141 219.201 15.349 218.522C15.3447 217.787 15.5179 217.061 15.854 216.408C16.2205 215.714 16.6928 215.081 17.2539 214.533L31.0089 200.833C31.0827 200.764 31.1417 200.681 31.1825 200.589C31.2232 200.497 31.2448 200.397 31.2459 200.297C31.2459 199.94 30.908 199.762 30.235 199.762H16.659C16.5773 199.774 16.4938 199.767 16.4153 199.742C16.3367 199.716 16.2653 199.672 16.2069 199.614C16.1484 199.555 16.1046 199.484 16.0789 199.405C16.0532 199.327 16.0463 199.243 16.0589 199.162V193.089C16.0472 193.007 16.0547 192.924 16.0808 192.847C16.1069 192.769 16.1509 192.698 16.2092 192.64C16.2675 192.582 16.3386 192.539 16.4167 192.514C16.4948 192.488 16.5778 192.481 16.659 192.494H36.188C38.53 192.494 40.1376 192.94 41.011 193.833C41.9677 194.967 42.438 196.433 42.3199 197.912C42.338 198.642 42.2173 199.369 41.964 200.055C41.7362 200.635 41.3913 201.162 40.951 201.603L27.5509 215.003C27.3156 215.196 27.1658 215.474 27.1339 215.777C27.1339 216.095 27.3509 216.253 27.7879 216.253H53.888C53.9696 216.24 54.053 216.247 54.1314 216.273C54.2099 216.299 54.2811 216.343 54.3395 216.401C54.3979 216.46 54.4418 216.531 54.4676 216.609C54.4933 216.688 54.5003 216.771 54.488 216.853V222.926C54.4997 223.007 54.4922 223.09 54.4661 223.168C54.44 223.246 54.396 223.316 54.3377 223.374C54.2794 223.432 54.2083 223.475 54.1302 223.501C54.0521 223.526 53.9692 223.533 53.888 223.521L22.0179 223.523Z" fill="#333333"/>
<path d="M48.275 180.833H54.348C54.4291 180.821 54.512 180.827 54.59 180.853C54.668 180.878 54.739 180.922 54.7973 180.98C54.8555 181.037 54.8995 181.108 54.9257 181.186C54.9518 181.264 54.9595 181.346 54.948 181.428V222.928C54.9595 223.009 54.9518 223.092 54.9257 223.17C54.8995 223.247 54.8555 223.318 54.7973 223.376C54.739 223.434 54.668 223.477 54.59 223.502C54.512 223.528 54.4291 223.535 54.348 223.523H48.275C48.1938 223.535 48.1108 223.528 48.0327 223.503C47.9546 223.477 47.8835 223.434 47.8252 223.376C47.7669 223.318 47.7229 223.248 47.6968 223.17C47.6708 223.092 47.6633 223.009 47.675 222.928V181.428C47.6635 181.346 47.6711 181.264 47.6973 181.186C47.7234 181.108 47.7674 181.037 47.8257 180.98C47.884 180.922 47.955 180.878 48.033 180.853C48.111 180.827 48.1938 180.821 48.275 180.833V180.833ZM66.558 192.979C66.6919 192.819 66.861 192.694 67.0519 192.611C67.2428 192.528 67.4503 192.491 67.658 192.503H76.082C76.297 192.503 76.415 192.562 76.438 192.682C76.461 192.802 76.382 192.94 76.211 193.098L64.093 205.78C64.006 205.861 63.91 205.959 63.802 206.08C63.7142 206.157 63.6564 206.264 63.639 206.38C63.6602 206.511 63.7165 206.635 63.802 206.738C63.8852 206.867 63.9828 206.987 64.093 207.095L76.923 223.112C77.139 223.39 77.0743 223.528 76.729 223.528H68.37C68.1579 223.528 67.9484 223.48 67.7578 223.387C67.5671 223.295 67.4002 223.159 67.27 222.992L55.994 208.941C55.6824 208.57 55.4215 208.159 55.218 207.72C55.0099 207.303 54.8988 206.845 54.893 206.38C54.916 205.974 55.0269 205.578 55.218 205.22C55.4375 204.755 55.7209 204.324 56.06 203.939L66.558 192.979Z" fill="#333333"/>
<path d="M105.517 216.379V222.928C105.528 223.009 105.521 223.092 105.495 223.17C105.469 223.247 105.425 223.318 105.366 223.376C105.308 223.434 105.237 223.477 105.159 223.502C105.081 223.528 104.998 223.535 104.917 223.523H87.654C87.4146 223.526 87.1755 223.507 86.94 223.464C83.6447 223.187 81.3027 222.224 79.914 220.576C78.5253 218.927 77.8306 216.436 77.83 213.104V181.428C77.8185 181.346 77.8261 181.264 77.8523 181.186C77.8785 181.108 77.9224 181.037 77.9807 180.98C78.039 180.922 78.1099 180.878 78.1879 180.853C78.2659 180.827 78.3488 180.821 78.43 180.833H85.873C85.9542 180.82 86.0371 180.827 86.1152 180.853C86.1933 180.878 86.2644 180.921 86.3228 180.979C86.3811 181.037 86.425 181.108 86.4511 181.186C86.4772 181.263 86.4847 181.346 86.473 181.428V213.818C86.473 215.128 87.247 215.783 88.795 215.783H104.924C105.005 215.772 105.087 215.78 105.164 215.806C105.241 215.832 105.311 215.875 105.369 215.933C105.426 215.991 105.47 216.061 105.495 216.139C105.521 216.216 105.528 216.298 105.517 216.379V216.379Z" fill="#333333"/>
<path d="M114.805 212.092C114.8 212.672 114.966 213.241 115.281 213.729C115.618 214.245 116.053 214.69 116.561 215.039C117.152 215.442 117.807 215.743 118.497 215.932C119.271 216.152 120.073 216.263 120.878 216.259H137.453C137.534 216.247 137.617 216.255 137.695 216.281C137.773 216.307 137.843 216.351 137.901 216.409C137.959 216.468 138.002 216.539 138.028 216.617C138.053 216.695 138.06 216.777 138.048 216.859V222.932C138.059 223.012 138.052 223.095 138.026 223.172C138 223.25 137.957 223.32 137.899 223.378C137.841 223.436 137.771 223.479 137.694 223.505C137.616 223.531 137.534 223.538 137.453 223.527H124.986C122.174 223.582 119.366 223.302 116.62 222.694C114.626 222.262 112.767 221.353 111.202 220.044C109.817 218.809 108.806 217.21 108.285 215.43C107.666 213.242 107.375 210.975 107.421 208.702C107.329 205.997 107.828 203.305 108.881 200.813C109.738 198.876 111.044 197.172 112.691 195.841C114.255 194.613 116.061 193.73 117.991 193.251C119.927 192.758 121.916 192.508 123.914 192.507C126.07 192.464 128.219 192.755 130.286 193.37C131.913 193.857 133.416 194.69 134.692 195.811C135.84 196.861 136.71 198.181 137.222 199.651C137.776 201.28 138.047 202.992 138.022 204.713V210.905C138.034 210.986 138.028 211.069 138.002 211.147C137.977 211.225 137.933 211.296 137.875 211.354C137.818 211.413 137.747 211.457 137.669 211.483C137.591 211.509 137.508 211.516 137.427 211.505H115.401C115.321 211.493 115.239 211.501 115.162 211.526C115.086 211.552 115.016 211.594 114.958 211.651C114.9 211.708 114.857 211.777 114.83 211.853C114.804 211.93 114.795 212.011 114.805 212.092ZM130.705 204.53C130.786 204.541 130.869 204.534 130.947 204.507C131.025 204.481 131.095 204.437 131.153 204.379C131.21 204.321 131.254 204.25 131.279 204.172C131.305 204.094 131.311 204.011 131.299 203.93C131.304 203.198 131.114 202.479 130.748 201.846C130.382 201.213 129.853 200.689 129.216 200.33C127.437 199.341 125.413 198.876 123.381 198.991C122.487 199.003 121.597 199.123 120.731 199.348C119.767 199.582 118.83 199.911 117.931 200.33C117.098 200.705 116.341 201.229 115.697 201.878C115.42 202.144 115.198 202.462 115.045 202.815C114.892 203.168 114.81 203.547 114.805 203.932C114.792 204.013 114.799 204.097 114.825 204.175C114.851 204.254 114.894 204.325 114.953 204.384C115.011 204.442 115.083 204.486 115.161 204.512C115.24 204.537 115.323 204.544 115.405 204.532L130.705 204.53Z" fill="#333333"/>
<path d="M150.29 221.618C150.29 222.888 149.734 223.523 148.623 223.523H144.633C144.382 223.535 144.133 223.474 143.917 223.348C143.7 223.221 143.525 223.033 143.413 222.809C143.145 222.295 143.012 221.721 143.026 221.142V196.433C143.035 195.922 143.147 195.418 143.357 194.952C143.567 194.486 143.87 194.068 144.247 193.723C144.657 193.317 145.146 192.999 145.683 192.79C146.221 192.58 146.795 192.482 147.372 192.503H160.829C162.206 192.492 163.569 192.787 164.818 193.366C166.029 193.928 167.128 194.705 168.063 195.658C168.989 196.602 169.726 197.713 170.237 198.933C170.747 200.139 171.01 201.434 171.011 202.744V222.928C171.011 223.328 170.791 223.523 170.355 223.523H164.342C164.261 223.535 164.178 223.528 164.1 223.503C164.022 223.477 163.951 223.434 163.892 223.376C163.834 223.318 163.79 223.248 163.764 223.17C163.738 223.092 163.73 223.009 163.742 222.928V203.994C163.772 203.157 163.619 202.324 163.295 201.553C163.025 200.95 162.592 200.434 162.045 200.064C161.476 199.694 160.838 199.441 160.17 199.32C159.404 199.176 158.627 199.106 157.848 199.111H152.072C151.621 199.117 151.187 199.286 150.852 199.588C150.688 199.703 150.552 199.854 150.454 200.029C150.356 200.204 150.298 200.399 150.286 200.6L150.29 221.618Z" fill="#333333"/>
<path d="M197.387 191.907V181.428C197.375 181.347 197.383 181.264 197.409 181.187C197.435 181.11 197.478 181.039 197.536 180.981C197.593 180.924 197.664 180.88 197.741 180.854C197.819 180.829 197.901 180.821 197.982 180.833H204.055C204.136 180.82 204.219 180.827 204.297 180.853C204.375 180.878 204.446 180.921 204.505 180.979C204.563 181.037 204.607 181.108 204.633 181.186C204.659 181.263 204.667 181.346 204.655 181.428V222.928C204.667 223.009 204.659 223.092 204.633 223.17C204.607 223.248 204.563 223.318 204.505 223.376C204.446 223.434 204.375 223.477 204.297 223.503C204.219 223.528 204.136 223.535 204.055 223.523H185.539C183.797 223.573 182.085 223.062 180.656 222.065C179.292 221.077 178.155 219.808 177.322 218.344C176.435 216.801 175.783 215.135 175.386 213.401C174.98 211.704 174.77 209.966 174.761 208.221C174.743 206.061 174.952 203.906 175.386 201.791C175.73 200.031 176.385 198.348 177.322 196.82C178.148 195.494 179.294 194.398 180.656 193.634C182.159 192.843 183.841 192.453 185.539 192.503H196.791C196.872 192.514 196.954 192.507 197.032 192.481C197.11 192.455 197.18 192.411 197.238 192.354C197.296 192.296 197.339 192.225 197.365 192.148C197.391 192.07 197.398 191.988 197.387 191.907V191.907ZM197.387 200.362C197.399 200.28 197.391 200.197 197.365 200.12C197.339 200.042 197.295 199.971 197.237 199.913C197.178 199.855 197.107 199.812 197.029 199.786C196.951 199.761 196.868 199.754 196.787 199.767H190.298C189.168 199.757 188.041 199.866 186.934 200.094C185.97 200.288 185.07 200.718 184.313 201.345C183.524 202.039 182.937 202.934 182.613 203.934C182.176 205.319 181.975 206.769 182.019 208.221C181.975 209.576 182.177 210.927 182.613 212.211C182.949 213.154 183.523 213.995 184.28 214.652C185.034 215.266 185.921 215.694 186.871 215.902C187.995 216.152 189.144 216.271 190.295 216.259H196.784C196.865 216.271 196.948 216.264 197.026 216.239C197.104 216.213 197.175 216.17 197.234 216.112C197.292 216.054 197.336 215.984 197.362 215.906C197.388 215.828 197.396 215.745 197.384 215.664L197.387 200.362Z" fill="#333333"/>
<defs>
<linearGradient id="paint0_linear_42_719" x1="93.6352" y1="198.497" x2="94.5512" y2="-18.3779" gradientUnits="userSpaceOnUse">
<stop stop-color="#5286D8"/>
<stop offset="1" stop-color="#1B2395"/>
</linearGradient>
<linearGradient id="paint1_linear_42_719" x1="172.425" y1="200.201" x2="186.775" y2="-16.0681" gradientUnits="userSpaceOnUse">
<stop stop-color="#5286D8"/>
<stop offset="1" stop-color="#1B2395"/>
</linearGradient>
<linearGradient id="paint2_linear_42_719" x1="58.1347" y1="197.756" x2="64.1194" y2="-19.0212" gradientUnits="userSpaceOnUse">
<stop stop-color="#5286D8"/>
<stop offset="1" stop-color="#1B2395"/>
</linearGradient>
</defs>
</svg>
