<svg width="48" height="48" viewBox="0 0 48 48" fill="none" xmlns="http://www.w3.org/2000/svg">
<rect width="48" height="48" fill="#094BD5"/>
<path fill-rule="evenodd" clip-rule="evenodd" d="M9.1875 10.4907C9.1875 9.77096 9.77096 9.1875 10.4907 9.1875H15.5406C16.2603 9.1875 16.8438 9.77096 16.8438 10.4907V15.6793C16.9145 16.2319 17.3326 16.6846 17.8874 16.8397C17.9713 16.8227 18.0581 16.8138 18.1469 16.8138H23.1968C23.9165 16.8138 24.5 17.3973 24.5 18.117V23.1669C24.5 23.207 24.4982 23.2467 24.4946 23.2858C24.4966 23.2734 24.4984 23.2609 24.5 23.2484V23.2541C24.5848 23.9162 25.1682 24.4349 25.8879 24.4701H30.8007C30.7642 24.4676 30.7274 24.4663 30.6902 24.4663C31.4455 24.4663 32.0684 23.9343 32.1562 23.2484V23.2541C32.1569 23.2589 32.1575 23.2638 32.1582 23.2686C32.1569 23.2448 32.1562 23.2209 32.1562 23.1968V18.1469C32.1562 17.4272 32.7397 16.8438 33.4594 16.8438H38.5093C39.229 16.8438 39.8125 17.4272 39.8125 18.1469V23.1968C39.8125 23.9165 39.229 24.5 38.5093 24.5H33.4594C33.4226 24.5 33.3862 24.4985 33.3502 24.4955C32.7218 24.6053 32.2333 25.0884 32.1562 25.6899V25.6842C32.1542 25.6679 32.1518 25.6517 32.1491 25.6355C32.1538 25.6808 32.1562 25.7268 32.1562 25.7733V30.8232C32.1562 31.5429 31.5728 32.1263 30.8531 32.1263H25.8558C25.1508 32.1754 24.5835 32.6924 24.5 33.4257V33.42L24.5 33.4197C24.5 33.4229 24.5 33.4262 24.5 33.4295V38.4794C24.5 39.1991 23.9165 39.7826 23.1968 39.7826H18.1469C17.4272 39.7826 16.8438 39.1991 16.8438 38.4794V33.4295C16.8438 33.3909 16.8454 33.3527 16.8487 33.315C16.8469 33.3266 16.8452 33.3383 16.8438 33.35V33.3443C16.7871 32.9039 16.5103 32.5266 16.119 32.3134C15.9014 32.1944 15.6481 32.1263 15.3777 32.1263H10.4907C9.77096 32.1263 9.1875 31.5429 9.1875 30.8232V10.4907ZM23.2088 32.1264C23.1514 32.1201 23.0931 32.1168 23.0339 32.1168C23.7892 32.1168 24.4122 31.5848 24.5 30.8989V30.9046C24.5016 30.9172 24.5034 30.9296 24.5054 30.9421C24.5018 30.9029 24.5 30.8632 24.5 30.8232V25.7733C24.5 25.7316 24.502 25.6904 24.5058 25.6498C24.5036 25.6631 24.5017 25.6765 24.5 25.6899V25.6842C24.4434 25.2439 24.1666 24.8665 23.7752 24.6534C23.5875 24.5507 23.3733 24.486 23.1445 24.4701H18.2499C18.2697 24.4714 18.2897 24.472 18.3098 24.472C17.5545 24.472 16.9316 25.004 16.8438 25.6899V30.8232C16.8438 30.8664 16.8416 30.9092 16.8375 30.9514C16.8398 30.9371 16.8419 30.9228 16.8438 30.9084V30.9141C16.9263 31.5587 17.4813 32.0673 18.1747 32.1263H23.1968C23.2008 32.1263 23.2048 32.1264 23.2088 32.1264Z" fill="white"/>
</svg>
