<?xml version="1.0" encoding="UTF-8" standalone="no"?>
<!DOCTYPE svg PUBLIC "-//W3C//DTD SVG 1.1//EN" "http://www.w3.org/Graphics/SVG/1.1/DTD/svg11.dtd">
<svg width="100%" height="100%" viewBox="0 0 399 91" version="1.1" xmlns="http://www.w3.org/2000/svg" xmlns:xlink="http://www.w3.org/1999/xlink" xml:space="preserve" xmlns:serif="http://www.serif.com/" style="fill-rule:evenodd;clip-rule:evenodd;stroke-linejoin:round;stroke-miterlimit:2;">
    <g transform="matrix(1,0,0,1,-80.8849,-155)">
        <g transform="matrix(0.663717,0,0,0.663717,593.274,255.819)">
            <g>
                <rect x="-772" y="-30.1" width="519.4" height="13.6" style="fill:rgb(21,158,73);fill-rule:nonzero;"/>
                <rect x="-216.6" y="-30.1" width="44.6" height="13.6" style="fill:rgb(21,158,73);fill-rule:nonzero;"/>
            </g>
            <g>
                <path d="M-670.8,-50.7L-652.2,-50.7L-652.2,-120.7L-670.8,-120.7L-670.8,-50.7ZM-672.6,-140.9C-672.6,-144.1 -671.6,-146.7 -669.4,-148.9C-667.4,-150.9 -664.6,-151.9 -661.4,-151.9C-658,-151.9 -655.4,-150.9 -653.4,-148.9C-651.4,-146.9 -650.2,-144.3 -650.2,-140.9C-650.2,-137.7 -651.2,-135.1 -653.4,-132.9C-655.4,-130.9 -658.2,-129.9 -661.4,-129.9C-664.6,-129.9 -667.2,-130.9 -669.4,-132.9C-671.6,-134.9 -672.6,-137.7 -672.6,-140.9Z" style="fill:rgb(51,52,51);fill-rule:nonzero;"/>
                <path d="M-609.6,-120.9L-590.4,-120.9L-590.4,-106.9L-609.4,-106.9L-609.4,-73.3C-609.4,-70.3 -608.6,-67.9 -606.8,-66.1C-605,-64.3 -602.8,-63.3 -599.8,-63.3C-597.2,-63.3 -594.2,-63.7 -591,-64.5L-588.6,-50.7C-594,-49.3 -599.2,-48.5 -604.2,-48.5C-607.6,-48.5 -610.8,-49.1 -613.6,-50.1C-616.4,-51.1 -618.8,-52.7 -621,-54.7C-623,-56.7 -624.6,-59.1 -625.8,-61.9C-627,-64.7 -627.4,-67.7 -627.4,-71.1L-627.4,-106.5L-640.2,-106.5L-640.2,-120.5L-627.4,-120.5L-627.4,-141.1L-609.6,-141.1L-609.6,-120.9Z" style="fill:rgb(51,52,51);fill-rule:nonzero;"/>
                <path d="M-579.4,-101.5C-579.4,-104.5 -578.8,-107.5 -577.4,-110.1C-576,-112.7 -574.2,-114.9 -572,-116.9C-569.6,-118.7 -566.8,-120.3 -563.6,-121.3C-560.4,-122.3 -556.6,-122.9 -552.8,-122.9C-548.8,-122.9 -544.6,-122.5 -540.4,-121.7C-536.2,-120.9 -531.8,-119.7 -527.4,-118.1L-531.4,-104.9C-534.8,-106.3 -538.2,-107.3 -541.6,-108.1C-545,-108.9 -548.2,-109.3 -551.2,-109.3C-554.4,-109.3 -557,-108.7 -559,-107.3C-561,-105.9 -561.8,-104.1 -561.8,-101.7C-561.8,-99.5 -560.8,-97.9 -559,-96.9C-557.2,-95.9 -555,-94.9 -552.2,-94.1C-549.4,-93.3 -546.6,-92.5 -543.4,-91.9C-540.2,-91.1 -537.2,-89.9 -534.6,-88.3C-531.8,-86.7 -529.6,-84.5 -527.8,-81.9C-526,-79.1 -525,-75.5 -525,-71.1C-525,-67.9 -525.6,-65.1 -527,-62.3C-528.4,-59.7 -530.2,-57.3 -532.6,-55.3C-535,-53.3 -537.8,-51.9 -541.4,-50.7C-544.8,-49.7 -548.6,-49.1 -552.6,-49.1C-561.2,-49.1 -570.4,-50.9 -580,-54.7L-576.2,-67.7C-568,-64.3 -560.6,-62.7 -554,-62.7C-550.6,-62.7 -547.8,-63.5 -545.8,-64.9C-543.8,-66.3 -542.8,-68.3 -542.8,-70.9C-542.8,-73.1 -543.8,-74.7 -545.6,-75.9C-547.4,-77.1 -549.6,-78.1 -552.4,-78.9C-555.2,-79.7 -558,-80.5 -561.2,-81.3C-564.4,-82.1 -567.2,-83.3 -570,-84.9C-572.8,-86.5 -575,-88.5 -576.8,-91.1C-578.6,-93.5 -579.4,-97.1 -579.4,-101.5" style="fill:rgb(51,52,51);fill-rule:nonzero;"/>
                <path d="M-487.8,-120.9L-468.6,-120.9L-468.6,-106.9L-487.6,-106.9L-487.6,-73.3C-487.6,-70.3 -486.8,-67.9 -485,-66.1C-483.2,-64.3 -481,-63.3 -478,-63.3C-475.4,-63.3 -472.4,-63.7 -469.2,-64.5L-466.8,-50.7C-472.2,-49.3 -477.4,-48.5 -482.4,-48.5C-485.8,-48.5 -489,-49.1 -491.8,-50.1C-494.6,-51.1 -497,-52.7 -499.2,-54.7C-501.4,-56.7 -502.8,-59.1 -504,-61.9C-505.2,-64.7 -505.6,-67.7 -505.6,-71.1L-505.6,-106.5L-518.4,-106.5L-518.4,-120.5L-505.6,-120.5L-505.6,-141.1L-487.8,-141.1L-487.8,-120.9Z" style="fill:rgb(51,52,51);fill-rule:nonzero;"/>
                <path d="M-439.2,-72.1C-439.2,-69.3 -438,-66.9 -435.8,-64.9C-433.4,-62.9 -430.6,-61.9 -427.2,-61.9C-422.4,-61.9 -418.6,-63.5 -415.6,-66.5C-412.6,-69.5 -411.2,-73.5 -411.2,-78.3L-411.2,-82.5C-414.6,-83.5 -418.4,-83.9 -422.6,-83.9C-427.8,-83.9 -431.8,-82.9 -434.8,-80.7C-437.6,-78.7 -439.2,-75.7 -439.2,-72.1M-456.6,-71.1C-456.6,-78.5 -453.8,-84.3 -448.2,-88.3C-442.6,-92.3 -434.8,-94.3 -424.6,-94.3C-422.4,-94.3 -420.2,-94.1 -418,-93.9C-415.8,-93.7 -413.4,-93.3 -411.2,-92.9L-411.2,-96.7C-411.2,-100.3 -412.4,-103.3 -415,-105.5C-417.6,-107.7 -421,-108.9 -425.4,-108.9C-432.4,-108.9 -440,-107.3 -448.2,-103.9L-452.8,-116.7C-442.8,-120.7 -433,-122.5 -423.4,-122.5C-419,-122.5 -415.2,-121.9 -411.6,-120.5C-408,-119.3 -405,-117.5 -402.4,-115.1C-399.8,-112.9 -397.8,-110.1 -396.4,-106.9C-395,-103.7 -394.2,-100.1 -394.2,-96.3L-394.2,-67.7C-394.2,-66.1 -393.8,-64.9 -393,-64.1C-392.2,-63.1 -391,-62.7 -389.4,-62.7C-388.6,-62.7 -388,-62.7 -387.2,-62.9C-386.6,-62.9 -386,-63.1 -385.8,-63.1L-384.6,-49.7C-386.2,-49.5 -387.6,-49.1 -389.2,-48.9C-390.8,-48.7 -392.4,-48.7 -394.2,-48.7C-397.8,-48.7 -400.8,-49.5 -403.4,-51.3C-406,-52.9 -407.8,-55.3 -409,-58.3C-412,-55.3 -415.6,-52.9 -419.4,-51.3C-423.4,-49.7 -427.4,-48.9 -431.8,-48.9C-435.4,-48.9 -438.8,-49.5 -441.8,-50.5C-444.8,-51.5 -447.4,-53.1 -449.6,-55.1C-451.8,-57.1 -453.4,-59.3 -454.6,-62.1C-456,-64.9 -456.6,-67.9 -456.6,-71.1" style="fill:rgb(51,52,51);fill-rule:nonzero;"/>
                <path d="M-374.4,-121.1L-359.8,-121.1L-357.6,-111.5C-354.8,-115.1 -351.6,-117.9 -347.6,-119.9C-343.6,-121.9 -339.4,-122.9 -334.8,-122.9C-329.6,-122.9 -325.2,-121.7 -321.2,-119.5C-317.4,-117.3 -314.4,-114.1 -312.4,-110.1C-309.2,-114.3 -305.4,-117.5 -301.2,-119.7C-297,-121.9 -292.4,-122.9 -287.2,-122.9C-283.4,-122.9 -280,-122.3 -276.8,-121.1C-273.6,-119.9 -270.8,-118.1 -268.6,-115.7C-266.2,-113.5 -264.4,-110.7 -263.2,-107.5C-262,-104.3 -261.2,-100.9 -261.2,-97.1L-261.2,-50.7L-279.4,-50.7L-279.4,-94.1C-279.4,-98.1 -280.6,-101.3 -283.2,-103.9C-285.8,-106.3 -289,-107.7 -293,-107.7C-297.6,-107.7 -301.4,-106.1 -304.4,-102.9C-307.4,-99.7 -308.8,-95.7 -308.8,-90.5L-308.8,-50.7L-327,-50.7L-327,-94.1C-327,-98.1 -328.2,-101.3 -330.6,-103.9C-333,-106.3 -336.2,-107.7 -340.2,-107.7C-345,-107.7 -348.8,-106.1 -351.8,-102.9C-354.8,-99.7 -356.2,-95.7 -356.2,-90.5L-356.2,-50.7L-374.4,-50.7L-374.4,-121.1Z" style="fill:rgb(51,52,51);fill-rule:nonzero;"/>
                <path d="M-192,-86.1C-192,-89.3 -192.4,-92.3 -193.4,-95.1C-194.2,-97.9 -195.6,-100.3 -197.2,-102.1C-198.8,-104.1 -200.6,-105.5 -202.8,-106.7C-205,-107.9 -207.4,-108.3 -210,-108.3C-214.8,-108.3 -218.6,-106.7 -221.8,-103.3C-224.8,-100.1 -226.4,-95.9 -226.4,-90.7L-226.4,-81.3C-226.4,-78.7 -226,-76.3 -225.2,-74.3C-224.4,-72.1 -223.2,-70.3 -221.8,-68.7C-220.4,-67.1 -218.6,-65.9 -216.6,-65.1C-214.6,-64.3 -212.4,-63.9 -210,-63.9C-207.4,-63.9 -205,-64.5 -202.8,-65.5C-200.6,-66.5 -198.8,-68.1 -197.2,-70.1C-195.6,-72.1 -194.4,-74.5 -193.4,-77.1C-192.4,-79.7 -192,-82.9 -192,-86.1ZM-244,-121.1L-229.6,-121.1L-227.4,-112.1C-224.8,-115.5 -221.8,-118.1 -218,-120.1C-214.2,-121.9 -210,-122.9 -205.4,-122.9C-200.8,-122.9 -196.6,-121.9 -192.6,-120.1C-188.8,-118.3 -185.4,-115.7 -182.6,-112.5C-179.8,-109.3 -177.6,-105.5 -176,-100.9C-174.4,-96.5 -173.6,-91.5 -173.6,-86.1C-173.6,-80.7 -174.4,-75.7 -176,-71.3C-177.6,-66.9 -179.8,-62.9 -182.6,-59.7C-185.4,-56.5 -188.8,-53.9 -192.6,-52.1C-196.4,-50.3 -200.8,-49.3 -205.4,-49.3C-209.6,-49.3 -213.6,-50.1 -217,-51.7C-220.6,-53.3 -223.6,-55.7 -226,-58.9L-226,-16.3L-244,-16.3L-244,-121.1Z" style="fill:rgb(51,52,51);fill-rule:nonzero;"/>
                <path d="M-710.8,-68.7C-713.6,-65.9 -717.4,-64.7 -722.2,-64.7L-744.6,-64.7L-744.6,-93.7L-722.2,-93.7C-717.6,-93.7 -713.8,-92.3 -710.8,-89.7C-708,-87.1 -706.6,-83.5 -706.6,-79.3C-706.4,-74.9 -707.8,-71.3 -710.8,-68.7ZM-744.6,-132.9L-724,-132.9C-719.8,-132.9 -716.4,-131.7 -713.6,-129.1C-710.8,-126.7 -709.6,-123.3 -709.6,-119.3C-709.6,-115.3 -711,-112.1 -713.6,-109.7C-716.4,-107.3 -719.8,-106.1 -724,-106.1L-744.6,-106.1L-744.6,-132.9ZM-692.4,-91.9C-695.4,-96.1 -699.4,-99.1 -704.4,-100.9C-700.4,-102.7 -697.4,-105.3 -695,-108.9C-692.6,-112.5 -691.4,-116.7 -691.4,-121.5C-691.4,-125.3 -692.2,-128.7 -693.6,-131.7C-695,-134.9 -697.2,-137.5 -699.8,-139.7C-702.4,-141.9 -705.6,-143.7 -709.2,-144.9C-712.8,-146.1 -716.8,-146.7 -721.2,-146.7L-772,-146.7L-772,-133.9C-764.2,-133.9 -758,-127.5 -758,-119.7C-758,-111.9 -764.2,-105.5 -772,-105.5L-772,-93.9C-764.2,-93.9 -758,-87.5 -758,-79.7L-758,-77.5C-758,-69.7 -764.2,-63.3 -772,-63.3L-772,-50.5L-719,-50.5C-714.4,-50.5 -710.4,-51.1 -706.6,-52.5C-702.8,-53.7 -699.6,-55.5 -696.8,-57.9C-694,-60.3 -691.8,-63.1 -690.4,-66.3C-688.8,-69.5 -688,-73.1 -688,-77.1C-688,-82.9 -689.4,-87.7 -692.4,-91.9Z" style="fill:rgb(51,52,51);fill-rule:nonzero;"/>
            </g>
        </g>
    </g>
</svg>
