<svg width="303" height="88" viewBox="0 0 303 88" fill="none" xmlns="http://www.w3.org/2000/svg">
<path d="M150.01 59.3196C145.393 63.9666 139.227 66.2766 133.144 66.2766C117.554 66.2766 109.407 55.352 109.352 42.8512C109.216 30.4592 117.283 18.8824 133.144 18.8824C139.227 18.8824 145.365 21.1923 150.01 25.8393L147.565 27.959C143.6 23.9914 138.385 22.0619 133.144 22.0619C119.646 22.0619 112.72 31.6005 112.774 42.7153C112.91 53.5584 119.781 62.9611 133.144 62.9611C138.358 62.9611 143.654 60.9773 147.62 57.064L150.01 59.3196Z" fill="#39414D"/>
<path d="M159.189 40.8402H186.294V44.1013H159.189V62.2545H188.412V65.6787H155.604V19.4258H189.091V22.85H159.216V40.8402H159.189Z" fill="#39414D"/>
<path d="M224.806 19.4258H228.609V19.5345L212.911 41.9816L229.939 65.6786V65.733H225.703L210.765 44.5361L195.827 65.733H191.563V65.6786L208.565 41.9816L192.867 19.5345V19.4258H196.751L210.765 39.2096L224.806 19.4258Z" fill="#39414D"/>
<path d="M245.583 65.7602V19.4258H249.005V65.7058H245.583V65.7602Z" fill="#00CCCC"/>
<path d="M302.183 42.6061C302.129 54.7808 294.388 66.4934 278.853 66.4934C263.318 66.4934 255.523 54.6992 255.523 42.4702C255.523 30.0238 263.264 18.6373 278.853 18.6373C294.442 18.6373 302.237 30.1054 302.183 42.6061ZM259.027 42.5518C259.081 53.0143 265.708 63.2052 278.853 63.2052C292.08 63.2052 298.761 53.0143 298.761 42.5518C298.761 31.8174 292.161 21.9527 278.853 21.9527C265.572 21.9527 258.945 31.6272 259.027 42.5518Z" fill="#00CCCC"/>
<path d="M232.655 40.0518C234.067 40.0518 235.181 41.1932 235.181 42.5791C235.181 43.9923 234.04 45.1065 232.655 45.1065C231.27 45.1065 230.129 43.9651 230.129 42.5791C230.129 41.166 231.242 40.0518 232.655 40.0518Z" fill="#00CCCC"/>
<path fill-rule="evenodd" clip-rule="evenodd" d="M38.7378 43.938C38.7378 46.9274 41.1821 49.3732 44.1696 49.3732H76.7607L82.1925 43.938L76.7607 38.5029H44.1696C41.1821 38.5029 38.7378 40.9487 38.7378 43.938Z" fill="#00CCCC"/>
<path fill-rule="evenodd" clip-rule="evenodd" d="M44.1699 19.48C30.6717 19.48 19.7266 30.4318 19.7266 43.938C19.7266 57.4443 30.6717 68.396 44.1699 68.396H57.7495L68.6132 57.5258H44.1699C36.6739 57.5258 30.5902 51.4385 30.5902 43.938C30.5902 36.4376 36.6739 30.3503 44.1699 30.3503H68.6132L57.7495 19.48H44.1699Z" fill="#00CCCC"/>
<path fill-rule="evenodd" clip-rule="evenodd" d="M44.1696 0.457153C20.1608 0.457153 0.714844 19.9149 0.714844 43.938C0.714844 67.9612 20.1608 87.4189 44.1696 87.4189H87.6243V76.5487H44.1696C26.163 76.5487 11.5785 61.9554 11.5785 43.938C11.5785 25.9207 26.163 11.3274 44.1696 11.3274H87.6243V0.457153H44.1696Z" fill="#00CCCC"/>
<path fill-rule="evenodd" clip-rule="evenodd" d="M79.4775 30.3503H87.6252V19.48H68.6138L79.4775 30.3503Z" fill="#00CCCC"/>
<path fill-rule="evenodd" clip-rule="evenodd" d="M68.6138 68.3961H87.6252V57.5259H79.4775L68.6138 68.3961Z" fill="#00CCCC"/>
</svg>
