<svg xmlns="http://www.w3.org/2000/svg" xmlns:xlink="http://www.w3.org/1999/xlink" viewBox="0 0 194.88 33.73"><defs><style>.cls-1{fill:url(#linear-gradient);}.cls-2{fill:url(#linear-gradient);}.cls-3{fill:url(#linear-gradient);}.cls-4{fill:#f37c20;}.cls-5{fill:url(#linear-gradient-4);}.cls-6{fill:url(#linear-gradient);}</style><linearGradient id="linear-gradient" x1="44.6" y1="25.88" x2="44.6" y2="11.93" gradientUnits="userSpaceOnUse"><stop offset="0" stop-color="#b1b3b5"></stop><stop offset="1" stop-color="#fff"></stop></linearGradient><linearGradient id="linear-gradient-2" x1="65.72" y1="25.88" x2="65.72" y2="11.93" xlink:href="#linear-gradient"></linearGradient><linearGradient id="linear-gradient-3" x1="85.75" y1="25.88" x2="85.75" y2="11.93" xlink:href="#linear-gradient"></linearGradient><linearGradient id="linear-gradient-4" x1="15.08" y1="1.3" x2="15.08" y2="35.73" gradientUnits="userSpaceOnUse"><stop offset="0" stop-color="#fff"></stop><stop offset="1" stop-color="#b1b3b5"></stop></linearGradient><linearGradient id="linear-gradient-5" x1="16.33" y1="1.3" x2="16.33" y2="35.73" xlink:href="#linear-gradient-4"></linearGradient></defs><path class="cls-1" d="M53,14.77H42.56c-3.18,0-3.56,1.47-3.56,4.14S39.38,23,42.56,23H53v2.86H42.56c-4.76,0-6.39-2.39-6.39-7s1.63-7,6.39-7H53Z" transform="translate(-2.12 -2.04)"></path><path class="cls-2" d="M58.37,15V25.88H55.66V11.93h2.69A2.15,2.15,0,0,1,60.22,13l5.5,7.12L71.22,13a2.15,2.15,0,0,1,1.87-1.08h2.69v14H73.07V15l-6.29,8H64.66Z" transform="translate(-2.12 -2.04)"></path><path class="cls-3" d="M84.37,25.88V14.56H77.79V11.93H93.72v2.63H87.14V25.88Z" transform="translate(-2.12 -2.04)"></path><path class="cls-4" d="M19.13,12.63H28V15H19.13a3.93,3.93,0,1,0,0,7.86h3.6v2.35h-3.6a6.28,6.28,0,1,1,0-12.56" transform="translate(-2.12 -2.04)"></path><path class="cls-5" d="M3.31,12.76H9.24A11.94,11.94,0,0,1,19.33,7.25h3.4V9.86h-3.4a9.24,9.24,0,0,0-8.5,5.51H5.25a14.19,14.19,0,0,0-.47,3.54A14.42,14.42,0,0,0,19.33,33.16h6v-2.6h-6A11.79,11.79,0,0,1,7.43,18.91c0-.32,0-.63,0-.93h2.67c0,.3-.05.61-.05.93a9.15,9.15,0,0,0,9.24,9H28v7.82H19.33A17.06,17.06,0,0,1,2.12,18.91a16.39,16.39,0,0,1,1.19-6.15" transform="translate(-2.12 -2.04)"></path><path class="cls-6" d="M25.37,4.65H28V2H19.33A17.31,17.31,0,0,0,4.62,10.15H7.88a14.6,14.6,0,0,1,11.45-5.5h6Z" transform="translate(-2.12 -2.04)"></path><rect class="cls-4" x="23.26" y="5.21" width="2.65" height="2.61"></rect><rect class="cls-4" x="23.26" y="20.69" width="2.65" height="2.61"></rect><path class="cls-4" d="M95.89,12.14h11.55c5,0,6.76,2.4,6.76,7s-1.73,7-6.76,7H95.89ZM107.44,15H98.83v8.3h8.61c3.35,0,3.76-1.45,3.76-4.14S110.79,15,107.44,15Z" transform="translate(-2.12 -2.04)"></path><path class="cls-4" d="M119.17,12.14v14h-2.94v-14Z" transform="translate(-2.12 -2.04)"></path><path class="cls-4" d="M139.11,18.52v7.65H128c-5,0-6.76-2.42-6.76-7s1.72-7,6.76-7h11V15H128c-3.35,0-3.76,1.46-3.76,4.14s.41,4.16,3.76,4.16h8.2V18.52Z" transform="translate(-2.12 -2.04)"></path><path class="cls-4" d="M144.37,12.14v14h-2.94v-14Z" transform="translate(-2.12 -2.04)"></path><path class="cls-4" d="M152.67,26.17V14.78h-7V12.14H162.6v2.64h-7V26.17Z" transform="translate(-2.12 -2.04)"></path><path class="cls-4" d="M180.44,26.17h-3.17l-1.79-3.47H165.12l-1.78,3.47h-3.15L166,14.91c.88-1.75,2-3,4.35-3s3.46,1.23,4.36,3ZM171.76,15.5a1.59,1.59,0,0,0-2.92,0l-2.38,4.6h7.67Z" transform="translate(-2.12 -2.04)"></path><path class="cls-4" d="M183.79,12.14v8.22c0,2.3.88,2.93,3.84,2.93H197v2.88h-9.37c-4.65,0-6.78-1.6-6.78-5.81V12.14Z" transform="translate(-2.12 -2.04)"></path></svg>