<?xml version="1.0" encoding="UTF-8" standalone="no"?>
<!DOCTYPE svg PUBLIC "-//W3C//DTD SVG 1.1//EN" "http://www.w3.org/Graphics/SVG/1.1/DTD/svg11.dtd">
<svg width="100%" height="100%" viewBox="0 0 601 104" version="1.1" xmlns="http://www.w3.org/2000/svg" xmlns:xlink="http://www.w3.org/1999/xlink" xml:space="preserve" xmlns:serif="http://www.serif.com/" style="fill-rule:evenodd;clip-rule:evenodd;stroke-linejoin:round;stroke-miterlimit:2;">
    <g transform="matrix(1,0,0,1,-20.2,-269.9)">
        <g>
            <path d="M108.6,331.6C106.8,332.7 104.7,332.9 103.1,332C101.1,330.8 99.9,328.1 99.9,324.4L99.9,313.1C99.9,307.7 97.8,303.8 94.2,302.8C88.1,301 83.5,308.5 81.8,311.3L71,328.6L71,307.3C70.9,302.4 69.3,299.5 66.3,298.6C64.3,298 61.3,298.3 58.4,302.7L34.3,341.3C31.1,335.2 29.4,328.4 29.4,321.5C29.4,298.2 48.1,279.3 71,279.3C93.9,279.3 112.6,298.2 112.6,321.5L112.6,321.7C112.8,326.2 111.4,329.8 108.6,331.6ZM121.8,321.5L121.8,321.3C121.7,293 98.9,269.9 71,269.9C43,269.9 20.2,293 20.2,321.5C20.2,349.9 43,373.1 71,373.1C83.9,373.1 96.1,368.2 105.5,359.3C107.4,357.5 107.5,354.6 105.7,352.7C104,350.8 101.1,350.7 99.2,352.4L99.1,352.5C91.5,359.7 81.3,363.8 70.8,363.8C58.5,363.8 47.5,358.4 39.9,349.8L61.6,315L61.6,331.1C61.6,338.8 64.6,341.3 67.1,342C69.6,342.7 73.4,342.2 77.5,335.7L89.4,316.4C89.8,315.8 90.1,315.2 90.5,314.8L90.5,324.6C90.5,331.8 93.4,337.6 98.4,340.4C102.9,343 108.6,342.7 113.3,339.8C119.1,336 122.2,329.4 121.8,321.5ZM192.6,303.9C193.8,304.6 194.9,306.3 194.9,307.8C194.9,310.2 192.9,312.2 190.6,312.2C190,312.2 189.5,312 189,311.9C186.3,309.9 182.9,308.6 179.3,308.6C170.8,308.6 165,315.5 165,324.1C165,332.7 170.9,339.5 179.3,339.5C183.5,339.5 187.3,337.8 190.1,335.1C190.8,334.6 191.7,334.3 192.6,334.3C194.9,334.3 196.7,336.1 196.7,338.4C196.7,339.9 195.8,341.2 194.7,341.9C190.6,345.4 185.1,347.7 179.4,347.7C166.4,347.7 155.8,337 155.8,323.8C155.8,310.6 166.4,299.9 179.4,299.9C184.2,299.8 188.8,301.3 192.6,303.9ZM216.4,313.9C225.3,313.9 232.7,321.4 232.7,330.7C232.7,339.9 225.2,347.8 216.4,347.8C207.1,347.8 199.4,340 199.4,330.7C199.4,321.4 207.1,313.9 216.4,313.9ZM216.3,339.5C220.2,339.5 223.5,335.8 223.5,330.8C223.5,325.8 220.2,322.6 216.3,322.6C212.1,322.6 208.6,325.7 208.6,330.8C208.6,335.7 212.1,339.5 216.3,339.5ZM238.3,342.6L238.3,319C238.3,316.4 240.3,314.3 242.9,314.3C245.4,314.3 247.5,316.4 247.5,319L247.5,342.6C247.5,345.2 245.4,347.3 242.9,347.3C240.4,347.3 238.3,345.1 238.3,342.6ZM237.6,305.4C237.6,302.3 240,299.9 242.9,299.9C245.9,299.9 248.3,302.4 248.3,305.4C248.3,308.4 245.9,310.8 242.9,310.8C239.9,310.7 237.6,308.3 237.6,305.4ZM265.1,329.8L265.1,342.6C265.1,345.2 263,347.3 260.5,347.3C258,347.3 255.9,345.2 255.9,342.6L255.9,317.9C255.9,315.9 257.5,314.3 259.5,314.3C261.5,314.3 263,316 263,317.9C266.7,314.4 270,313.9 273.1,313.9C282.3,313.9 286.4,320.8 286.4,328.7L286.4,342.6C286.4,345.2 284.3,347.3 281.8,347.3C279.3,347.3 277.2,345.2 277.2,342.6L277.2,329.8C277.2,325.8 276.7,322.4 270.9,322.4C266.8,322.4 265.1,325.8 265.1,329.8ZM316.2,334.7C315.1,334.7 314.4,334.2 313.8,333.5L303.1,321.9L303.1,342.6C303.1,345.2 301,347.3 298.5,347.3C296,347.3 293.9,345.2 293.9,342.6L293.9,301.6C294.2,300.9 294.9,300.4 295.6,300.4C296.4,300.4 297.1,301.1 297.6,301.6L314.7,320.8C315.2,321.4 315.8,321.7 316.2,321.7C316.5,321.7 317.2,321.4 317.7,320.8L334.8,301.6C335.3,301.1 335.9,300.4 336.8,300.4C337.6,300.4 338.3,300.9 338.5,301.6L338.5,342.6C338.5,345.2 336.5,347.3 333.9,347.3C331.4,347.3 329.3,345.2 329.3,342.6L329.3,321.9L318.6,333.5C317.8,334.2 317.1,334.7 316.2,334.7ZM360.4,339.5C364.5,339.5 368,335.8 368,330.8C368,325.8 364.4,322.5 360.4,322.5C356.4,322.5 353.1,325.9 353.1,330.8C353.1,335.6 356.3,339.5 360.4,339.5ZM370.2,343.7L370,342.6C368.2,346.1 362.5,347.7 358.9,347.7C350.3,347.7 343.9,339.9 343.9,330.6C343.9,321.4 350.4,313.8 359.4,313.8C360.9,313.8 366.1,314.2 370.1,318.9L370.3,317.8C370.3,315.8 371.8,314.2 373.8,314.2C375.8,314.2 377.4,315.9 377.4,317.8L377.4,343.6C377.4,345.6 375.8,347.2 373.8,347.2C371.7,347.3 370.2,345.6 370.2,343.7ZM402.7,322.4L401.7,322.4C395.9,322.7 394.8,326 394.8,329.8L394.8,342.6C394.8,345.2 392.7,347.3 390.2,347.3C387.7,347.3 385.6,345.2 385.6,342.6L385.6,317.9C385.6,315.9 387.2,314.3 389.2,314.3C391.2,314.3 392.7,316 392.7,317.9C396.1,314.7 398.9,314 401.7,313.9L402.6,313.9C404.8,313.9 406.8,315.8 406.8,318.2C406.9,320.4 404.9,322.4 402.7,322.4ZM438.2,340.4C438.6,341.1 438.9,341.8 438.9,342.6C438.9,345 436.7,347.2 434.3,347.2C432.7,347.2 431.3,346 430.2,344.6L419.6,332.3L419.6,342.5C419.6,345.1 417.5,347.2 415,347.2C412.5,347.2 410.4,345.1 410.4,342.5L410.4,305C410.4,302.4 412.4,300.3 415,300.3C417.6,300.3 419.6,302.4 419.6,305L419.6,328.4L430.2,316.7C431.3,315.5 432.6,314.2 434.2,314.2C436.5,314.2 438.6,316.3 438.6,318.7C438.6,319.4 438.4,320.2 438,320.8L429.6,330L438.2,340.4ZM456.2,322.5C453.7,322.5 449.6,323.8 449.6,327.7L462.9,327.7C462.8,323.8 458.6,322.5 456.2,322.5ZM468.2,333.6L449.6,333.6C449.6,339.1 454.9,340 457.2,340C458.9,340 461.3,339.7 463.2,338.8C463.8,338.4 464.7,338.1 465.6,338.1C467.6,338.1 469.3,339.8 469.3,341.9C469.3,343.3 468.4,344.5 467.3,345.2C464.5,347.3 460.8,347.8 457.3,347.8C448,347.8 440.3,342.8 440.3,331.1C440.3,321.9 445,313.9 456,313.9C464.9,313.9 471.6,319.7 471.8,330C471.8,331.9 470.2,333.6 468.2,333.6ZM493.8,347.7L491.3,347.7C484.3,347.7 480.2,344.6 480.2,333.7L480.2,322.4L477.8,322.4C475.6,322.4 473.7,320.4 473.7,318.2C473.7,315.8 475.7,313.9 477.8,313.9L480.2,313.9L480.2,305.2C480.2,302.6 482.2,300.5 484.8,300.5C487.3,300.5 489.4,302.6 489.4,305.2L489.4,313.9L493.2,313.9C495.4,313.9 497.3,315.8 497.3,318.2C497.3,320.4 495.3,322.4 493.2,322.4L489.4,322.4L489.4,331.9C489.4,338.2 489.7,339.5 492.5,339.5L493.8,339.5C496,339.5 497.9,341.3 497.9,343.6C497.9,345.8 496,347.7 493.8,347.7ZM538.3,303.9C539.5,304.6 540.6,306.3 540.6,307.8C540.6,310.2 538.6,312.2 536.3,312.2C535.7,312.2 535.2,312 534.7,311.9C532,309.9 528.6,308.6 525,308.6C516.5,308.6 510.7,315.5 510.7,324.1C510.7,332.7 516.6,339.5 525,339.5C529.2,339.5 533,337.8 535.8,335.1C536.5,334.6 537.4,334.3 538.3,334.3C540.6,334.3 542.4,336.1 542.4,338.4C542.4,339.9 541.5,341.2 540.4,341.9C536.3,345.4 530.8,347.7 525.1,347.7C512.1,347.7 501.5,337 501.5,323.8C501.5,310.6 512.1,299.9 525.1,299.9C529.9,299.8 534.6,301.3 538.3,303.9ZM561.6,339.5C565.7,339.5 569.2,335.8 569.2,330.8C569.2,325.8 565.6,322.5 561.6,322.5C557.5,322.5 554.3,325.9 554.3,330.8C554.3,335.6 557.6,339.5 561.6,339.5ZM571.4,343.7L571.2,342.6C569.4,346.1 563.7,347.7 560.1,347.7C551.5,347.7 545.1,339.9 545.1,330.6C545.1,321.4 551.6,313.8 560.6,313.8C562.1,313.8 567.3,314.2 571.3,318.9L571.5,317.8C571.5,315.8 573,314.2 575,314.2C577,314.2 578.6,315.9 578.6,317.8L578.6,343.6C578.6,345.6 577,347.2 575,347.2C572.9,347.3 571.4,345.6 571.4,343.7ZM603.7,339.5C607.8,339.5 611,335.6 611,330.8C611,325.8 607.7,322.5 603.7,322.5C599.6,322.5 596.1,325.8 596.1,330.8C596.1,335.8 599.6,339.5 603.7,339.5ZM596.1,345L596.1,356.7C596.1,359.3 594,361.4 591.5,361.4C589,361.4 586.9,359.3 586.9,356.7L586.9,317.9C586.9,315.9 588.5,314.3 590.5,314.3C592.5,314.3 594,316 594,318.3C597.4,314.8 601.6,313.9 604.8,313.9C613.7,313.9 620.3,321.4 620.3,330.7C620.3,339.9 614,347.8 605.3,347.8C602.6,347.7 598.6,346.9 596.1,345Z" style="fill:rgb(23,24,27);fill-rule:nonzero;"/>
        </g>
    </g>
</svg>
