<?xml version="1.0" standalone="no"?>
<!DOCTYPE svg PUBLIC "-//W3C//DTD SVG 20010904//EN"
 "http://www.w3.org/TR/2001/REC-SVG-20010904/DTD/svg10.dtd">
<svg version="1.0" xmlns="http://www.w3.org/2000/svg"
 width="2670.000000pt" height="450.000000pt" viewBox="0 0 2670.000000 450.000000"
 preserveAspectRatio="xMidYMid meet">

<g transform="translate(0.000000,450.000000) scale(0.100000,-0.100000)"
fill="#000000" stroke="none">
<path d="M2180 4396 c-69 -28 -2004 -928 -2081 -966 -57 -29 -83 -58 -95 -104
-9 -38 4 -92 30 -123 16 -19 178 -103 515 -267 270 -132 491 -242 491 -245 0
-3 -204 -100 -453 -215 -249 -115 -460 -215 -469 -224 -26 -22 -22 -50 11 -70
15 -9 204 -102 419 -207 215 -104 388 -193 384 -196 -4 -3 -176 -84 -382 -179
-476 -219 -503 -233 -524 -265 -37 -56 -29 -140 17 -183 12 -11 481 -244 1042
-518 l1020 -498 65 0 65 0 1010 518 c556 284 1022 529 1037 543 35 33 52 83
43 126 -16 71 -33 82 -467 302 l-415 210 376 193 c207 106 384 201 394 211 42
42 29 50 -435 282 l-441 221 459 234 c252 130 471 247 486 261 35 33 52 83 43
126 -17 79 5 67 -1016 577 -935 468 -960 480 -1016 480 -38 0 -78 -9 -113 -24z
m950 -645 c768 -386 822 -415 799 -426 -13 -7 -415 -213 -892 -458 l-868 -445
-102 50 c-174 86 -1364 666 -1520 740 -81 39 -147 74 -147 78 0 4 84 46 188
94 103 48 525 244 937 436 413 192 757 348 765 347 9 -1 387 -188 840 -416z
m819 -2456 c-2 -1 -403 -208 -891 -458 l-887 -455 -883 430 c-486 237 -885
432 -887 434 -2 2 -2 6 1 9 3 3 183 88 401 189 l397 184 452 -221 c449 -220
454 -222 518 -222 l65 0 480 246 480 246 379 -189 c208 -104 377 -191 375
-193z"/>
<path d="M6760 4310 c-402 -50 -706 -197 -983 -476 -203 -206 -339 -442 -412
-714 -77 -291 -77 -641 0 -946 98 -386 359 -749 695 -967 245 -158 494 -233
815 -244 412 -14 746 79 1018 283 91 68 270 250 265 270 -3 13 -265 234 -277
234 -4 0 -34 -30 -65 -66 -158 -178 -400 -311 -646 -355 -96 -17 -343 -17
-440 0 -245 43 -451 152 -631 331 -255 254 -381 575 -381 968 1 237 43 425
141 627 180 368 492 620 858 691 115 23 339 23 440 1 222 -50 409 -155 545
-307 l53 -60 160 116 c88 63 161 120 163 125 2 5 -41 53 -95 107 -195 196
-439 318 -738 368 -110 18 -383 26 -485 14z"/>
<path d="M11466 4224 c-71 -22 -140 -95 -162 -169 -29 -102 -3 -198 74 -267
50 -46 101 -63 182 -62 177 3 290 162 238 336 -15 49 -78 123 -129 149 -53 27
-142 33 -203 13z"/>
<path d="M15420 2748 c-365 -821 -685 -1541 -711 -1601 l-48 -107 217 0 217 0
165 393 166 392 806 3 805 2 164 -392 165 -393 222 -3 c122 -1 222 1 221 5 0
5 -307 723 -683 1598 l-682 1590 -180 3 -181 2 -663 -1492z m1149 230 c173
-425 316 -779 318 -785 4 -10 -130 -13 -652 -13 -411 0 -655 4 -653 10 18 51
664 1560 668 1560 3 0 147 -348 319 -772z"/>
<path d="M18240 2641 l0 -1601 195 0 195 0 0 719 0 720 438 4 c479 4 490 5
684 71 147 50 238 106 349 216 79 79 103 110 137 180 77 157 106 340 82 526
-26 206 -90 345 -220 474 -135 134 -306 217 -544 262 -103 19 -155 21 -713 25
l-603 5 0 -1601z m1251 1226 c262 -61 407 -220 426 -468 17 -225 -85 -408
-279 -499 -137 -63 -195 -70 -629 -70 l-379 0 0 531 0 531 398 -5 c305 -4 412
-8 463 -20z"/>
<path d="M20947 4233 c-4 -3 -7 -723 -7 -1600 l0 -1593 195 0 195 0 0 1600 0
1600 -188 0 c-104 0 -192 -3 -195 -7z"/>
<path d="M23471 4229 c-159 -48 -234 -229 -157 -378 21 -40 87 -97 132 -112
60 -21 160 -16 217 11 109 51 163 182 127 311 -13 46 -81 124 -131 150 -46 23
-141 32 -188 18z"/>
<path d="M9496 3199 c-501 -53 -881 -402 -967 -889 -18 -105 -16 -325 4 -431
90 -462 427 -794 885 -874 175 -31 431 -15 607 36 224 66 462 240 588 432 239
361 235 881 -8 1259 -60 92 -198 229 -294 293 -220 145 -509 206 -815 174z
m389 -349 c124 -39 203 -87 295 -180 96 -96 149 -180 185 -291 107 -337 9
-711 -239 -911 -133 -107 -271 -152 -466 -152 -153 0 -229 17 -360 81 -80 39
-108 59 -185 137 -74 74 -99 107 -132 176 -60 121 -74 184 -80 346 -4 110 -2
160 12 225 61 302 267 517 560 585 93 21 321 13 410 -16z"/>
<path d="M13355 3199 c-238 -34 -455 -171 -559 -351 -11 -21 -24 -38 -28 -38
-5 0 -8 77 -8 170 l0 170 -171 0 -171 0 6 -97 c3 -54 9 -529 12 -1055 l6 -958
174 0 174 0 0 545 c0 693 10 788 102 975 102 206 295 320 544 320 258 0 393
-93 472 -324 l27 -81 3 -717 3 -718 180 0 180 0 -4 738 c-3 698 -5 742 -24
827 -39 171 -110 302 -221 407 -84 79 -136 110 -249 147 -137 46 -305 61 -448
40z"/>
<path d="M25335 3203 c-254 -30 -393 -77 -561 -189 -329 -218 -502 -598 -463
-1015 45 -485 348 -852 804 -975 93 -26 114 -28 310 -28 181 -1 222 2 301 21
228 54 379 138 544 303 158 158 228 282 282 497 30 118 32 393 5 521 -77 353
-283 619 -594 764 -169 79 -443 123 -628 101z m283 -339 c44 -8 118 -35 172
-61 82 -39 108 -58 186 -138 78 -78 99 -106 137 -186 67 -140 81 -207 81 -379
0 -119 -4 -160 -23 -229 -81 -305 -306 -509 -607 -552 -372 -53 -724 157 -835
499 -27 84 -32 115 -37 233 -5 154 10 253 57 375 87 223 280 387 516 439 83
19 260 18 353 -1z"/>
<path d="M11370 2095 l0 -1055 180 0 180 0 0 1055 0 1055 -180 0 -180 0 0
-1055z"/>
<path d="M23370 2095 l0 -1055 175 0 175 0 0 1055 0 1055 -175 0 -175 0 0
-1055z"/>
<path d="M22242 1524 c-198 -98 -201 -370 -6 -476 109 -59 218 -43 310 44 63
59 89 119 88 198 -1 100 -66 199 -158 241 -64 29 -168 26 -234 -7z"/>
</g>
</svg>
